<svg xmlns="http://www.w3.org/2000/svg" xmlns:xlink="http://www.w3.org/1999/xlink" viewBox="0 0 343.05 319.62"><defs><style>.cls-1{isolation:isolate;}.cls-2{fill:#fff;}.cls-3,.cls-4{fill:#3f92d1;}.cls-3{opacity:0.5;}.cls-5,.cls-8{fill:#92b4d1;}.cls-5{opacity:0.2;}.cls-6{fill:#022652;}.cls-7{fill:#001a46;}.cls-8{mix-blend-mode:multiply;}.cls-9{fill:#2672ab;}.cls-10{fill:url(#linear-gradient);}.cls-11{fill:url(#linear-gradient-2);}.cls-12{fill:url(#linear-gradient-3);}.cls-13{fill:url(#linear-gradient-4);}.cls-14{fill:url(#linear-gradient-5);}.cls-15{fill:url(#linear-gradient-6);}.cls-16{fill:url(#linear-gradient-7);}.cls-17{fill:url(#linear-gradient-8);}.cls-18{fill:url(#linear-gradient-9);}.cls-19{fill:url(#linear-gradient-10);}.cls-20{fill:url(#linear-gradient-11);}.cls-21{fill:#72b5e8;}.cls-22{fill:url(#linear-gradient-12);}.cls-23{fill:url(#linear-gradient-13);}.cls-24{fill:url(#linear-gradient-14);}.cls-25{fill:url(#linear-gradient-15);}.cls-26{fill:url(#linear-gradient-16);}.cls-27{fill:url(#linear-gradient-17);}.cls-28{fill:url(#linear-gradient-18);}.cls-29{fill:url(#linear-gradient-19);}.cls-30{fill:url(#linear-gradient-20);}.cls-31{fill:url(#linear-gradient-21);}.cls-32{fill:#a8cff0;}.cls-33{fill:url(#linear-gradient-22);}.cls-34{fill:url(#linear-gradient-23);}.cls-35{fill:url(#linear-gradient-24);}.cls-36{fill:url(#linear-gradient-25);}.cls-37{fill:url(#linear-gradient-26);}.cls-38{fill:url(#linear-gradient-27);}.cls-39{fill:url(#linear-gradient-28);}.cls-40{fill:url(#linear-gradient-29);}.cls-41{fill:url(#linear-gradient-30);}.cls-42{fill:url(#linear-gradient-31);}.cls-43{fill:url(#linear-gradient-32);}.cls-44{fill:url(#linear-gradient-33);}.cls-45{fill:url(#linear-gradient-34);}.cls-46{fill:url(#linear-gradient-35);}.cls-47{fill:url(#linear-gradient-36);}.cls-48{fill:url(#linear-gradient-37);}.cls-49{fill:url(#linear-gradient-38);}.cls-50{fill:url(#linear-gradient-39);}.cls-51{fill:url(#linear-gradient-40);}.cls-52{fill:url(#linear-gradient-41);}.cls-53{fill:url(#linear-gradient-42);}.cls-54{fill:#d1ebff;}.cls-55{fill:#03336e;}.cls-56{fill:#084c94;}.cls-57{fill:#d62d69;}.cls-58{fill:#3ecfcd;}.cls-59{fill:#0ba19f;}.cls-60{fill:#0fbab8;}.cls-61{fill:#f76195;}.cls-62{fill:#eb4680;}</style><linearGradient id="linear-gradient" x1="9189.26" y1="269.89" x2="9191.3" y2="269.89" gradientTransform="matrix(-1, 0, 0, 1, 9360.23, -30.91)" gradientUnits="userSpaceOnUse"><stop offset="0.1" stop-color="#45108a"/><stop offset="1" stop-color="#7c1dc9"/></linearGradient><linearGradient id="linear-gradient-2" x1="3072.61" y1="261.96" x2="3074.52" y2="261.96" gradientTransform="translate(-2892.58 -30.91)" xlink:href="#linear-gradient"/><linearGradient id="linear-gradient-3" x1="3088.87" y1="263.03" x2="3093.65" y2="263.03" gradientTransform="translate(-2892.58 -30.91)" xlink:href="#linear-gradient"/><linearGradient id="linear-gradient-4" x1="3072.61" y1="268.03" x2="3074.52" y2="268.03" gradientTransform="translate(-2892.58 -30.91)" xlink:href="#linear-gradient"/><linearGradient id="linear-gradient-5" x1="3072.61" y1="261.06" x2="3072.61" y2="261.06" gradientTransform="translate(-2892.58 -30.91)" xlink:href="#linear-gradient"/><linearGradient id="linear-gradient-6" x1="3074.52" y1="263.82" x2="3076.56" y2="263.82" gradientTransform="translate(-2892.58 -30.91)" xlink:href="#linear-gradient"/><linearGradient id="linear-gradient-7" x1="3072.61" y1="265.96" x2="3076.56" y2="265.96" gradientTransform="translate(-2892.58 -30.91)" xlink:href="#linear-gradient"/><linearGradient id="linear-gradient-8" x1="3076.56" y1="266.99" x2="3083.56" y2="266.99" gradientTransform="translate(-2858.39)" xlink:href="#linear-gradient"/><linearGradient id="linear-gradient-9" x1="3086.32" y1="262.52" x2="3088.87" y2="262.52" gradientTransform="translate(-2892.58 -30.91)" xlink:href="#linear-gradient"/><linearGradient id="linear-gradient-10" x1="3086.32" y1="259.81" x2="3093.65" y2="259.81" gradientTransform="translate(-2892.58 -30.91)" xlink:href="#linear-gradient"/><linearGradient id="linear-gradient-11" x1="3093.65" y1="258.31" x2="3096.52" y2="258.31" gradientTransform="translate(-2858.39)" xlink:href="#linear-gradient"/><linearGradient id="linear-gradient-12" x1="2648.51" y1="261.96" x2="2650.42" y2="261.96" gradientTransform="matrix(-1, 0, 0, 1, 2821.97, -30.91)" xlink:href="#linear-gradient"/><linearGradient id="linear-gradient-13" x1="2664.77" y1="263.03" x2="2669.55" y2="263.03" gradientTransform="matrix(-1, 0, 0, 1, 2821.97, -30.91)" xlink:href="#linear-gradient"/><linearGradient id="linear-gradient-14" x1="2648.51" y1="268.03" x2="2650.42" y2="268.03" gradientTransform="matrix(-1, 0, 0, 1, 2821.97, -30.91)" xlink:href="#linear-gradient"/><linearGradient id="linear-gradient-15" x1="2648.51" y1="261.06" x2="2648.51" y2="261.06" gradientTransform="matrix(-1, 0, 0, 1, 2821.97, -30.91)" xlink:href="#linear-gradient"/><linearGradient id="linear-gradient-16" x1="2650.42" y1="263.82" x2="2652.46" y2="263.82" gradientTransform="matrix(-1, 0, 0, 1, 2821.97, -30.91)" xlink:href="#linear-gradient"/><linearGradient id="linear-gradient-17" x1="2648.51" y1="265.96" x2="2652.46" y2="265.96" gradientTransform="matrix(-1, 0, 0, 1, 2821.97, -30.91)" xlink:href="#linear-gradient"/><linearGradient id="linear-gradient-18" x1="2652.46" y1="266.99" x2="2659.46" y2="266.99" gradientTransform="matrix(-1, 0, 0, 1, 2856.16, 0)" xlink:href="#linear-gradient"/><linearGradient id="linear-gradient-19" x1="2662.22" y1="262.52" x2="2664.77" y2="262.52" gradientTransform="matrix(-1, 0, 0, 1, 2821.97, -30.91)" xlink:href="#linear-gradient"/><linearGradient id="linear-gradient-20" x1="2662.22" y1="259.81" x2="2669.55" y2="259.81" gradientTransform="matrix(-1, 0, 0, 1, 2821.97, -30.91)" xlink:href="#linear-gradient"/><linearGradient id="linear-gradient-21" x1="2669.55" y1="258.31" x2="2672.42" y2="258.31" gradientTransform="matrix(-1, 0, 0, 1, 2856.16, 0)" xlink:href="#linear-gradient"/><linearGradient id="linear-gradient-22" x1="9178.37" y1="310.32" x2="9180.99" y2="310.32" xlink:href="#linear-gradient"/><linearGradient id="linear-gradient-23" x1="3086.12" y1="300.11" x2="3088.58" y2="300.11" gradientTransform="translate(-2892.58 -30.91)" xlink:href="#linear-gradient"/><linearGradient id="linear-gradient-24" x1="3107.07" y1="301.48" x2="3113.23" y2="301.48" gradientTransform="translate(-2892.58 -30.91)" xlink:href="#linear-gradient"/><linearGradient id="linear-gradient-25" x1="3086.12" y1="307.93" x2="3088.58" y2="307.93" gradientTransform="translate(-2892.58 -30.91)" xlink:href="#linear-gradient"/><linearGradient id="linear-gradient-26" x1="3086.12" y1="298.95" x2="3086.12" y2="298.95" gradientTransform="translate(-2892.58 -30.91)" xlink:href="#linear-gradient"/><linearGradient id="linear-gradient-27" x1="3088.58" y1="302.5" x2="3091.21" y2="302.5" gradientTransform="translate(-2892.58 -30.91)" xlink:href="#linear-gradient"/><linearGradient id="linear-gradient-28" x1="3086.12" y1="305.25" x2="3091.21" y2="305.25" gradientTransform="translate(-2892.58 -30.91)" xlink:href="#linear-gradient"/><linearGradient id="linear-gradient-29" x1="3091.21" y1="306.58" x2="3100.23" y2="306.58" gradientTransform="translate(-2858.39)" xlink:href="#linear-gradient"/><linearGradient id="linear-gradient-30" x1="3103.79" y1="300.82" x2="3107.07" y2="300.82" gradientTransform="translate(-2892.58 -30.91)" xlink:href="#linear-gradient"/><linearGradient id="linear-gradient-31" x1="3103.79" y1="297.34" x2="3113.23" y2="297.34" gradientTransform="translate(-2892.58 -30.91)" xlink:href="#linear-gradient"/><linearGradient id="linear-gradient-32" x1="3113.23" y1="295.4" x2="3116.93" y2="295.4" gradientTransform="translate(-2858.39)" xlink:href="#linear-gradient"/><linearGradient id="linear-gradient-33" x1="2636.89" y1="300.11" x2="2639.36" y2="300.11" gradientTransform="matrix(-1, 0, 0, 1, 2821.97, -30.91)" xlink:href="#linear-gradient"/><linearGradient id="linear-gradient-34" x1="2657.84" y1="301.48" x2="2664" y2="301.48" gradientTransform="matrix(-1, 0, 0, 1, 2821.97, -30.91)" xlink:href="#linear-gradient"/><linearGradient id="linear-gradient-35" x1="2636.89" y1="307.93" x2="2639.36" y2="307.93" gradientTransform="matrix(-1, 0, 0, 1, 2821.97, -30.91)" xlink:href="#linear-gradient"/><linearGradient id="linear-gradient-36" x1="2636.89" y1="298.95" x2="2636.89" y2="298.95" gradientTransform="matrix(-1, 0, 0, 1, 2821.97, -30.91)" xlink:href="#linear-gradient"/><linearGradient id="linear-gradient-37" x1="2639.36" y1="302.5" x2="2641.98" y2="302.5" gradientTransform="matrix(-1, 0, 0, 1, 2821.97, -30.91)" xlink:href="#linear-gradient"/><linearGradient id="linear-gradient-38" x1="2636.89" y1="305.25" x2="2641.98" y2="305.25" gradientTransform="matrix(-1, 0, 0, 1, 2821.97, -30.91)" xlink:href="#linear-gradient"/><linearGradient id="linear-gradient-39" x1="2641.98" y1="306.58" x2="2651" y2="306.58" gradientTransform="matrix(-1, 0, 0, 1, 2856.16, 0)" xlink:href="#linear-gradient"/><linearGradient id="linear-gradient-40" x1="2654.56" y1="300.82" x2="2657.84" y2="300.82" gradientTransform="matrix(-1, 0, 0, 1, 2821.97, -30.91)" xlink:href="#linear-gradient"/><linearGradient id="linear-gradient-41" x1="2654.56" y1="297.34" x2="2664" y2="297.34" gradientTransform="matrix(-1, 0, 0, 1, 2821.97, -30.91)" xlink:href="#linear-gradient"/><linearGradient id="linear-gradient-42" x1="2664" y1="295.4" x2="2667.7" y2="295.4" gradientTransform="matrix(-1, 0, 0, 1, 2856.16, 0)" xlink:href="#linear-gradient"/></defs><title>app</title><g class="cls-1"><g id="Layer_1" data-name="Layer 1"><path class="cls-2" d="M74.59,335.19a2.33,2.33,0,0,1-.89.72,3.43,3.43,0,0,1-1.62.33,2.88,2.88,0,0,1-2.11-.82,2.82,2.82,0,0,1-.83-2.11v-1.46a2.93,2.93,0,0,1,.78-2.11,2.65,2.65,0,0,1,2-.82,2.87,2.87,0,0,1,1.92.61,2,2,0,0,1,.71,1.54v0h-.92a1.44,1.44,0,0,0-.47-1,1.7,1.7,0,0,0-1.23-.4,1.6,1.6,0,0,0-1.31.61,2.33,2.33,0,0,0-.5,1.55v1.47a2.2,2.2,0,0,0,.56,1.56,1.81,1.81,0,0,0,1.41.61,2.53,2.53,0,0,0,1-.16,1.45,1.45,0,0,0,.55-.36v-1.62H72.07v-.75h2.52Z" transform="translate(-34.19 -30.91)"/><path class="cls-2" d="M80.72,332.84H77.46v2.54h3.76v.76H76.5V329h4.66v.75h-3.7v2.3h3.26Z" transform="translate(-34.19 -30.91)"/><path class="cls-2" d="M87.51,329.78H85.22v6.36h-1v-6.36H82V329h5.53Z" transform="translate(-34.19 -30.91)"/><path class="cls-2" d="M95.41,334.35a1,1,0,0,0-.37-.82,3,3,0,0,0-1.29-.55,4.23,4.23,0,0,1-1.76-.79,1.63,1.63,0,0,1-.64-1.32,1.74,1.74,0,0,1,.68-1.39,2.74,2.74,0,0,1,1.77-.56,2.66,2.66,0,0,1,1.86.64,1.89,1.89,0,0,1,.66,1.49v0H95.4a1.29,1.29,0,0,0-.42-1,1.65,1.65,0,0,0-1.18-.39,1.62,1.62,0,0,0-1.1.33,1,1,0,0,0-.39.84.94.94,0,0,0,.42.78,4,4,0,0,0,1.35.54,3.9,3.9,0,0,1,1.71.82,1.75,1.75,0,0,1,.58,1.34,1.64,1.64,0,0,1-.7,1.39,3.06,3.06,0,0,1-1.84.52,3.15,3.15,0,0,1-1.88-.58,1.75,1.75,0,0,1-.79-1.54v0h.92a1.19,1.19,0,0,0,.5,1,2.13,2.13,0,0,0,1.24.35,2,2,0,0,0,1.16-.3A1,1,0,0,0,95.41,334.35Z" transform="translate(-34.19 -30.91)"/><path class="cls-2" d="M102.84,329.78h-2.29v6.36h-1v-6.36H97.31V329h5.53Z" transform="translate(-34.19 -30.91)"/><path class="cls-2" d="M107.46,334.31h-3l-.67,1.83h-1l2.75-7.11h.83l2.7,7.11h-1Zm-2.68-.81h2.39L106,330.26h0Z" transform="translate(-34.19 -30.91)"/><path class="cls-2" d="M111.29,333.06v3.08h-1V329h2.57a2.69,2.69,0,0,1,1.79.52,1.85,1.85,0,0,1,.61,1.5,1.62,1.62,0,0,1-.28,1,2,2,0,0,1-.84.64,1.5,1.5,0,0,1,.85.62,2,2,0,0,1,.25,1.06V335a2.74,2.74,0,0,0,.07.6.89.89,0,0,0,.26.43v.12h-1a.82.82,0,0,1-.25-.49,4.91,4.91,0,0,1-.05-.67v-.65a1.25,1.25,0,0,0-.34-.92,1.15,1.15,0,0,0-.9-.35Zm0-.76h1.52A1.76,1.76,0,0,0,114,332a1.18,1.18,0,0,0,.36-.94,1.23,1.23,0,0,0-.35-.93,1.53,1.53,0,0,0-1.09-.33h-1.61Z" transform="translate(-34.19 -30.91)"/><path class="cls-2" d="M121.78,329.78h-2.29v6.36h-1v-6.36h-2.28V329h5.53Z" transform="translate(-34.19 -30.91)"/><path class="cls-2" d="M127.29,332.84H124v2.54h3.76v.76h-4.72V329h4.66v.75H124v2.3h3.26Z" transform="translate(-34.19 -30.91)"/><path class="cls-2" d="M129.17,336.14V329h2.18a3,3,0,0,1,2.24.85,3.06,3.06,0,0,1,.85,2.22v1a2.93,2.93,0,0,1-3.09,3.07Zm1-6.36v5.6h1.22a2,2,0,0,0,1.55-.65,2.43,2.43,0,0,0,.57-1.66v-1a2.44,2.44,0,0,0-.57-1.66,2,2,0,0,0-1.55-.65Z" transform="translate(-34.19 -30.91)"/><path class="cls-3" d="M202.15,335.65c-9.27,5.35-23.3,5.93-31.34,1.3v6.1c8,4.63,22.07,4.05,31.34-1.3Z" transform="translate(-34.19 -30.91)"/><path class="cls-4" d="M170.81,337l-71.2-41.11c-3.46-2-5.23-4.65-5.4-7.44,0,1.19,0,5.58,0,5.8,0,2.91,1.84,5.67,5.42,7.74l71.2,41.11Z" transform="translate(-34.19 -30.91)"/><path class="cls-5" d="M170.81,347.4l-71.2-41.1c-8-4.64-7-12.74,2.25-18.1l167.43-96.66c9.27-5.35,23.3-5.93,31.33-1.3l71.2,41.11c8,4.64,7,12.74-2.25,18.09L202.15,346.1C192.88,351.46,178.85,352,170.81,347.4Z" transform="translate(-34.19 -30.91)"/><path class="cls-6" d="M107,280.35l166.8-96.3c6.8-3.93,17.1-4.36,23-1l69.31,40c5.9,3.4,5.16,9.35-1.65,13.28l-166.79,96.3c-6.81,3.92-17.1,4.35-23,.95l-69.32-40C99.45,290.22,100.19,284.28,107,280.35Z" transform="translate(-34.19 -30.91)"/><path class="cls-7" d="M104.69,293.19a16,16,0,0,1,2.3-1.59l166.8-96.3c6.8-3.93,17.1-4.36,23-1l69.31,40c.24.14.45.29.66.43,4.58-3.81,4.48-8.71-.66-11.68l-69.31-40c-5.89-3.4-16.19-3-23,1L107,280.35C100.46,284.12,99.54,289.74,104.69,293.19Z" transform="translate(-34.19 -30.91)"/><path class="cls-8" d="M286.26,284.13,364,238.7c5.52-3.18,5.49-8.37-.07-11.57L296.18,188c-5.56-3.21-14.54-3.23-20.05,0l-77.69,45.43Z" transform="translate(-34.19 -30.91)"/><path class="cls-9" d="M198.59,239.3c-.6.26-1.17.53-1.74.82v-5Z" transform="translate(-34.19 -30.91)"/><polygon class="cls-10" points="170.97 238.02 168.93 239.93 168.93 239.93 170.97 238.02"/><path class="cls-9" d="M235.26,257.29h0l-7.33-1a15.65,15.65,0,0,1-2.07,1.42,22.4,22.4,0,0,1-2.46,1.2l1.77,4.23h0v1l.69-.36a17.83,17.83,0,0,0,2.07-1.42v-6.08Z" transform="translate(-34.19 -30.91)"/><polygon class="cls-11" points="180.03 230.15 180.03 230.15 181.94 231.95 180.03 230.15"/><polygon class="cls-12" points="196.29 231.78 201.07 232.45 201.07 232.45 201.07 232.45 196.29 231.78"/><polygon class="cls-13" points="180.03 236.23 181.94 238.02 180.03 236.23 180.03 236.23"/><polygon class="cls-14" points="180.03 230.15 180.03 230.15 180.03 230.15 180.03 230.15"/><polygon class="cls-15" points="183.98 233.86 181.94 231.95 183.98 233.86 183.98 233.86"/><polygon class="cls-16" points="183.98 233.86 181.94 231.95 180.03 230.15 180.03 230.15 180.03 236.23 180.03 236.23 180.03 236.23 181.94 238.02 183.98 239.93 183.98 233.86"/><polygon class="cls-9" points="183.98 233.86 181.94 231.95 180.03 230.15 180.03 230.15 180.03 236.23 180.03 236.23 180.03 236.23 181.94 238.02 183.98 239.93 183.98 233.86"/><path class="cls-17" d="M225.17,263.11a40.17,40.17,0,0,1-7,1.66v6.08h0l.28-.06a41.82,41.82,0,0,0,6.47-1.53l.25-.07v-5.08h0v-1Z" transform="translate(-34.19 -30.91)"/><path class="cls-4" d="M225.17,263.11a40.17,40.17,0,0,1-7,1.66v6.08h0l.28-.06a41.82,41.82,0,0,0,6.47-1.53l.25-.07v-5.08h0v-1Z" transform="translate(-34.19 -30.91)"/><polygon class="cls-18" points="193.74 231.43 193.74 231.43 196.29 231.78 193.74 231.43 193.74 231.43"/><polygon class="cls-19" points="201.07 226.38 193.74 225.35 193.74 231.43 193.74 231.43 196.29 231.78 201.07 232.45 201.07 226.38"/><polygon class="cls-4" points="201.07 226.38 193.74 225.35 193.74 231.43 193.74 231.43 196.29 231.78 201.07 232.45 201.07 226.38"/><path class="cls-20" d="M238.13,253.25h0a13.39,13.39,0,0,1-2.87,4h0v6.07h0a13.39,13.39,0,0,0,2.87-4v-6.07Z" transform="translate(-34.19 -30.91)"/><path class="cls-9" d="M238.13,253.25h0a13.39,13.39,0,0,1-2.87,4h0v6.07h0a13.39,13.39,0,0,0,2.87-4v-6.07Z" transform="translate(-34.19 -30.91)"/><path class="cls-9" d="M231.69,247.25l.05.23a7.23,7.23,0,0,1,0,3.49l3.32,1.18,3.06-1.09V245l-6.4,2.26Z" transform="translate(-34.19 -30.91)"/><path class="cls-9" d="M223.29,239.3c.6.26,1.17.53,1.73.82v-5Z" transform="translate(-34.19 -30.91)"/><path class="cls-21" d="M238.09,253.15l-6.37-2.25a7.06,7.06,0,0,0,.23-1.83,7.17,7.17,0,0,0-.23-1.83l6.37-2.25a.43.43,0,0,1,0-.07l.08,0a13.39,13.39,0,0,0-2.87-4l-7.33,1a15.65,15.65,0,0,0-2.07-1.42,22.4,22.4,0,0,0-2.46-1.2l1.77-4.23a40.17,40.17,0,0,0-7-1.66l0,0-.12,0-3.89,3.67c-1.05-.09-2.11-.13-3.17-.13s-2.12,0-3.17.13l-3.9-3.67-.12,0-.05,0a40.61,40.61,0,0,0-7,1.66l1.78,4.23a20.77,20.77,0,0,0-2.46,1.2,16.47,16.47,0,0,0-2.08,1.42l-7.32-1a13.61,13.61,0,0,0-2.88,4l.08,0,0,.07,6.36,2.25a7.16,7.16,0,0,0-.22,1.83,7.05,7.05,0,0,0,.22,1.83l-6.36,2.25,0,.07-.08,0a13.61,13.61,0,0,0,2.88,4l7.32-1a16.47,16.47,0,0,0,2.08,1.42,20.77,20.77,0,0,0,2.46,1.2l-1.78,4.23a40.61,40.61,0,0,0,7,1.66l.05,0,.12,0,3.89-3.68c1.06.09,2.12.13,3.18.13s2.12,0,3.17-.13l3.89,3.68.12,0,0,0a40.17,40.17,0,0,0,7-1.66l-1.77-4.23a22.4,22.4,0,0,0,2.46-1.2,15.65,15.65,0,0,0,2.07-1.42l7.33,1a13.39,13.39,0,0,0,2.87-4l-.08,0Zm-19.88.12a16,16,0,0,1-14.54,0c-2-1.16-3-2.68-3-4.2s1-3,3-4.19a15.9,15.9,0,0,1,14.54,0c2,1.16,3,2.68,3,4.19S220.22,252.11,218.21,253.27Z" transform="translate(-34.19 -30.91)"/><path class="cls-4" d="M186.62,257.29h0l7.32-1a16.47,16.47,0,0,0,2.08,1.42,20.77,20.77,0,0,0,2.46,1.2l-1.78,4.23h0v1l-.68-.36a18.89,18.89,0,0,1-2.08-1.42v-6.08Z" transform="translate(-34.19 -30.91)"/><path class="cls-4" d="M214.09,261.07v0c-1,.1-2.1.15-3.15.15s-2.11-.05-3.16-.15v0h-.12v6.08c1.08.09,2.18.14,3.28.13s2.19,0,3.28-.13v-6.08Z" transform="translate(-34.19 -30.91)"/><polygon class="cls-22" points="173.46 230.15 173.46 230.15 171.55 231.95 173.46 230.15"/><polygon class="cls-23" points="157.21 231.78 152.43 232.45 152.43 232.45 152.43 232.45 157.21 231.78"/><polygon class="cls-24" points="173.46 236.23 171.55 238.02 173.46 236.23 173.46 236.23"/><polygon class="cls-25" points="173.46 230.15 173.46 230.15 173.46 230.15 173.46 230.15"/><polygon class="cls-26" points="169.51 233.86 171.55 231.95 169.51 233.86 169.51 233.86"/><polygon class="cls-27" points="169.51 233.86 171.55 231.95 173.46 230.15 173.46 230.15 173.46 236.23 173.46 236.23 173.46 236.23 171.55 238.02 169.51 239.93 169.51 233.86"/><polygon class="cls-9" points="169.51 233.86 171.55 231.95 173.46 230.15 173.46 230.15 173.46 236.23 173.46 236.23 173.46 236.23 171.55 238.02 169.51 239.93 169.51 233.86"/><path class="cls-28" d="M196.7,263.11a40.61,40.61,0,0,0,7,1.66v6.08h0l-.27-.06a41.55,41.55,0,0,1-6.47-1.53l-.26-.07v-5.08h0v-1Z" transform="translate(-34.19 -30.91)"/><path class="cls-4" d="M196.7,263.11a40.61,40.61,0,0,0,7,1.66v6.08h0l-.27-.06a41.55,41.55,0,0,1-6.47-1.53l-.26-.07v-5.08h0v-1Z" transform="translate(-34.19 -30.91)"/><polygon class="cls-29" points="159.75 231.43 159.75 231.43 157.21 231.78 159.75 231.43 159.75 231.43"/><polygon class="cls-30" points="152.43 226.38 159.75 225.35 159.75 231.43 159.75 231.43 157.21 231.78 152.43 232.45 152.43 226.38"/><polygon class="cls-9" points="152.43 226.38 159.75 225.35 159.75 231.43 159.75 231.43 157.21 231.78 152.43 232.45 152.43 226.38"/><path class="cls-31" d="M183.74,253.25h0a13.61,13.61,0,0,0,2.88,4h0v6.07h0a13.61,13.61,0,0,1-2.88-4v-6.07Z" transform="translate(-34.19 -30.91)"/><path class="cls-4" d="M183.74,253.25h0a13.61,13.61,0,0,0,2.88,4h0v6.07h0a13.61,13.61,0,0,1-2.88-4v-6.07Z" transform="translate(-34.19 -30.91)"/><path class="cls-9" d="M190.19,247.25l-.05.23a7,7,0,0,0,0,3.49l-3.32,1.18-3.06-1.09V245l6.4,2.26Z" transform="translate(-34.19 -30.91)"/><path class="cls-9" d="M218.25,244.85a16.33,16.33,0,0,0-14.63,0c-2,1.16-3,2.67-3,4.19a4.27,4.27,0,0,0,1.44,3.1,8.14,8.14,0,0,1,1.59-1.19,15.9,15.9,0,0,1,14.54,0,7.77,7.77,0,0,1,1.58,1.19,4.19,4.19,0,0,0,1.44-3.1C221.24,247.52,220.25,246,218.25,244.85Z" transform="translate(-34.19 -30.91)"/><path class="cls-32" d="M214.46,236.72l3.41-3.22h0l-3.41,3.22Z" transform="translate(-34.19 -30.91)"/><path class="cls-32" d="M232.12,247.15l5.82-2.06a.43.43,0,0,1,0-.07l.08,0c0-.05,0-.1-.08-.16l-5.83,2.06A2,2,0,0,1,232.12,247.15Z" transform="translate(-34.19 -30.91)"/><path class="cls-32" d="M219.69,252.13a4.57,4.57,0,0,0,1.91-3.41c0-1.51-1-3-3-4.19a15.9,15.9,0,0,0-14.54,0,7.64,7.64,0,0,0-1.63,1.23,8,8,0,0,1,1.13-.78,15.9,15.9,0,0,1,14.54,0c2,1.16,3,2.68,3,4.19A4.25,4.25,0,0,1,219.69,252.13Z" transform="translate(-34.19 -30.91)"/><path class="cls-32" d="M198.83,238.91l-1.67-4c-.2.06-.15.15-.35.22l1.44,4Z" transform="translate(-34.19 -30.91)"/><path class="cls-32" d="M183.64,245.09l6.36,2.25a7.38,7.38,0,0,0,0,3.41l.54-.2a7.05,7.05,0,0,1-.22-1.83,7.16,7.16,0,0,1,.22-1.83l-6.36-2.25,0-.07-.08,0a13.53,13.53,0,0,1,2.45-3.58h-.07a13.61,13.61,0,0,0-2.88,4l.08,0Z" transform="translate(-34.19 -30.91)"/><path class="cls-32" d="M228.28,255.91a16.7,16.7,0,0,1-2.07,1.43,24.3,24.3,0,0,1-2.46,1.19l.08.19a19.38,19.38,0,0,0,1.88-.94,15.65,15.65,0,0,0,2.07-1.42l7.33,1c.15-.15.28-.31.43-.46Z" transform="translate(-34.19 -30.91)"/><path class="cls-32" d="M218.52,264.42l-.05,0-.12,0-3.89-3.68c-1.05.09-2.11.13-3.17.13s-2.12,0-3.18-.13l-.47.45c1,.09,2.09.13,3.15.13s2.12,0,3.17-.13l3.89,3.68.12,0,.05,0a40.17,40.17,0,0,0,7-1.66l-.11-.26A40.75,40.75,0,0,1,218.52,264.42Z" transform="translate(-34.19 -30.91)"/><path class="cls-32" d="M204.1,264.38l0,0a40.61,40.61,0,0,1-7-1.66l1.78-4.23a22.4,22.4,0,0,1-2.46-1.19,17.63,17.63,0,0,1-2.08-1.43l-7.32,1a13.73,13.73,0,0,1-2.8-3.88l-.53.19,0,.07-.08,0a13.61,13.61,0,0,0,2.88,4l7.32-1a16.47,16.47,0,0,0,2.08,1.42,20.77,20.77,0,0,0,2.46,1.2l-1.78,4.23a40.61,40.61,0,0,0,7,1.66l0,0,.12,0,.48-.46Z" transform="translate(-34.19 -30.91)"/><path class="cls-9" d="M207.59,270.91c-.77.33-1.51.68-2.23,1v-6.49Z" transform="translate(-34.19 -30.91)"/><polygon class="cls-33" points="181.87 278.18 179.24 280.64 179.24 280.64 181.87 278.18"/><path class="cls-9" d="M254.84,294.09h0l-9.44-1.33a22.45,22.45,0,0,1-2.68,1.84,29.1,29.1,0,0,1-3.17,1.54l2.29,5.45h0v1.29c.3-.15.6-.3.88-.46a22.41,22.41,0,0,0,2.68-1.83v-7.83Z" transform="translate(-34.19 -30.91)"/><polygon class="cls-34" points="193.54 268.04 193.54 268.04 196.01 270.35 193.54 268.04"/><polygon class="cls-35" points="214.49 270.14 220.65 271 220.65 271 220.65 271 214.49 270.14"/><polygon class="cls-36" points="193.54 275.86 196.01 278.18 193.54 275.86 193.54 275.86"/><polygon class="cls-37" points="193.54 268.04 193.54 268.04 193.54 268.04 193.54 268.04"/><polygon class="cls-38" points="198.63 272.82 196.01 270.35 198.63 272.82 198.63 272.82"/><polygon class="cls-39" points="198.63 272.82 196.01 270.35 193.54 268.04 193.54 268.04 193.54 275.86 193.54 275.86 193.54 275.86 196.01 278.18 198.63 280.64 198.63 272.82"/><polygon class="cls-9" points="198.63 272.82 196.01 270.35 193.54 268.04 193.54 268.04 193.54 275.86 193.54 275.86 193.54 275.86 196.01 278.18 198.63 280.64 198.63 272.82"/><path class="cls-40" d="M241.84,301.59a53.12,53.12,0,0,1-9,2.14v7.82h0v0l.35-.09a54.25,54.25,0,0,0,8.34-2l.32-.08v-6.56h0v-1.29Z" transform="translate(-34.19 -30.91)"/><path class="cls-4" d="M241.84,301.59a53.12,53.12,0,0,1-9,2.14v7.82h0v0l.35-.09a54.25,54.25,0,0,0,8.34-2l.32-.08v-6.56h0v-1.29Z" transform="translate(-34.19 -30.91)"/><polygon class="cls-41" points="211.21 269.68 211.21 269.68 214.49 270.14 211.21 269.68 211.21 269.68"/><polygon class="cls-42" points="220.65 263.18 211.21 261.85 211.21 269.68 211.21 269.68 214.49 270.14 220.65 271 220.65 263.18"/><polygon class="cls-4" points="220.65 263.18 211.21 261.85 211.21 269.68 211.21 269.68 214.49 270.14 220.65 271 220.65 263.18"/><path class="cls-43" d="M258.54,288.88h0a17.57,17.57,0,0,1-3.7,5.21h0v7.82h0a17.44,17.44,0,0,0,3.7-5.21v-7.82Z" transform="translate(-34.19 -30.91)"/><path class="cls-9" d="M258.54,288.88h0a17.57,17.57,0,0,1-3.7,5.21h0v7.82h0a17.44,17.44,0,0,0,3.7-5.21v-7.82Z" transform="translate(-34.19 -30.91)"/><path class="cls-9" d="M250.24,281.15l.06.3a9.1,9.1,0,0,1,0,4.49l4.27,1.52,4-1.39v-7.83l-8.25,2.91Z" transform="translate(-34.19 -30.91)"/><path class="cls-9" d="M239.42,270.91c.77.33,1.51.68,2.23,1v-6.49Z" transform="translate(-34.19 -30.91)"/><path class="cls-21" d="M258.49,288.75l-8.21-2.89a9.75,9.75,0,0,0,0-4.72l8.21-2.9a.41.41,0,0,1-.05-.09l.1,0a17.53,17.53,0,0,0-3.7-5.2l-9.44,1.32a21.91,21.91,0,0,0-2.67-1.83,29.1,29.1,0,0,0-3.17-1.55l2.29-5.45a52.5,52.5,0,0,0-9-2.13l-.07.06-.15,0-5,4.73c-1.35-.11-2.72-.16-4.09-.16s-2.73.05-4.09.16l-5-4.73-.16,0-.06-.06a52.28,52.28,0,0,0-9,2.13l2.29,5.45a29.1,29.1,0,0,0-3.17,1.55,20.46,20.46,0,0,0-2.67,1.83l-9.45-1.32a17.53,17.53,0,0,0-3.7,5.2l.11,0a.41.41,0,0,0,0,.09l8.2,2.9a10.09,10.09,0,0,0,0,4.72l-8.2,2.89a.41.41,0,0,0,0,.09l-.11,0a17.57,17.57,0,0,0,3.7,5.21l9.45-1.33a21.53,21.53,0,0,0,2.67,1.84,31,31,0,0,0,3.17,1.54l-2.29,5.45a53.23,53.23,0,0,0,9,2.14l.06-.06.16,0,5-4.73c1.36.11,2.73.17,4.09.16s2.74-.05,4.09-.16l5,4.73.15,0,.07.06a53.12,53.12,0,0,0,9-2.14l-2.29-5.45a29.1,29.1,0,0,0,3.17-1.54,22.45,22.45,0,0,0,2.68-1.84l9.44,1.33a17.57,17.57,0,0,0,3.7-5.21l-.1,0A.41.41,0,0,1,258.49,288.75Zm-25.62.15a20.45,20.45,0,0,1-18.73,0c-2.59-1.49-3.9-3.45-3.92-5.4s1.33-3.91,3.92-5.41a20.53,20.53,0,0,1,18.73,0c2.59,1.5,3.89,3.45,3.91,5.41S235.46,287.41,232.87,288.9Z" transform="translate(-34.19 -30.91)"/><path class="cls-4" d="M192.16,294.09h0l9.45-1.33a21.53,21.53,0,0,0,2.67,1.84,31,31,0,0,0,3.17,1.54l-2.29,5.45h0v1.29c-.29-.15-.6-.3-.88-.46a21.5,21.5,0,0,1-2.67-1.83v-7.83Z" transform="translate(-34.19 -30.91)"/><path class="cls-4" d="M227.57,299v0c-1.35.13-2.71.19-4.07.19s-2.71-.06-4.06-.19v0h-.17v7.82c1.4.13,2.82.18,4.23.18s2.83-.05,4.23-.18V299Z" transform="translate(-34.19 -30.91)"/><polygon class="cls-44" points="185.08 268.04 185.08 268.04 182.62 270.35 185.08 268.04"/><polygon class="cls-45" points="164.13 270.14 157.97 271 157.97 271 157.97 271 164.13 270.14"/><polygon class="cls-46" points="185.08 275.86 182.62 278.18 185.08 275.86 185.08 275.86"/><polygon class="cls-47" points="185.08 268.04 185.08 268.04 185.08 268.04 185.08 268.04"/><polygon class="cls-48" points="179.99 272.82 182.62 270.35 179.99 272.82 179.99 272.82"/><polygon class="cls-49" points="179.99 272.82 182.62 270.35 185.08 268.04 185.08 268.04 185.08 275.86 185.08 275.86 185.08 275.86 182.62 278.18 179.99 280.64 179.99 272.82"/><polygon class="cls-9" points="179.99 272.82 182.62 270.35 185.08 268.04 185.08 268.04 185.08 275.86 185.08 275.86 185.08 275.86 182.62 278.18 179.99 280.64 179.99 272.82"/><path class="cls-50" d="M205.16,301.59a53.23,53.23,0,0,0,9,2.14v7.82h0v0l-.36-.09a54.12,54.12,0,0,1-8.33-2l-.33-.08v-6.56h0v-1.29Z" transform="translate(-34.19 -30.91)"/><path class="cls-4" d="M205.16,301.59a53.23,53.23,0,0,0,9,2.14v7.82h0v0l-.36-.09a54.12,54.12,0,0,1-8.33-2l-.33-.08v-6.56h0v-1.29Z" transform="translate(-34.19 -30.91)"/><polygon class="cls-51" points="167.41 269.68 167.41 269.68 164.13 270.14 167.41 269.68 167.41 269.68"/><polygon class="cls-52" points="157.97 263.18 167.41 261.85 167.41 269.68 167.41 269.68 164.13 270.14 157.97 271 157.97 263.18"/><polygon class="cls-9" points="157.97 263.18 167.41 261.85 167.41 269.68 167.41 269.68 164.13 270.14 157.97 271 157.97 263.18"/><path class="cls-53" d="M188.46,288.88h0a17.57,17.57,0,0,0,3.7,5.21h0v7.82h0a17.44,17.44,0,0,1-3.7-5.21v-7.82Z" transform="translate(-34.19 -30.91)"/><path class="cls-4" d="M188.46,288.88h0a17.57,17.57,0,0,0,3.7,5.21h0v7.82h0a17.44,17.44,0,0,1-3.7-5.21v-7.82Z" transform="translate(-34.19 -30.91)"/><path class="cls-9" d="M196.76,281.15l-.06.3a9.22,9.22,0,0,0,0,4.49l-4.28,1.52-3.94-1.39v-7.83l8.24,2.91Z" transform="translate(-34.19 -30.91)"/><path class="cls-9" d="M232.93,278.06a21,21,0,0,0-18.85,0c-2.58,1.49-3.85,3.44-3.84,5.4a5.42,5.42,0,0,0,1.85,4,10,10,0,0,1,2-1.53,20.45,20.45,0,0,1,18.73,0,10.15,10.15,0,0,1,2,1.53,5.43,5.43,0,0,0,1.86-4C236.78,281.5,235.51,279.55,232.93,278.06Z" transform="translate(-34.19 -30.91)"/><path class="cls-32" d="M228,267.58l4.4-4.15h0l-4.4,4.15Z" transform="translate(-34.19 -30.91)"/><path class="cls-32" d="M250.8,281l7.49-2.65,0-.09.1,0a2.12,2.12,0,0,0-.11-.21l-7.51,2.66C250.76,280.8,250.77,280.91,250.8,281Z" transform="translate(-34.19 -30.91)"/><path class="cls-32" d="M234.77,287.44a5.81,5.81,0,0,0,2.46-4.39c0-2-1.32-3.91-3.91-5.41a20.53,20.53,0,0,0-18.73,0,10.22,10.22,0,0,0-2.1,1.59,11.31,11.31,0,0,1,1.46-1,20.51,20.51,0,0,1,18.72,0c2.6,1.5,3.9,3.45,3.92,5.41A5.45,5.45,0,0,1,234.77,287.44Z" transform="translate(-34.19 -30.91)"/><path class="cls-32" d="M207.9,270.4l-2.15-5.11c-.26.08-.19.19-.45.28l1.85,5.17Z" transform="translate(-34.19 -30.91)"/><path class="cls-32" d="M188.33,278.37l8.2,2.89a9.16,9.16,0,0,0-.29,2.37,9.36,9.36,0,0,0,.23,2l.7-.25a10.09,10.09,0,0,1,0-4.72l-8.2-2.9a.41.41,0,0,1,.05-.09l-.11,0a17.29,17.29,0,0,1,3.15-4.61H192a17.4,17.4,0,0,0-3.7,5.2l.1,0Z" transform="translate(-34.19 -30.91)"/><path class="cls-32" d="M245.85,292.31a22.45,22.45,0,0,1-2.68,1.84,29.1,29.1,0,0,1-3.17,1.54l.11.24a24.82,24.82,0,0,0,2.42-1.21,21.3,21.3,0,0,0,2.68-1.83l9.44,1.33.55-.6Z" transform="translate(-34.19 -30.91)"/><path class="cls-32" d="M233.28,303.28l-.07-.06-.15,0-5-4.73c-1.35.11-2.72.17-4.09.16s-2.73-.05-4.09-.16l-.61.58c1.35.11,2.7.17,4.06.16s2.73-.05,4.09-.16l5,4.73.16,0,.06.06a53,53,0,0,0,9-2.14l-.14-.34A54.5,54.5,0,0,1,233.28,303.28Z" transform="translate(-34.19 -30.91)"/><path class="cls-32" d="M214.69,303.22l-.06.06a53.23,53.23,0,0,1-9-2.14l2.29-5.45a31,31,0,0,1-3.17-1.54,21.53,21.53,0,0,1-2.67-1.84l-9.45,1.33a17.76,17.76,0,0,1-3.59-5l-.69.24,0,.09-.1,0a17.57,17.57,0,0,0,3.7,5.21l9.44-1.33a21.3,21.3,0,0,0,2.68,1.83,27.41,27.41,0,0,0,3.17,1.55L205,301.72a53,53,0,0,0,9,2.14l.06-.06.16,0,.61-.58Z" transform="translate(-34.19 -30.91)"/><path class="cls-54" d="M371.82,220.89l-71.2-41.1c-8-4.64-22.06-4.06-31.33,1.3L101.86,277.75c-9.27,5.35-10.28,13.45-2.25,18.09L170.81,337c8,4.63,22.07,4.05,31.34-1.3L369.57,239C378.85,233.63,379.86,225.53,371.82,220.89Zm-7.38,15.5-166.79,96.3c-6.81,3.92-17.1,4.35-23,.95l-69.32-40c-5.89-3.4-5.15-9.34,1.65-13.27l166.8-96.3c6.8-3.93,17.1-4.36,23-1l69.31,40C372,226.51,371.25,232.46,364.44,236.39Z" transform="translate(-34.19 -30.91)"/><path class="cls-9" d="M377.24,228.32a2.17,2.17,0,0,0-.13-.86c.72,3.92-1.84,8.24-7.54,11.53L202.15,335.65c-9.27,5.35-23.3,5.93-31.34,1.3l-71.2-41.11c-3.46-2-5.23-4.65-5.4-7.44,0,1.2,0,5.58,0,5.8,0,2.91,1.84,5.67,5.42,7.74l71.2,41.11c8,4.63,22.07,4.05,31.34-1.3l167.42-96.66c4.78-2.76,7.36-6.24,7.65-9.61C377.24,235.23,377.25,228.57,377.24,228.32Z" transform="translate(-34.19 -30.91)"/><path class="cls-32" d="M99.61,295l71.2,41.11c8,4.63,22.07,4.05,31.34-1.3l167.42-96.67c4.89-2.81,7.47-6.39,7.66-9.83.2,3.67-2.39,7.6-7.66,10.64L202.15,335.65c-9.27,5.35-23.3,5.93-31.34,1.3l-71.2-41.11c-3.8-2.2-5.57-5.17-5.4-8.26C94.36,290.38,96.14,293,99.61,295Z" transform="translate(-34.19 -30.91)"/><path class="cls-55" d="M365.34,224.41l-69.31-40a18.9,18.9,0,0,0-9.24-2.09,25.19,25.19,0,0,0-12.25,3l-76.06,43.91L285.83,280l77.86-45c3.1-1.79,4.88-4.06,4.88-6.21S366.82,225.26,365.34,224.41ZM107.75,281.65c-3.11,1.79-4.88,4.05-4.88,6.21s1.75,3.61,3.22,4.46l69.32,40a18.89,18.89,0,0,0,9.23,2.1,25.31,25.31,0,0,0,12.26-3.05L234,310,146.6,259.21Z" transform="translate(-34.19 -30.91)"/><polygon class="cls-9" points="164.29 198.35 251.64 249.13 251.64 249.85 164.19 199.1 164.29 198.35"/><path class="cls-56" d="M261.27,209.6l17.23,10c4.76,2.75,13.07,2.4,18.57-.77l14.35-8.29c5.5-3.17,6.1-8,1.34-10.72l-17.24-10c-4.76-2.75-13.07-2.4-18.57.77l-14.35,8.28C257.1,202.05,256.51,206.85,261.27,209.6Z" transform="translate(-34.19 -30.91)"/><path class="cls-56" d="M353.63,223.39l-17.23-9.94c-4.76-2.75-13.08-2.41-18.57.77l-14.36,8.28c-5.49,3.17-6.09,8-1.33,10.72l17.23,9.95c4.76,2.75,13.08,2.41,18.58-.77l14.35-8.28C357.79,230.94,358.39,226.14,353.63,223.39Z" transform="translate(-34.19 -30.91)"/><path class="cls-56" d="M220.43,233.1l17.24,10c4.76,2.75,13.07,2.4,18.57-.77L270.59,234c5.5-3.17,6.09-8,1.33-10.72l-17.23-10c-4.76-2.75-13.08-2.4-18.57.77l-14.35,8.28C216.27,225.55,215.67,230.35,220.43,233.1Z" transform="translate(-34.19 -30.91)"/><path class="cls-56" d="M312.8,246.89,295.56,237c-4.76-2.75-13.07-2.41-18.57.77L262.64,246c-5.5,3.17-6.09,8-1.33,10.72l17.23,9.95c4.76,2.75,13.08,2.41,18.57-.77l14.35-8.28C317,254.44,317.56,249.64,312.8,246.89Z" transform="translate(-34.19 -30.91)"/><path class="cls-56" d="M170.26,281.77,153,271.82c-4.76-2.75-13.07-2.4-18.57.77l-14.35,8.28c-5.5,3.18-6.09,8-1.33,10.73L136,301.55c4.76,2.75,13.07,2.4,18.57-.77l14.35-8.29C174.42,289.32,175,284.52,170.26,281.77Z" transform="translate(-34.19 -30.91)"/><path class="cls-56" d="M211.13,305.39l-17.23-9.94c-4.76-2.75-13.08-2.41-18.57.77L161,304.5c-5.49,3.17-6.09,8-1.33,10.72l17.23,9.95c4.76,2.75,13.08,2.41,18.58-.77l14.35-8.28C215.29,312.94,215.89,308.14,211.13,305.39Z" transform="translate(-34.19 -30.91)"/><path class="cls-7" d="M262.6,201.62,277,193.34c5.5-3.17,13.81-3.52,18.57-.77l17.24,10a6.22,6.22,0,0,1,3,3.31c.71-2.23-.25-4.49-3-6.06l-17.24-10c-4.76-2.75-13.07-2.4-18.57.77l-14.35,8.28c-3.66,2.12-5.13,4.95-4.31,7.42A8.91,8.91,0,0,1,262.6,201.62Z" transform="translate(-34.19 -30.91)"/><path class="cls-7" d="M299.16,229.91a8.9,8.9,0,0,1,4.31-4.66L317.83,217c5.49-3.18,13.81-3.52,18.57-.77l17.23,9.94a6.22,6.22,0,0,1,3,3.31c.71-2.23-.25-4.48-3-6.06l-17.23-9.94c-4.76-2.75-13.08-2.41-18.57.77l-14.36,8.28C299.82,224.61,298.34,227.44,299.16,229.91Z" transform="translate(-34.19 -30.91)"/><path class="cls-7" d="M221.77,225.12l14.35-8.28c5.49-3.17,13.81-3.52,18.57-.77l17.23,10a6.22,6.22,0,0,1,3,3.31c.71-2.23-.25-4.48-3-6.06l-17.23-10c-4.76-2.75-13.08-2.4-18.57.77l-14.35,8.28c-3.66,2.12-5.14,4.95-4.32,7.42A8.93,8.93,0,0,1,221.77,225.12Z" transform="translate(-34.19 -30.91)"/><path class="cls-7" d="M120.1,283.62l14.35-8.28c5.5-3.17,13.81-3.52,18.57-.77l17.24,9.95a6.22,6.22,0,0,1,3,3.31c.71-2.23-.25-4.49-3-6.06L153,271.82c-4.76-2.75-13.07-2.4-18.57.77l-14.35,8.28c-3.66,2.12-5.13,4.95-4.31,7.42A8.91,8.91,0,0,1,120.1,283.62Z" transform="translate(-34.19 -30.91)"/><path class="cls-7" d="M312.8,246.89,295.56,237c-4.76-2.75-13.07-2.41-18.57.77L262.64,246c-3.66,2.11-5.13,4.94-4.31,7.41a8.86,8.86,0,0,1,4.31-4.66L277,240.47c5.5-3.18,13.81-3.52,18.57-.77l17.24,9.94a6.22,6.22,0,0,1,3,3.31C316.49,250.72,315.53,248.47,312.8,246.89Z" transform="translate(-34.19 -30.91)"/><path class="cls-7" d="M211.13,305.39l-17.23-9.94c-4.76-2.75-13.08-2.41-18.57.77L161,304.5c-3.65,2.11-5.13,4.94-4.31,7.41a8.9,8.9,0,0,1,4.31-4.66L175.33,299c5.49-3.18,13.81-3.52,18.57-.77l17.23,9.94a6.22,6.22,0,0,1,3,3.31C214.82,309.22,213.86,307,211.13,305.39Z" transform="translate(-34.19 -30.91)"/><path class="cls-21" d="M278.7,216.76l-17.11-9.88c-4.73-2.73-4.14-7.5,1.32-10.65L277.17,188c5.45-3.15,13.71-3.49,18.44-.76l17.11,9.88c4.73,2.73,4.14,7.49-1.32,10.65L297.15,216C291.69,219.15,283.43,219.49,278.7,216.76Z" transform="translate(-34.19 -30.91)"/><path class="cls-57" d="M258.42,202h0v.22C258.41,202.11,258.42,202,258.42,202Z" transform="translate(-34.19 -30.91)"/><path class="cls-9" d="M311.4,207.77,297.15,216c-5.46,3.16-13.72,3.5-18.45.77l-17.11-9.88c-2-1.18-3.08-2.73-3.18-4.37v2.39c-.13,1.85.91,3.63,3.18,4.93l17.11,9.89c4.73,2.73,13,2.38,18.45-.77l14.25-8.23c2.82-1.63,4.34-3.69,4.5-5.67h0V205a3,3,0,0,0,0-.6V202h0C315.79,204,314.28,206.1,311.4,207.77Z" transform="translate(-34.19 -30.91)"/><path class="cls-57" d="M258.42,202h0v.22C258.41,202.11,258.42,202,258.42,202Z" transform="translate(-34.19 -30.91)"/><path class="cls-4" d="M278.7,216.76l-17.11-9.88c-2-1.18-3.08-2.73-3.18-4.37v2.39c-.13,1.85.91,3.63,3.18,4.93l17.11,9.89Z" transform="translate(-34.19 -30.91)"/><path class="cls-2" d="M311.4,207l-14.25,8.22c-5.46,3.16-13.72,3.5-18.45.77l-17.11-9.88a5.64,5.64,0,0,1-3.17-4.26c-.16,1.87.87,3.68,3.17,5l17.11,9.88c4.73,2.73,13,2.39,18.45-.77l14.25-8.22c3.16-1.83,4.68-4.19,4.49-6.39C315.71,203.35,314.2,205.4,311.4,207Z" transform="translate(-34.19 -30.91)"/><path class="cls-2" d="M300.84,201.88l-15.17-8.76a3.72,3.72,0,0,0-3.36,0l-8.9,5.13a1,1,0,0,0,0,1.94l9.48,5.48,0,5.46,4.71-2.72.95.54a3.72,3.72,0,0,0,3.36,0l8.9-5.14A1,1,0,0,0,300.84,201.88Zm-17.71-2.12c-1,0-1.79-.47-1.79-1s.79-1,1.78-1,1.78.46,1.79,1S284.11,199.76,283.13,199.76Zm4.11,2.37c-1,0-1.79-.47-1.79-1s.79-1,1.78-1,1.78.46,1.78,1S288.22,202.13,287.24,202.13Zm4.11,2.37c-1,0-1.79-.46-1.79-1s.79-1,1.78-1,1.78.47,1.78,1S292.33,204.5,291.35,204.5Z" transform="translate(-34.19 -30.91)"/><path class="cls-58" d="M319.41,240.18l-17.11-9.89c-4.73-2.72-4.14-7.49,1.32-10.64l14.25-8.23c5.46-3.15,13.72-3.5,18.45-.77l17.11,9.88c4.73,2.73,4.14,7.5-1.32,10.65l-14.25,8.23C332.4,242.56,324.14,242.9,319.41,240.18Z" transform="translate(-34.19 -30.91)"/><path class="cls-57" d="M299.13,225.38h0v.22A1.55,1.55,0,0,1,299.13,225.38Z" transform="translate(-34.19 -30.91)"/><path class="cls-59" d="M352.11,231.18l-14.25,8.23c-5.46,3.15-13.72,3.49-18.45.77l-17.11-9.89c-2-1.17-3.08-2.72-3.18-4.36v2.39c-.13,1.84.91,3.62,3.18,4.93l17.11,9.88c4.73,2.73,13,2.39,18.45-.76l14.25-8.23c2.82-1.63,4.34-3.69,4.5-5.68h0v0c0-.2,0-.41,0-.61v-2.43h0C356.5,227.4,355,229.52,352.11,231.18Z" transform="translate(-34.19 -30.91)"/><path class="cls-57" d="M299.13,225.38h0v.22A1.55,1.55,0,0,1,299.13,225.38Z" transform="translate(-34.19 -30.91)"/><path class="cls-60" d="M319.41,240.18l-17.11-9.89c-2-1.17-3.08-2.72-3.18-4.36v2.39c-.13,1.84.91,3.62,3.18,4.93l17.11,9.88Z" transform="translate(-34.19 -30.91)"/><path class="cls-2" d="M352.11,230.43l-14.25,8.23c-5.46,3.15-13.72,3.49-18.45.77l-17.11-9.89a5.62,5.62,0,0,1-3.17-4.26c-.16,1.88.87,3.69,3.17,5l17.11,9.89c4.73,2.72,13,2.38,18.45-.77l14.25-8.23c3.16-1.82,4.68-4.19,4.49-6.39C356.42,226.77,354.91,228.81,352.11,230.43Z" transform="translate(-34.19 -30.91)"/><path class="cls-61" d="M237.79,226.68l-17.12-9.89c-4.72-2.72-4.13-7.49,1.33-10.64l14.25-8.23c5.46-3.15,13.72-3.5,18.44-.77L271.81,207c4.72,2.73,4.13,7.5-1.33,10.65l-14.25,8.23C250.77,229.06,242.51,229.4,237.79,226.68Z" transform="translate(-34.19 -30.91)"/><path class="cls-57" d="M217.5,211.88h0v0Z" transform="translate(-34.19 -30.91)"/><path class="cls-57" d="M270.48,217.68l-14.25,8.23c-5.46,3.15-13.72,3.49-18.44.77l-17.12-9.89c-2-1.17-3.07-2.72-3.17-4.36v5.43c-.14,1.85.91,3.63,3.17,4.93l17.12,9.89c4.72,2.73,13,2.38,18.44-.77l14.25-8.23c2.82-1.63,4.34-3.69,4.5-5.67h0v0a3,3,0,0,0,0-.6v-5.48h0C274.88,213.9,273.37,216,270.48,217.68Z" transform="translate(-34.19 -30.91)"/><path class="cls-57" d="M217.5,211.88h0v0Z" transform="translate(-34.19 -30.91)"/><path class="cls-62" d="M237.79,226.68l-17.12-9.89c-2-1.17-3.07-2.72-3.17-4.36v5.43c-.14,1.85.91,3.63,3.17,4.93l17.12,9.89Z" transform="translate(-34.19 -30.91)"/><path class="cls-2" d="M270.48,216.93l-14.25,8.23c-5.46,3.15-13.72,3.49-18.44.77L220.67,216a5.61,5.61,0,0,1-3.16-4.26c-.17,1.88.86,3.69,3.16,5l17.12,9.89c4.72,2.72,13,2.38,18.44-.77l14.25-8.23c3.16-1.82,4.68-4.19,4.49-6.39C274.8,213.27,273.29,215.31,270.48,216.93Z" transform="translate(-34.19 -30.91)"/><path class="cls-2" d="M244.5,220.54l-13.58-7.84a.76.76,0,0,1,0-1.45l2.53-1.46a7.75,7.75,0,0,1,6-.4,12.12,12.12,0,0,0,3.89.67,1.39,1.39,0,0,0,.72-.16.54.54,0,0,0,.33-.45,3.56,3.56,0,0,1,.59-1.95.93.93,0,0,1,.27-1.49,3.47,3.47,0,0,1,2.11-.41,9.26,9.26,0,0,1,9.27.08c2.91,1.67,2.95,3.47.14,5.35.16.39-.1.86-.72,1.22a3.84,3.84,0,0,1-2.58.15,16.69,16.69,0,0,1-3.38.34,1.58,1.58,0,0,0-.78.19.48.48,0,0,0-.28.42,3.34,3.34,0,0,0,1.17,2.25c1.2,1.12.91,2.55-.69,3.48L247,220.55A2.81,2.81,0,0,1,244.5,220.54Z" transform="translate(-34.19 -30.91)"/><path class="cls-9" d="M276.11,219.75a.5.5,0,0,1-.5-.5v-8.41l-29.75-28.06a.5.5,0,0,1,.69-.73l30.06,28.36v8.84A.5.5,0,0,1,276.11,219.75Z" transform="translate(-34.19 -30.91)"/><path class="cls-21" d="M250,172a7.52,7.52,0,0,0-3.4-5.87,2.36,2.36,0,0,0-2.46-.21l-1,.58.67,1.13c0,.06,0,.12,0,.19a7.5,7.5,0,0,0,3.4,5.87l.26.13.55.93.72-.44A2.2,2.2,0,0,0,250,172Z" transform="translate(-34.19 -30.91)"/><path class="cls-32" d="M249,172.52c0,2.16-1.53,3-3.41,1.94a7.51,7.51,0,0,1-3.4-5.86c0-2.16,1.53-3,3.4-1.94A7.49,7.49,0,0,1,249,172.52Z" transform="translate(-34.19 -30.91)"/><path class="cls-21" d="M252,136a10.72,10.72,0,0,0-4.88-8.41,3.35,3.35,0,0,0-3.52-.3l-1.45.83.95,1.61c0,.1,0,.18,0,.28a10.72,10.72,0,0,0,4.88,8.41l.37.19.78,1.34,1-.64C251.32,138.91,252,137.75,252,136Z" transform="translate(-34.19 -30.91)"/><path class="cls-32" d="M250.67,136.76c0,3.1-2.19,4.34-4.88,2.79a10.76,10.76,0,0,1-4.88-8.42c0-3.09,2.18-4.33,4.88-2.78A10.76,10.76,0,0,1,250.67,136.76Z" transform="translate(-34.19 -30.91)"/><path class="cls-9" d="M246.46,174.83a3.69,3.69,0,0,1-1.84-.55,8.43,8.43,0,0,1-3.8-6.53L239,132.6a5.79,5.79,0,0,1,0-.61c0-2.61,1.36-4.29,3.46-4.29a5.24,5.24,0,0,1,2.65.8,12.37,12.37,0,0,1,5.62,9.68q0,.33,0,.63l-1.78,33.1C248.91,173.67,248,174.83,246.46,174.83Zm-4-46.13C241,128.7,240,130,240,132c0,.19,0,.37,0,.54l1.79,35.2a7.42,7.42,0,0,0,3.3,5.68,2.73,2.73,0,0,0,1.34.42c.91,0,1.46-.73,1.47-2l1.78-33.13a5.55,5.55,0,0,0,0-.56,11.3,11.3,0,0,0-5.12-8.82A4.47,4.47,0,0,0,242.47,128.7Z" transform="translate(-34.19 -30.91)"/><path class="cls-7" d="M247.83,184.93a5.58,5.58,0,0,1-3.13-4.56c0-2.64,2.57-1.57,2.57-2.87v-2.76l-1.93-1.11v3c-1.62-.28-2.75.95-2.53,3.21a8.8,8.8,0,0,0,3.36,5.81c1.34.94,2.55,1,3.34.45.2-.14-.06-.67-.32-.68A3.08,3.08,0,0,1,247.83,184.93Z" transform="translate(-34.19 -30.91)"/><path class="cls-55" d="M247.34,185.13a5.58,5.58,0,0,1-3.13-4.56c0-2.64,2.57-1.57,2.57-2.87v-2.76l-1.93-1.11v2.95c-1.62-.28-2.75.95-2.54,3.21a8.81,8.81,0,0,0,3.37,5.81c1.33.94,2.55,1,3.34.45.19-.14-.06-.67-.32-.68A3,3,0,0,1,247.34,185.13Z" transform="translate(-34.19 -30.91)"/><path class="cls-21" d="M249.59,137.31a10.72,10.72,0,0,0-4.88-8.41,3.35,3.35,0,0,0-3.52-.3l-1.45.83.95,1.61c0,.1,0,.18,0,.28a10.72,10.72,0,0,0,4.88,8.41l.37.19.78,1.34,1-.64C248.87,140.25,249.59,139.09,249.59,137.31Z" transform="translate(-34.19 -30.91)"/><ellipse class="cls-32" cx="243.34" cy="135.29" rx="3.97" ry="6.88" transform="translate(-69.21 110.39) rotate(-30.31)"/><path class="cls-55" d="M246.05,136.85c0,1.72-1.22,2.41-2.71,1.55a6,6,0,0,1-2.71-4.68c0-1.71,1.21-2.41,2.71-1.54A6,6,0,0,1,246.05,136.85Z" transform="translate(-34.19 -30.91)"/><path class="cls-21" d="M248.28,172.9a7.48,7.48,0,0,0-3.4-5.86,2.36,2.36,0,0,0-2.46-.21l-1,.58.67,1.12c0,.07,0,.13,0,.19a7.48,7.48,0,0,0,3.4,5.87l.26.14.55.93.72-.44A2.21,2.21,0,0,0,248.28,172.9Z" transform="translate(-34.19 -30.91)"/><path class="cls-32" d="M247.32,173.46c0,2.16-1.52,3-3.4,1.94a7.51,7.51,0,0,1-3.41-5.87c0-2.16,1.53-3,3.41-1.94A7.48,7.48,0,0,1,247.32,173.46Z" transform="translate(-34.19 -30.91)"/><path class="cls-55" d="M245.81,172.59c0,1.19-.85,1.68-1.89,1.07A4.14,4.14,0,0,1,242,170.4c0-1.19.84-1.68,1.89-1.07A4.17,4.17,0,0,1,245.81,172.59Z" transform="translate(-34.19 -30.91)"/><path class="cls-9" d="M246.2,235.78a.5.5,0,0,1-.5-.5V182.41a.51.51,0,0,1,.5-.5.5.5,0,0,1,.5.5v52.87A.5.5,0,0,1,246.2,235.78Z" transform="translate(-34.19 -30.91)"/><path class="cls-9" d="M216.37,219.75a.51.51,0,0,1-.5-.5v-8.84l.16-.15,29.91-28.21a.5.5,0,1,1,.69.73l-29.76,28.06v8.41A.5.5,0,0,1,216.37,219.75Z" transform="translate(-34.19 -30.91)"/><polygon class="cls-9" points="84.34 56.25 105.4 44.15 105.4 40.06 84.34 52.17 84.34 56.25"/><polygon class="cls-4" points="71.97 48.97 84.35 56.25 84.35 52.17 71.97 44.91 71.97 48.97"/><polygon class="cls-21" points="71.97 44.91 84.35 52.17 105.4 40.06 93 32.78 71.97 44.91"/><polygon class="cls-9" points="84.34 51.09 105.4 38.98 105.4 34.9 84.34 47.01 84.34 51.09"/><polygon class="cls-4" points="71.97 43.81 84.35 51.09 84.35 47.01 71.97 39.74 71.97 43.81"/><polygon class="cls-21" points="71.97 39.74 84.35 47.01 105.4 34.9 93 27.62 71.97 39.74"/><polygon class="cls-9" points="84.34 46.05 105.4 33.95 105.4 29.86 84.34 41.97 84.34 46.05"/><polygon class="cls-4" points="71.97 38.77 84.35 46.05 84.35 41.97 71.97 34.71 71.97 38.77"/><polygon class="cls-21" points="71.97 34.71 84.35 41.97 105.4 29.86 93 22.59 71.97 34.71"/><polygon class="cls-9" points="84.34 40.79 105.4 28.68 105.4 24.6 84.34 36.71 84.34 40.79"/><polygon class="cls-4" points="71.97 33.51 84.35 40.79 84.35 36.71 71.97 29.44 71.97 33.51"/><polygon class="cls-21" points="71.97 29.44 84.35 36.71 105.4 24.6 93 17.32 71.97 29.44"/><polygon class="cls-5" points="80.82 189.02 116.06 209.54 151.77 188.99 116.5 168.45 80.82 189.02"/><polygon class="cls-9" points="116.05 207.65 150.84 187.65 150.84 184.45 116.05 204.46 116.05 207.65"/><polygon class="cls-4" points="81.76 187.65 116.06 207.65 116.06 204.46 81.76 184.48 81.76 187.65"/><polygon class="cls-54" points="81.76 184.48 116.06 204.46 150.84 184.45 116.49 164.45 81.76 184.48"/><polygon class="cls-2" points="81.76 184.48 116.06 204.46 150.84 184.45 116.18 203.78 81.76 184.48"/><polygon class="cls-21" points="116.14 197.31 137.2 185.21 137.2 181.12 116.14 193.23 116.14 197.31"/><polygon class="cls-32" points="95.39 185.21 116.16 197.31 116.16 193.23 95.39 181.14 95.39 185.21"/><polygon class="cls-54" points="95.39 181.14 116.16 193.23 137.2 181.12 116.42 169.02 95.39 181.14"/><polygon class="cls-2" points="95.39 181.14 116.16 193.23 137.2 181.12 116.22 192.43 95.39 181.14"/><polygon class="cls-21" points="128.95 67.28 128.95 69.74 131.1 68.5 131.1 66.04 128.95 67.28"/><polygon class="cls-32" points="128.96 67.28 128.96 69.74 116.09 62.31 116.09 59.85 128.96 67.28"/><polygon class="cls-54" points="116.09 59.85 128.96 67.28 131.1 66.04 118.22 58.61 116.09 59.85"/><polygon class="cls-21" points="128.95 87.11 128.95 89.57 131.1 88.34 131.1 85.87 128.95 87.11"/><polygon class="cls-32" points="128.96 87.11 128.96 89.57 116.09 82.14 116.09 79.69 128.96 87.11"/><polygon class="cls-54" points="116.09 79.69 128.96 87.11 131.1 85.87 118.22 78.44 116.09 79.69"/><polygon class="cls-21" points="128.95 106.86 128.95 109.33 131.1 108.09 131.1 105.63 128.95 106.86"/><polygon class="cls-32" points="128.96 106.86 128.96 109.33 116.09 101.89 116.09 99.44 128.96 106.86"/><polygon class="cls-54" points="116.09 99.44 128.96 106.86 131.1 105.63 118.22 98.2 116.09 99.44"/><polygon class="cls-21" points="128.95 126.55 128.95 129.01 131.1 127.78 131.1 125.31 128.95 126.55"/><polygon class="cls-32" points="128.96 126.55 128.96 129.01 116.09 121.58 116.09 119.13 128.96 126.55"/><polygon class="cls-54" points="116.09 119.13 128.96 126.55 131.1 125.31 118.22 117.88 116.09 119.13"/><polygon class="cls-21" points="128.95 146.38 128.95 148.85 131.1 147.61 131.1 145.15 128.95 146.38"/><polygon class="cls-32" points="128.96 146.38 128.96 148.85 116.09 141.41 116.09 138.96 128.96 146.38"/><polygon class="cls-54" points="116.09 138.96 128.96 146.38 131.1 145.15 118.22 137.72 116.09 138.96"/><polygon class="cls-21" points="128.95 166.14 128.95 168.6 131.1 167.36 131.1 164.9 128.95 166.14"/><polygon class="cls-32" points="128.96 166.14 128.96 168.6 116.09 161.17 116.09 158.71 128.96 166.14"/><polygon class="cls-54" points="116.09 158.71 128.96 166.14 131.1 164.9 118.22 157.47 116.09 158.71"/><polygon class="cls-21" points="103.31 47.59 103.31 50.05 101.16 48.82 101.16 46.36 103.31 47.59"/><polygon class="cls-21" points="103.3 47.59 103.3 50.05 116.16 42.62 116.16 40.17 103.3 47.59"/><polygon class="cls-54" points="116.16 40.17 103.3 47.59 101.16 46.36 114.03 38.92 116.16 40.17"/><polygon class="cls-21" points="128.95 47.59 128.95 50.05 131.1 48.82 131.1 46.36 128.95 47.59"/><polygon class="cls-32" points="128.96 47.59 128.96 50.05 116.09 42.62 116.09 40.17 128.96 47.59"/><polygon class="cls-54" points="116.09 40.17 128.96 47.59 131.1 46.36 118.22 38.92 116.09 40.17"/><polygon class="cls-21" points="131.1 21.96 131.1 182.47 133.25 181.23 133.25 20.72 131.1 21.96"/><polygon class="cls-32" points="131.11 21.96 131.11 182.47 128.98 181.23 128.98 20.73 131.11 21.96"/><polygon class="cls-54" points="128.98 20.73 131.11 21.96 133.25 20.72 131.11 19.48 128.98 20.73"/><polygon class="cls-21" points="118.24 56.37 118.24 58.83 116.09 57.59 116.09 55.13 118.24 56.37"/><polygon class="cls-21" points="118.24 56.37 118.24 58.83 131.1 51.4 131.1 48.94 118.24 56.37"/><polygon class="cls-54" points="131.1 48.94 118.24 56.37 116.09 55.13 128.97 47.7 131.1 48.94"/><polygon class="cls-21" points="78.15 23.68 78.15 26.15 76 24.91 76 22.45 78.15 23.68"/><polygon class="cls-21" points="78.14 23.68 78.14 26.15 85.15 21.93 85.15 19.48 78.14 23.68"/><polygon class="cls-54" points="85.15 19.48 78.14 23.68 76 22.45 83.02 18.23 85.15 19.48"/><polygon class="cls-21" points="85.15 11.26 85.15 19.46 87.3 18.23 87.3 10.02 85.15 11.26"/><polygon class="cls-32" points="85.15 11.26 85.15 19.46 83.02 18.23 83.02 10.03 85.15 11.26"/><polygon class="cls-54" points="83.02 10.03 85.15 11.26 87.3 10.02 85.15 8.79 83.02 10.03"/><polygon class="cls-21" points="225.54 100.87 225.54 103.33 227.69 102.09 227.69 99.63 225.54 100.87"/><polygon class="cls-32" points="225.55 100.87 225.55 103.33 82.82 20.52 82.82 18.06 225.55 100.87"/><polygon class="cls-54" points="82.82 18.06 225.55 100.87 227.69 99.63 84.95 16.82 82.82 18.06"/><polygon class="cls-21" points="102.87 37.91 102.87 40.37 100.72 39.14 100.72 36.67 102.87 37.91"/><polygon class="cls-21" points="102.86 37.91 102.86 40.37 109.87 36.16 109.87 33.7 102.86 37.91"/><polygon class="cls-54" points="109.87 33.7 102.86 37.91 100.72 36.67 107.74 32.46 109.87 33.7"/><polygon class="cls-21" points="109.86 25.58 109.86 33.78 112.01 32.55 112.01 24.34 109.86 25.58"/><polygon class="cls-32" points="109.87 25.58 109.87 33.78 107.74 32.55 107.74 24.35 109.87 25.58"/><polygon class="cls-54" points="107.74 24.35 109.87 25.58 112.01 24.34 109.87 23.1 107.74 24.35"/><polygon class="cls-21" points="90.55 30.86 90.55 33.32 88.4 32.08 88.4 29.62 90.55 30.86"/><polygon class="cls-21" points="90.54 30.86 90.54 33.32 97.55 29.1 97.55 26.65 90.54 30.86"/><polygon class="cls-54" points="97.55 26.65 90.54 30.86 88.4 29.62 95.42 25.41 97.55 26.65"/><polygon class="cls-21" points="97.55 18.43 97.55 26.64 99.69 25.4 99.69 17.19 97.55 18.43"/><polygon class="cls-32" points="97.55 18.43 97.55 26.64 95.42 25.4 95.42 17.2 97.55 18.43"/><polygon class="cls-54" points="95.42 17.2 97.55 18.43 99.69 17.19 97.55 15.96 95.42 17.2"/><polygon class="cls-21" points="189.26 88.07 189.26 90.53 187.11 89.3 187.11 86.83 189.26 88.07"/><polygon class="cls-21" points="189.25 88.07 189.25 90.53 196.26 86.32 196.26 83.86 189.25 88.07"/><polygon class="cls-54" points="196.26 83.86 189.25 88.07 187.11 86.83 194.13 82.62 196.26 83.86"/><polygon class="cls-21" points="196.26 75.73 196.26 83.94 198.41 82.71 198.41 74.5 196.26 75.73"/><polygon class="cls-32" points="196.26 75.73 196.26 83.94 194.13 82.71 194.13 74.5 196.26 75.73"/><polygon class="cls-54" points="194.13 74.5 196.26 75.73 198.41 74.5 196.26 73.26 194.13 74.5"/><polygon class="cls-21" points="176.94 81.01 176.94 83.47 174.79 82.24 174.79 79.78 176.94 81.01"/><polygon class="cls-21" points="176.94 81.01 176.94 83.47 183.94 79.26 183.94 76.81 176.94 81.01"/><polygon class="cls-54" points="183.94 76.81 176.94 81.01 174.79 79.78 181.81 75.56 183.94 76.81"/><polygon class="cls-21" points="183.94 68.68 183.94 76.89 186.09 75.65 186.09 67.44 183.94 68.68"/><polygon class="cls-32" points="183.94 68.68 183.94 76.89 181.81 75.65 181.81 67.45 183.94 68.68"/><polygon class="cls-54" points="181.81 67.45 183.94 68.68 186.09 67.44 183.94 66.2 181.81 67.45"/><polygon class="cls-21" points="164.54 73.84 164.54 76.3 162.4 75.07 162.4 72.61 164.54 73.84"/><polygon class="cls-21" points="164.54 73.84 164.54 76.3 171.55 72.09 171.55 69.64 164.54 73.84"/><polygon class="cls-54" points="171.55 69.64 164.54 73.84 162.4 72.61 169.42 68.39 171.55 69.64"/><polygon class="cls-21" points="171.54 61.51 171.54 69.72 173.69 68.48 173.69 60.27 171.54 61.51"/><polygon class="cls-32" points="171.55 61.51 171.55 69.72 169.42 68.48 169.42 60.28 171.55 61.51"/><polygon class="cls-54" points="169.42 60.28 171.55 61.51 173.69 60.27 171.55 59.03 169.42 60.28"/><polygon class="cls-21" points="152.22 66.59 152.22 69.06 150.08 67.82 150.08 65.36 152.22 66.59"/><polygon class="cls-21" points="152.22 66.59 152.22 69.06 159.23 64.84 159.23 62.39 152.22 66.59"/><polygon class="cls-54" points="159.23 62.39 152.22 66.59 150.08 65.36 157.1 61.15 159.23 62.39"/><polygon class="cls-21" points="159.22 54.26 159.22 62.47 161.37 61.23 161.37 53.02 159.22 54.26"/><polygon class="cls-32" points="159.23 54.26 159.23 62.47 157.1 61.23 157.1 53.03 159.23 54.26"/><polygon class="cls-54" points="157.1 53.03 159.23 54.26 161.37 53.02 159.23 51.79 157.1 53.03"/><polygon class="cls-21" points="139.83 59.42 139.83 61.89 137.68 60.65 137.68 58.19 139.83 59.42"/><polygon class="cls-21" points="139.82 59.42 139.82 61.89 146.83 57.67 146.83 55.22 139.82 59.42"/><polygon class="cls-54" points="146.83 55.22 139.82 59.42 137.68 58.19 144.7 53.97 146.83 55.22"/><polygon class="cls-21" points="146.83 47.09 146.83 55.3 148.97 54.06 148.97 45.85 146.83 47.09"/><polygon class="cls-32" points="146.83 47.09 146.83 55.3 144.7 54.06 144.7 45.86 146.83 47.09"/><polygon class="cls-54" points="144.7 45.86 146.83 47.09 148.97 45.85 146.83 44.62 144.7 45.86"/><polygon class="cls-21" points="127.51 52.37 127.51 54.83 125.36 53.59 125.36 51.13 127.51 52.37"/><polygon class="cls-21" points="127.5 52.37 127.5 54.83 134.51 50.62 134.51 48.16 127.5 52.37"/><polygon class="cls-54" points="134.51 48.16 127.5 52.37 125.36 51.13 132.38 46.92 134.51 48.16"/><polygon class="cls-21" points="134.5 40.03 134.5 48.24 136.65 47 136.65 38.8 134.5 40.03"/><polygon class="cls-32" points="134.51 40.03 134.51 48.24 132.38 47 132.38 38.8 134.51 40.03"/><polygon class="cls-54" points="132.38 38.8 134.51 40.03 136.65 38.8 134.51 37.56 132.38 38.8"/><polygon class="cls-21" points="115.11 45.2 115.11 47.66 112.96 46.42 112.96 43.96 115.11 45.2"/><polygon class="cls-21" points="115.11 45.2 115.11 47.66 122.11 43.45 122.11 40.99 115.11 45.2"/><polygon class="cls-54" points="122.11 40.99 115.11 45.2 112.96 43.96 119.98 39.75 122.11 40.99"/><polygon class="cls-21" points="122.11 32.86 122.11 41.07 124.26 39.83 124.26 31.63 122.11 32.86"/><polygon class="cls-32" points="122.11 32.86 122.11 41.07 119.98 39.83 119.98 31.63 122.11 32.86"/><polygon class="cls-54" points="119.98 31.63 122.11 32.86 124.26 31.63 122.11 30.39 119.98 31.63"/><polygon class="cls-21" points="201.66 95.24 201.66 97.7 199.51 96.47 199.51 94 201.66 95.24"/><polygon class="cls-21" points="201.65 95.24 201.65 97.7 208.66 93.49 208.66 91.03 201.65 95.24"/><polygon class="cls-54" points="208.66 91.03 201.65 95.24 199.51 94 206.53 89.79 208.66 91.03"/><polygon class="cls-21" points="216.5 106.24 216.5 108.71 218.65 107.47 218.65 105.01 216.5 106.24"/><polygon class="cls-32" points="216.51 106.24 216.51 108.71 73.93 26.05 73.93 23.59 216.51 106.24"/><polygon class="cls-54" points="73.93 23.59 216.51 106.24 218.65 105.01 76.06 22.35 73.93 23.59"/><polygon class="cls-21" points="208.66 82.91 208.66 91.11 210.8 89.88 210.8 81.67 208.66 82.91"/><polygon class="cls-32" points="208.66 82.91 208.66 91.11 206.53 89.88 206.53 81.68 208.66 82.91"/><polygon class="cls-54" points="206.53 81.68 208.66 82.91 210.8 81.67 208.66 80.43 206.53 81.68"/><polygon class="cls-21" points="215.82 84.62 215.82 87.08 217.96 85.84 217.96 83.38 215.82 84.62"/><polygon class="cls-32" points="215.82 84.62 215.82 87.08 82.97 9.92 82.97 7.46 215.82 84.62"/><polygon class="cls-54" points="82.97 7.46 215.82 84.62 217.96 83.38 85.1 6.22 82.97 7.46"/><polygon class="cls-21" points="218.53 105.02 218.53 107.49 216.39 106.25 216.39 103.79 218.53 105.02"/><polygon class="cls-21" points="218.53 105.02 218.53 107.49 225.54 103.27 225.54 100.82 218.53 105.02"/><polygon class="cls-54" points="225.54 100.82 218.53 105.02 216.39 103.79 223.41 99.57 225.54 100.82"/><polygon class="cls-21" points="215.79 84.65 225.54 100.86 227.69 99.62 217.93 83.41 215.79 84.65"/><polygon class="cls-32" points="215.79 84.65 225.55 100.86 223.42 99.62 213.66 83.42 215.79 84.65"/><rect class="cls-9" x="182.68" y="22.22" width="1" height="140.33" transform="translate(-22.92 173.44) rotate(-59.84)"/><polygon class="cls-21" points="199.59 88.25 199.59 96.46 201.73 95.23 201.73 87.02 199.59 88.25"/><polygon class="cls-32" points="199.59 88.25 199.59 96.46 197.46 95.23 197.46 87.03 199.59 88.25"/><polygon class="cls-54" points="197.46 87.03 199.59 88.25 201.73 87.02 199.59 85.78 197.46 87.03"/><polygon class="cls-21" points="201.66 84.66 201.66 87.12 199.51 85.88 199.51 83.42 201.66 84.66"/><polygon class="cls-21" points="201.65 84.66 201.65 87.12 208.66 82.9 208.66 80.45 201.65 84.66"/><polygon class="cls-54" points="208.66 80.45 201.65 84.66 199.51 83.42 206.53 79.21 208.66 80.45"/><polygon class="cls-21" points="187.19 81.08 187.19 89.29 189.34 88.06 189.34 79.85 187.19 81.08"/><polygon class="cls-32" points="187.2 81.08 187.2 89.29 185.07 88.06 185.07 79.85 187.2 81.08"/><polygon class="cls-54" points="185.07 79.85 187.2 81.08 189.34 79.85 187.2 78.61 185.07 79.85"/><polygon class="cls-21" points="189.26 77.48 189.26 79.95 187.11 78.71 187.11 76.25 189.26 77.48"/><polygon class="cls-21" points="189.25 77.48 189.25 79.95 196.26 75.73 196.26 73.28 189.25 77.48"/><polygon class="cls-54" points="196.26 73.28 189.25 77.48 187.11 76.25 194.13 72.03 196.26 73.28"/><polygon class="cls-21" points="174.87 74.03 174.87 82.23 177.02 81 177.02 72.79 174.87 74.03"/><polygon class="cls-32" points="174.88 74.03 174.88 82.23 172.75 81 172.75 72.8 174.88 74.03"/><polygon class="cls-54" points="172.75 72.8 174.88 74.03 177.02 72.79 174.88 71.56 172.75 72.8"/><polygon class="cls-21" points="176.94 70.43 176.94 72.89 174.79 71.65 174.79 69.19 176.94 70.43"/><polygon class="cls-21" points="176.94 70.43 176.94 72.89 183.94 68.68 183.94 66.22 176.94 70.43"/><polygon class="cls-54" points="183.94 66.22 176.94 70.43 174.79 69.19 181.81 64.98 183.94 66.22"/><polygon class="cls-21" points="162.47 66.86 162.47 75.06 164.62 73.83 164.62 65.62 162.47 66.86"/><polygon class="cls-32" points="162.48 66.86 162.48 75.06 160.35 73.83 160.35 65.63 162.48 66.86"/><polygon class="cls-54" points="160.35 65.63 162.48 66.86 164.62 65.62 162.48 64.38 160.35 65.63"/><polygon class="cls-21" points="164.54 63.26 164.54 65.72 162.4 64.48 162.4 62.02 164.54 63.26"/><polygon class="cls-21" points="164.54 63.26 164.54 65.72 171.55 61.51 171.55 59.05 164.54 63.26"/><polygon class="cls-54" points="171.55 59.05 164.54 63.26 162.4 62.02 169.42 57.81 171.55 59.05"/><polygon class="cls-21" points="150.15 59.61 150.15 67.82 152.3 66.58 152.3 58.37 150.15 59.61"/><polygon class="cls-32" points="150.16 59.61 150.16 67.82 148.03 66.58 148.03 58.38 150.16 59.61"/><polygon class="cls-54" points="148.03 58.38 150.16 59.61 152.3 58.37 150.16 57.14 148.03 58.38"/><polygon class="cls-21" points="152.22 56.01 152.22 58.47 150.08 57.24 150.08 54.77 152.22 56.01"/><polygon class="cls-21" points="152.22 56.01 152.22 58.47 159.23 54.26 159.23 51.8 152.22 56.01"/><polygon class="cls-54" points="159.23 51.8 152.22 56.01 150.08 54.77 157.1 50.56 159.23 51.8"/><polygon class="cls-21" points="137.76 52.44 137.76 60.65 139.9 59.41 139.9 51.2 137.76 52.44"/><polygon class="cls-32" points="137.76 52.44 137.76 60.65 135.63 59.41 135.63 51.21 137.76 52.44"/><polygon class="cls-54" points="135.63 51.21 137.76 52.44 139.9 51.2 137.76 49.97 135.63 51.21"/><polygon class="cls-21" points="139.83 48.84 139.83 51.3 137.68 50.06 137.68 47.6 139.83 48.84"/><polygon class="cls-21" points="139.82 48.84 139.82 51.3 146.83 47.09 146.83 44.63 139.82 48.84"/><polygon class="cls-54" points="146.83 44.63 139.82 48.84 137.68 47.6 144.7 43.39 146.83 44.63"/><polygon class="cls-21" points="125.44 45.38 125.44 53.59 127.58 52.35 127.58 44.15 125.44 45.38"/><polygon class="cls-32" points="125.44 45.38 125.44 53.59 123.31 52.35 123.31 44.15 125.44 45.38"/><polygon class="cls-54" points="123.31 44.15 125.44 45.38 127.58 44.15 125.44 42.91 123.31 44.15"/><polygon class="cls-21" points="127.51 41.78 127.51 44.24 125.36 43.01 125.36 40.55 127.51 41.78"/><polygon class="cls-21" points="127.5 41.78 127.5 44.24 134.51 40.03 134.51 37.58 127.5 41.78"/><polygon class="cls-54" points="134.51 37.58 127.5 41.78 125.36 40.55 132.38 36.33 134.51 37.58"/><polygon class="cls-21" points="113.04 38.21 113.04 46.42 115.19 45.18 115.19 36.98 113.04 38.21"/><polygon class="cls-32" points="113.05 38.21 113.05 46.42 110.92 45.18 110.92 36.98 113.05 38.21"/><polygon class="cls-54" points="110.92 36.98 113.05 38.21 115.19 36.98 113.05 35.74 110.92 36.98"/><polygon class="cls-21" points="115.11 34.61 115.11 37.07 112.96 35.84 112.96 33.38 115.11 34.61"/><polygon class="cls-21" points="115.11 34.61 115.11 37.07 122.11 32.86 122.11 30.41 115.11 34.61"/><polygon class="cls-54" points="122.11 30.41 115.11 34.61 112.96 33.38 119.98 29.16 122.11 30.41"/><polygon class="cls-21" points="100.8 30.93 100.8 39.13 102.94 37.9 102.94 29.69 100.8 30.93"/><polygon class="cls-32" points="100.8 30.93 100.8 39.13 98.67 37.9 98.67 29.7 100.8 30.93"/><polygon class="cls-54" points="98.67 29.7 100.8 30.93 102.94 29.69 100.8 28.45 98.67 29.7"/><polygon class="cls-21" points="102.87 27.33 102.87 29.79 100.72 28.55 100.72 26.09 102.87 27.33"/><polygon class="cls-21" points="102.86 27.33 102.86 29.79 109.87 25.57 109.87 23.12 102.86 27.33"/><polygon class="cls-54" points="109.87 23.12 102.86 27.33 100.72 26.09 107.74 21.88 109.87 23.12"/><polygon class="cls-21" points="88.48 23.78 88.48 31.99 90.62 30.75 90.62 22.54 88.48 23.78"/><polygon class="cls-32" points="88.48 23.78 88.48 31.99 86.35 30.75 86.35 22.55 88.48 23.78"/><polygon class="cls-54" points="86.35 22.55 88.48 23.78 90.62 22.54 88.48 21.3 86.35 22.55"/><polygon class="cls-21" points="90.55 20.27 90.55 22.73 88.4 21.5 88.4 19.03 90.55 20.27"/><polygon class="cls-21" points="90.54 20.27 90.54 22.73 97.55 18.52 97.55 16.06 90.54 20.27"/><polygon class="cls-54" points="97.55 16.06 90.54 20.27 88.4 19.03 95.42 14.82 97.55 16.06"/><polygon class="cls-21" points="76.08 16.61 76.08 24.82 78.23 23.58 78.23 15.37 76.08 16.61"/><polygon class="cls-32" points="76.09 16.61 76.09 24.82 73.95 23.58 73.95 15.38 76.09 16.61"/><polygon class="cls-54" points="73.95 15.38 76.09 16.61 78.23 15.37 76.09 14.13 73.95 15.38"/><polygon class="cls-21" points="78.15 12.92 78.15 15.38 76 14.14 76 11.68 78.15 12.92"/><polygon class="cls-21" points="78.14 12.92 78.14 15.38 85.15 11.16 85.15 8.71 78.14 12.92"/><polygon class="cls-54" points="85.15 8.71 78.14 12.92 76 11.68 83.02 7.47 85.15 8.71"/><polygon class="cls-21" points="206.78 90 206.78 92.46 208.92 91.22 208.92 88.76 206.78 90"/><polygon class="cls-32" points="206.78 90 206.78 92.46 73.93 15.29 73.93 12.84 206.78 90"/><polygon class="cls-54" points="73.93 12.84 206.78 90 208.92 88.76 76.06 11.6 73.93 12.84"/><polygon class="cls-21" points="206.77 90.02 216.56 106.32 218.71 105.09 208.91 88.78 206.77 90.02"/><polygon class="cls-32" points="206.77 90.02 216.57 106.32 214.44 105.09 204.64 88.79 206.77 90.02"/><polygon class="cls-21" points="116.17 5.1 116.17 173.82 118.32 172.59 118.32 3.87 116.17 5.1"/><polygon class="cls-32" points="116.17 5.1 116.17 173.82 114.04 172.59 114.04 3.87 116.17 5.1"/><polygon class="cls-54" points="114.04 3.87 116.17 5.1 118.32 3.87 116.17 2.63 114.04 3.87"/><polygon class="cls-21" points="103.31 67.28 103.31 69.74 101.16 68.5 101.16 66.04 103.31 67.28"/><polygon class="cls-21" points="103.3 67.28 103.3 69.74 116.16 62.31 116.16 59.85 103.3 67.28"/><polygon class="cls-54" points="116.16 59.85 103.3 67.28 101.16 66.04 114.03 58.61 116.16 59.85"/><polygon class="cls-21" points="103.31 87.11 103.31 89.57 101.16 88.34 101.16 85.87 103.31 87.11"/><polygon class="cls-21" points="103.3 87.11 103.3 89.57 116.16 82.14 116.16 79.69 103.3 87.11"/><polygon class="cls-54" points="116.16 79.69 103.3 87.11 101.16 85.87 114.03 78.44 116.16 79.69"/><polygon class="cls-21" points="103.31 106.86 103.31 109.33 101.16 108.09 101.16 105.63 103.31 106.86"/><polygon class="cls-21" points="103.3 106.86 103.3 109.33 116.16 101.89 116.16 99.44 103.3 106.86"/><polygon class="cls-54" points="116.16 99.44 103.3 106.86 101.16 105.63 114.03 98.2 116.16 99.44"/><polygon class="cls-21" points="103.31 126.55 103.31 129.01 101.16 127.78 101.16 125.31 103.31 126.55"/><polygon class="cls-21" points="103.3 126.55 103.3 129.01 116.16 121.58 116.16 119.13 103.3 126.55"/><polygon class="cls-54" points="116.16 119.13 103.3 126.55 101.16 125.31 114.03 117.88 116.16 119.13"/><polygon class="cls-21" points="103.31 146.38 103.31 148.85 101.16 147.61 101.16 145.15 103.31 146.38"/><polygon class="cls-21" points="103.3 146.38 103.3 148.85 116.16 141.41 116.16 138.96 103.3 146.38"/><polygon class="cls-54" points="116.16 138.96 103.3 146.38 101.16 145.15 114.03 137.72 116.16 138.96"/><polygon class="cls-21" points="103.31 166.14 103.31 168.6 101.16 167.36 101.16 164.9 103.31 166.14"/><polygon class="cls-21" points="103.3 166.14 103.3 168.6 116.16 161.17 116.16 158.71 103.3 166.14"/><polygon class="cls-54" points="116.16 158.71 103.3 166.14 101.16 164.9 114.03 157.47 116.16 158.71"/><polygon class="cls-21" points="101.17 13.56 101.17 182.49 103.31 181.25 103.31 12.32 101.17 13.56"/><polygon class="cls-32" points="101.17 13.56 101.17 182.49 99.04 181.25 99.04 12.33 101.17 13.56"/><polygon class="cls-54" points="99.04 12.33 101.17 13.56 103.31 12.32 101.17 11.09 99.04 12.33"/><polygon class="cls-21" points="114.02 174.91 114.02 177.38 116.16 176.14 116.16 173.68 114.02 174.91"/><polygon class="cls-32" points="114.02 174.91 114.02 177.38 101.16 169.94 101.16 167.49 114.02 174.91"/><polygon class="cls-54" points="101.16 167.49 114.02 174.91 116.16 173.68 103.29 166.25 101.16 167.49"/><polygon class="cls-21" points="114.02 172.41 114.02 174.88 116.16 173.64 116.16 171.18 114.02 172.41"/><polygon class="cls-32" points="114.02 172.41 114.02 174.88 101.16 152.81 101.16 150.35 114.02 172.41"/><polygon class="cls-54" points="101.16 150.35 114.02 172.41 116.16 171.18 103.29 149.11 101.16 150.35"/><polygon class="cls-21" points="114.02 155.16 114.02 157.62 116.16 156.39 116.16 153.92 114.02 155.16"/><polygon class="cls-32" points="114.02 155.16 114.02 157.62 101.16 150.19 101.16 147.73 114.02 155.16"/><polygon class="cls-54" points="101.16 147.73 114.02 155.16 116.16 153.92 103.29 146.49 101.16 147.73"/><polygon class="cls-21" points="118.24 174.91 118.24 177.38 116.09 176.14 116.09 173.68 118.24 174.91"/><polygon class="cls-21" points="118.24 174.91 118.24 177.38 131.1 169.94 131.1 167.49 118.24 174.91"/><polygon class="cls-54" points="131.1 167.49 118.24 174.91 116.09 173.68 128.97 166.25 131.1 167.49"/><polygon class="cls-21" points="118.24 174.91 118.24 177.38 116.09 176.14 116.09 173.68 118.24 174.91"/><polygon class="cls-21" points="118.24 174.91 118.24 177.38 131.1 152.73 131.1 150.27 118.24 174.91"/><polygon class="cls-54" points="131.1 150.27 118.24 174.91 116.09 173.68 128.97 149.03 131.1 150.27"/><polygon class="cls-21" points="118.24 155.16 118.24 157.62 116.09 156.39 116.09 153.92 118.24 155.16"/><polygon class="cls-21" points="118.24 155.16 118.24 157.62 131.1 150.19 131.1 147.73 118.24 155.16"/><polygon class="cls-54" points="131.1 147.73 118.24 155.16 116.09 153.92 128.97 146.49 131.1 147.73"/><polygon class="cls-21" points="118.24 152.79 118.24 155.25 116.09 154.02 116.09 151.55 118.24 152.79"/><polygon class="cls-21" points="118.24 152.79 118.24 155.25 131.1 130.6 131.1 128.15 118.24 152.79"/><polygon class="cls-54" points="131.1 128.15 118.24 152.79 116.09 151.55 128.97 126.9 131.1 128.15"/><polygon class="cls-21" points="118.24 135.33 118.24 137.79 116.09 136.56 116.09 134.09 118.24 135.33"/><polygon class="cls-21" points="118.24 135.33 118.24 137.79 131.1 130.36 131.1 127.9 118.24 135.33"/><polygon class="cls-54" points="131.1 127.9 118.24 135.33 116.09 134.09 128.97 126.66 131.1 127.9"/><polygon class="cls-21" points="114.02 76.06 114.02 78.52 116.16 77.28 116.16 74.82 114.02 76.06"/><polygon class="cls-32" points="114.02 76.06 114.02 78.52 101.16 71.08 101.16 68.63 114.02 76.06"/><polygon class="cls-54" points="101.16 68.63 114.02 76.06 116.16 74.82 103.29 67.39 101.16 68.63"/><polygon class="cls-21" points="118.24 76.06 118.24 78.52 116.09 77.28 116.09 74.82 118.24 76.06"/><polygon class="cls-21" points="118.24 76.06 118.24 78.52 131.1 71.08 131.1 68.63 118.24 76.06"/><polygon class="cls-54" points="131.1 68.63 118.24 76.06 116.09 74.82 128.97 67.39 131.1 68.63"/><polygon class="cls-21" points="114.02 56.37 114.02 58.83 116.16 57.59 116.16 55.13 114.02 56.37"/><polygon class="cls-32" points="114.02 56.37 114.02 58.83 101.16 51.4 101.16 48.94 114.02 56.37"/><polygon class="cls-54" points="101.16 48.94 114.02 56.37 116.16 55.13 103.29 47.7 101.16 48.94"/><polygon class="cls-21" points="121.4 5.7 121.4 8.16 123.55 6.93 123.55 4.46 121.4 5.7"/><polygon class="cls-32" points="121.41 5.7 121.41 8.16 113.94 3.7 113.94 1.24 121.41 5.7"/><polygon class="cls-54" points="113.94 1.24 121.41 5.7 123.55 4.46 116.07 0 113.94 1.24"/><polygon class="cls-21" points="121.37 5.73 131.13 21.94 133.27 20.7 123.52 4.5 121.37 5.73"/><polygon class="cls-32" points="121.38 5.73 131.13 21.94 129 20.7 119.25 4.5 121.38 5.73"/><polygon class="cls-21" points="103.31 9.99 103.31 12.46 101.16 11.22 101.16 8.76 103.31 9.99"/><polygon class="cls-21" points="103.3 9.99 103.3 12.46 116.16 5.02 116.16 2.57 103.3 9.99"/><polygon class="cls-54" points="116.16 2.57 103.3 9.99 101.16 8.76 114.03 1.33 116.16 2.57"/><polygon class="cls-21" points="118.18 29.37 118.18 31.83 116.04 30.6 116.04 28.13 118.18 29.37"/><polygon class="cls-21" points="118.18 29.37 118.18 31.83 131.04 24.4 131.04 21.94 118.18 29.37"/><polygon class="cls-54" points="131.04 21.94 118.18 29.37 116.04 28.13 128.91 20.7 131.04 21.94"/><polygon class="cls-21" points="118.24 132.91 118.24 135.38 116.09 134.14 116.09 131.68 118.24 132.91"/><polygon class="cls-21" points="118.24 132.91 118.24 135.38 131.1 110.73 131.1 108.27 118.24 132.91"/><polygon class="cls-54" points="131.1 108.27 118.24 132.91 116.09 131.68 128.97 107.03 131.1 108.27"/><polygon class="cls-21" points="118.24 115.64 118.24 118.1 116.09 116.87 116.09 114.41 118.24 115.64"/><polygon class="cls-21" points="118.24 115.64 118.24 118.1 131.1 110.67 131.1 108.22 118.24 115.64"/><polygon class="cls-54" points="131.1 108.22 118.24 115.64 116.09 114.41 128.97 106.97 131.1 108.22"/><polygon class="cls-21" points="118.24 113.21 118.24 115.67 116.09 114.43 116.09 111.97 118.24 113.21"/><polygon class="cls-21" points="118.24 113.21 118.24 115.67 131.1 91.02 131.1 88.56 118.24 113.21"/><polygon class="cls-54" points="131.1 88.56 118.24 113.21 116.09 111.97 128.97 87.32 131.1 88.56"/><polygon class="cls-21" points="118.24 95.89 118.24 98.35 116.09 97.11 116.09 94.65 118.24 95.89"/><polygon class="cls-21" points="118.24 95.89 118.24 98.35 131.1 90.92 131.1 88.46 118.24 95.89"/><polygon class="cls-54" points="131.1 88.46 118.24 95.89 116.09 94.65 128.97 87.22 131.1 88.46"/><polygon class="cls-21" points="118.24 93.62 118.24 96.09 116.09 94.85 116.09 92.39 118.24 93.62"/><polygon class="cls-21" points="118.24 93.62 118.24 96.09 131.1 71.44 131.1 68.98 118.24 93.62"/><polygon class="cls-54" points="131.1 68.98 118.24 93.62 116.09 92.39 128.97 67.74 131.1 68.98"/><polygon class="cls-21" points="114.02 152.66 114.02 155.13 116.16 153.89 116.16 151.43 114.02 152.66"/><polygon class="cls-32" points="114.02 152.66 114.02 155.13 101.16 133.06 101.16 130.6 114.02 152.66"/><polygon class="cls-54" points="101.16 130.6 114.02 152.66 116.16 151.43 103.29 129.36 101.16 130.6"/><polygon class="cls-21" points="114.02 135.33 114.02 137.79 116.16 136.56 116.16 134.09 114.02 135.33"/><polygon class="cls-32" points="114.02 135.33 114.02 137.79 101.16 130.36 101.16 127.9 114.02 135.33"/><polygon class="cls-54" points="101.16 127.9 114.02 135.33 116.16 134.09 103.29 126.66 101.16 127.9"/><polygon class="cls-21" points="114.02 132.91 114.02 135.38 116.16 134.14 116.16 131.68 114.02 132.91"/><polygon class="cls-32" points="114.02 132.91 114.02 135.38 101.16 113.31 101.16 110.85 114.02 132.91"/><polygon class="cls-54" points="101.16 110.85 114.02 132.91 116.16 131.68 103.29 109.61 101.16 110.85"/><polygon class="cls-21" points="114.02 115.64 114.02 118.1 116.16 116.87 116.16 114.41 114.02 115.64"/><polygon class="cls-32" points="114.02 115.64 114.02 118.1 101.16 110.67 101.16 108.22 114.02 115.64"/><polygon class="cls-54" points="101.16 108.22 114.02 115.64 116.16 114.41 103.29 106.97 101.16 108.22"/><polygon class="cls-21" points="114.02 113.17 114.02 115.63 116.16 114.39 116.16 111.93 114.02 113.17"/><polygon class="cls-32" points="114.02 113.17 114.02 115.63 101.16 93.56 101.16 91.1 114.02 113.17"/><polygon class="cls-54" points="101.16 91.1 114.02 113.17 116.16 111.93 103.29 89.86 101.16 91.1"/><polygon class="cls-21" points="114.02 95.89 114.02 98.35 116.16 97.11 116.16 94.65 114.02 95.89"/><polygon class="cls-32" points="114.02 95.89 114.02 98.35 101.16 90.92 101.16 88.46 114.02 95.89"/><polygon class="cls-54" points="101.16 88.46 114.02 95.89 116.16 94.65 103.29 87.22 101.16 88.46"/><polygon class="cls-21" points="114.02 93.5 114.02 95.96 116.16 94.72 116.16 92.26 114.02 93.5"/><polygon class="cls-32" points="114.02 93.5 114.02 95.96 101.16 73.89 101.16 71.44 114.02 93.5"/><polygon class="cls-54" points="101.16 71.44 114.02 93.5 116.16 92.26 103.29 70.19 101.16 71.44"/><polygon class="cls-21" points="116.17 30.65 116.17 191.15 118.32 189.92 118.32 29.41 116.17 30.65"/><polygon class="cls-32" points="116.17 30.65 116.17 191.15 114.04 189.92 114.04 29.42 116.17 30.65"/><polygon class="cls-54" points="114.04 29.42 116.17 30.65 118.32 29.41 116.17 28.18 114.04 29.42"/><polygon class="cls-32" points="118.39 82.47 91.33 66.85 91.33 39.76 109.25 50.1 118.39 74.14 118.39 82.47"/><polygon class="cls-21" points="118.39 74.14 118.39 82.47 135.34 72.8 135.34 64.46 118.39 74.14"/><polygon class="cls-21" points="126.2 40.43 109.25 50.1 118.39 74.14 135.34 64.46 126.2 40.43"/><polygon class="cls-7" points="110.38 53.08 118.39 74.14 135.34 64.46 127.29 43.3 110.38 53.08"/><polygon class="cls-55" points="135.34 64.46 121.34 46.74 115.57 50.08 135.34 64.46"/><polygon class="cls-54" points="108.28 30.09 91.33 39.76 109.25 50.1 126.2 40.43 108.28 30.09"/><polygon class="cls-2" points="109.24 49.43 91.33 39.76 109.25 50.1 126.2 40.43 109.24 49.43"/><polygon class="cls-55" points="98.03 45.93 98.03 62.43 118.39 74.19 118.39 74.14 110.37 53.06 98.03 45.93"/><polygon class="cls-7" points="98.65 62.24 98.65 46.3 98.03 45.93 98.03 62.43 118.39 74.19 118.39 74.14 118.15 73.5 98.65 62.24"/><polygon class="cls-21" points="108.56 13.12 108.56 15.58 106.41 14.35 106.41 11.88 108.56 13.12"/><polygon class="cls-21" points="108.55 13.12 108.55 15.58 121.41 8.15 121.41 5.69 108.55 13.12"/><polygon class="cls-54" points="121.41 5.69 108.55 13.12 106.41 11.88 119.28 4.45 121.41 5.69"/><polygon class="cls-21" points="106.53 14.33 106.53 16.79 108.67 15.55 108.67 13.09 106.53 14.33"/><polygon class="cls-32" points="106.53 14.33 106.53 16.79 99.07 12.33 99.07 9.87 106.53 14.33"/><polygon class="cls-54" points="99.07 9.87 106.53 14.33 108.67 13.09 101.2 8.63 99.07 9.87"/><polygon class="cls-21" points="106.52 14.35 116.31 30.66 118.46 29.42 108.66 13.11 106.52 14.35"/><polygon class="cls-32" points="106.52 14.35 116.32 30.66 114.19 29.42 104.39 13.12 106.52 14.35"/><path class="cls-2" d="M342.09,227,327,218.28l1.61-2c.17-.21.1-.47-.19-.64L323.81,213a1.5,1.5,0,0,0-1.37,0,.42.42,0,0,0,0,.79l4.14,2.39-9.23,11.25c-.17.21-.09.47.2.64l1.47.85-.3,0c-1.41,0-2.55.66-2.55,1.47s1.15,1.48,2.57,1.48,2.55-.65,2.54-1.47a.47.47,0,0,0,0-.17l3.2,1.84h-.3c-1.41,0-2.55.65-2.55,1.47s1.15,1.47,2.57,1.48,2.55-.66,2.54-1.47a.57.57,0,0,0,0-.18l.69.39a1.5,1.5,0,0,0,1.37,0c.38-.22.37-.58,0-.8l-9.33-5.38,1.89-2.3,10.86,6.27a4.71,4.71,0,0,0,3.73.24l5.74-2.14C343.21,229.05,343.44,227.76,342.09,227Z" transform="translate(-34.19 -30.91)"/><path class="cls-5" d="M59.43,245.59l-17.12-9.88c-4.72-2.73-4.13-7.5,1.33-10.65l14.25-8.23c5.46-3.15,13.72-3.49,18.44-.76L93.45,226c4.73,2.73,4.13,7.49-1.33,10.65l-14.25,8.22C72.41,248,64.15,248.32,59.43,245.59Z" transform="translate(-34.19 -30.91)"/><path class="cls-5" d="M91.5,263,74.38,253.1c-4.72-2.73-4.13-7.5,1.33-10.65L90,234.22c5.46-3.15,13.72-3.49,18.44-.76l17.12,9.88c4.73,2.73,4.13,7.5-1.33,10.65l-14.25,8.23C104.48,265.37,96.23,265.71,91.5,263Z" transform="translate(-34.19 -30.91)"/><path class="cls-5" d="M54.5,282.18,37.38,272.3c-4.72-2.73-4.13-7.5,1.33-10.65L53,253.42c5.46-3.15,13.72-3.49,18.44-.76l17.12,9.88c4.73,2.73,4.13,7.5-1.33,10.65l-14.25,8.23C67.48,284.57,59.23,284.91,54.5,282.18Z" transform="translate(-34.19 -30.91)"/><path class="cls-21" d="M59.43,237l-17.12-9.88c-4.72-2.73-4.13-7.49,1.33-10.64l14.25-8.23c5.46-3.15,13.72-3.5,18.44-.77l17.12,9.88c4.73,2.73,4.13,7.5-1.33,10.65l-14.25,8.23C72.41,239.39,64.15,239.73,59.43,237Z" transform="translate(-34.19 -30.91)"/><path class="cls-57" d="M39.14,222.21h0v0Z" transform="translate(-34.19 -30.91)"/><path class="cls-9" d="M92.12,228l-14.25,8.23c-5.46,3.15-13.72,3.49-18.44.76l-17.12-9.88c-2-1.17-3.07-2.72-3.17-4.36v5.43c-.13,1.85.91,3.63,3.17,4.93L59.43,243c4.72,2.72,13,2.38,18.44-.77L92.12,234c2.82-1.63,4.34-3.69,4.5-5.67h0v-.05q0-.3,0-.6v-5.48h0C96.52,224.23,95,226.35,92.12,228Z" transform="translate(-34.19 -30.91)"/><path class="cls-57" d="M39.14,222.21h0v0Z" transform="translate(-34.19 -30.91)"/><path class="cls-4" d="M59.43,237l-17.12-9.88c-2-1.17-3.07-2.72-3.17-4.36v5.43c-.13,1.85.91,3.63,3.17,4.93L59.43,243Z" transform="translate(-34.19 -30.91)"/><path class="cls-54" d="M92.12,227.26l-14.25,8.23c-5.46,3.15-13.72,3.49-18.44.76l-17.12-9.88a5.62,5.62,0,0,1-3.16-4.26c-.17,1.88.86,3.69,3.16,5L59.43,237c4.72,2.73,13,2.39,18.44-.76L92.12,228c3.16-1.82,4.68-4.19,4.49-6.39C96.44,223.6,94.93,225.64,92.12,227.26Z" transform="translate(-34.19 -30.91)"/><path class="cls-21" d="M59.43,228.55l-17.12-9.88c-4.72-2.73-4.13-7.49,1.33-10.64l14.25-8.23c5.46-3.15,13.72-3.5,18.44-.77l17.12,9.88c4.73,2.73,4.13,7.5-1.33,10.65l-14.25,8.23C72.41,230.94,64.15,231.28,59.43,228.55Z" transform="translate(-34.19 -30.91)"/><path class="cls-57" d="M39.14,213.76h0v0Z" transform="translate(-34.19 -30.91)"/><path class="cls-9" d="M92.12,219.56l-14.25,8.23c-5.46,3.15-13.72,3.49-18.44.76l-17.12-9.88c-2-1.17-3.07-2.72-3.17-4.36v5.43c-.13,1.85.91,3.63,3.17,4.93l17.12,9.89c4.72,2.72,13,2.38,18.44-.77l14.25-8.23c2.82-1.63,4.34-3.69,4.5-5.67h0v0q0-.3,0-.6v-5.48h0C96.52,215.78,95,217.9,92.12,219.56Z" transform="translate(-34.19 -30.91)"/><path class="cls-57" d="M39.14,213.76h0v0Z" transform="translate(-34.19 -30.91)"/><path class="cls-4" d="M59.43,228.55l-17.12-9.88c-2-1.17-3.07-2.72-3.17-4.36v5.43c-.13,1.85.91,3.63,3.17,4.93l17.12,9.89Z" transform="translate(-34.19 -30.91)"/><path class="cls-54" d="M92.12,218.81,77.87,227c-5.46,3.15-13.72,3.49-18.44.76l-17.12-9.88a5.62,5.62,0,0,1-3.16-4.26c-.17,1.88.86,3.69,3.16,5l17.12,9.88c4.72,2.73,13,2.39,18.44-.76l14.25-8.23c3.16-1.82,4.68-4.19,4.49-6.39C96.44,215.15,94.93,217.19,92.12,218.81Z" transform="translate(-34.19 -30.91)"/><path class="cls-21" d="M59.43,220.05l-17.12-9.88c-4.72-2.73-4.13-7.49,1.33-10.64l14.25-8.23c5.46-3.15,13.72-3.5,18.44-.77l17.12,9.88c4.73,2.73,4.13,7.5-1.33,10.65l-14.25,8.23C72.41,222.44,64.15,222.78,59.43,220.05Z" transform="translate(-34.19 -30.91)"/><path class="cls-57" d="M39.14,205.26h0v0Z" transform="translate(-34.19 -30.91)"/><path class="cls-9" d="M92.12,211.06l-14.25,8.23c-5.46,3.15-13.72,3.49-18.44.76l-17.12-9.88c-2-1.17-3.07-2.72-3.17-4.36v5.43c-.13,1.85.91,3.63,3.17,4.93l17.12,9.89c4.72,2.72,13,2.38,18.44-.77l14.25-8.23c2.82-1.63,4.34-3.69,4.5-5.67h0v0q0-.3,0-.6v-5.48h0C96.52,207.28,95,209.4,92.12,211.06Z" transform="translate(-34.19 -30.91)"/><path class="cls-57" d="M39.14,205.26h0v0Z" transform="translate(-34.19 -30.91)"/><path class="cls-4" d="M59.43,220.05l-17.12-9.88c-2-1.17-3.07-2.72-3.17-4.36v5.43c-.13,1.85.91,3.63,3.17,4.93l17.12,9.89Z" transform="translate(-34.19 -30.91)"/><path class="cls-54" d="M92.12,210.31l-14.25,8.23c-5.46,3.15-13.72,3.49-18.44.76l-17.12-9.88a5.62,5.62,0,0,1-3.16-4.26c-.17,1.88.86,3.69,3.16,5l17.12,9.88c4.72,2.73,13,2.39,18.44-.76l14.25-8.23c3.16-1.82,4.68-4.19,4.49-6.39C96.44,206.65,94.93,208.69,92.12,210.31Z" transform="translate(-34.19 -30.91)"/><path class="cls-21" d="M59.43,211.8l-17.12-9.88c-4.72-2.73-4.13-7.49,1.33-10.64l14.25-8.23c5.46-3.15,13.72-3.5,18.44-.77l17.12,9.88c4.73,2.73,4.13,7.5-1.33,10.65L77.87,211C72.41,214.19,64.15,214.53,59.43,211.8Z" transform="translate(-34.19 -30.91)"/><path class="cls-57" d="M39.14,197h0v0Z" transform="translate(-34.19 -30.91)"/><path class="cls-9" d="M92.12,202.81,77.87,211c-5.46,3.15-13.72,3.49-18.44.76l-17.12-9.88c-2-1.17-3.07-2.72-3.17-4.36V203c-.13,1.85.91,3.63,3.17,4.93l17.12,9.89c4.72,2.72,13,2.38,18.44-.77l14.25-8.23c2.82-1.63,4.34-3.69,4.5-5.67h0v0q0-.3,0-.6V197h0C96.52,199,95,201.15,92.12,202.81Z" transform="translate(-34.19 -30.91)"/><path class="cls-57" d="M39.14,197h0v0Z" transform="translate(-34.19 -30.91)"/><path class="cls-4" d="M59.43,211.8l-17.12-9.88c-2-1.17-3.07-2.72-3.17-4.36V203c-.13,1.85.91,3.63,3.17,4.93l17.12,9.89Z" transform="translate(-34.19 -30.91)"/><path class="cls-54" d="M92.12,202.06l-14.25,8.23c-5.46,3.15-13.72,3.49-18.44.76l-17.12-9.88a5.62,5.62,0,0,1-3.16-4.26c-.17,1.88.86,3.69,3.16,5l17.12,9.88c4.72,2.73,13,2.39,18.44-.76l14.25-8.23c3.16-1.82,4.68-4.19,4.49-6.39C96.44,198.4,94.93,200.44,92.12,202.06Z" transform="translate(-34.19 -30.91)"/><path class="cls-21" d="M59.43,203.3l-17.12-9.88c-4.72-2.73-4.13-7.49,1.33-10.64l14.25-8.23c5.46-3.15,13.72-3.5,18.44-.77l17.12,9.88c4.73,2.73,4.13,7.5-1.33,10.65l-14.25,8.23C72.41,205.69,64.15,206,59.43,203.3Z" transform="translate(-34.19 -30.91)"/><path class="cls-57" d="M39.14,188.51h0v0Z" transform="translate(-34.19 -30.91)"/><path class="cls-9" d="M92.12,194.31l-14.25,8.23c-5.46,3.15-13.72,3.49-18.44.76l-17.12-9.88c-2-1.17-3.07-2.72-3.17-4.36v5.43c-.13,1.85.91,3.63,3.17,4.93l17.12,9.89c4.72,2.72,13,2.38,18.44-.77l14.25-8.23c2.82-1.63,4.34-3.69,4.5-5.67h0v0q0-.3,0-.6v-5.48h0C96.52,190.53,95,192.65,92.12,194.31Z" transform="translate(-34.19 -30.91)"/><path class="cls-57" d="M39.14,188.51h0v0Z" transform="translate(-34.19 -30.91)"/><path class="cls-4" d="M59.43,203.3l-17.12-9.88c-2-1.17-3.07-2.72-3.17-4.36v5.43c-.13,1.85.91,3.63,3.17,4.93l17.12,9.89Z" transform="translate(-34.19 -30.91)"/><path class="cls-54" d="M92.12,193.56l-14.25,8.23c-5.46,3.15-13.72,3.49-18.44.76l-17.12-9.88a5.62,5.62,0,0,1-3.16-4.26c-.17,1.88.86,3.69,3.16,5l17.12,9.88c4.72,2.73,13,2.39,18.44-.76l14.25-8.23c3.16-1.82,4.68-4.19,4.49-6.39C96.44,189.9,94.93,191.94,92.12,193.56Z" transform="translate(-34.19 -30.91)"/><path class="cls-21" d="M59.43,194.84,42.31,185c-4.72-2.73-4.13-7.5,1.33-10.65l14.25-8.23c5.46-3.15,13.72-3.49,18.44-.76l17.12,9.88c4.73,2.73,4.13,7.49-1.33,10.65l-14.25,8.22C72.41,197.23,64.15,197.57,59.43,194.84Z" transform="translate(-34.19 -30.91)"/><path class="cls-57" d="M39.14,180h0v0Z" transform="translate(-34.19 -30.91)"/><path class="cls-9" d="M92.12,185.85l-14.25,8.22c-5.46,3.16-13.72,3.5-18.44.77L42.31,185c-2-1.18-3.07-2.73-3.17-4.37V186c-.13,1.84.91,3.62,3.17,4.93l17.12,9.88c4.72,2.73,13,2.39,18.44-.77l14.25-8.22c2.82-1.63,4.34-3.69,4.5-5.68h0v0c0-.21,0-.41,0-.61V180h0C96.52,182.07,95,184.18,92.12,185.85Z" transform="translate(-34.19 -30.91)"/><path class="cls-57" d="M39.14,180h0v0Z" transform="translate(-34.19 -30.91)"/><path class="cls-4" d="M59.43,194.84,42.31,185c-2-1.18-3.07-2.73-3.17-4.37V186c-.13,1.84.91,3.62,3.17,4.93l17.12,9.88Z" transform="translate(-34.19 -30.91)"/><path class="cls-54" d="M92.12,185.1l-14.25,8.22c-5.46,3.16-13.72,3.5-18.44.77l-17.12-9.88A5.62,5.62,0,0,1,39.15,180c-.17,1.87.86,3.68,3.16,5l17.12,9.88c4.72,2.73,13,2.39,18.44-.77l14.25-8.22c3.16-1.83,4.68-4.19,4.49-6.39C96.44,181.43,94.93,183.48,92.12,185.1Z" transform="translate(-34.19 -30.91)"/><path class="cls-58" d="M91.5,254.4l-17.12-9.88c-4.72-2.73-4.13-7.5,1.33-10.65L90,225.64c5.46-3.15,13.72-3.49,18.44-.77l17.12,9.89c4.73,2.72,4.13,7.49-1.33,10.64l-14.25,8.23C104.48,256.78,96.23,257.13,91.5,254.4Z" transform="translate(-34.19 -30.91)"/><path class="cls-59" d="M71.22,239.6h0v.22A1.62,1.62,0,0,1,71.22,239.6Z" transform="translate(-34.19 -30.91)"/><path class="cls-59" d="M124.19,245.4l-14.25,8.23c-5.46,3.15-13.71,3.5-18.44.77l-17.12-9.88c-2-1.18-3.07-2.73-3.17-4.37v5.44c-.13,1.84.91,3.62,3.17,4.93L91.5,260.4c4.73,2.73,13,2.38,18.44-.77l14.25-8.23c2.83-1.62,4.34-3.68,4.5-5.67h0v0c0-.21,0-.41,0-.61V239.6h0C128.59,241.63,127.08,243.74,124.19,245.4Z" transform="translate(-34.19 -30.91)"/><path class="cls-57" d="M71.22,239.6h0v.22A1.62,1.62,0,0,1,71.22,239.6Z" transform="translate(-34.19 -30.91)"/><path class="cls-60" d="M91.5,254.4l-17.12-9.88c-2-1.18-3.07-2.73-3.17-4.37v5.44c-.13,1.84.91,3.62,3.17,4.93L91.5,260.4Z" transform="translate(-34.19 -30.91)"/><path class="cls-2" d="M124.19,244.65l-14.25,8.23c-5.46,3.15-13.71,3.5-18.44.77l-17.12-9.88a5.64,5.64,0,0,1-3.16-4.26c-.17,1.87.86,3.68,3.16,5L91.5,254.4c4.73,2.73,13,2.38,18.44-.77l14.25-8.23c3.16-1.82,4.68-4.19,4.49-6.38C128.51,241,127,243,124.19,244.65Z" transform="translate(-34.19 -30.91)"/><path class="cls-58" d="M91.5,245.73l-17.12-9.88c-4.72-2.73-4.13-7.5,1.33-10.65L90,217c5.46-3.15,13.72-3.49,18.44-.76l17.12,9.88c4.73,2.73,4.13,7.5-1.33,10.65L109.94,245C104.48,248.12,96.23,248.46,91.5,245.73Z" transform="translate(-34.19 -30.91)"/><path class="cls-57" d="M71.22,230.93h0v.22A1.62,1.62,0,0,1,71.22,230.93Z" transform="translate(-34.19 -30.91)"/><path class="cls-59" d="M124.19,236.74,109.94,245c-5.46,3.15-13.71,3.49-18.44.76l-17.12-9.88c-2-1.17-3.07-2.73-3.17-4.36v5.43c-.13,1.84.91,3.62,3.17,4.93l17.12,9.88c4.73,2.73,13,2.39,18.44-.76l14.25-8.23c2.83-1.63,4.34-3.69,4.5-5.68h0v0c0-.2,0-.41,0-.61v-5.48h0C128.59,233,127.08,235.07,124.19,236.74Z" transform="translate(-34.19 -30.91)"/><path class="cls-57" d="M71.22,230.93h0v.22A1.62,1.62,0,0,1,71.22,230.93Z" transform="translate(-34.19 -30.91)"/><path class="cls-60" d="M91.5,245.73l-17.12-9.88c-2-1.17-3.07-2.73-3.17-4.36v5.43c-.13,1.84.91,3.62,3.17,4.93l17.12,9.88Z" transform="translate(-34.19 -30.91)"/><path class="cls-2" d="M124.19,236l-14.25,8.23c-5.46,3.15-13.71,3.49-18.44.76L74.38,235.1a5.62,5.62,0,0,1-3.16-4.26c-.17,1.87.86,3.68,3.16,5l17.12,9.88c4.73,2.73,13,2.39,18.44-.76l14.25-8.23c3.16-1.83,4.68-4.19,4.49-6.39C128.51,232.33,127,234.37,124.19,236Z" transform="translate(-34.19 -30.91)"/><path class="cls-58" d="M91.5,237.06l-17.12-9.88c-4.72-2.73-4.13-7.49,1.33-10.65L90,208.31c5.46-3.16,13.72-3.5,18.44-.77l17.12,9.88c4.73,2.73,4.13,7.5-1.33,10.65l-14.25,8.23C104.48,239.45,96.23,239.79,91.5,237.06Z" transform="translate(-34.19 -30.91)"/><path class="cls-57" d="M71.22,222.26h0v.23A1.77,1.77,0,0,1,71.22,222.26Z" transform="translate(-34.19 -30.91)"/><path class="cls-59" d="M124.19,228.07l-14.25,8.23c-5.46,3.15-13.71,3.49-18.44.76l-17.12-9.88c-2-1.17-3.07-2.72-3.17-4.36v5.43c-.13,1.85.91,3.62,3.17,4.93l17.12,9.88c4.73,2.73,13,2.39,18.44-.76l14.25-8.23c2.83-1.63,4.34-3.69,4.5-5.68h0v0c0-.2,0-.4,0-.61v-5.48h0C128.59,224.29,127.08,226.41,124.19,228.07Z" transform="translate(-34.19 -30.91)"/><path class="cls-57" d="M71.22,222.26h0v.23A1.77,1.77,0,0,1,71.22,222.26Z" transform="translate(-34.19 -30.91)"/><path class="cls-60" d="M91.5,237.06l-17.12-9.88c-2-1.17-3.07-2.72-3.17-4.36v5.43c-.13,1.85.91,3.62,3.17,4.93l17.12,9.88Z" transform="translate(-34.19 -30.91)"/><path class="cls-2" d="M124.19,227.32l-14.25,8.23c-5.46,3.15-13.71,3.49-18.44.76l-17.12-9.88a5.62,5.62,0,0,1-3.16-4.26c-.17,1.87.86,3.68,3.16,5l17.12,9.88c4.73,2.73,13,2.39,18.44-.76l14.25-8.23c3.16-1.82,4.68-4.19,4.49-6.39C128.51,223.66,127,225.7,124.19,227.32Z" transform="translate(-34.19 -30.91)"/><path class="cls-2" d="M97.22,212.24l1.49,10.84,18.76.86h0a1.52,1.52,0,0,0-.79-.94L98.82,212.7a4,4,0,0,0-1.62-.46Z" transform="translate(-34.19 -30.91)"/><path class="cls-2" d="M117.48,224l-20.25,0,0-3.31L83.77,220a0,0,0,0,0,0,0l13.44,0,0-7.76a4.16,4.16,0,0,0-2.3.45l-10.48,6.05c-1.09.63-1.08,1.65,0,2.29l17.87,10.31a4.38,4.38,0,0,0,4,0l10.48-6A1.28,1.28,0,0,0,117.48,224ZM104,231.7,103,223.94H104l0,7.76Z" transform="translate(-34.19 -30.91)"/><path class="cls-21" d="M54.5,273.6l-17.12-9.88c-4.72-2.73-4.13-7.5,1.33-10.65L53,244.84c5.46-3.15,13.72-3.49,18.44-.77L88.52,254c4.73,2.72,4.13,7.49-1.33,10.64l-14.25,8.23C67.48,276,59.23,276.33,54.5,273.6Z" transform="translate(-34.19 -30.91)"/><path class="cls-57" d="M34.22,258.8h0V259A1.62,1.62,0,0,1,34.22,258.8Z" transform="translate(-34.19 -30.91)"/><path class="cls-9" d="M87.19,264.6l-14.25,8.23c-5.46,3.15-13.71,3.5-18.44.77l-17.12-9.88c-2-1.18-3.07-2.73-3.17-4.37v5.44c-.13,1.84.91,3.62,3.17,4.93L54.5,279.6c4.73,2.73,13,2.38,18.44-.77l14.25-8.23c2.83-1.62,4.34-3.68,4.5-5.67h0v0c0-.21,0-.41,0-.61V258.8h0C91.59,260.83,90.08,262.94,87.19,264.6Z" transform="translate(-34.19 -30.91)"/><path class="cls-57" d="M34.22,258.8h0V259A1.62,1.62,0,0,1,34.22,258.8Z" transform="translate(-34.19 -30.91)"/><path class="cls-4" d="M54.5,273.6l-17.12-9.88c-2-1.18-3.07-2.73-3.17-4.37v5.44c-.13,1.84.91,3.62,3.17,4.93L54.5,279.6Z" transform="translate(-34.19 -30.91)"/><path class="cls-54" d="M87.19,263.85l-14.25,8.23c-5.46,3.15-13.71,3.5-18.44.77L37.38,263a5.64,5.64,0,0,1-3.16-4.26c-.17,1.87.86,3.68,3.16,5L54.5,273.6c4.73,2.73,13,2.38,18.44-.77l14.25-8.23c3.16-1.82,4.68-4.19,4.49-6.38C91.51,260.19,90,262.24,87.19,263.85Z" transform="translate(-34.19 -30.91)"/><path class="cls-54" d="M73.3,254.63c0-3.28-4.64-5.95-10.33-6s-10.28,2.64-10.26,5.93c0,3,3.89,5.49,8.91,5.89v1.67c-1,.14-1.66.64-1.65,1.23l0,5.68c0,.72,1,1.29,2.23,1.3h1.69c1.23,0,2.23-.57,2.22-1.28l0-5.68c0-.6-.71-1.1-1.66-1.25V260.5C69.46,260.11,73.31,257.64,73.3,254.63ZM63,258.53c-3.74,0-6.79-1.76-6.8-3.93s3-3.91,6.76-3.9,6.79,1.77,6.8,3.93S66.77,258.54,63,258.53Z" transform="translate(-34.19 -30.91)"/><path class="cls-21" d="M54.5,265.35l-17.12-9.88c-4.72-2.73-4.13-7.5,1.33-10.65L53,236.59c5.46-3.15,13.72-3.49,18.44-.77l17.12,9.89c4.73,2.72,4.13,7.49-1.33,10.64l-14.25,8.23C67.48,267.73,59.23,268.08,54.5,265.35Z" transform="translate(-34.19 -30.91)"/><path class="cls-57" d="M34.22,250.55h0v.22A1.62,1.62,0,0,1,34.22,250.55Z" transform="translate(-34.19 -30.91)"/><path class="cls-9" d="M87.19,256.35l-14.25,8.23c-5.46,3.15-13.71,3.5-18.44.77l-17.12-9.88c-2-1.18-3.07-2.73-3.17-4.37v5.44c-.13,1.84.91,3.62,3.17,4.93l17.12,9.88c4.73,2.73,13,2.38,18.44-.77l14.25-8.23c2.83-1.62,4.34-3.68,4.5-5.67h0v0c0-.21,0-.41,0-.61v-5.48h0C91.59,252.58,90.08,254.69,87.19,256.35Z" transform="translate(-34.19 -30.91)"/><path class="cls-57" d="M34.22,250.55h0v.22A1.62,1.62,0,0,1,34.22,250.55Z" transform="translate(-34.19 -30.91)"/><path class="cls-4" d="M54.5,265.35l-17.12-9.88c-2-1.18-3.07-2.73-3.17-4.37v5.44c-.13,1.84.91,3.62,3.17,4.93l17.12,9.88Z" transform="translate(-34.19 -30.91)"/><path class="cls-54" d="M87.19,255.6l-14.25,8.23c-5.46,3.15-13.71,3.5-18.44.77l-17.12-9.88a5.64,5.64,0,0,1-3.16-4.26c-.17,1.87.86,3.68,3.16,5l17.12,9.88c4.73,2.73,13,2.38,18.44-.77l14.25-8.23c3.16-1.82,4.68-4.19,4.49-6.38C91.51,251.94,90,254,87.19,255.6Z" transform="translate(-34.19 -30.91)"/><path class="cls-2" d="M73.3,246.38c0-3.28-4.64-5.95-10.33-6s-10.28,2.64-10.26,5.93c0,3,3.89,5.49,8.91,5.89v1.67c-1,.14-1.66.64-1.65,1.23l0,5.68c0,.72,1,1.29,2.23,1.3h1.69c1.23,0,2.23-.57,2.22-1.28l0-5.68c0-.6-.71-1.1-1.66-1.25v-1.66C69.46,251.86,73.31,249.39,73.3,246.38ZM63,250.28c-3.74,0-6.79-1.76-6.8-3.93s3-3.91,6.76-3.9,6.79,1.77,6.8,3.93S66.77,250.29,63,250.28Z" transform="translate(-34.19 -30.91)"/><polygon class="cls-2" points="14.32 149.31 19.06 152.05 27.65 147.09 22.91 144.35 14.32 149.31"/><polygon class="cls-2" points="20.5 152.88 25.24 155.62 40.29 146.93 35.55 144.19 20.5 152.88"/><polygon class="cls-2" points="48.19 144.03 26.68 156.45 31.41 159.19 52.93 146.76 48.19 144.03"/></g></g></svg>