<svg id="Layer_1" data-name="Layer 1" xmlns="http://www.w3.org/2000/svg" viewBox="0 0 2000 1500"><defs><style>.cls-1{fill:#e0d061;}.cls-2{fill:#3aacc4;}.cls-3{fill:#01b148;}.cls-4{fill:#af2076;}.cls-5{fill:#b175a5;}.cls-6{fill:#e8f9b9;}.cls-7{fill:#c1508a;}.cls-8{fill:#b8154f;}.cls-9{fill:#43ddb5;}.cls-10{fill:#fd7ae8;}.cls-11{fill:#caedb0;}.cls-12{fill:#32375c;}.cls-13{opacity:0.39;}.cls-14,.cls-16,.cls-20,.cls-21,.cls-22,.cls-25,.cls-26,.cls-30{fill:#04adb5;}.cls-14,.cls-15,.cls-16,.cls-17,.cls-18,.cls-19,.cls-20,.cls-21,.cls-24,.cls-25,.cls-26,.cls-27,.cls-28,.cls-29,.cls-30,.cls-32{stroke:#41444e;}.cls-14,.cls-15,.cls-16,.cls-17,.cls-19,.cls-23,.cls-32{stroke-linecap:round;}.cls-14,.cls-15,.cls-16,.cls-17,.cls-19,.cls-24,.cls-25,.cls-26,.cls-27,.cls-30,.cls-32{stroke-linejoin:round;}.cls-14,.cls-15{stroke-width:10.12px;}.cls-15,.cls-17,.cls-18,.cls-28{fill:#fff;}.cls-16,.cls-17{stroke-width:10.1px;}.cls-18,.cls-20,.cls-21,.cls-23,.cls-28,.cls-29{stroke-miterlimit:10;}.cls-18,.cls-20{stroke-width:10.81px;}.cls-19,.cls-23,.cls-32{fill:none;}.cls-19,.cls-24,.cls-28{stroke-width:10px;}.cls-21{stroke-width:7.5px;}.cls-23{stroke:#04adb5;stroke-width:10.79px;}.cls-24,.cls-31{fill:#02acb4;}.cls-25{stroke-width:5px;}.cls-26{stroke-width:12px;}.cls-27,.cls-29{fill:#41444e;}.cls-27{stroke-width:4.88px;}.cls-29{stroke-width:10.25px;}.cls-30{stroke-width:8.73px;}.cls-32{stroke-width:24px;}</style></defs><rect class="cls-1" width="500" height="500"/><rect class="cls-2" x="500" width="500" height="500"/><rect class="cls-3" x="1000" width="500" height="500"/><rect class="cls-4" x="1500" width="500" height="500"/><rect class="cls-5" y="500" width="500" height="500"/><rect class="cls-6" x="500" y="500" width="500" height="500"/><rect class="cls-7" x="1000" y="500" width="500" height="500"/><rect class="cls-8" x="1500" y="500" width="500" height="500"/><rect class="cls-9" y="1000" width="500" height="500"/><rect class="cls-10" x="500" y="1000" width="500" height="500"/><rect class="cls-11" x="1000" y="1000" width="500" height="500"/><rect class="cls-12" x="1500" y="1000" width="500" height="500"/><g class="cls-13"><path class="cls-14" d="M1233.19,1089.34c-69.6,30.5-113.76-61-144-121.49-24-50.17,14.88-66.4,14.88-66.4h12c36,58,18,99.14,72.65,153.41A231.84,231.84,0,0,0,1233.19,1089.34Z"/><path class="cls-15" d="M1233.19,1089.34a231.84,231.84,0,0,1-44.47-34.48c-54.68-54.27-36.65-95.37-72.65-153.41h67.2S1291.75,1044.58,1233.19,1089.34Z"/><path class="cls-16" d="M909.67,968.33c-30.24,60.27-74.4,151.42-144,121A232.05,232.05,0,0,0,810.14,1055c54.68-54.07,36.65-95,72.65-152.84h12S933.67,918.34,909.67,968.33Z"/><path class="cls-17" d="M882.79,902.17c-36,57.83-18,98.77-72.65,152.84a232.05,232.05,0,0,1-44.47,34.36c-58.56-44.6,49.92-187.2,49.92-187.2Z"/><path class="cls-18" d="M1124.71,921.33c-21.44,4.11-44.4,7.8-68.76,10.76-22.58,2.74-44.13,4.58-64.5,5.74-18-1.05-37.44-2.86-58-5.74s-39.83-6.5-57.49-10.45a242.55,242.55,0,0,0-16,82c-.27,15.73-.67,38.74,7.12,61.32,19.86,57.54,74.69,95.76,134.7,94.29,57.6-1.42,108.86-39.12,127.87-94.29,7.39-21.46,7.78-43,8-59.78A261.94,261.94,0,0,0,1124.71,921.33Z"/><path class="cls-19" d="M1083.53,993.49c-10.71-14.76-67.62-43.19-84.74-28.08-17.13-15.11-73.12,11.52-84.75,28.08S893,1033.67,913,1062.68c22,22.36,57.4,43.85,85.83,43.85s63.84-21.49,85.82-43.85C1104.62,1033.67,1094.24,1008.25,1083.53,993.49Z"/><path class="cls-20" d="M966.79,935.89s6.39,40.32,32,40.32,30.88-40.32,30.88-40.32Z"/><path class="cls-21" d="M864.79,1019.41s-2.58,27.82,4.23,46,22.32,38.34,22.32,38.34,25.12-23.61,15.34-52.8S864.79,1019.41,864.79,1019.41Z"/><path class="cls-21" d="M1132.8,1020.55s3.4,18.57-5.69,45.83-23.53,37.6-23.53,37.6-24.36-24.4-13.65-53.27S1132.8,1020.55,1132.8,1020.55Z"/><path class="cls-22" d="M996.18,1035.13l-3.9-41.08a6.53,6.53,0,0,1,13-1.23,6.32,6.32,0,0,1,0,1.23l-3.9,41.08a2.62,2.62,0,0,1-5.21,0Z"/><path class="cls-23" d="M972.12,1011a37.24,37.24,0,1,0,52.4-.92"/><path class="cls-24" d="M1249.34,697.73S1272.21,627,1237,572.08c-47.36-56-99.84-76.47-99.84-76.47s46.09,71.27,48,100.39C1241.62,634.23,1249.34,697.73,1249.34,697.73Z"/><path class="cls-24" d="M750.52,703.05s-25.07-69.95,8.35-126c45.59-57.42,97.4-79.56,97.4-79.56s-43.83,72.68-44.83,101.84C756.24,639.34,750.52,703.05,750.52,703.05Z"/><polygon class="cls-25" points="986.72 552.01 1012.46 552.01 1012.46 495.61 986.72 495.61 986.72 517.81 986.72 552.01"/><circle class="cls-26" cx="999.59" cy="459.65" r="33.84"/><path class="cls-27" d="M1039.18,553.17,1012.46,552V517.93s12.42,37.2,24.12,37.2"/><path class="cls-27" d="M960,553.17,986.72,552V517.93s-12.42,37.2-24.12,37.2"/><path class="cls-28" d="M1206.18,888C1136,936.48,999.7,936.48,999.7,936.48s-136.28,0-206.48-48.47c-52.92-35.64-72.72-204.85-19.44-258.12,80.58-80.58,225.92-77.76,225.92-77.76s149.53,1.36,225.92,77.76C1282.29,686.56,1259.1,852.37,1206.18,888Z"/><path class="cls-29" d="M1173.32,687.85c-41.32-17.16-156.81-34.75-178.57-32.77-20.69-2-130.53,15.61-169.82,32.77-29.28,10.56-24.48,124.32-15.84,161.76,8.23,35.66,183.13,38.49,185.66,38.49s186.57-2.83,195.22-38.49C1199.06,812.17,1204.1,698.41,1173.32,687.85Z"/><path class="cls-30" d="M928.89,559c6.76,15.1,33.61,69.35,70.66,69.35s64.14-54.26,71-69.36a280.92,280.92,0,0,0-141.62,0"/><path class="cls-31" d="M958,772.36a65.41,65.41,0,0,1-10,27.55,4.52,4.52,0,0,1-5,1.86c-26.71-7.3-51.74-8.85-71.79-4.63a4.56,4.56,0,0,1-5.11-2.65,64.79,64.79,0,0,1-4.8-34.36c4-31.55,28.87-54.4,55.57-51S962,740.8,958,772.36Z"/><path class="cls-31" d="M1038.88,773.33a65.53,65.53,0,0,0,9.94,27.55,4.55,4.55,0,0,0,5,1.87c26.71-7.31,51.74-8.86,71.79-4.64a4.56,4.56,0,0,0,5.11-2.65,64.67,64.67,0,0,0,4.79-34.35c-4-31.56-28.86-54.41-55.56-51S1034.88,741.77,1038.88,773.33Z"/><path class="cls-32" d="M971.2,341.05a158.23,158.23,0,0,0-77.54,127.44"/><path class="cls-32" d="M900.06,340.75a157.06,157.06,0,0,0-49.6,75.66"/><path class="cls-32" d="M839.68,340.75a155.68,155.68,0,0,0-19.77,29.78"/></g></svg>