<svg id="_лой_1" data-name="‘лой_1" xmlns="http://www.w3.org/2000/svg" viewBox="0 0 1362.39 947.28"><defs><style>.cls-1{opacity:0.5;}.cls-2{fill:#f3ad4c;}.cls-3{fill:#f9ddc2;}.cls-4{fill:#81b178;}.cls-5{fill:#a6d09d;}.cls-6{fill:#f6c9a4;}.cls-7{fill:#df8531;}.cls-8{fill:#eb9235;}.cls-9{fill:#0b1a3b;}.cls-10{fill:#c62e45;}.cls-11{fill:#fff;}.cls-12{fill:#56130f;}.cls-13{fill:#b0243b;}.cls-14{fill:#eeeced;}.cls-15{fill:#6fa9c9;}.cls-16{fill:#eb8f7e;}.cls-17{fill:#ee7c47;}.cls-18{fill:#5692c1;}.cls-19{fill:#ef8f6a;}.cls-20{fill:#e27452;}.cls-21{fill:#152949;}.cls-22{fill:#163560;}</style></defs><title>graphic</title><g class="cls-1"><g class="cls-1"><path class="cls-2" d="M621.66,633.16s-11.45-95.87-60.58-153.09c-6.52-7.6-19-2.76-18.81,7.26,0,.17,0,.34,0,.51C542.92,504.94,597.93,577.08,621.66,633.16Z" transform="translate(-175.92 -376.42)"/></g><g class="cls-1"><path class="cls-2" d="M627.63,660.61s-49-119.84-132.57-172.83a11.39,11.39,0,0,0-15.43,2.91c-2.22,3.24-3.22,8.3-.72,16.21C485.57,528,578.83,598.93,627.63,660.61Z" transform="translate(-175.92 -376.42)"/></g></g><path class="cls-3" d="M1237.42,630.14s-43.84-27-21.48-60.23c0,0,17.62-20.24,35.79-24.89,0,0-11.68,50.47-2.16,52.06s9-57.17,9-57.17,48.21-20.78,66.69-18.22c0,0-31.38,48.45-21.75,47.65s44.61-49.7,44.61-49.7,48.83-7,55.42,22.07-6.57,42.89-13.82,44.38-53.3-1-52.35,5S1369,608,1386.57,603.35c0,0-21.1,46.47-46.14,43s-32.16-19.31-47.67-21.15-27,1.88-19.44,6.39,34,2.78,46.17,14,22,18.21-1.51,22-65.29-.91-72.93-19.2Z" transform="translate(-175.92 -376.42)"/><path class="cls-3" d="M1381,549.77s-127.33,35.49-143.57,80.37c0,0-.25,20.37-13.78,43.18l-.37,9s14.43-30,21.78-33.86C1245.05,648.44,1218.56,607.78,1381,549.77Z" transform="translate(-175.92 -376.42)"/><path class="cls-4" d="M1223.64,673.32s-20.59,28.63-11,64.9l5-1.13s-3.2-39.65,7.76-59.08S1223.64,673.32,1223.64,673.32Z" transform="translate(-175.92 -376.42)"/><path class="cls-3" d="M1060.05,629.06s-73.62,6.52-76.38-50.92c0,0,2.93-38.42,19.87-59.35,0,0,29.82,68.11,42.16,61.78s-38.71-73.5-38.71-73.5,37.7-65.27,61.16-78.16c0,0,5.42,82.69,15.82,73.52s8.75-95.48,8.75-95.48,50.25-49.9,82.74-22.11,29.21,55,22.14,63-62.24,44.55-56,50.68,50.95-7.7,67.18-28.14c0,0,15.55,71.6-16.21,89.11s-53.6,5.35-73,16.53-29.54,25.35-16.91,24,41.59-26,65.15-23.48,41,2.08,17.15,26.65-76,55-100.43,40.43Z" transform="translate(-175.92 -376.42)"/><path class="cls-3" d="M1156.45,413.42s-116.18,150-96.4,215.64c0,0,17.18,23.66,21.16,61.54l7.27,10.65s-9.09-46.88-4-57.66C1084.53,643.59,1019.17,619.49,1156.45,413.42Z" transform="translate(-175.92 -376.42)"/><path class="cls-5" d="M1081.21,690.6s.83,50.61,43,84.18l4.83-5.63s-37.69-42.9-41.72-74.66S1081.21,690.6,1081.21,690.6Z" transform="translate(-175.92 -376.42)"/><path class="cls-6" d="M368.32,1195s-20.62-24-1.27-39.33c0,0,14.13-8.56,25.65-7.86,0,0-16.33,27.38-11,30.1s16-31.82,16-31.82,32.16-3.12,42.51,1.86c0,0-27.5,22.49-21.71,23.83S453.94,1151,453.94,1151s29.93,5.09,28.33,23.35-11.9,23.9-16.44,23.42-31.05-10.61-31.63-6.9,15.39,15.85,26.57,16.42c0,0-21.11,23.27-35.13,16.56s-15.22-17.37-24-21.36-16.2-4-12.59.09,19.43,8,24.43,16.88,9.48,14.8-5,12.62-38.09-12.8-39.13-25Z" transform="translate(-175.92 -376.42)"/><path class="cls-6" d="M467.57,1174.85s-81.3-3.14-99.25,20.11c0,0-4,11.9-16.19,22.72l-1.91,5.19s14.09-14.85,19.13-15.75C369.35,1207.12,361.47,1178.32,467.57,1174.85Z" transform="translate(-175.92 -376.42)"/><path class="cls-6" d="M352.13,1217.68s-17.45,12.91-18.66,36l3.16.28s5.58-23.84,15.65-33.17S352.13,1217.68,352.13,1217.68Z" transform="translate(-175.92 -376.42)"/><path class="cls-3" d="M296.23,1164.71s32.8-18.37,17.49-43.29c0,0-12.25-15.31-25.36-19.24,0,0,7,37.17,0,38s-4.82-42-4.82-42-34.54-16.62-48.1-15.31c0,0,21.43,36.3,14.43,35.43s-31.05-37.61-31.05-37.61-35.42-6.56-41.11,14.43,3.5,31.49,8.75,32.8,38.92.87,38,5.24-23.62,11.37-36.3,7.44c0,0,14,34.55,32.36,32.8s24.05-13.12,35.42-14,19.68,2.18,14,5.24-24.93,1-34.11,8.81-16.62,12.62.43,16.12S284,1191,290.1,1177.83Z" transform="translate(-175.92 -376.42)"/><path class="cls-3" d="M193.89,1101.74s91.84,29.74,102.34,63c0,0-.44,14.87,8.74,31.93v6.56s-9.62-22.31-14.87-25.37C290.1,1177.83,310.66,1149,193.89,1101.74Z" transform="translate(-175.92 -376.42)"/><path class="cls-3" d="M305,1196.64s14.17,21.5,6.09,47.68l-3.64-1s3.54-28.83-3.87-43.33S305,1196.64,305,1196.64Z" transform="translate(-175.92 -376.42)"/><path class="cls-3" d="M348.41,1139.38s-43.24-24.21-23.06-57.07c0,0,16.14-20.18,33.43-25.36,0,0-9.22,49,0,50.15s6.35-55.34,6.35-55.34,45.54-21.91,63.41-20.18c0,0-28.25,47.85-19,46.69s40.93-49.57,40.93-49.57,46.7-8.65,54.19,19S500,1089.23,493.1,1091s-51.3,1.15-50.15,6.92,31.13,15,47.85,9.8c0,0-18.45,45.54-42.66,43.23s-31.71-17.29-46.7-18.45-25.94,2.89-18.44,6.92,32.85,1.32,45,11.61,21.91,16.64-.58,21.25-62.83,1.73-70.9-15.56Z" transform="translate(-175.92 -376.42)"/><path class="cls-3" d="M483.3,1056.37s-121.06,39.2-134.89,83c0,0,.57,19.6-11.53,42.08v8.65s12.68-29.4,19.6-33.43C356.48,1156.68,329.38,1118.63,483.3,1056.37Z" transform="translate(-175.92 -376.42)"/><path class="cls-3" d="M336.88,1181.46s-18.67,28.35-8,62.86l4.81-1.29s-4.67-38,5.1-57.12S336.88,1181.46,336.88,1181.46Z" transform="translate(-175.92 -376.42)"/><path class="cls-3" d="M347,1319.16a84.69,84.69,0,0,0,84.69-84.69H262.26A84.69,84.69,0,0,0,347,1319.16Z" transform="translate(-175.92 -376.42)"/><path class="cls-3" d="M432.81,1323.47H261.09A10.45,10.45,0,0,1,271.54,1313H422.36a10.45,10.45,0,0,1,10.45,10.45Z" transform="translate(-175.92 -376.42)"/><rect class="cls-6" x="83.56" y="858.05" width="174.09" height="2.6"/><path class="cls-7" d="M924.64,844.71l-37.9,450.62s-4,27.31,16.35,27.36c33.41.08,166.28,0,166.28,0s-25.14-5.68-24.84-18.48c.36-15.08,44.3-463.76,44.3-463.76Z" transform="translate(-175.92 -376.42)"/><path class="cls-2" d="M1081.88,1314.5c-6.57,0-135.21.24-167.74-.18-14.18-.17-16.67-12.6-16.78-20.65a40.29,40.29,0,0,1,.43-6.71l1-11.71,2.51-29.85L903.5,1219l2.85-33.89,2.41-28.61,26.92-320.19,164.19-4.27s-18.5,187.78-31.59,324.46c-1.47,15.23-2.86,29.83-4.14,43.46-.42,4.35-.82,8.61-1.21,12.75-1.21,12.94-2.32,24.81-3.29,35.3-.5,5.52-1,10.66-1.4,15.36-1.67,18.43-2.65,30.21-2.66,32.44a18.3,18.3,0,0,0,.32,3.65C1058.59,1313.85,1079.41,1314.5,1081.88,1314.5Z" transform="translate(-175.92 -376.42)"/><polygon class="cls-2" points="349.99 222.88 442.3 593.69 454.94 644.47 497.94 817.18 1296.72 817.18 1138.24 222.88 349.99 222.88"/><polygon class="cls-7" points="349.99 222.88 337.19 227.15 480.93 830.08 497.94 817.18 349.99 222.88"/><polygon class="cls-8" points="480.93 830.08 1274.79 830.08 1296.71 817.18 497.94 817.18 480.93 830.08"/><rect class="cls-2" x="935.63" y="1314.5" width="171.88" height="8.17" transform="translate(1867.22 2260.75) rotate(180)"/><polygon class="cls-2" points="887.9 830.08 887.01 836.32 725.37 868.98 727.58 842.61 728.64 830.08 887.9 830.08"/><g class="cls-1"><path class="cls-8" d="M1081.88,1314.5c-6.57,0-135.21.24-167.74-.18-14.18-.17-16.67-12.6-16.78-20.65l160.88-30.27c-1.67,18.43-2.65,30.21-2.66,32.44a18.3,18.3,0,0,0,.32,3.65C1058.59,1313.85,1079.41,1314.5,1081.88,1314.5Z" transform="translate(-175.92 -376.42)"/></g><polygon class="cls-8" points="349.99 222.88 1138.24 222.88 1266.14 700.51 468.89 700.51 349.99 222.88"/><polygon class="cls-9" points="1228.96 679.81 490.92 679.81 464.54 574.75 454.34 534.1 450.18 517.52 423.07 409.55 421.67 403.93 407.34 346.85 400.93 321.31 395.46 299.53 390.99 281.76 382.64 248.47 1110.05 248.47 1119.23 281.76 1124.12 299.53 1130.13 321.31 1137.17 346.85 1183.55 515.09 1183.55 515.1 1187.47 529.35 1189.3 535.97 1221.32 652.11 1228.96 679.81"/><polygon class="cls-3" points="936.45 660.78 556.71 660.78 535.84 558.52 527.77 526.36 524.48 513.25 503.04 427.83 501.93 423.38 490.59 378.24 485.52 358.03 481.19 340.8 477.66 326.75 471.05 300.41 842.62 300.41 936.45 660.78"/><polygon class="cls-8" points="768.37 700.51 498.21 818.57 468.89 700.51 768.37 700.51"/><path class="cls-10" d="M1526.09,928.05,1538,981c1.9,8.43-4.49,15.27-14.26,15.27H1238.38c-9.77,0-19.22-6.84-21.12-15.27l-11.88-53a8.59,8.59,0,0,1-.17-1c-1.23-8,5-14.3,14.44-14.3H1505c9.4,0,18.5,6.31,20.86,14.3A8.16,8.16,0,0,1,1526.09,928.05Z" transform="translate(-175.92 -376.42)"/><polygon class="cls-11" points="1063.1 595.98 1060.3 595.98 1052.91 563.03 1055.7 563.03 1063.1 595.98"/><polygon class="cls-11" points="1082.38 576.63 1062.33 576.63 1060.24 567.3 1080.29 567.3 1082.38 576.63"/><polygon class="cls-11" points="1091.73 590 1065.33 590 1063.24 580.67 1089.63 580.67 1091.73 590"/><polygon class="cls-11" points="1127.24 595.98 1124.44 595.98 1117.05 563.03 1119.84 563.03 1127.24 595.98"/><polygon class="cls-11" points="1131.52 576.63 1111.47 576.63 1109.38 567.3 1129.43 567.3 1131.52 576.63"/><polygon class="cls-11" points="1137.69 590 1111.3 590 1109.2 580.67 1135.6 580.67 1137.69 590"/><polygon class="cls-11" points="1191.38 595.98 1188.58 595.98 1181.19 563.03 1183.99 563.03 1191.38 595.98"/><polygon class="cls-11" points="1180.65 576.63 1160.6 576.63 1158.51 567.3 1178.56 567.3 1180.65 576.63"/><polygon class="cls-11" points="1183.65 590 1157.26 590 1155.16 580.67 1181.56 580.67 1183.65 590"/><polygon class="cls-11" points="1232.42 565.69 1199.47 565.69 1198.84 562.9 1231.8 562.9 1232.42 565.69"/><polygon class="cls-11" points="1213.66 568.32 1218.16 588.37 1208.83 588.37 1204.33 568.32 1213.66 568.32"/><polygon class="cls-11" points="1227.03 568.32 1232.95 594.72 1223.63 594.72 1217.7 568.32 1227.03 568.32"/><polygon class="cls-11" points="1284.29 580.9 1251.34 580.9 1250.71 578.11 1283.66 578.11 1284.29 580.9"/><polygon class="cls-11" points="1262.37 569.48 1266.87 589.53 1257.55 589.53 1253.05 569.48 1262.37 569.48"/><polygon class="cls-11" points="1275.03 566.31 1280.95 592.7 1271.63 592.7 1265.7 566.31 1275.03 566.31"/><polygon class="cls-11" points="1336.18 596.23 1303.23 596.23 1302.6 593.44 1335.55 593.44 1336.18 596.23"/><polygon class="cls-11" points="1311.29 570.52 1315.79 590.57 1306.47 590.57 1301.97 570.52 1311.29 570.52"/><polygon class="cls-11" points="1323.24 564.18 1329.16 590.57 1319.83 590.57 1313.91 564.18 1323.24 564.18"/><polygon class="cls-12" points="1119.23 281.76 390.99 281.76 382.64 248.47 1110.05 248.47 1119.23 281.76"/><path class="cls-11" d="M603.81,641.84c1,3-.94,5.42-4.21,5.44a8.36,8.36,0,0,1-7.66-5.36c-.94-3,.95-5.42,4.22-5.44A8.37,8.37,0,0,1,603.81,641.84Z" transform="translate(-175.92 -376.42)"/><path class="cls-11" d="M628.37,641.67c1,3-.94,5.42-4.22,5.44a8.36,8.36,0,0,1-7.65-5.36c-.94-3,.94-5.42,4.22-5.44A8.35,8.35,0,0,1,628.37,641.67Z" transform="translate(-175.92 -376.42)"/><path class="cls-11" d="M652.93,641.5c1,3-.94,5.42-4.22,5.44a8.36,8.36,0,0,1-7.65-5.36c-.95-3,.94-5.42,4.22-5.44A8.35,8.35,0,0,1,652.93,641.5Z" transform="translate(-175.92 -376.42)"/><path class="cls-10" d="M661.44,734.45s85.72.33,147.87,48,53.2,90.41,104.78,101.13c84.52,17.56,32-72.64,141.81-63.26l56.47,216.9H732.63L703.69,902.78Z" transform="translate(-175.92 -376.42)"/><path class="cls-11" d="M933.66,886.63a97.41,97.41,0,0,1-19.73-2.31c-28.47-5.91-39-21.88-52.25-42.1-11-16.75-24.71-37.6-52.84-59.17-17.66-13.53-48.81-31.76-96.93-41.71-28.79-6-50.26-6.1-50.48-6.1v-1.57c.22,0,21.84.15,50.78,6.14,26.73,5.52,65.34,17.3,97.57,42,28.34,21.73,42.12,42.7,53.2,59.55,13.6,20.7,23.43,35.65,51.26,41.43,39.64,8.24,48.6-7.34,59-25.37,11.56-20.09,24.68-42.87,82.73-37.9l-.13,1.56c-57.08-4.88-69.92,17.43-81.25,37.12-5.25,9.12-10.21,17.74-19,23.07C949.64,884.85,942.48,886.63,933.66,886.63Z" transform="translate(-175.92 -376.42)"/><path class="cls-13" d="M681.45,813.71l21.8,86.83,29.38,136.66h379.74l-19.15-71s-56.21-31.33-132.44-4-160.63,2.11-166.06-59.32C788.59,833.65,725,800.29,681.45,813.71Z" transform="translate(-175.92 -376.42)"/><path class="cls-11" d="M777.4,854.79c-21.83-33.75-62.08-50.71-95.72-40.33l-.46-1.5c34.29-10.58,75.29,6.66,97.49,41Z" transform="translate(-175.92 -376.42)"/><rect class="cls-11" x="907.09" y="877.39" width="12.4" height="12.4" transform="translate(-80.29 -465.59) rotate(5.9)"/><rect class="cls-11" x="919.64" y="778.81" width="2.06" height="212.33" transform="translate(-308.95 1230.03) rotate(-78.27)"/><path class="cls-11" d="M813.17,863a3.56,3.56,0,1,1,3.18,3.91A3.57,3.57,0,0,1,813.17,863Z" transform="translate(-175.92 -376.42)"/><path class="cls-11" d="M1021.07,906.2a3.56,3.56,0,1,1,3.18,3.91A3.56,3.56,0,0,1,1021.07,906.2Z" transform="translate(-175.92 -376.42)"/><rect class="cls-11" x="761.04" y="750.57" width="12.4" height="12.4" transform="translate(552.24 -696.61) rotate(43.32)"/><rect class="cls-11" x="764.87" y="705.37" width="2.06" height="99.51" transform="translate(-485.53 388.41) rotate(-45.11)"/><path class="cls-11" d="M727.88,717.77a3.57,3.57,0,1,1,.53,5A3.57,3.57,0,0,1,727.88,717.77Z" transform="translate(-175.92 -376.42)"/><path class="cls-11" d="M798.39,788a3.56,3.56,0,1,1,.52,5A3.56,3.56,0,0,1,798.39,788Z" transform="translate(-175.92 -376.42)"/><rect class="cls-11" x="998.79" y="819.76" width="12.4" height="12.4" transform="translate(-323.95 1051.83) rotate(-67)"/><rect class="cls-11" x="973.48" y="824.79" width="63.47" height="2.06" transform="translate(-339.93 1019.8) rotate(-65.41)"/><path class="cls-11" d="M990.87,858.05a3.56,3.56,0,1,1,4.51-2.23A3.55,3.55,0,0,1,990.87,858.05Z" transform="translate(-175.92 -376.42)"/><path class="cls-11" d="M1017.27,800.33a3.56,3.56,0,1,1,4.52-2.22A3.55,3.55,0,0,1,1017.27,800.33Z" transform="translate(-175.92 -376.42)"/><path class="cls-14" d="M1068.81,696.84l19.3,79.77c.83,3.41-2.4,6.18-7.2,6.18H882.38c-4.8,0-9.36-2.77-10.18-6.18l-19.3-79.77c-.83-3.41,2.39-6.18,7.19-6.18h198.53C1063.42,690.66,1068,693.43,1068.81,696.84Z" transform="translate(-175.92 -376.42)"/><polygon class="cls-9" points="727.3 367.08 706.17 367.08 701.06 345.95 722.19 345.95 727.3 367.08"/><polygon class="cls-9" points="740.42 377.65 719.29 377.65 714.18 356.52 735.31 356.52 740.42 377.65"/><polygon class="cls-9" points="776.63 367.08 755.5 367.08 750.39 345.95 771.52 345.95 776.63 367.08"/><polygon class="cls-15" points="789.75 377.65 768.62 377.65 763.51 356.52 784.64 356.52 789.75 377.65"/><path class="cls-9" d="M961.25,732H938.31l2.77,11.46L943.86,755h22.93Zm-1.37,1.8,4.67,19.33H945.23l-2.34-9.67-2.34-9.66Z" transform="translate(-175.92 -376.42)"/><polygon class="cls-15" points="825.96 367.08 804.83 367.08 799.72 345.95 820.85 345.95 825.96 367.08"/><path class="cls-9" d="M1003,744.36l-2.55-10.52-.21-.9-.22-.9h0l-2.55-10.56H974.52l5.55,22.94H1003Zm-21.55-1.76-4.68-19.32h19.33l2.12,8.75h0l.22.9.21.9,2.12,8.76Z" transform="translate(-175.92 -376.42)"/><polygon class="cls-15" points="839.08 377.65 817.95 377.65 812.84 356.52 833.97 356.52 839.08 377.65"/><path class="cls-9" d="M1010.57,732H987.64l2.56,10.56.21.9.21.86v0L993.19,755h22.93Zm-18.14,12.32-.21-.86-.22-.9-2.12-8.76h19.33l4.67,19.33H994.56l-2.12-8.76Z" transform="translate(-175.92 -376.42)"/><polygon class="cls-9" points="827.08 367.94 814.63 367.94 811.65 355.61 824.09 355.61 827.08 367.94"/><polygon class="cls-9" points="875.29 367.08 854.16 367.08 849.04 345.95 870.17 345.95 875.29 367.08"/><polygon class="cls-9" points="888.41 377.65 867.28 377.65 862.17 356.52 883.3 356.52 888.41 377.65"/><polygon class="cls-15" points="874.69 366.57 865.01 366.57 862.69 356.98 872.37 356.98 874.69 366.57"/><path class="cls-9" d="M519.55,948.73H446.38c-9.75,0-19.41-7.91-21.57-17.66L369.76,682.53c-2.16-9.75,4-17.66,13.75-17.66h73.17c9.75,0,19.41,7.91,21.57,17.66l55,248.54C535.46,940.82,529.3,948.73,519.55,948.73Z" transform="translate(-175.92 -376.42)"/><rect class="cls-2" x="202.36" y="344.33" width="108.49" height="0.47"/><rect class="cls-2" x="215.33" y="402.89" width="108.49" height="0.47"/><rect class="cls-2" x="228.3" y="461.46" width="108.49" height="0.47"/><path class="cls-11" d="M444.65,703.49c.14-1.26-5.47-22.81-5.47-22.81l19.88,16.11-9.77-.35Z" transform="translate(-175.92 -376.42)"/><path class="cls-14" d="M496.06,884.79H457.53l3.68,16.6,4.84,21.88h38.53Zm-28.29,36.34-.44-2-3.93-17.75-3.2-14.46h34.14l.44,2,7.13,32.2Z" transform="translate(-175.92 -376.42)"/><polygon class="cls-10" points="300.98 524.97 264.64 524.97 256.59 488.63 292.93 488.63 300.98 524.97"/><rect class="cls-10" x="458.03" y="902.48" width="46.05" height="3.1" transform="translate(-703.74 351.93) rotate(-52.1)"/><path class="cls-14" d="M395.73,703.49c.14-1.26-5.47-22.81-5.47-22.81l19.88,16.11-9.77-.35Z" transform="translate(-175.92 -376.42)"/><polygon class="cls-14" points="227.51 369.75 224.58 369.75 223.42 364.52 243.3 364.52 244.41 369.55 241.48 369.55 241.02 367.45 227 367.45 227.51 369.75"/><polygon class="cls-14" points="238.81 382.52 235.88 382.52 232.22 365.99 235.15 365.99 238.81 382.52"/><polygon class="cls-14" points="241.45 383.56 233.71 383.56 233.06 380.63 240.8 380.63 241.45 383.56"/><polygon class="cls-14" points="281.08 385.39 278.44 383.48 292.4 361.52 295.05 363.42 281.08 385.39"/><path class="cls-14" d="M431.35,802.86c-1.24-5.59-6.8-10.13-12.39-10.13s-9.13,4.54-7.89,10.13S417.87,813,423.46,813a8.16,8.16,0,0,0,5.73-2.14,6.87,6.87,0,0,0,1.47-1.9A8.81,8.81,0,0,0,431.35,802.86Zm-8.49,7.46a9.84,9.84,0,0,1-9.11-7.46c-.91-4.11,1.69-7.46,5.81-7.46a9.85,9.85,0,0,1,9.11,7.46C429.58,807,427,810.32,422.86,810.32Z" transform="translate(-175.92 -376.42)"/><path class="cls-14" d="M442.74,821.8a1.66,1.66,0,0,1-1.05-.41L428.21,810a1.4,1.4,0,0,1-.39-1.89,1.35,1.35,0,0,1,1.9,0l13.48,11.35a1.41,1.41,0,0,1,.39,1.9A1.06,1.06,0,0,1,442.74,821.8Z" transform="translate(-175.92 -376.42)"/><polygon class="cls-14" points="296.03 415.37 301.04 424.56 310.7 424.56 304.14 430.23 309.16 439.42 300.09 433.74 293.54 439.42 294.49 430.23 285.42 424.56 295.08 424.56 296.03 415.37"/><path class="cls-16" d="M1404.65,711.4s.26,14.47-1.91,14.2-5.12-12.13-5.14-12,1,12.47-1.75,13.09-5.5-13-5.5-13,1.83,11.7-.09,12-4.94-11-5.73-11.07,2.54,9.73.2,10.23-7.56-13.24-5.79-15,4.53.12,4.53.12,3.4-2.52,6-1.09c0,0,6.13-1.22,8,1.49A4.83,4.83,0,0,1,1404.65,711.4Z" transform="translate(-175.92 -376.42)"/><path class="cls-14" d="M1444.15,656l49.64,179c2.13,7.66-2.72,13.87-10.82,13.87H1147.86c-8.1,0-16.39-6.21-18.52-13.87l-49.65-179c-2.12-7.66,2.73-13.87,10.83-13.87h335.11C1433.73,642.09,1442,648.3,1444.15,656Z" transform="translate(-175.92 -376.42)"/><polygon class="cls-15" points="1007.61 360.31 964.33 360.31 952.33 317.03 995.61 317.03 1007.61 360.31"/><polygon class="cls-9" points="994.07 349.71 971.99 349.71 965.87 327.63 987.94 327.63 994.07 349.71"/><rect class="cls-17" x="1129.19" y="713.39" width="53.4" height="3.4" transform="matrix(0.59, -0.81, 0.81, 0.59, -276.69, 856.58)"/><polygon class="cls-8" points="976.8 336.85 933.53 336.85 921.52 293.57 964.8 293.57 976.8 336.85"/><polygon class="cls-3" points="1001.39 411.38 966.6 411.38 956.95 376.58 991.74 376.58 1001.39 411.38"/><polygon class="cls-10" points="1035.86 411.38 1001.07 411.38 991.42 376.58 1026.21 376.58 1035.86 411.38"/><polygon class="cls-8" points="1070.65 411.38 1035.86 411.38 1026.21 376.58 1061.01 376.58 1070.65 411.38"/><polygon class="cls-10" points="1105.45 411.38 1070.65 411.38 1061.01 376.58 1095.8 376.58 1105.45 411.38"/><polygon class="cls-13" points="1140.24 411.38 1105.45 411.38 1095.8 376.58 1130.59 376.58 1140.24 411.38"/><polygon class="cls-15" points="1175.04 411.38 1140.24 411.38 1130.59 376.58 1165.39 376.58 1175.04 411.38"/><polygon class="cls-18" points="1209.83 411.38 1175.04 411.38 1165.39 376.58 1200.18 376.58 1209.83 411.38"/><polygon class="cls-9" points="1244.62 411.38 1209.83 411.38 1200.18 376.58 1234.97 376.58 1244.62 411.38"/><polygon class="cls-15" points="1011.04 446.17 976.25 446.17 966.6 411.38 1001.39 411.38 1011.04 446.17"/><polygon class="cls-8" points="1045.51 446.17 1010.72 446.17 1001.07 411.38 1035.86 411.38 1045.51 446.17"/><polygon class="cls-15" points="1080.31 446.17 1045.51 446.17 1035.86 411.38 1070.65 411.38 1080.31 446.17"/><polygon class="cls-8" points="1115.1 446.17 1080.31 446.17 1070.65 411.38 1105.45 411.38 1115.1 446.17"/><path class="cls-8" d="M1422.25,684.91H1240a6.45,6.45,0,0,1-5.81-4.55h0c-.7-2.5.78-4.55,3.29-4.55h182.26a6.46,6.46,0,0,1,5.81,4.55h0C1426.24,682.87,1424.76,684.91,1422.25,684.91Z" transform="translate(-175.92 -376.42)"/><path class="cls-10" d="M1428.63,707.91H1246.37a6.49,6.49,0,0,1-5.82-4.55h0c-.69-2.51.79-4.56,3.29-4.56H1426.1a6.46,6.46,0,0,1,5.82,4.56h0C1432.61,705.86,1431.13,707.91,1428.63,707.91Z" transform="translate(-175.92 -376.42)"/><path class="cls-15" d="M1435,730.91H1252.75a6.47,6.47,0,0,1-5.82-4.56h0c-.69-2.5.79-4.55,3.29-4.55h182.26a6.48,6.48,0,0,1,5.82,4.55h0C1439,728.86,1437.51,730.91,1435,730.91Z" transform="translate(-175.92 -376.42)"/><path class="cls-9" d="M1222.21,685.31l-3.43-3.47-.53-.53a3.23,3.23,0,0,0,1-.52,2.33,2.33,0,0,0,1-1.95,3.86,3.86,0,0,0-.16-1.25,5.51,5.51,0,0,0-5.66-3.93H1209l3.41,12.31h2.17l-1.19-4.29h2.67l1.89,1.91,2.36,2.38h2.55Zm-6.18-5.54h-3.16l-1.15-4.14h3.15a2.91,2.91,0,0,1,3.11,2C1218.34,679,1217.58,679.77,1216,679.77Z" transform="translate(-175.92 -376.42)"/><path class="cls-9" d="M1226.66,702.34h-5.24l.52,1.88h3.15l.64,2.31a4,4,0,0,1-2.72.93,5.59,5.59,0,0,1-4.79-2.93,6.16,6.16,0,0,1-.61-1.47c-.51-1.82.05-3.41,1.35-4h0a3.11,3.11,0,0,1,1.43-.32,6.26,6.26,0,0,1,3.81,1.32l.92-1.63a8.47,8.47,0,0,0-5.2-1.67l-.58,0c-3.32.29-4.91,3.08-4,6.34a8.81,8.81,0,0,0,2.6,4.2,8.31,8.31,0,0,0,5.55,2.17,5.93,5.93,0,0,0,4.6-1.92Z" transform="translate(-175.92 -376.42)"/><path class="cls-9" d="M1235,730.23a4.35,4.35,0,0,0-3.28-3,2.19,2.19,0,0,0,1-2.74,3.83,3.83,0,0,0-1.4-2.08,5.66,5.66,0,0,0-3.52-1.09h-5.52l3.41,12.31h5.7C1234.08,733.6,1235.56,732.42,1235,730.23Zm-10.07-7H1228a2.43,2.43,0,0,1,2.6,1.56c.32,1.16-.46,1.71-1.85,1.71h-3Zm5.94,8.48h-3.59l-.94-3.38h3.43c1.71,0,2.71.61,3,1.65S1232.29,731.69,1230.82,731.69Z" transform="translate(-175.92 -376.42)"/><path class="cls-19" d="M749.58,677.7a3.41,3.41,0,0,0-.61,3.66s0,0,0,0c.88,2.44,3.8,5.17,7.19,7.89.43.35.82.67,1.16,1l.25.23.2.18c3.17,2.91,2,3.58,7.65,9.49,6.48,6.74,10.94,6.86,12.21,6.25,1.07-.52-1.11-4.1-3.52-8.12l-.36-.58-1-1.61c-2.83-4.84-2.1-7.11-1.43-14.3.54-5.85,9.09-32.66,9.09-32.66L768.05,647s-3.73,21.35-7.85,24.64c-2.2,1.75-4.67,1.78-6.78,3.07L753,675A16.24,16.24,0,0,0,749.58,677.7Z" transform="translate(-175.92 -376.42)"/><path class="cls-11" d="M749.58,677.7a3.41,3.41,0,0,0-.61,3.66s0,0,0,0c1.08,2.44,3.93,5.15,7.2,7.87.43.35.81.68,1.15,1l.25.23.2.18c3.17,2.91,2,3.58,7.65,9.49,6.48,6.74,10.94,6.86,12.21,6.25,1.07-.52-1.11-4.1-3.52-8.12a27.56,27.56,0,0,1-11.55-8.5c-3.76-4.8-6.31-10.91-8.87-14.66L753,675A16.24,16.24,0,0,0,749.58,677.7Z" transform="translate(-175.92 -376.42)"/><path class="cls-19" d="M849.65,670c.77,3.83,6.23,3.19,12.33,1.7s4.65.28,13.34-.68,11.31-4.2,11.57-5.49-4-1.55-8.65-2.08l-1.74-.21c-5.2-.65-9-4-13.72-6.75-4.47-2.61-11.14-13.24-11.14-13.24l-11.91.95s6.25,9.49,8.66,13.61c1.42,2.43,1.35,5.64,1.17,8.12A15.43,15.43,0,0,0,849.65,670Z" transform="translate(-175.92 -376.42)"/><path class="cls-11" d="M862,671.65c6.1-1.49,4.65.28,13.34-.68s11.31-4.2,11.57-5.49-4-1.55-8.65-2.08l0,.09a24.55,24.55,0,0,1-12.44,3.87c-5.89.14-12.13-1.55-16.2-1.48a15.43,15.43,0,0,0,.09,4.07C850.42,673.78,855.88,673.14,862,671.65Z" transform="translate(-175.92 -376.42)"/><path class="cls-13" d="M804,593.81l-11.13,30-14.54,39.11a23.34,23.34,0,0,1-7.72-.7,33.68,33.68,0,0,1-7.46-3.64s4-42,11.56-66.1c1.93-6.18,4.09-11.19,6.48-14C792.88,564.63,804,593.81,804,593.81Z" transform="translate(-175.92 -376.42)"/><path class="cls-10" d="M792.7,546.24c-6.33-2-22.87,0-40.8,3.21a12.15,12.15,0,0,1-12.56-5.67h0l-45.13-3.52s-14.89,33-6.74,54.07c1.2,3.09,3.83,5,7.89,5.08h0l36,0c22.44,0,47.5-15.43,50.74-16.07,5.31-1.07,7.43,9.54,12.73,20.69s49.87,49.33,49.87,49.33,6.85.07,9.68-1a9.6,9.6,0,0,0,4.16-2.62S809.15,551.54,792.7,546.24Z" transform="translate(-175.92 -376.42)"/><path class="cls-12" d="M734.55,411.25a16,16,0,0,0-8.62-2.24,24.09,24.09,0,0,1-4.16-.25c-17.23-2.53-27.6,22.49-28.21,30.05-1.11,13.88-8.46,16-18.79,24.69-17.86,15-15.81,32.15-7.65,41.4a22.41,22.41,0,0,0,4.33,3.8c4,2.63,9.67,2.2,13.76,1.38a35.94,35.94,0,0,0,5-1.38s.6-.29,1.55-.8l2.36-1.29,1.4-.77c8.14-4.5,24-13.4,36.17-20.14l6-3.34,1.33-.73a11.33,11.33,0,0,0,8.19-5.18C757.62,460.86,742.76,416.14,734.55,411.25Z" transform="translate(-175.92 -376.42)"/><path class="cls-19" d="M725.6,474.1c.08,0-7.9,2.77-13.24.4-5-2.21-8.82-10.47-8.74-10.47,2.28-.11,4.79-2.11,6.72-15.2l1,.35,16.34,5.88s-1.18,5.24-1.95,10.24C725.06,469.49,724.71,473.5,725.6,474.1Z" transform="translate(-175.92 -376.42)"/><path class="cls-20" d="M727.65,455.06s-.65,2.83-1.6,8.11c-9.39-1.69-13.42-8.92-14.74-14Z" transform="translate(-175.92 -376.42)"/><path class="cls-19" d="M730.09,460.26s-22.37-3-20.28-16.9.6-23.64,15-22.31,16.33,7,16.77,11.85S736,460.69,730.09,460.26Z" transform="translate(-175.92 -376.42)"/><path class="cls-12" d="M740.73,425.28s-14.31,12.34-24.05,13.34-13.43-2.13-13.43-2.13a38.14,38.14,0,0,0,9.2-12.46,6.86,6.86,0,0,1,5.64-4C725.05,419.39,738.23,419.12,740.73,425.28Z" transform="translate(-175.92 -376.42)"/><path class="cls-12" d="M731.78,424.18s4.79,4.63,6.3,8.07,1.89,11.24.73,14.38c0,0,7.47-14.5,3.24-21.55C737.57,417.6,731.78,424.18,731.78,424.18Z" transform="translate(-175.92 -376.42)"/><path class="cls-15" d="M744.44,507c-.68,45.27-.19,35.81-5.14,40.1-1.2,1-4.55,1.66-9,2-13.89.92-38.29-1.37-39.21-3.93-3.21-8.88-.94-11.64-3.62-25.23-.27-1.44-.62-3-1-4.71-2.23-9.33-4.4-12.51,3.5-27.5,7.17-13.59,14.61-24.61,15.28-24.21,18.91,11.22,20.43,1.79,20.43,1.79S744.77,485,744.44,507Z" transform="translate(-175.92 -376.42)"/><path class="cls-10" d="M792.89,623.76l-14.54,39.11a23.34,23.34,0,0,1-7.72-.7,33.68,33.68,0,0,1-7.46-3.64s4-42,11.56-66.1Z" transform="translate(-175.92 -376.42)"/><path class="cls-15" d="M725.7,465.3s19.46,3.29,21.74,11.67,9.8,59.21,9.8,59.21-5.48,5.36-10,.79-14.38-47.56-14.38-47.56Z" transform="translate(-175.92 -376.42)"/><path class="cls-18" d="M730.34,549.09c-13.89.92-38.29-1.37-39.21-3.93-3.21-8.88-.94-11.64-3.62-25.23l6.7-18.85s-1.11,21,5.08,26.52,25.35,10.66,28.36,15.27A16.9,16.9,0,0,1,730.34,549.09Z" transform="translate(-175.92 -376.42)"/><path class="cls-19" d="M714.43,540.26s13.7-3,15.91-1.84,7.61,5.64,8.28,7.18-4.92-1.17-6.74-1.65c-1.18-.32-4.28.76-5.81,1.27-6.47,2.16-10.43,1-10.43,1Z" transform="translate(-175.92 -376.42)"/><path class="cls-15" d="M705.26,463.5s-18.39,1.13-24.75,10c-9,12.5-26.74,65.76-16.55,72.86,11.47,8,52.21,2.09,52.21,2.09s1.36-6.33-.53-9.4-32.54-8-33.95-9.43S699.37,502,699.37,497.8,705.26,463.5,705.26,463.5Z" transform="translate(-175.92 -376.42)"/><path class="cls-19" d="M731,542.23s2.87,3.71,3.81,4.15a2.82,2.82,0,0,0,1.55.33l-1.94-3.48Z" transform="translate(-175.92 -376.42)"/><path class="cls-19" d="M730.34,538.42l8.34,4.05a1.51,1.51,0,0,1-1.38.54,20,20,0,0,1-3.62-1Z" transform="translate(-175.92 -376.42)"/><polygon class="cls-21" points="625.65 171.53 538.51 171.53 538.51 173.45 624.88 173.45 625.65 171.53"/><polygon class="cls-21" points="558.89 173.45 624.88 173.45 644.73 124.08 578.84 124.08 558.89 173.45"/><path class="cls-11" d="M784.14,525.19a2.28,2.28,0,0,0-2.24-3.14,4.48,4.48,0,0,0-4,3.14,2.28,2.28,0,0,0,2.24,3.14A4.51,4.51,0,0,0,784.14,525.19Z" transform="translate(-175.92 -376.42)"/><rect class="cls-11" x="773.57" y="853.07" width="8.97" height="8.97" transform="translate(578.11 -676.53) rotate(41.03)"/><path class="cls-18" d="M691.05,970.88c-1.35-4.49-2-4.89-2-4.89s-41.95,5.23-49.08,4.77c-4.22-.28-54.61-17.08-54.61-17.08L554.75,983s75.87,12.5,86.57,11.68c17.67-1.35,44.65-17,44.65-17S692.11,974.4,691.05,970.88Z" transform="translate(-175.92 -376.42)"/><path class="cls-9" d="M576.38,1305.8s.58,14.22,3.31,17.68l38,.22c-.26-1.47-.42-4.86-5.67-5.78a25.47,25.47,0,0,1-18.45-14.55C589.32,1294.14,576.38,1305.8,576.38,1305.8Z" transform="translate(-175.92 -376.42)"/><path class="cls-9" d="M501.84,1303.75s-2.65,18.89,1,19.22c.48,0,15.3.28,21.72.39,7.56.13,20-.14,20-.14a2,2,0,0,0,1.79-3,8,8,0,0,0-5.71-3.66c-6.61-1.27-17.63-6.13-21.5-15C515,1292.32,501.84,1303.75,501.84,1303.75Z" transform="translate(-175.92 -376.42)"/><path class="cls-13" d="M596.12,1110.19s-10.56,37-40.82,101.13-31.58,95.1-31.58,95.1a26.57,26.57,0,0,1-10.66,1,28.58,28.58,0,0,1-11.22-3.64s2-76.38,16.26-108.77,17.21-121,17.21-121Z" transform="translate(-175.92 -376.42)"/><path class="cls-10" d="M613.08,1078.39A921.75,921.75,0,0,1,604,1205.87c-9.9,70.26-5.27,102.94-5.27,102.94s-2.63,1.91-10.7,1.87c-9.45,0-14.29-3.94-14.29-3.94s-14.17-70.28-10.1-105.45-19.41-120.67-19.41-120.67Z" transform="translate(-175.92 -376.42)"/><path class="cls-19" d="M590.09,935.75c-.1,4.49-.7,9.38-2.5,11.78l-10.08,5.28-11.17-8.28s4.09-9.08,3.09-22.35c-.1-.8-.5-5.88-.5-6l5.59,2.79,15.17,7.58a3.2,3.2,0,0,0,.1.7C589.89,928.77,590.09,932.06,590.09,935.75Z" transform="translate(-175.92 -376.42)"/><path class="cls-15" d="M534.26,1085.46c3.65,16.72,81.92,9.38,80.9-.83,0-.34-.25-5.06-.53-11.43-.59-13.78-1.5-35.31-1.61-37,0,0,0-.06,0-.09-1.41-14.21-2.76-28.12-2.85-37.2a129.07,129.07,0,0,0-2.61-23.24c-1.33-6.75-3-12.87-4.38-17.65a19.47,19.47,0,0,0-5.34-8.64,19.13,19.13,0,0,0-6.1-3.89,16.28,16.28,0,0,0-1.89-.66c-9.21-2.68-18.5-6.08-22-5.07-9.36,2.75-19.77,19.32-24.69,40.32C534,1019.38,531.86,1074.56,534.26,1085.46Z" transform="translate(-175.92 -376.42)"/><path class="cls-20" d="M590.09,935.75c-5.69-2.29-16.57-7.48-19.56-13.37-1.3-2.59.7-3.39,4-3.39l15.17,7.58a3.2,3.2,0,0,0,.1.7C589.89,928.77,590.09,932.06,590.09,935.75Z" transform="translate(-175.92 -376.42)"/><path class="cls-19" d="M597,925.64s-27.24,8.5-32.27-8.55-11.93-27.42,5.25-33.56,22.49-.65,25.55,4.63S603.94,923,597,925.64Z" transform="translate(-175.92 -376.42)"/><path class="cls-12" d="M594.45,886.52s-1.74,19.83-5.84,19-7.82-1.5-7.22,4.48.79,13.16-11.85,14.22-25.31-31.82-21.84-38C557.72,868.39,608.93,864.8,594.45,886.52Z" transform="translate(-175.92 -376.42)"/><path class="cls-18" d="M614.63,1073.2c-.59-13.78-1.5-35.31-1.61-37,0,0,0-.06,0-.09l-46.24-27.64S565,1073,614.63,1073.2Z" transform="translate(-175.92 -376.42)"/><path class="cls-22" d="M774.14,854.09l8.33,7.25s-14.28,15.29-13,31.38l-21.32,18-17.66-15.37,14.77-24.48S761.13,870.29,774.14,854.09Z" transform="translate(-175.92 -376.42)"/><path class="cls-11" d="M752.47,880.25a4.74,4.74,0,1,1,.47,6.69A4.75,4.75,0,0,1,752.47,880.25Z" transform="translate(-175.92 -376.42)"/><rect class="cls-11" x="764.86" y="853.02" width="1.81" height="38.36" transform="translate(584.91 -664.87) rotate(41.04)"/><rect class="cls-15" x="725.74" y="902.32" width="23.41" height="5.88" transform="translate(599.4 -638.16) rotate(41.03)"/><path class="cls-22" d="M551.15,1120.23l-.86-.75a11.13,11.13,0,0,1-1.09-15.71l177.48-204,17.67,15.37-177.48,204A11.14,11.14,0,0,1,551.15,1120.23Z" transform="translate(-175.92 -376.42)"/><path class="cls-19" d="M651,1014.76s3.41-3,4.21-5.12a7.11,7.11,0,0,1,6.56-3.72c3.63.27,10.07-7.45,10.07-7.45.94,2,4.17,9.7-.46,13.57-3.77,3.17-12.86,8.65-18.37,12.25C647.11,1028.17,651,1014.76,651,1014.76Z" transform="translate(-175.92 -376.42)"/><path class="cls-15" d="M651.47,1013.63s-45.86,7.8-49.92,5.82c-6.49-3.16,2.51-49.69,2.51-49.69s.39-10.55-11.93-13c-10.7-2.16-21,5.85-21,5.85s-9.39,8.41-8.19,17.73c2.66,20.66,6.8,62.69,20.62,69.13,17.82,8.31,69.4-23,69.4-23a9,9,0,0,0,1.48-6C654.19,1017,651.47,1013.63,651.47,1013.63Z" transform="translate(-175.92 -376.42)"/><path class="cls-19" d="M693,974.21s11.57-4.22,10.55-10.14-4.63-5.17-6.8-3.13S695.75,973.46,693,974.21Z" transform="translate(-175.92 -376.42)"/><path class="cls-19" d="M654.43,1011.73s1.58-4.64,3.26-6.63,2.4-5.36,3.17-4.23-.62,5.15,0,6.68S654.43,1011.73,654.43,1011.73Z" transform="translate(-175.92 -376.42)"/></svg>