<?xml version="1.0" encoding="utf-8"?>
<!-- Generator: Adobe Illustrator 23.0.5, SVG Export Plug-In . SVG Version: 6.00 Build 0)  -->
<svg version="1.1" xmlns="http://www.w3.org/2000/svg" xmlns:xlink="http://www.w3.org/1999/xlink" x="0px" y="0px"
	 viewBox="0 0 1000 1000" style="enable-background:new 0 0 1000 1000;" xml:space="preserve">
<style type="text/css">
	.st0{display:none;}
	.st1{display:inline;}
	.st2{display:inline;fill:#FFFFFF;stroke:#000000;stroke-miterlimit:10;}
	.st3{fill:#FFFFFF;stroke:#000000;stroke-width:30;stroke-miterlimit:10;}
	.st4{fill:#FFFFFF;}
	.st5{display:inline;fill:#FFFFFF;}
	.st6{display:inline;fill:none;stroke:#000000;stroke-width:8;stroke-miterlimit:10;}
	.st7{display:inline;fill:none;stroke:#000000;stroke-width:12;stroke-miterlimit:10;}
	.st8{display:inline;fill:none;}
</style>
<g id="Layer_1" class="st0">
	<rect class="st1" width="1000" height="1000"/>
</g>
<g id="Layer_2" class="st0">
	<path class="st2" d="M228.51,212.32c11.09,19.21,22.18,38.41,33.27,57.62h66.53c11.09-19.21,22.18-38.41,33.27-57.62
		c1.68-38.62-26.05-70.47-58.36-74.21C266.04,133.8,227.4,167.2,228.51,212.32z"/>
	<path class="st2" d="M241.32,210.69c8.95,15.51,17.91,31.02,26.86,46.53h53.72c8.95-15.51,17.91-31.02,26.86-46.53
		c1.35-31.19-21.03-56.9-47.13-59.93C271.63,147.28,240.43,174.25,241.32,210.69z"/>
</g>
<g id="Layer_6">
	<path class="st3" d="M904.55,240.99L531.67,25.71c-15.88-9.17-35.45-9.17-51.33,0L107.46,240.99
		c-15.88,9.17-25.66,26.11-25.66,44.45v430.56c0,18.34,9.78,35.28,25.66,44.45l372.88,215.28c15.88,9.17,35.45,9.17,51.33,0
		l372.88-215.28c15.88-9.17,25.66-26.11,25.66-44.45V285.45C930.21,267.11,920.43,250.16,904.55,240.99z"/>
</g>
<g id="Layer_7" class="st0">
	<g class="st1">
		<path class="st4" d="M465.01,413.02l206.78,299.64H558.4l-91-134.44l-2.38,56.52v77.91h-97.7V287.33h97.7V413.02"/>
	</g>
	<polygon class="st5" points="552.76,513.16 497.65,439.02 578.74,330.5 636.05,397.39 	"/>
	<polygon class="st5" points="657.22,312.08 519.6,337.22 656.76,451.98 	"/>
</g>
<g id="Layer_3">
	<g>
		<path d="M455.7,375.69L742.7,791.57c4.35,6.3-0.16,14.9-7.82,14.9H595c-3.15,0-6.1-1.56-7.87-4.18L475.28,637.05
			c-5.14-7.59-16.98-4.23-17.36,4.93l-2.21,52.48v102.51c0,5.25-4.25,9.5-9.5,9.5H324.75c-5.25,0-9.5-4.25-9.5-9.5V204.49
			c0-5.25,4.25-9.5,9.5-9.5H446.2c5.25,0,9.5,4.25,9.5,9.5V375.69"/>
	</g>
	<path d="M574.1,509.22l-67.24-90.47c-2.51-3.37-2.5-7.99,0.01-11.36L612.1,266.55c3.64-4.88,10.87-5.12,14.83-0.5l69.81,81.48
		c2.85,3.33,3.06,8.17,0.5,11.73L589.44,509.1C585.68,514.32,577.93,514.38,574.1,509.22z"/>
	<path d="M724.2,232l-176.16,32.18c-5.51,1.01-7.35,7.98-3.05,11.57l175.59,146.9c4.29,3.59,10.83,0.55,10.85-5.05L732,238.52
		C732.01,234.39,728.27,231.25,724.2,232z"/>
</g>
<g id="Layer_4" class="st0">
	<path class="st6" d="M769.41,314.82L525.66,174.1c-15.88-9.17-35.45-9.17-51.33,0L230.59,314.82
		c-15.88,9.17-25.66,26.11-25.66,44.45v281.45c0,18.34,9.78,35.28,25.66,44.45L474.34,825.9c15.88,9.17,35.45,9.17,51.33,0
		l243.74-140.73c15.88-9.17,25.66-26.11,25.66-44.45V359.27C795.07,340.94,785.29,323.99,769.41,314.82z"/>
	<path class="st7" d="M769.41,314.82L525.66,174.1c-15.88-9.17-35.45-9.17-51.33,0L230.59,314.82
		c-15.88,9.17-25.66,26.11-25.66,44.45v281.45c0,18.34,9.78,35.28,25.66,44.45L474.34,825.9c15.88,9.17,35.45,9.17,51.33,0
		l243.74-140.73c15.88-9.17,25.66-26.11,25.66-44.45V359.27C795.07,340.94,785.29,323.99,769.41,314.82z"/>
	<path class="st7" d="M804.1,294.79L525.66,134.04c-15.88-9.17-35.45-9.17-51.33,0L195.9,294.79
		c-15.88,9.17-25.66,26.11-25.66,44.45v321.51c0,18.34,9.78,35.28,25.66,44.45l278.44,160.76c15.88,9.17,35.45,9.17,51.33,0
		L804.1,705.21c15.88-9.17,25.66-26.11,25.66-44.45V339.24C829.77,320.91,819.98,303.96,804.1,294.79z"/>
	<path class="st7" d="M842.87,272.41L525.66,89.27c-15.88-9.17-35.45-9.17-51.33,0L157.13,272.41
		c-15.88,9.17-25.66,26.11-25.66,44.45v366.28c0,18.34,9.78,35.28,25.66,44.45l317.21,183.14c15.88,9.17,35.45,9.17,51.33,0
		l317.21-183.14c15.88-9.17,25.66-26.11,25.66-44.45V316.86C868.54,298.52,858.75,281.58,842.87,272.41z"/>
	<path class="st7" d="M886.2,247.39L525.66,39.23c-15.88-9.17-35.45-9.17-51.33,0L113.8,247.39c-15.88,9.17-25.66,26.11-25.66,44.45
		v416.31c0,18.34,9.78,35.28,25.66,44.45l360.54,208.16c15.88,9.17,35.45,9.17,51.33,0L886.2,752.61
		c15.88-9.17,25.66-26.11,25.66-44.45V291.84C911.87,273.5,902.09,256.56,886.2,247.39z"/>
</g>
<g id="Layer_8" class="st0">
	<circle class="st1" cx="719.5" cy="753.92" r="12.6"/>
	<circle class="st1" cx="310.87" cy="771.6" r="12.6"/>
	<circle class="st1" cx="170.23" cy="523.93" r="12.6"/>
	<circle class="st1" cx="131.46" cy="467.85" r="12.6"/>
	<circle class="st1" cx="170.23" cy="349.04" r="12.6"/>
	<circle class="st1" cx="259.66" cy="211.51" r="12.6"/>
	<circle class="st1" cx="868.54" cy="401.78" r="12.6"/>
	<circle class="st1" cx="829.77" cy="467.98" r="12.6"/>
	<circle class="st1" cx="654.03" cy="208.51" r="12.6"/>
	<circle class="st1" cx="415.53" cy="876.55" r="12.6"/>
	<circle class="st1" cx="344.7" cy="836.91" r="12.6"/>
</g>
<g id="Layer_5" class="st0">
	<g>
		<path class="st1" d="M500,836.76c-9.57,0-19.13-2.46-27.67-7.39L228.59,688.64c-17.06-9.85-27.67-28.21-27.67-47.92V359.27
			c0-19.7,10.6-38.06,27.67-47.92l243.74-140.73c17.06-9.85,38.27-9.85,55.33,0l243.74,140.73c17.06,9.85,27.67,28.21,27.67,47.92
			v281.45c0,19.7-10.6,38.06-27.67,47.92L527.67,829.37C519.13,834.29,509.57,836.76,500,836.76z M500,171.24
			c-8.18,0-16.37,2.11-23.67,6.32L232.59,318.29c-14.6,8.43-23.67,24.13-23.67,40.99v281.45c0,16.85,9.07,32.56,23.67,40.99
			l243.74,140.73c14.6,8.43,32.73,8.43,47.33,0l243.74-140.73c14.6-8.43,23.67-24.13,23.67-40.99V359.27
			c0-16.85-9.07-32.56-23.67-40.99L523.67,177.56C516.37,173.35,508.18,171.24,500,171.24z"/>
	</g>
	<g>
		<path class="st1" d="M500,973.62c-9.91,0-19.82-2.55-28.67-7.66L110.8,757.81c-17.68-10.21-28.67-29.23-28.67-49.65V291.84
			c0-20.42,10.98-39.44,28.67-49.65L471.33,34.04c17.68-10.21,39.65-10.21,57.33,0L889.2,242.19
			c17.68,10.21,28.67,29.23,28.67,49.65v416.31c0,20.42-10.98,39.44-28.67,49.65L528.67,965.96
			C519.82,971.07,509.91,973.62,500,973.62z M500,38.38c-7.84,0-15.67,2.02-22.67,6.05L116.8,252.59
			c-13.98,8.07-22.67,23.11-22.67,39.26v416.31c0,16.14,8.68,31.19,22.67,39.26l360.54,208.16c13.98,8.07,31.35,8.07,45.33,0
			L883.2,747.41c13.98-8.07,22.67-23.11,22.67-39.26V291.84c0-16.14-8.68-31.19-22.67-39.26L522.67,44.43
			C515.67,40.39,507.84,38.38,500,38.38z"/>
	</g>
	<path class="st8" d="M273.84,757.14L192.9,710.4c-17.68-10.21-28.66-29.23-28.66-49.65V560.53h-26.77v122.61
		c0,16.14,8.68,31.18,22.66,39.26L344.7,828.9"/>
	<line class="st8" x1="137.46" y1="548.53" x2="164.23" y2="548.53"/>
	<path class="st8" d="M137.46,375.17"/>
	<path class="st8" d="M477.33,905.54c13.98,8.07,31.35,8.07,45.33,0L839.87,722.4c13.98-8.07,22.67-23.11,22.67-39.26V506l-26.77,0
		v154.76c0,20.42-10.98,39.44-28.67,49.65l-132.02,76.22l3.27,5.24"/>
	<path class="st8" d="M333.47,208.43l-16.98-21.11L160.13,277.6c-13.98,8.07-22.66,23.11-22.66,39.26v46.31"/>
	<path class="st8" d="M164.23,345.43v-6.18c0-20.42,10.98-39.44,28.66-49.65l58.88-34l-8.21-9.7l9.16-7.75l9.61,11.36"/>
	<path class="st8" d="M801.1,700.01c13.98-8.07,22.67-23.11,22.67-39.26V506"/>
	<path class="st8" d="M799.8,434.02l1.28,206.7c0,20.42-10.98,39.44-28.67,49.65l-115.69,66.79l12.01,19.27"/>
	<path class="st8" d="M176.23,548.53h14.47v12h-14.47v100.22c0,16.14,8.68,31.18,22.66,39.26l81.88,47.27l13.1-18.64l-66.29-38.27
		c-17.68-10.21-28.67-29.23-28.67-49.65"/>
	<path class="st8" d="M528.67,831.1c-8.84,5.1-18.75,7.66-28.67,7.66s-19.82-2.55-28.67-7.66l-167.02-96.43l-13.1,18.64
		l186.13,107.46c13.98,8.07,31.35,8.07,45.33,0l135.67-78.33l-12.01-19.27"/>
	<path class="st8" d="M692.75,223.57"/>
	<path class="st8" d="M709.69,202.44L522.67,94.46c-6.99-4.04-14.83-6.05-22.67-6.05c-7.84,0-15.67,2.02-22.67,6.05l-150.32,86.79
		l16.98,21.11l127.34-73.52c17.68-10.21,39.65-10.21,57.33,0"/>
	<path class="st8" d="M199.65,384.49l-0.73-25.21c0-20.42,10.98-39.44,28.67-49.65l46.96-27.11l-14.9-17.6l-60.76,35.08
		c-13.98,8.07-22.66,23.11-22.66,39.26v6.18"/>
	<path class="st8" d="M823.77,323.59c0-0.48-8.68-15.53-22.67-23.6l-105.43-60.87l-14.36,17.91l91.1,52.6
		c17.68,10.21,28.67,29.23,28.67,49.65V397"/>
	<path class="st1" d="M789.07,640.73c0,16.14-8.68,31.18-22.67,39.26l-116.04,66.99l6.35,10.19l115.69-66.79
		c17.68-10.21,28.67-29.23,28.67-49.65l-1.28-206.7l-12,0L789.07,640.73z"/>
	<polygon class="st1" points="646.11,250.96 654.03,241.67 560.3,187.17 554.53,197.69 	"/>
	<path class="st1" d="M233.59,679.98c-13.98-8.07-22.67-23.11-22.67-39.26V405.81h-12v234.92c0,20.42,10.98,39.44,28.67,49.65
		l27.33,15.75l6.93-9.86L233.59,679.98z"/>
	<path class="st1" d="M210.93,359.27c0-16.14,8.68-31.18,22.67-39.26l48.84-28.2l-7.88-9.31l-46.96,27.11
		c-17.68,10.21-28.67,29.23-28.67,49.65l0.73,25.21h12L210.93,359.27z"/>
	<path class="st1" d="M477.33,179.29c6.99-4.04,14.83-6.05,22.67-6.05c7.84,0,15.67,2.02,22.67,6.05l21.47,12.4l5.77-10.52
		l-21.24-12.26c-17.68-10.21-39.65-10.21-57.33,0l-164.72,94.98l8.55,8.92L477.33,179.29z"/>
	<path class="st1" d="M766.41,320.02c13.98,8.07,22.67,23.11,22.67,39.26V397l12,0v-37.73c0-20.42-10.98-39.44-28.67-49.65
		l-91.1-52.6l-7.59,9.47L766.41,320.02z"/>
	<path class="st1" d="M522.67,820.71c-13.98,8.07-31.35,8.07-45.33,0l-166.09-95.89l-6.93,9.86l167.02,96.43
		c8.84,5.1,18.75,7.66,28.67,7.66s19.82-2.55,28.67-7.66l86.38-49.57l-6.35-10.19L522.67,820.71z"/>
	<path class="st1" d="M198.9,700.01c-13.98-8.07-22.66-23.11-22.66-39.26V560.53h-12v100.22c0,20.42,10.98,39.44,28.66,49.65
		l80.95,46.73l6.93-9.86L198.9,700.01z"/>
	<rect x="164.23" y="405.81" class="st1" width="12" height="115.79"/>
	<path class="st1" d="M522.67,860.77c-13.98,8.07-31.35,8.07-45.33,0L318.17,769.8l-6.93,9.86l160.09,91.5
		c8.84,5.1,18.75,7.66,28.67,7.66s19.82-2.55,28.67-7.66l136.02-78.53l-6.35-10.19L522.67,860.77z"/>
	<path class="st1" d="M477.33,139.23c6.99-4.04,14.83-6.05,22.67-6.05c7.84,0,15.67,2.02,22.67,6.05l128.12,73.9l7.98-9.25
		l-130.1-75.05c-17.68-10.21-39.65-10.21-57.33,0l-155.48,89.97l7.61,9.46L477.33,139.23z"/>
	<path class="st1" d="M176.23,339.24c0-16.14,8.68-31.19,22.66-39.26l60.76-35.08l-7.88-9.31l-58.88,34
		c-17.68,10.21-28.66,29.23-28.66,49.65v6.18h12V339.24z"/>
	<path class="st1" d="M823.77,660.76c0,16.14-8.68,31.18-22.67,39.26l-83.13,48.2l6.35,10.19l82.78-48
		c17.68-10.21,28.67-29.23,28.67-49.65V506l-12,0V660.76z"/>
	<path class="st1" d="M801.1,299.99c13.98,8.07,22.67,23.11,22.67,39.26v128.73h12V339.24c0-20.42-10.98-39.44-28.67-49.65
		l-103.84-59.95l-7.59,9.47L801.1,299.99z"/>
	<path class="st1" d="M839.87,277.6c13.98,8.07,22.67,23.11,22.67,39.26v85.51l12-0.26v-85.25c0-20.42-10.98-39.44-28.67-49.65
		L727.8,199.04l-7.59,9.47L839.87,277.6z"/>
	<path class="st1" d="M160.13,722.4c-13.98-8.07-22.66-23.11-22.66-39.26V560.53h-12v122.61c0,20.42,10.98,39.44,28.66,49.65
		l183.64,105.96l6.93-9.86L160.13,722.4z"/>
	<path class="st1" d="M137.46,316.86c0-16.14,8.68-31.19,22.66-39.26l103.34-59.73l-7.61-9.46l-101.72,58.81
		c-17.68,10.21-28.66,29.23-28.66,49.65v46.31h12V316.86z"/>
	<path class="st1" d="M477.33,94.46c6.99-4.04,14.83-6.05,22.67-6.05c7.84,0,15.68,2.02,22.67,6.05l187.03,107.98l7.59-9.47
		L528.67,84.07c-17.68-10.21-39.65-10.21-57.33,0L291.25,188.24l7.61,9.46L477.33,94.46z"/>
	<path class="st1" d="M862.54,683.14c0,16.14-8.68,31.18-22.67,39.26L522.67,905.54c-13.98,8.07-31.35,8.07-45.33,0l-51.7-29.71
		l-6.93,9.86l52.63,30.25c8.84,5.1,18.75,7.66,28.67,7.66s19.82-2.55,28.67-7.66l317.21-183.14c17.68-10.21,28.67-29.23,28.67-49.65
		V506l-12,0V683.14z"/>
	<rect x="125.46" y="375.17" class="st1" width="12" height="91.11"/>
	<polygon class="st1" points="646.32,763.17 658.33,782.44 668.73,776.44 656.72,757.17 	"/>
	<polygon class="st1" points="639.97,752.98 646.32,763.17 656.72,757.17 650.37,746.98 	"/>
	<polygon class="st1" points="658.33,782.44 664.68,792.63 675.08,786.63 668.73,776.44 	"/>
	<rect x="835.77" y="494" class="st1" width="26.77" height="12"/>
	<rect x="823.77" y="494" class="st1" width="12" height="12"/>
	<rect x="862.54" y="494" class="st1" width="12" height="12"/>
	<polygon class="st1" points="681.31,257.03 695.67,239.12 685.15,233.05 670.79,250.96 	"/>
	<polygon class="st1" points="668.46,263.47 673.71,266.5 681.31,257.03 670.79,250.96 663.11,260.38 	"/>
	<polygon class="st1" points="685.15,233.05 695.67,239.12 703.26,229.64 692.75,223.57 	"/>
	<polygon class="st1" points="720.2,208.51 727.8,199.04 717.28,192.97 709.69,202.44 	"/>
	<polygon class="st1" points="326.35,212.74 309.37,191.63 298.86,197.7 315.84,218.81 	"/>
	<polygon class="st1" points="285.11,276.42 270.22,258.81 259.66,264.91 274.55,282.51 	"/>
	<polygon class="st1" points="282.43,291.82 292.99,285.73 285.11,276.42 274.55,282.51 	"/>
	<polygon class="st1" points="270.22,258.81 262.34,249.5 251.78,255.6 259.66,264.91 	"/>
	<polygon class="st1" points="554.53,197.69 560.3,187.17 549.91,181.16 544.13,191.69 	"/>
	<rect x="137.46" y="548.53" class="st1" width="26.77" height="12"/>
	<rect x="164.23" y="548.53" class="st1" width="12" height="12"/>
	<rect x="125.46" y="548.53" class="st1" width="12" height="12"/>
	<rect x="176.23" y="405.81" class="st1" width="22.69" height="12"/>
	<rect x="125.46" y="363.17" class="st1" width="12" height="12"/>
	<polygon class="st1" points="293.88,728.65 280.77,747.28 291.21,753.31 304.31,734.67 	"/>
	<polygon class="st1" points="300.81,718.79 293.88,728.65 304.31,734.67 311.24,724.81 	"/>
	<polygon class="st1" points="280.77,747.28 273.84,757.14 284.28,763.16 291.21,753.31 	"/>
</g>
</svg>
