<svg id="Ñëîé_1" data-name="Ñëîé 1" xmlns="http://www.w3.org/2000/svg" xmlns:xlink="http://www.w3.org/1999/xlink" viewBox="0 0 1633.49 1241.5"><defs><style>.cls-1{fill:#242e6c;}.cls-2{fill:#a0cbfa;}.cls-3,.cls-6{fill:#f24b46;}.cls-4{fill:#f9795a;}.cls-5{fill:#eb3668;}.cls-6{opacity:0.4;}.cls-7{fill:url(#Áåçûìÿííûé_ãðàäèåíò_8);}.cls-8{fill:#fd8857;}.cls-9{fill:#1b2251;}.cls-10{fill:#dce7fb;}.cls-11{fill:#6615b2;}.cls-12{fill:#c643db;}.cls-13{fill:#efecea;}.cls-14{fill:#cddcf9;}.cls-15{fill:#2a8fe3;}.cls-16{fill:#a2cdfc;}.cls-17{fill:#469df0;}.cls-18{fill:#b1c9f6;}.cls-19{fill:#313b75;}.cls-20{fill:#7f22ba;}</style><linearGradient id="Áåçûìÿííûé_ãðàäèåíò_8" x1="321.59" y1="619.86" x2="1407.57" y2="619.86" gradientUnits="userSpaceOnUse"><stop offset="0" stop-color="#f9795a"/><stop offset="1" stop-color="#eb3668"/></linearGradient></defs><title>net</title><path class="cls-1" d="M1742.37,1533.5s89.14,18.69,84.63,35.06-97.81-28-97.81-28-68.81,61.53-78.38,92.9c0,0,100.49-14.22,92.09.54s-112.27,34.41-112.27,34.41-47.23,72.75-5.78,104.74,73.26,21.23,81,10.77,37.81-85.77,46.73-79.8,3.53,63-16.91,87.59c0,0,89.74.71,102.78-41.76s-7-65.59,1.51-91.68,23-41.76,24.57-26.3-20.74,56.37-11.83,84,12.75,48.59,36.25,13.88,46.84-104.82,23.3-130.53l-2.94-3.22a16.44,16.44,0,0,1,2.94,3.22c7-5.31,30.8-7.74,48.76-8.83,3,0,7.17-.17,13-.64h0c2.57-.09,4.67-.15,6.13-.18,39,.48,93.84,31.51,93.84,31.51l5.54-7.21c-50.79-42.08-111.69-30.4-111.69-30.4-46.4,4.71-79.07-10-79.07-10s-10.63-89.89-80.18-78.81C1808.55,1494.81,1763.22,1507.94,1742.37,1533.5Z" transform="translate(-1291.57 -628.04)"/><path class="cls-1" d="M2917.56,776.16c-23.74-87.67-171.69-60.28-171.69-60.28S2645.41,869.31,2616.19,873,2676.46,725,2676.46,725c-56.62-5.48-200.91,63.92-200.91,63.92s9.13,179-20.1,175.35,0-158.91,0-158.91c-54.79,16.44-105.93,80.37-105.93,80.37-63.93,104.11,73.06,180.83,73.06,180.83s1.82,62.1-36.53,133.33h0s-8.65,13.15-17.45,35.51h14.94c1.22-4,2.56-7.88,4-11.6a.09.09,0,0,1,0-.06c0-.06,0-.11.07-.16,1-2.31,2.49-5.6,4.32-9.6h0v0c4.56-8.94,7.65-15.54,9.6-20.3a.09.09,0,0,0,0-.05c13.68-28,33.38-64.58,46.52-72.25a28.53,28.53,0,0,1-3.2-6.85l3.2,6.85c25.57,54.8,153.43,63.93,224.66,49.32s40.18-34.71,1.83-67.32-118.73-24-142.47-36.79,11-25.58,58.45-21.92,71.23,51.14,147.94,58.45,135.17-137,135.17-137c-53,16.44-147.95-12.79-151.6-31s137-16.44,158.9-21.92S2941.31,863.83,2917.56,776.16Z" transform="translate(-1291.57 -628.04)"/><path class="cls-1" d="M2267.23,776.34c-22.89-38.12-88.92-5.47-88.92-5.47s-26.83,85.68-40.11,91.31,8.64-77.74,8.64-77.74c-27.41,5-86.1,56.94-86.1,56.94s28.2,83.09,13.94,85.27-21.21-74.84-21.21-74.84c-23.62,15.05-39.17,52-39.17,52-16.21,57.58,58.56,75.42,58.56,75.42s9.15,29,.59,67.68h0A103.53,103.53,0,0,0,2070,1066l7-2c0-2,.15-4,.36-6,0,0,0,0,0,0a.19.19,0,0,0,0-.08c.18-1.22.43-3,.76-5.1h0c1-4.82,1.53-8.34,1.81-10.85v0c2.7-15,7.1-34.88,12.27-40.24a14.33,14.33,0,0,1-2.42-2.8l2.42,2.8c19.36,22.39,80.8,9.62,112.4-6.77s14.29-21.71-8.13-32-59.12,4.54-72,1.69,1.74-13.51,24.6-18.13,40.38,14.58,77.49,7.78,45.37-82.57,45.37-82.57c-22.75,14.81-71.39,13.73-75.55,5.61s62.33-26,71.92-31.54S2290.12,814.47,2267.23,776.34Z" transform="translate(-1291.57 -628.04)"/><path class="cls-2" d="M2158.16,1056.54l-27.62-.64c8.88,11.5,10.87,22.09,5.35,31.06-5.53,9.14-18.75,16.66-38.48,22.36a356.31,356.31,0,0,0-82-376.81,357.25,357.25,0,0,0-391-76.5c-5.25,2.27-10.5,4.62-15.57,7.06l0,0c-15.34-4.68-30.28-8.52-44.7-11.44-72.76-14.77-124.4-4.56-145.37,28.74-20,31.66-9.09,79.33,30.51,134.93v0c-5.34,9.87-10.14,20-14.58,30.51-3.35,7.88-6.33,15.76-9,23.81-74.42,4.44-114.26,17.54-128.74,41.26-16.84,27.61,6.16,64.67,79.76,100.7,10.14,5,21,9.87,32.41,14.76a348.83,348.83,0,0,0,25.62,97,356.73,356.73,0,0,0,655.75,3.35c36.3-7.51,60.2-19.28,69.71-34.85C2166.67,1081.16,2165.85,1069.21,2158.16,1056.54Zm-85.2,58.39c-24.17,4.35-54.32,6.88-89.53,7.25-54.65.66-117.42-3.65-183.56-12.37q8.36-18.18,16.35-37.3a502.89,502.89,0,0,0,59.44,16.16c21.76,4.42,41.62,6.6,59.35,6.6,41.55,0,71.32-12,86-35.33a61.05,61.05,0,0,0,5.91-12.23h-21.18c-.35.64-.72,1.28-1.11,1.9-10.92,17.34-35.33,26.29-69.6,26.29-16.39,0-35-2.05-55.55-6.21a483.8,483.8,0,0,1-55.94-15.14q7.65-19.14,14.84-39c12.92-35.6,24-70.89,32.91-104.78,40.75,6,84.49,9,131,9q43.41,0,89.93-3.51a338,338,0,0,1,6.93,68.33A333.68,333.68,0,0,1,2073,1114.93Zm-441.29,176.8c-10.31-3.74-15.53-18.53-18.11-30.27-4.06-18.56-4.8-44.64-2.12-75.4,1.35-15.56,3.52-32.1,6.45-49.4a917,917,0,0,1,124.76,43.16c-9.17,15.82-18.44,30.48-27.72,43.78-17.67,25.32-34.94,44.86-50,56.5C1655.46,1287.47,1642,1295.46,1631.67,1291.73ZM1752,1163.27a936.24,936.24,0,0,0-130.7-45.26q2.34-12,5.13-24.5,18.46,4.2,37.43,8.11c37,7.57,73.87,14,110,19.18Q1763.1,1143,1752,1163.27Zm-80-75q-21.42-4.41-42.2-9.21c6.51-27.1,14.51-55.37,23.86-84.16,48.57,29.85,98,54.14,144.72,71.37q-8.79,21-18,40.89C1744.79,1102,1708.45,1095.7,1672,1088.23ZM1553.36,722.3a222.62,222.62,0,0,0,13.13,23.1c24.56,38,57,65.45,79.86,81.84a391.34,391.34,0,0,0,42,26.17c-13.56,29.55-26.48,61.1-38.36,93.85q-3.32,9.16-6.47,18.29c-71-46.19-131-99.18-170.43-150.47l0,0a337.63,337.63,0,0,1,33.85-47.69c5.25-6.16,10.68-12.13,16.39-17.93l2.35-2.35A340.58,340.58,0,0,1,1553.36,722.3Zm303.39-51.18c10.3,3.74,15.53,18.52,18.11,30.27,4.06,18.56,4.8,44.63,2.12,75.4-2.93,33.67-9.67,71.92-19.71,112.64q-18.18-3.12-35.48-7.09c-39.83-9.16-76.14-21.69-108.57-37.43,19.35-40.35,39.81-76.34,60.27-105.66,17.66-25.33,34.94-44.87,50-56.51,7.84-6.07,18.39-12.57,27.62-12.57A16.45,16.45,0,0,1,1856.75,671.12Zm-40.49,229.33q17.7,4.11,36.32,7.33c-8.71,32.77-19.44,66.9-31.94,101.36q-7.22,19.93-14.93,39.18c-47-17.24-96.79-41.89-145.78-72.35q3.79-11.1,7.84-22.27c11.62-32,24.22-62.83,37.44-91.69C1738.51,878.15,1775.64,891,1816.26,900.45Zm184.46-153.36A334.68,334.68,0,0,1,2087.8,897.7c-77.43,5.66-148.38,3.88-211.81-5.3,10.07-41.12,16.84-79.81,19.81-114,3.29-37.73,2.89-82.42-12.41-107.58q5.31,2.05,10.59,4.27A333.88,333.88,0,0,1,2000.72,747.09Zm-237.48-98.41a336.18,336.18,0,0,1,68.53,7c-26.39,11.48-53.33,43.45-73.78,72.77-20.93,30-41.83,66.73-61.57,107.83a371.22,371.22,0,0,1-37.75-23.45c-39.26-27.85-62.78-57-75.59-76.57a198,198,0,0,1-14.32-25.59,335.64,335.64,0,0,1,43.42-26.19h0q9.24-4.66,18.83-8.76l1.39-.6.32-.13c1.37-.58,2.73-1.14,4.1-1.69l1.1-.44A333.78,333.78,0,0,1,1763.24,648.68Zm-328.18,42c10.92-17.34,35.33-26.28,69.6-26.28,16.39,0,35,2,55.55,6.2,7.78,1.58,15.74,3.43,23.82,5.57h0a351.2,351.2,0,0,0-73,56.3c-4.61,4.53-9,9.24-13.39,14.13-5.44,6-10.6,12.22-15.58,18.56A361.41,361.41,0,0,0,1460,796.79v0C1429.66,751.86,1420.55,713.74,1435.06,690.72Zm18.56,163.2c3-6.88,6.06-13.67,9.41-20.28v0c41.49,51.87,102.65,104.89,174.11,150.87-10.13,30.84-18.78,61.15-25.75,90.19-52-12.58-100.17-26.81-142.39-42-8.88-3.17-17.48-6.43-25.72-9.69-4.88-1.9-9.68-3.89-14.39-5.88-.72-7.25-1.27-14.58-1.45-21.91-.09-3.54-.18-7-.18-10.51,0-4.07.09-8.24.18-12.31a340.06,340.06,0,0,1,15.39-89.09c1.54-4.88,3.17-9.68,5-14.48C1449.63,863.79,1451.53,858.81,1453.62,853.92Zm-60.57,147c-64.19-31.33-93.53-61.56-80.4-83,10.6-17.38,49.16-29.15,108.19-33.5a347,347,0,0,0-13.4,75.33c-.54,7.6-.81,15.21-.9,22.9v2c0,7.7.27,15.39.72,23C1402.37,1005.48,1397.66,1003.21,1393.05,1001Zm48.71,38.48c8.69,3.26,17.56,6.52,26.7,9.68,42,14.57,89.16,28.11,139.56,40.12q-2.74,12.24-5.07,24.13c-4.12-1-8.24-2-12.36-2.91-69.69-15.86-122-19.09-146.21-19.63a328.51,328.51,0,0,1-13.22-55.47Zm11.86,76q-1.14-2.7-2.22-5.41c25.85,1,73.77,5,135,18.89q6.57,1.5,13.14,3.11c-3.16,18.38-5.48,35.94-6.92,52.44-2.72,31.27-2.91,67.33,5.81,93.08a337.84,337.84,0,0,1-144.8-162.11ZM1894,1294.19a337.07,337.07,0,0,1-232.6,10.72c24.85-13,49.82-42.94,69-70.51,9.92-14.21,19.83-30,29.61-46.93a949.85,949.85,0,0,1,161.62,93.5Q1908.18,1288.19,1894,1294.19Zm106.74-72a333.81,333.81,0,0,1-61.1,48.43,969.52,969.52,0,0,0-170.31-99.72c8.2-15,16.27-30.86,24.15-47.41,54.54,7.23,107,11.57,154.84,12.69,12.49.36,24.62.36,36.39.27,30.51-.36,57.67-2.17,80.94-5.43A333.82,333.82,0,0,1,2000.72,1222.22Z" transform="translate(-1291.57 -628.04)"/><path class="cls-3" d="M2085.8,1255.48l-44.92,534.15s-4.71,32.38,19.38,32.44c39.6.1,197.1,0,197.1,0s-29.8-6.74-29.44-21.9c.42-17.88,52.5-549.74,52.5-549.74Z" transform="translate(-1291.57 -628.04)"/><path class="cls-4" d="M2270.14,1812.38c-7.79,0-158.22.5-196.79,0-16.8-.21-19.75-14.94-19.89-24.48a47.73,47.73,0,0,1,.51-8l1.17-13.88,3-35.39,2.63-31.26,3.38-40.17,2.84-33.91,31.92-379.55,194.62-5s-21.93,222.58-37.45,384.6c-1.73,18.05-3.38,35.36-4.9,51.52q-.75,7.74-1.43,15.11c-1.44,15.33-2.75,29.41-3.9,41.84q-.9,9.82-1.66,18.21c-2,21.85-3.14,35.8-3.16,38.46a22.7,22.7,0,0,0,.38,4.32C2244.59,1811.82,2267.22,1812.38,2270.14,1812.38Z" transform="translate(-1291.57 -628.04)"/><polygon class="cls-4" points="321.59 336.78 431.02 776.32 446 836.52 496.96 1041.24 1443.82 1041.24 1255.97 336.78 321.59 336.78"/><polygon class="cls-4" points="321.59 336.78 306.42 341.84 476.8 1056.54 496.96 1041.25 321.59 336.78"/><polygon class="cls-3" points="476.8 1056.54 1417.83 1056.54 1443.81 1041.25 496.96 1041.25 476.8 1056.54"/><rect class="cls-4" x="2098.83" y="1812.59" width="203.75" height="9.68" transform="translate(3109.84 3006.83) rotate(180)"/><polygon class="cls-5" points="1397.94 911.43 1244.31 346.1 323.91 346.1 321.59 336.78 1255.96 336.78 1409.09 910.18 1397.94 911.43"/><polygon class="cls-3" points="959.21 1056.53 958.16 1063.93 766.55 1102.64 769.18 1071.38 770.43 1056.53 959.21 1056.53"/><path class="cls-6" d="M2270.14,1812.38c-7.79,0-158.22.5-196.79,0-16.8-.21-19.75-14.94-19.89-24.48L2244.17,1752c-2,21.85-3.14,35.8-3.16,38.46a22.7,22.7,0,0,0,.38,4.32C2244.59,1811.82,2267.22,1812.38,2270.14,1812.38Z" transform="translate(-1291.57 -628.04)"/><polygon class="cls-3" points="912.9 898.63 496.96 1041.25 446 836.52 912.9 898.63"/><polygon class="cls-7" points="321.59 336.78 1255.96 336.78 1407.57 902.95 462.54 902.95 321.59 336.78"/><path class="cls-3" d="M2287.06,1602.56c-2.7-13.89-16.14-25.15-30-25.15s-23,11.26-20.25,25.15,16.14,25.14,30,25.14S2289.76,1616.44,2287.06,1602.56Z" transform="translate(-1291.57 -628.04)"/><polygon class="cls-8" points="1363.5 878.41 488.64 878.41 389.56 483.73 381.97 453.46 375.49 427.64 360.29 367.11 1222.54 367.11 1239.23 427.64 1246.35 453.46 1254.69 483.73 1363.5 878.41"/><polygon class="cls-9" points="1239.23 427.64 375.49 427.64 360.29 367.11 1222.54 367.11 1239.23 427.64"/><path class="cls-10" d="M1687.53,1022.5c-1-4.18,1.5-7.57,5.68-7.57a10.35,10.35,0,0,1,9.46,7.57c1,4.18-1.51,7.57-5.68,7.57A10.34,10.34,0,0,1,1687.53,1022.5Z" transform="translate(-1291.57 -628.04)"/><path class="cls-10" d="M1712.68,1022.5c-1-4.18,1.5-7.57,5.68-7.57a10.33,10.33,0,0,1,9.45,7.57c1,4.18-1.5,7.57-5.68,7.57A10.33,10.33,0,0,1,1712.68,1022.5Z" transform="translate(-1291.57 -628.04)"/><path class="cls-10" d="M1739.75,1022.5c-1-4.18,1.5-7.57,5.68-7.57a10.33,10.33,0,0,1,9.45,7.57c1,4.18-1.5,7.57-5.68,7.57A10.33,10.33,0,0,1,1739.75,1022.5Z" transform="translate(-1291.57 -628.04)"/><polygon class="cls-1" points="1170.78 843.4 522.75 843.4 424.13 456.39 1063.02 456.39 1170.78 843.4"/><polygon class="cls-11" points="1254.59 546.44 1107.71 546.44 1080.86 456.39 1229.51 456.39 1254.59 546.44"/><polygon class="cls-3" points="858.34 494.08 774.3 494.08 770.84 481.12 854.88 481.12 858.34 494.08"/><polygon class="cls-4" points="1007.34 494.08 869.86 494.08 866.4 481.12 1003.88 481.12 1007.34 494.08"/><polygon class="cls-4" points="872.46 528.99 723.43 528.99 719.97 516.03 869 516.03 872.46 528.99"/><polygon class="cls-5" points="963.12 528.99 885.87 528.99 882.41 516.03 959.66 516.03 963.12 528.99"/><polygon class="cls-12" points="883.7 589.09 799.66 589.09 796.2 576.13 880.24 576.13 883.7 589.09"/><polygon class="cls-4" points="1032.69 589.09 895.21 589.09 891.76 576.13 1029.24 576.13 1032.69 589.09"/><polygon class="cls-13" points="897.82 624 748.79 624 745.33 611.04 894.36 611.04 897.82 624"/><polygon class="cls-13" points="988.48 624 911.23 624 907.77 611.04 985.02 611.04 988.48 624"/><polygon class="cls-3" points="807.58 678.04 523.26 678.04 519.81 665.08 804.12 665.08 807.58 678.04"/><polygon class="cls-12" points="909.79 678.04 825.76 678.04 822.3 665.08 906.33 665.08 909.79 678.04"/><polygon class="cls-4" points="1058.79 678.04 921.31 678.04 917.85 665.08 1055.33 665.08 1058.79 678.04"/><polygon class="cls-13" points="616.62 712.95 532.58 712.95 529.12 699.99 613.16 699.99 616.62 712.95"/><polygon class="cls-5" points="923.91 712.95 774.88 712.95 771.42 699.99 920.46 699.99 923.91 712.95"/><polygon class="cls-4" points="765.61 712.95 628.13 712.95 624.67 699.99 762.16 699.99 765.61 712.95"/><polygon class="cls-4" points="1014.57 712.95 937.32 712.95 933.87 699.99 1011.11 699.99 1014.57 712.95"/><polygon class="cls-3" points="839.86 774.41 555.54 774.41 552.08 761.45 836.4 761.45 839.86 774.41"/><polygon class="cls-12" points="942.07 774.41 858.03 774.41 854.58 761.45 938.61 761.45 942.07 774.41"/><polygon class="cls-13" points="648.89 809.32 564.86 809.32 561.4 796.37 645.44 796.37 648.89 809.32"/><polygon class="cls-5" points="956.19 809.32 807.16 809.32 803.7 796.37 952.73 796.37 956.19 809.32"/><polygon class="cls-4" points="797.89 809.32 660.41 809.32 656.95 796.37 794.43 796.37 797.89 809.32"/><polygon class="cls-4" points="1046.85 809.32 969.6 809.32 966.14 796.37 1043.39 796.37 1046.85 809.32"/><polygon class="cls-13" points="1181.46 574.3 1116.83 574.5 1115.4 568.63 1180.03 568.43 1181.46 574.3"/><polygon class="cls-13" points="1215.55 574.19 1191.25 574.27 1189.82 568.4 1214.12 568.32 1215.55 574.19"/><polygon class="cls-13" points="1264.82 574.04 1221.86 574.17 1220.43 568.3 1263.38 568.17 1264.82 574.04"/><polygon class="cls-13" points="1155.88 589.23 1120.44 589.34 1119.01 583.47 1154.45 583.36 1155.88 589.23"/><polygon class="cls-13" points="1207.55 589.07 1161.79 589.21 1160.36 583.34 1206.12 583.2 1207.55 589.07"/><polygon class="cls-13" points="1268.43 588.88 1215.99 589.04 1214.56 583.17 1267 583.01 1268.43 588.88"/><polygon class="cls-13" points="1189.19 606.01 1124.56 606.21 1123.13 600.34 1187.76 600.14 1189.19 606.01"/><polygon class="cls-13" points="1223.28 605.9 1198.98 605.98 1197.55 600.11 1221.85 600.03 1223.28 605.9"/><polygon class="cls-13" points="1272.55 605.75 1229.59 605.89 1228.16 600.01 1271.12 599.88 1272.55 605.75"/><polygon class="cls-13" points="1163.61 620.94 1128.17 621.05 1126.74 615.18 1162.18 615.07 1163.61 620.94"/><polygon class="cls-13" points="1215.28 620.78 1169.52 620.92 1168.09 615.05 1213.85 614.91 1215.28 620.78"/><polygon class="cls-13" points="1276.16 620.6 1223.72 620.76 1222.29 614.89 1274.73 614.73 1276.16 620.6"/><polygon class="cls-13" points="1138.51 468.89 1099.58 469.01 1098.72 465.47 1137.64 465.35 1138.51 468.89"/><polygon class="cls-13" points="1159.03 468.82 1144.4 468.87 1143.54 465.34 1158.17 465.29 1159.03 468.82"/><polygon class="cls-13" points="1188.7 468.73 1162.83 468.81 1161.97 465.28 1187.84 465.2 1188.7 468.73"/><polygon class="cls-13" points="1123.1 477.88 1101.76 477.95 1100.9 474.41 1122.24 474.35 1123.1 477.88"/><polygon class="cls-13" points="1154.21 477.79 1126.66 477.87 1125.79 474.33 1153.35 474.25 1154.21 477.79"/><polygon class="cls-13" points="1190.88 477.67 1159.3 477.77 1158.43 474.24 1190.02 474.14 1190.88 477.67"/><polygon class="cls-13" points="1143.16 487.99 1104.24 488.11 1103.37 484.57 1142.3 484.45 1143.16 487.99"/><polygon class="cls-13" points="1163.69 487.92 1149.05 487.97 1148.19 484.43 1162.83 484.39 1163.69 487.92"/><polygon class="cls-13" points="1193.35 487.83 1167.49 487.91 1166.63 484.38 1192.49 484.3 1193.35 487.83"/><polygon class="cls-13" points="1127.75 496.98 1106.41 497.05 1105.55 493.51 1126.89 493.44 1127.75 496.98"/><polygon class="cls-13" points="1158.87 496.88 1131.31 496.97 1130.45 493.43 1158.01 493.35 1158.87 496.88"/><polygon class="cls-13" points="1195.53 496.77 1163.95 496.87 1163.09 493.33 1194.67 493.24 1195.53 496.77"/><polygon class="cls-13" points="1202.4 660.2 1137.77 660.4 1136.33 654.53 1200.97 654.33 1202.4 660.2"/><polygon class="cls-13" points="1236.49 660.09 1212.18 660.17 1210.75 654.3 1235.06 654.22 1236.49 660.09"/><polygon class="cls-13" points="1285.75 659.94 1242.8 660.07 1241.37 654.2 1284.32 654.07 1285.75 659.94"/><polygon class="cls-13" points="1176.82 675.13 1141.38 675.24 1139.95 669.37 1175.39 669.26 1176.82 675.13"/><polygon class="cls-13" points="1228.49 674.97 1182.73 675.11 1181.3 669.24 1227.06 669.1 1228.49 674.97"/><polygon class="cls-13" points="1289.37 674.78 1236.93 674.95 1235.49 669.07 1287.94 668.91 1289.37 674.78"/><polygon class="cls-13" points="1215.35 713.31 1150.71 713.5 1149.28 707.63 1213.91 707.43 1215.35 713.31"/><polygon class="cls-13" points="1249.43 713.2 1225.13 713.27 1223.7 707.4 1248 707.33 1249.43 713.2"/><polygon class="cls-13" points="1298.7 713.05 1255.74 713.18 1254.31 707.31 1297.27 707.18 1298.7 713.05"/><polygon class="cls-13" points="1189.76 728.24 1154.33 728.35 1152.9 722.48 1188.33 722.37 1189.76 728.24"/><polygon class="cls-13" points="1241.43 728.08 1195.67 728.22 1194.24 722.35 1240 722.21 1241.43 728.08"/><polygon class="cls-13" points="1302.32 727.89 1249.87 728.05 1248.44 722.18 1300.89 722.02 1302.32 727.89"/><polygon class="cls-13" points="1227.01 761.15 1162.37 761.35 1160.94 755.48 1225.58 755.28 1227.01 761.15"/><polygon class="cls-13" points="1261.1 761.05 1236.79 761.12 1235.36 755.25 1259.67 755.18 1261.1 761.05"/><polygon class="cls-13" points="1310.36 760.9 1267.41 761.03 1265.97 755.16 1308.93 755.03 1310.36 760.9"/><polygon class="cls-13" points="1201.43 776.09 1165.99 776.2 1164.56 770.33 1200 770.22 1201.43 776.09"/><polygon class="cls-13" points="1253.1 775.93 1207.33 776.07 1205.9 770.2 1251.66 770.06 1253.1 775.93"/><polygon class="cls-13" points="1313.98 775.74 1261.53 775.9 1260.1 770.03 1312.55 769.87 1313.98 775.74"/><path class="cls-1" d="M2549,1460.36c-10.39,0-21.31-8.45-24.34-18.84s2.95-18.84,13.34-18.84,21.31,8.45,24.34,18.84S2559.42,1460.36,2549,1460.36Zm-10-34.24c-8.5,0-13.39,6.91-10.91,15.4s11.4,15.4,19.9,15.4,13.38-6.91,10.9-15.4S2547.53,1426.12,2539,1426.12Z" transform="translate(-1291.57 -628.04)"/><path class="cls-1" d="M2546,1451.1a3.89,3.89,0,0,1-2.12-.88l-10.57-8.46c-1.42-1.14-1.91-3-1.09-4s2.65-1.06,4.08.09l7.47,6,3.83-8.85c.55-1.29,2.26-1.57,3.81-.64s2.37,2.72,1.81,4l-5,11.63a2,2,0,0,1-1.78,1.18Z" transform="translate(-1291.57 -628.04)"/><path class="cls-5" d="M2601,1460.36c-10.38,0-21.3-8.45-24.34-18.84s3-18.84,13.34-18.84,21.31,8.45,24.34,18.84S2611.42,1460.36,2601,1460.36Zm-10-34.24c-8.49,0-13.38,6.91-10.9,15.4s11.4,15.4,19.89,15.4,13.38-6.91,10.9-15.4S2599.53,1426.12,2591,1426.12Z" transform="translate(-1291.57 -628.04)"/><path class="cls-5" d="M2596.43,1444.6h0a3.87,3.87,0,0,1-3.44-2.66l-2.34-8a1.94,1.94,0,0,1,1.89-2.66h0a3.84,3.84,0,0,1,3.44,2.66l2.34,8A1.93,1.93,0,0,1,2596.43,1444.6Z" transform="translate(-1291.57 -628.04)"/><path class="cls-5" d="M2598.55,1450.88H2598a3.44,3.44,0,0,1-3.07-2.37h0a1.72,1.72,0,0,1,1.68-2.38h.58a3.44,3.44,0,0,1,3.07,2.38h0A1.72,1.72,0,0,1,2598.55,1450.88Z" transform="translate(-1291.57 -628.04)"/><path class="cls-14" d="M2491.08,1165.8c-5.69,0-11.68-4.63-13.34-10.33s1.62-10.33,7.31-10.33,11.68,4.64,13.34,10.33S2496.78,1165.8,2491.08,1165.8ZM2485.6,1147c-4.65,0-7.34,3.79-6,8.44s6.26,8.45,10.91,8.45,7.34-3.79,6-8.45S2490.26,1147,2485.6,1147Z" transform="translate(-1291.57 -628.04)"/><path class="cls-14" d="M2489.39,1160.73a2.21,2.21,0,0,1-1.16-.48l-5.79-4.65a1.69,1.69,0,0,1-.6-2.22,1.57,1.57,0,0,1,2.23,0l4.1,3.28,2.1-4.85c.3-.7,1.24-.86,2.09-.35a1.9,1.9,0,0,1,1,2.19l-2.76,6.38a1.09,1.09,0,0,1-1,.65Z" transform="translate(-1291.57 -628.04)"/><path class="cls-14" d="M2461.53,1165.8c-5.7,0-11.68-4.63-13.35-10.33s1.62-10.33,7.32-10.33,11.68,4.64,13.34,10.33S2467.22,1165.8,2461.53,1165.8Zm-5.48-18.77c-4.66,0-7.34,3.79-6,8.44s6.25,8.45,10.91,8.45,7.33-3.79,6-8.45S2460.7,1147,2456.05,1147Z" transform="translate(-1291.57 -628.04)"/><path class="cls-14" d="M2459.84,1160.73a2.18,2.18,0,0,1-1.16-.48l-5.79-4.65a1.68,1.68,0,0,1-.6-2.22,1.57,1.57,0,0,1,2.23,0l4.1,3.28,2.1-4.85c.3-.7,1.24-.86,2.09-.35a1.91,1.91,0,0,1,1,2.19l-2.76,6.38a1.09,1.09,0,0,1-1,.65Z" transform="translate(-1291.57 -628.04)"/><path class="cls-14" d="M2430.92,1165.8c-5.7,0-11.68-4.63-13.35-10.33s1.62-10.33,7.32-10.33,11.68,4.64,13.34,10.33S2436.61,1165.8,2430.92,1165.8Zm-5.48-18.77c-4.66,0-7.34,3.79-6,8.44s6.25,8.45,10.91,8.45,7.33-3.79,6-8.45S2430.09,1147,2425.44,1147Z" transform="translate(-1291.57 -628.04)"/><path class="cls-14" d="M2429.23,1160.73a2.15,2.15,0,0,1-1.16-.48l-5.8-4.65a1.7,1.7,0,0,1-.6-2.22,1.58,1.58,0,0,1,2.24,0l4.1,3.28,2.09-4.85c.31-.7,1.25-.86,2.1-.35a1.91,1.91,0,0,1,1,2.19l-2.76,6.38a1.09,1.09,0,0,1-1,.65Z" transform="translate(-1291.57 -628.04)"/><path class="cls-5" d="M2519.59,1165.8c-5.69,0-11.68-4.63-13.34-10.33s1.62-10.33,7.31-10.33,11.68,4.64,13.35,10.33S2525.29,1165.8,2519.59,1165.8Zm-5.48-18.77c-4.65,0-7.33,3.79-6,8.44s6.25,8.45,10.9,8.45,7.34-3.79,6-8.45S2518.77,1147,2514.11,1147Z" transform="translate(-1291.57 -628.04)"/><path class="cls-5" d="M2517.07,1157.16h0a2.12,2.12,0,0,1-1.89-1.46l-1.28-4.39a1.06,1.06,0,0,1,1-1.46h0a2.11,2.11,0,0,1,1.88,1.46l1.29,4.39A1.06,1.06,0,0,1,2517.07,1157.16Z" transform="translate(-1291.57 -628.04)"/><path class="cls-5" d="M2518.23,1160.61h-.31a1.87,1.87,0,0,1-1.68-1.31h0a.94.94,0,0,1,.92-1.3h.31a1.9,1.9,0,0,1,1.69,1.3h0A1,1,0,0,1,2518.23,1160.61Z" transform="translate(-1291.57 -628.04)"/><path class="cls-15" d="M1793.93,1545.71c-.12.08-.24.19-.4.3-6,4.59-46.74,32.38-138.27,20.08-.63,3.51-1.21,7-1.76,10.44-.27,1.73-.55,3.45-.8,5.15s-.5,3.35-.74,5v.09c-.24,1.68-.48,3.34-.7,5s-.44,3.31-.64,5-.41,3.25-.6,4.88l0,.08c-.18,1.61-.37,3.21-.54,4.81s-.34,3.21-.5,4.81-.31,3.17-.45,4.75-.28,3.13-.41,4.69c-.1,1.14-.19,2.27-.28,3.4-.07.93-.14,1.86-.2,2.79s-.11,1.58-.16,2.37c0,.42-.06.83-.08,1.25-.08,1.32-.17,2.63-.24,4s-.15,2.81-.22,4.21c0,.27,0,.53,0,.8,0,1-.09,2.09-.13,3.11,0,.83-.07,1.64-.08,2.45-.1,2.63-.16,5.21-.2,7.78,0,1.17,0,2.34,0,3.51,0,1.38,0,2.74,0,4.1,0,.11,0,.21,0,.31,0,1.33,0,2.65,0,4,0,1.09,0,2.18,0,3.25s0,1.86.06,2.77c0,.32,0,.65,0,1l.09,2.86c0,1,.07,2,.11,3s.09,2.18.15,3.25c.05,1.26.12,2.51.19,3.76,0,.12,0,.23,0,.35.07,1.23.15,2.44.23,3.66s.18,2.55.28,3.81.2,2.52.32,3.76.21,2.48.34,3.71.23,2.33.36,3.49c0,.14,0,.28.05.42.12,1.13.25,2.25.38,3.36s.29,2.36.44,3.53c0,0,0,.06,0,.09.16,1.16.3,2.31.47,3.46s.32,2.3.5,3.44c0,0,0,.06,0,.09.17,1.12.35,2.22.52,3.33a.11.11,0,0,1,0,0c.18,1.13.37,2.24.56,3.34s.39,2.23.59,3.33c.25,1.36.5,2.69.76,4,.17.83.33,1.66.5,2.49.22,1,.43,2.06.65,3.07l.09.4c.2.95.42,1.91.63,2.85s.48,2.07.73,3.1q.75,3.17,1.56,6.23c.24.93.5,1.85.75,2.77s.53,1.92.8,2.87c.19.7.4,1.39.6,2.08s.4,1.36.61,2,.33,1.07.5,1.61c.28.93.57,1.86.86,2.77q.9,2.76,1.83,5.44c.3.89.61,1.77.93,2.65s.63,1.75,1,2.61c.87,2.36,1.77,4.66,2.69,6.92.27.68.55,1.35.83,2,.4,1,.8,1.92,1.21,2.86.32.74.64,1.48,1,2.22,1.76,4,3.59,7.79,5.45,11.43.37.72.74,1.42,1.11,2.12.89,1.67,1.77,3.31,2.68,4.92.3.56.63,1.12,1,1.68l.89,1.54,1,1.77c.81,1.34,1.61,2.65,2.42,3.93.28.45.56.9.84,1.33.88,1.37,1.76,2.72,2.66,4,.31.48.63.94.95,1.4q3.14,4.56,6.26,8.6l1.16,1.48q3,3.83,6,7.2c.62.71,1.25,1.41,1.88,2.1l.15.17,1.12,1.22q3.36,3.62,6.53,6.65l1,1c.69.66,1.38,1.29,2.06,1.9l1.9,1.71a.39.39,0,0,0,.1.08l1.81,1.58c1,.86,2,1.69,3,2.46l.8.64c1.76,1.39,3.39,2.61,4.89,3.68l1.32.93c1.25.86,2.39,1.62,3.39,2.24l.86.55c.62.37,1.16.71,1.64,1,.1.07.21.12.31.18l.31.18c1.1.64,1.7.93,1.7.93q8.78-2.86,17-6.31c34.61-14.49,62-36.49,83.67-62l.16-.21c46.64-55,66.7-126.13,75.26-173.24.94-5.22,1.76-10.14,2.44-14.71C1824.34,1592.15,1796.81,1550.48,1793.93,1545.71Z" transform="translate(-1291.57 -628.04)"/><path class="cls-16" d="M1900.73,1634.83c-7.81,43-26.09,107.81-68.61,157.94l-.15.19c-19.76,23.24-44.72,43.3-76.28,56.51q-7.5,3.13-15.49,5.75s-.55-.27-1.56-.85l-.28-.17-.28-.15-1.49-.9-.79-.5c-.91-.57-2-1.26-3.09-2l-1.2-.85c-1.37-1-2.86-2.09-4.46-3.36l-.73-.58c-.88-.7-1.79-1.46-2.72-2.25l-1.66-1.43-.09-.07-1.73-1.56c-.62-.56-1.25-1.14-1.88-1.74l-1-.91q-2.88-2.77-6-6.07l-1-1.1a1.07,1.07,0,0,0-.14-.16c-.57-.62-1.14-1.27-1.71-1.92q-2.7-3.08-5.46-6.55c-.35-.45-.71-.9-1.06-1.36q-2.85-3.67-5.71-7.84c-.29-.41-.58-.84-.87-1.27-.81-1.2-1.62-2.42-2.42-3.68-.25-.39-.51-.8-.76-1.21-.74-1.17-1.48-2.36-2.21-3.58l-.94-1.61c-.28-.47-.55-.94-.82-1.41s-.59-1-.87-1.54q-1.23-2.19-2.44-4.47l-1-1.95c-1.7-3.31-3.36-6.79-5-10.41-.31-.67-.6-1.35-.89-2-.38-.86-.74-1.73-1.11-2.61-.25-.61-.51-1.22-.75-1.84-.84-2.06-1.66-4.16-2.46-6.32-.29-.78-.58-1.58-.86-2.37s-.58-1.61-.85-2.42q-.84-2.45-1.67-5c-.26-.83-.52-1.67-.78-2.53-.16-.49-.31-1-.45-1.46s-.39-1.24-.56-1.87-.37-1.26-.55-1.9c-.25-.86-.49-1.73-.73-2.61s-.46-1.68-.68-2.53c-.5-1.86-1-3.75-1.43-5.68-.23-.94-.45-1.87-.66-2.82s-.39-1.73-.57-2.6l-.09-.37c-.2-.92-.39-1.85-.59-2.8l-.45-2.26c-.24-1.21-.47-2.43-.7-3.67l-.54-3c-.17-1-.35-2-.51-3a.11.11,0,0,0,0,0c-.16-1-.31-2-.47-3,0,0,0-.06,0-.08-.16-1-.31-2.09-.46-3.14s-.28-2.1-.42-3.15a.31.31,0,0,1,0-.09c-.14-1.07-.27-2.14-.4-3.21s-.24-2-.35-3.07c0-.13,0-.25,0-.38-.12-1.06-.23-2.11-.33-3.19s-.22-2.24-.32-3.38-.19-2.27-.28-3.43-.18-2.3-.26-3.47-.15-2.21-.21-3.34c0-.1,0-.21,0-.31-.07-1.14-.13-2.28-.18-3.43,0-1-.09-2-.13-3s-.07-1.84-.1-2.77,0-1.74-.08-2.61c0-.3,0-.59,0-.89q0-1.24-.06-2.52,0-1.47,0-3c0-1.19,0-2.4,0-3.61a2.81,2.81,0,0,0,0-.29c0-1.23,0-2.48,0-3.74,0-1.06,0-2.12.05-3.2,0-2.34.1-4.69.18-7.08,0-.75.05-1.49.08-2.24,0-.94.08-1.88.12-2.84l0-.73c.07-1.27.13-2.56.21-3.84s.14-2.39.21-3.6c0-.38,0-.75.07-1.13l.15-2.16c.06-.85.12-1.7.19-2.55.08-1,.16-2.06.25-3.1.11-1.42.24-2.85.37-4.28s.27-2.88.42-4.33.29-2.91.45-4.38.33-2.92.5-4.39V1611c.17-1.48.35-3,.54-4.45s.39-3,.59-4.53.42-3,.63-4.56l0-.08c.21-1.52.44-3,.67-4.58s.48-3.11.73-4.68q.75-4.71,1.6-9.53c83.45,11.22,120.6-14.12,126.06-18.3.15-.11.26-.2.37-.27,2.62,4.34,27.72,42.33,111.61,61.42C1902.33,1625.59,1901.59,1630.08,1900.73,1634.83Z" transform="translate(-1291.57 -628.04)"/><path class="cls-17" d="M1791.71,1559.7l-53.07,294.67c-.55-.31-1.24-.72-2.05-1.22l-.79-.5c-.91-.57-2-1.26-3.09-2l-1.2-.85c-1.37-1-2.86-2.09-4.46-3.36l-.73-.58c-.88-.7-1.79-1.46-2.72-2.25l-1.66-1.43-.09-.07-1.73-1.56c-.62-.56-1.25-1.14-1.88-1.74l-1-.91q-2.88-2.77-6-6.07l-1-1.1a1.07,1.07,0,0,0-.14-.16c-.57-.62-1.14-1.27-1.71-1.92q-2.7-3.08-5.46-6.55c-.35-.45-.71-.9-1.06-1.36q-2.85-3.67-5.71-7.84c-.29-.41-.58-.84-.87-1.27-.81-1.2-1.62-2.42-2.42-3.68-.25-.39-.51-.8-.76-1.21-.74-1.17-1.48-2.36-2.21-3.58l-.94-1.61c-.28-.47-.55-.94-.82-1.41s-.59-1-.87-1.54q-1.23-2.19-2.44-4.47l-1-1.95c-1.7-3.31-3.36-6.79-5-10.41-.31-.67-.6-1.35-.89-2-.38-.86-.74-1.73-1.11-2.61-.25-.61-.51-1.22-.75-1.84-.84-2.06-1.66-4.16-2.46-6.32-.29-.78-.58-1.58-.86-2.37s-.58-1.61-.85-2.42q-.84-2.45-1.67-5c-.26-.83-.52-1.67-.78-2.53-.16-.49-.31-1-.45-1.46s-.39-1.24-.56-1.87-.37-1.26-.55-1.9c-.25-.86-.49-1.73-.73-2.61s-.46-1.68-.68-2.53c-.5-1.86-1-3.75-1.43-5.68-.23-.94-.45-1.87-.66-2.82s-.39-1.73-.57-2.6l-.09-.37c-.2-.92-.39-1.85-.59-2.8l-.45-2.26c-.24-1.21-.47-2.43-.7-3.67l-.54-3c-.17-1-.35-2-.51-3a.11.11,0,0,0,0,0c-.16-1-.31-2-.47-3,0,0,0-.06,0-.08-.16-1-.31-2.09-.46-3.14s-.28-2.1-.42-3.15a.31.31,0,0,1,0-.09c-.14-1.07-.27-2.14-.4-3.21s-.24-2-.35-3.07c0-.13,0-.25,0-.38-.12-1.06-.23-2.11-.33-3.19s-.22-2.24-.32-3.38-.19-2.27-.28-3.43-.18-2.3-.26-3.47-.15-2.21-.21-3.34c0-.1,0-.21,0-.31-.07-1.14-.13-2.28-.18-3.43,0-1-.09-2-.13-3s-.07-1.84-.1-2.77,0-1.74-.08-2.61c0-.3,0-.59,0-.89q0-1.24-.06-2.52,0-1.47,0-3c0-1.19,0-2.4,0-3.61a2.81,2.81,0,0,0,0-.29c0-1.23,0-2.48,0-3.74,0-1.06,0-2.12.05-3.2,0-2.34.1-4.69.18-7.08,0-.75.05-1.49.08-2.24,0-.94.08-1.88.12-2.84l0-.73c.07-1.27.13-2.56.21-3.84s.14-2.39.21-3.6c0-.38,0-.75.07-1.13l.15-2.16c.06-.85.12-1.7.19-2.55.08-1,.16-2.06.25-3.1.11-1.42.24-2.85.37-4.28s.27-2.88.42-4.33.29-2.91.45-4.38.33-2.92.5-4.39V1611c.17-1.48.35-3,.54-4.45s.39-3,.59-4.53.42-3,.63-4.56l0-.08c.21-1.52.44-3,.67-4.58s.48-3.11.73-4.68q.75-4.71,1.6-9.53C1755.73,1590.79,1791.71,1559.7,1791.71,1559.7Z" transform="translate(-1291.57 -628.04)"/><polygon class="cls-18" points="1508.45 402.36 907.85 402.36 861.83 251.63 1462.42 251.63 1508.45 402.36"/><path class="cls-13" d="M2731.14,930.63l5.5,18c2.42,7.93-2.09,14.43-10,14.43H2229c-7.94,0-16.41-6.5-18.83-14.43l-5.51-18c-2.42-7.93,2.09-14.42,10-14.42h497.59C2720.24,916.21,2728.71,922.7,2731.14,930.63Z" transform="translate(-1291.57 -628.04)"/><path class="cls-19" d="M2631.49,934.4h-7.63l-.72-2.34h10.67l.62,2-2.83,13.17h-3Z" transform="translate(-1291.57 -628.04)"/><path class="cls-19" d="M2638,939.65c-1.32-4.34.25-7.85,4.24-7.85s7.66,3.47,9,7.85-.25,7.85-4.24,7.85S2639.34,944,2638,939.65Zm10.48,0c-.91-3-3.2-5.45-5.54-5.45s-3.11,2.39-2.18,5.45,3.18,5.44,5.54,5.44S2649.41,942.68,2648.48,939.65Z" transform="translate(-1291.57 -628.04)"/><path class="cls-19" d="M2652.34,935.76c-.65-2.1.26-3.88,2.41-3.88a5.33,5.33,0,0,1,4.74,3.88c.64,2.11-.27,3.89-2.41,3.89A5.32,5.32,0,0,1,2652.34,935.76Zm11.51-3.7H2666l-6.47,15.18h-2.14Zm-6.29,3.7a2.9,2.9,0,0,0-2.34-2.21c-1,0-1.33,1-.95,2.21a2.87,2.87,0,0,0,2.34,2.22C2657.63,938,2657.93,937,2657.56,935.76Zm6.32,7.77c-.64-2.1.27-3.88,2.41-3.88a5.33,5.33,0,0,1,4.75,3.88c.64,2.1-.27,3.88-2.42,3.88A5.33,5.33,0,0,1,2663.88,943.53Zm5.23,0a2.9,2.9,0,0,0-2.35-2.21c-1,0-1.32,1-1,2.21a2.87,2.87,0,0,0,2.35,2.21C2669.17,945.74,2669.48,944.74,2669.11,943.53Z" transform="translate(-1291.57 -628.04)"/><path class="cls-20" d="M2551.18,916.21l14.32,46.88H2229c-6.62,0-13.59-4.51-17.13-10.59a17.44,17.44,0,0,1-1.7-3.84l-5.51-18c-2.42-7.93,2.09-14.42,10-14.42Z" transform="translate(-1291.57 -628.04)"/><path class="cls-1" d="M2274.28,916.21l-14.19,46.88H2229c-6.62,0-13.59-4.51-17.13-10.59l11-36.29Z" transform="translate(-1291.57 -628.04)"/><polygon class="cls-1" points="1070.76 288.17 1056.58 335.05 1005.2 335.05 1019.38 288.17 1070.76 288.17"/><polygon class="cls-1" points="1158.82 288.17 1144.64 335.05 1093.24 335.05 1107.43 288.17 1158.82 288.17"/><polygon class="cls-1" points="1246.89 288.17 1232.7 335.05 1181.31 335.05 1195.49 288.17 1246.89 288.17"/><polygon class="cls-19" points="1028.73 362.81 938.86 362.81 936.97 356.62 1026.83 356.62 1028.73 362.81"/><polygon class="cls-19" points="1009.45 380.15 944.16 380.15 942.26 373.95 1007.56 373.95 1009.45 380.15"/><polygon class="cls-19" points="1052.51 380.15 1013.48 380.15 1011.59 373.95 1050.62 373.95 1052.51 380.15"/><polygon class="cls-19" points="1118.88 380.15 1059.26 380.15 1057.37 373.95 1116.99 373.95 1118.88 380.15"/><polygon class="cls-19" points="1062.69 362.81 1035.48 362.81 1033.59 356.62 1060.8 356.62 1062.69 362.81"/><polygon class="cls-19" points="1170.95 362.81 1072.01 362.81 1070.11 356.62 1169.06 356.62 1170.95 362.81"/><polygon class="cls-18" points="697.78 629.86 275.27 629.86 209.59 414.8 632.11 414.8 697.78 629.86"/><polygon class="cls-13" points="638.15 522.33 269.23 522.33 241.32 430.93 610.24 430.93 638.15 522.33"/><polygon class="cls-9" points="329.89 449.5 267.4 449.5 265.91 444.63 328.4 444.63 329.89 449.5"/><polygon class="cls-9" points="396.73 449.5 344.76 449.5 343.27 444.63 395.24 444.63 396.73 449.5"/><polygon class="cls-9" points="517.7 449.5 410.27 449.5 408.78 444.63 516.21 444.63 517.7 449.5"/><polygon class="cls-9" points="335.22 466.97 272.73 466.97 271.24 462.1 333.73 462.1 335.22 466.97"/><polygon class="cls-9" points="402.06 466.97 350.09 466.97 348.6 462.1 400.58 462.1 402.06 466.97"/><polygon class="cls-9" points="463.45 466.97 411.47 466.97 409.98 462.1 461.96 462.1 463.45 466.97"/><polygon class="cls-9" points="586.61 469 479.19 469 477.7 464.13 585.13 464.13 586.61 469"/><polygon class="cls-9" points="341.99 489.12 279.49 489.12 278 484.25 340.5 484.25 341.99 489.12"/><polygon class="cls-9" points="408.83 489.12 356.86 489.12 355.37 484.25 407.34 484.25 408.83 489.12"/><polygon class="cls-9" points="529.79 489.12 422.37 489.12 420.88 484.25 528.3 484.25 529.79 489.12"/><polygon class="cls-9" points="347.32 506.59 284.83 506.59 283.34 501.72 345.83 501.72 347.32 506.59"/><polygon class="cls-9" points="414.16 506.59 362.19 506.59 360.7 501.72 412.68 501.72 414.16 506.59"/><polygon class="cls-9" points="475.55 506.59 423.57 506.59 422.08 501.72 474.06 501.72 475.55 506.59"/><polygon class="cls-9" points="598.71 508.63 491.29 508.63 489.8 503.75 597.23 503.75 598.71 508.63"/><path class="cls-1" d="M1808.17,1226.08c-14.32,0-29.53-11.65-33.9-26s3.72-26,18-26,29.53,11.65,33.9,26S1822.49,1226.08,1808.17,1226.08Zm-14.41-47.19c-11.71,0-18.32,9.52-14.75,21.22s16,21.23,27.71,21.23,18.32-9.52,14.75-21.23S1805.46,1178.89,1793.76,1178.89Z" transform="translate(-1291.57 -628.04)"/><path class="cls-1" d="M1803.75,1213.32a5.46,5.46,0,0,1-2.93-1.21l-14.73-11.67c-2-1.57-2.7-4.07-1.58-5.58s3.63-1.46,5.63.12l10.4,8.24,5.12-12.2c.74-1.76,3.09-2.15,5.25-.88s3.3,3.75,2.56,5.52l-6.72,16a2.72,2.72,0,0,1-2.44,1.62A2.62,2.62,0,0,1,1803.75,1213.32Z" transform="translate(-1291.57 -628.04)"/><path class="cls-1" d="M1733.86,1226.08c-14.32,0-29.52-11.65-33.9-26s3.72-26,18-26,29.53,11.65,33.9,26S1748.18,1226.08,1733.86,1226.08Zm-14.41-47.19c-11.71,0-18.32,9.52-14.75,21.22s16,21.23,27.71,21.23,18.32-9.52,14.75-21.23S1731.16,1178.89,1719.45,1178.89Z" transform="translate(-1291.57 -628.04)"/><path class="cls-1" d="M1729.44,1213.32a5.46,5.46,0,0,1-2.93-1.21l-14.73-11.67c-2-1.57-2.69-4.07-1.58-5.58s3.64-1.46,5.63.12l10.4,8.24,5.12-12.2c.74-1.76,3.09-2.15,5.25-.88s3.31,3.75,2.57,5.52l-6.73,16a3.07,3.07,0,0,1-3,1.62Z" transform="translate(-1291.57 -628.04)"/><path class="cls-1" d="M1656.89,1226.08c-14.32,0-29.52-11.65-33.9-26s3.72-26,18-26,29.53,11.65,33.9,26S1671.21,1226.08,1656.89,1226.08Zm-14.41-47.19c-11.7,0-18.32,9.52-14.74,21.22s16,21.23,27.71,21.23,18.31-9.52,14.74-21.23S1654.19,1178.89,1642.48,1178.89Z" transform="translate(-1291.57 -628.04)"/><path class="cls-1" d="M1652.47,1213.32a5.46,5.46,0,0,1-2.93-1.21l-14.72-11.67c-2-1.57-2.7-4.07-1.59-5.58s3.64-1.46,5.63.12l10.4,8.24,5.12-12.2c.74-1.76,3.09-2.15,5.25-.88s3.31,3.75,2.57,5.52l-6.73,16a3.07,3.07,0,0,1-3,1.62Z" transform="translate(-1291.57 -628.04)"/><path class="cls-5" d="M1879.86,1226.08c-14.32,0-29.53-11.65-33.9-26s3.72-26,18-26,29.53,11.65,33.9,26S1894.18,1226.08,1879.86,1226.08Zm-14.41-47.19c-11.71,0-18.32,9.52-14.75,21.22s16,21.23,27.71,21.23,18.32-9.52,14.75-21.23S1877.15,1178.89,1865.45,1178.89Z" transform="translate(-1291.57 -628.04)"/><path class="cls-5" d="M1873.23,1204.36h0a5.42,5.42,0,0,1-4.8-3.67l-3.37-11a2.64,2.64,0,0,1,2.56-3.68h0a5.41,5.41,0,0,1,4.79,3.68l3.37,11A2.63,2.63,0,0,1,1873.23,1204.36Z" transform="translate(-1291.57 -628.04)"/><path class="cls-5" d="M1876.27,1213h-.8a4.81,4.81,0,0,1-4.27-3.28h0a2.34,2.34,0,0,1,2.27-3.27h.8a4.81,4.81,0,0,1,4.27,3.27h0A2.35,2.35,0,0,1,1876.27,1213Z" transform="translate(-1291.57 -628.04)"/></svg>