<svg id="Layer_1" data-name="Layer 1" xmlns="http://www.w3.org/2000/svg" xmlns:xlink="http://www.w3.org/1999/xlink" viewBox="0 0 2000 1500"><defs><style>.cls-1,.cls-10,.cls-100,.cls-101,.cls-102,.cls-107,.cls-108,.cls-109,.cls-11,.cls-110,.cls-111,.cls-113,.cls-114,.cls-116,.cls-117,.cls-118,.cls-119,.cls-12,.cls-120,.cls-121,.cls-13,.cls-14,.cls-15,.cls-16,.cls-17,.cls-18,.cls-19,.cls-20,.cls-21,.cls-22,.cls-23,.cls-24,.cls-25,.cls-26,.cls-27,.cls-28,.cls-29,.cls-30,.cls-31,.cls-32,.cls-33,.cls-34,.cls-35,.cls-36,.cls-37,.cls-38,.cls-39,.cls-40,.cls-41,.cls-50,.cls-51,.cls-52,.cls-53,.cls-54,.cls-55,.cls-56,.cls-57,.cls-58,.cls-61,.cls-66,.cls-70,.cls-78,.cls-79,.cls-8,.cls-80,.cls-84,.cls-87,.cls-9,.cls-95,.cls-97,.cls-98{fill:none;}.cls-2{clip-path:url(#clip-path);}.cls-3,.cls-59,.cls-63,.cls-67,.cls-68,.cls-69,.cls-72,.cls-73,.cls-77,.cls-81,.cls-85,.cls-86,.cls-89,.cls-90,.cls-94{fill:#04adb5;}.cls-3,.cls-4,.cls-59,.cls-60,.cls-63,.cls-64,.cls-65,.cls-66,.cls-67,.cls-68,.cls-71,.cls-72,.cls-73,.cls-74,.cls-75,.cls-76,.cls-77,.cls-78,.cls-81,.cls-82,.cls-83,.cls-84,.cls-85,.cls-86,.cls-88,.cls-89,.cls-90,.cls-91,.cls-92,.cls-93,.cls-94,.cls-95,.cls-97,.cls-98{stroke:#41444e;}.cls-100,.cls-101,.cls-102,.cls-107,.cls-108,.cls-109,.cls-110,.cls-121,.cls-3,.cls-4,.cls-59,.cls-60,.cls-63,.cls-64,.cls-66,.cls-70,.cls-78,.cls-81,.cls-82,.cls-84,.cls-87,.cls-95,.cls-97,.cls-98,.cls-99{stroke-linecap:round;}.cls-100,.cls-101,.cls-102,.cls-107,.cls-108,.cls-109,.cls-110,.cls-121,.cls-3,.cls-4,.cls-59,.cls-60,.cls-63,.cls-64,.cls-66,.cls-71,.cls-72,.cls-73,.cls-74,.cls-77,.cls-78,.cls-81,.cls-82,.cls-84,.cls-88,.cls-89,.cls-90,.cls-91,.cls-94,.cls-95,.cls-97,.cls-98,.cls-99{stroke-linejoin:round;}.cls-3,.cls-4{stroke-width:3px;}.cls-4,.cls-60,.cls-64,.cls-65,.cls-75,.cls-82,.cls-83,.cls-92{fill:#fff;}.cls-5,.cls-96,.cls-99{fill:#f9f9f9;}.cls-6{fill:#ffff82;opacity:0.71;}.cls-7{fill:#303030;}.cls-8{stroke:#7dd3d6;}.cls-10,.cls-11,.cls-111,.cls-113,.cls-114,.cls-116,.cls-117,.cls-118,.cls-119,.cls-12,.cls-120,.cls-13,.cls-14,.cls-15,.cls-16,.cls-17,.cls-18,.cls-19,.cls-20,.cls-21,.cls-22,.cls-23,.cls-24,.cls-25,.cls-26,.cls-27,.cls-28,.cls-29,.cls-30,.cls-31,.cls-32,.cls-33,.cls-34,.cls-35,.cls-36,.cls-37,.cls-38,.cls-39,.cls-40,.cls-41,.cls-50,.cls-51,.cls-52,.cls-53,.cls-54,.cls-55,.cls-56,.cls-57,.cls-58,.cls-61,.cls-65,.cls-67,.cls-68,.cls-70,.cls-75,.cls-76,.cls-79,.cls-8,.cls-80,.cls-83,.cls-85,.cls-86,.cls-87,.cls-9,.cls-92,.cls-93,.cls-96{stroke-miterlimit:10;}.cls-10,.cls-108,.cls-11,.cls-12,.cls-13,.cls-14,.cls-15,.cls-16,.cls-17,.cls-18,.cls-19,.cls-20,.cls-21,.cls-22,.cls-23,.cls-24,.cls-25,.cls-26,.cls-27,.cls-28,.cls-29,.cls-30,.cls-31,.cls-32,.cls-33,.cls-34,.cls-35,.cls-36,.cls-37,.cls-38,.cls-39,.cls-40,.cls-41,.cls-8,.cls-9{stroke-width:2px;}.cls-9{stroke:#75d0d4;}.cls-10{stroke:#6ccdd2;}.cls-11{stroke:#63cacf;}.cls-12{stroke:#5ac8cd;}.cls-13{stroke:#51c5ca;}.cls-14{stroke:#49c2c8;}.cls-15{stroke:#40bfc5;}.cls-16{stroke:#37bdc3;}.cls-17{stroke:#2ebac0;}.cls-18{stroke:#25b7be;}.cls-19{stroke:#1cb4bb;}.cls-20{stroke:#14b2b9;}.cls-21{stroke:#0bafb6;}.cls-107,.cls-108,.cls-109,.cls-110,.cls-111,.cls-113,.cls-114,.cls-116,.cls-117,.cls-118,.cls-119,.cls-120,.cls-121,.cls-22,.cls-50,.cls-51,.cls-52,.cls-53,.cls-54,.cls-55,.cls-56,.cls-57,.cls-58,.cls-61,.cls-79,.cls-80,.cls-96{stroke:#02acb4;}.cls-23{stroke:#99dbde;}.cls-24{stroke:#91d9dc;}.cls-25{stroke:#89d6da;}.cls-26{stroke:#81d4d8;}.cls-27{stroke:#7ad1d5;}.cls-28{stroke:#72cfd3;}.cls-29{stroke:#6accd1;}.cls-30{stroke:#62cacf;}.cls-31{stroke:#5ac7cc;}.cls-32{stroke:#52c5ca;}.cls-33{stroke:#4ac2c8;}.cls-34{stroke:#42c0c6;}.cls-35{stroke:#3abdc4;}.cls-36{stroke:#32bbc1;}.cls-37{stroke:#2ab8bf;}.cls-38{stroke:#22b6bd;}.cls-39{stroke:#1ab3bb;}.cls-40{stroke:#12b1b8;}.cls-41{stroke:#0aaeb6;}.cls-105,.cls-42,.cls-71,.cls-88{fill:#02acb4;}.cls-43{fill:#00d1d1;}.cls-44{fill:#f7f7f7;}.cls-45{fill:#007f7f;}.cls-46{fill:#00ada4;}.cls-47{fill:#00938f;}.cls-106,.cls-48,.cls-49{opacity:0.5;}.cls-48{fill:url(#linear-gradient);}.cls-49{fill:url(#linear-gradient-2);}.cls-117,.cls-118,.cls-119,.cls-120,.cls-50,.cls-51,.cls-54,.cls-57,.cls-79,.cls-80{stroke-width:0.75px;}.cls-51{stroke-dasharray:36.17 10.85;}.cls-52,.cls-53,.cls-58{stroke-width:0.61px;}.cls-53{stroke-dasharray:29.64 8.89;}.cls-54{stroke-dasharray:40.22 12.07;}.cls-55,.cls-56{stroke-width:0.61px;}.cls-56{stroke-dasharray:32.98 9.89;}.cls-57{stroke-dasharray:43.06 12.92;}.cls-58{stroke-dasharray:35.28 10.58;}.cls-59,.cls-60{stroke-width:2.65px;}.cls-61{stroke-width:1.87px;}.cls-62{fill:#1e1e1e;}.cls-63,.cls-64{stroke-width:2.64px;}.cls-65,.cls-67{stroke-width:2.83px;}.cls-66,.cls-71,.cls-75{stroke-width:2.62px;}.cls-68{stroke-width:1.96px;}.cls-70,.cls-87{stroke:#04adb5;}.cls-70{stroke-width:2.82px;}.cls-72{stroke-width:1.31px;}.cls-73{stroke-width:3.14px;}.cls-74,.cls-76,.cls-91,.cls-93{fill:#41444e;}.cls-74{stroke-width:1.28px;}.cls-76{stroke-width:2.68px;}.cls-77{stroke-width:2.28px;}.cls-78{stroke-width:6.28px;}.cls-79{stroke-dasharray:37.93 11.38;}.cls-80{stroke-dasharray:50.61 15.18;}.cls-81,.cls-82{stroke-width:3px;}.cls-83,.cls-85{stroke-width:3.21px;}.cls-84,.cls-88,.cls-92{stroke-width:2.96px;}.cls-86{stroke-width:2.22px;}.cls-87{stroke-width:3.2px;}.cls-89{stroke-width:1.48px;}.cls-90{stroke-width:3.56px;}.cls-91{stroke-width:1.45px;}.cls-93{stroke-width:2.52px;}.cls-94{stroke-width:2.16px;}.cls-95{stroke-width:7.12px;}.cls-96{stroke-width:7.64px;}.cls-97{stroke-width:0.97px;}.cls-98{stroke-width:2.89px;}.cls-99{stroke:#f9f9f9;stroke-width:2.08px;}.cls-100,.cls-101,.cls-102{stroke:#f7f243;}.cls-100{stroke-width:3px;}.cls-101{stroke-width:2.27px;}.cls-102{stroke-width:2.75px;}.cls-103{fill:#2d2d2d;opacity:0.24;}.cls-104{clip-path:url(#clip-path-2);}.cls-105{font-size:67.07px;font-family:UniQAIDAR_NewsHeadLine022, "UniQAIDAR_NewsHeadLine 022";}.cls-106{fill:url(#linear-gradient-3);}.cls-107{stroke-width:1.38px;}.cls-109{stroke-width:4px;}.cls-110{stroke-width:2.38px;}.cls-111{stroke-width:8.52px;}.cls-112{clip-path:url(#clip-path-3);}.cls-113{stroke-width:2.09px;}.cls-115{clip-path:url(#clip-path-4);}.cls-116{stroke-width:1.84px;}.cls-117{stroke-dasharray:36.19 10.86;}.cls-118{stroke-dasharray:42.55 12.76;}.cls-119{stroke-dasharray:43.57 13.07;}.cls-120{stroke-dasharray:40.98 12.29;}.cls-121{stroke-width:1.57px;}</style><clipPath id="clip-path"><rect class="cls-1" width="2000" height="1500"/></clipPath><linearGradient id="linear-gradient" x1="1067.57" y1="818.94" x2="1103.33" y2="852.47" gradientUnits="userSpaceOnUse"><stop offset="0"/><stop offset="1" stop-opacity="0"/></linearGradient><linearGradient id="linear-gradient-2" x1="1255.57" y1="817.94" x2="1291.33" y2="851.47" gradientTransform="matrix(-1, 0, 0, 1, 2188.31, 0)" xlink:href="#linear-gradient"/><clipPath id="clip-path-2"><path class="cls-1" d="M877.31,695.92c-5.84-13.16-21-9.74-21-9.74l-3.41,2-19.07,11s5.31,44.11,33.23,42.71C894.54,736.05,884,712,877.31,695.92Z"/></clipPath><linearGradient id="linear-gradient-3" x1="1074.98" y1="718.95" x2="1125.38" y2="674.31" xlink:href="#linear-gradient"/><clipPath id="clip-path-3"><circle class="cls-1" cx="786.31" cy="1084.07" r="66.07"/></clipPath><clipPath id="clip-path-4"><circle class="cls-1" cx="1076.16" cy="371.17" r="58.26"/></clipPath></defs><g class="cls-2"><path class="cls-3" d="M872.2,679.67c2.18,19.87,5.87,49.67-16.35,53.32a68.89,68.89,0,0,0,5.54-15.71c4.9-22.27-6.18-29.56-6.53-49.75l3-1.93S870.13,663.36,872.2,679.67Z"/><path class="cls-4" d="M854.86,667.53c.35,20.19,11.43,27.48,6.53,49.75A68.89,68.89,0,0,1,855.85,733c-21.76-1.67-17.72-54.64-17.72-54.64Z"/><rect class="cls-5" width="2000" height="1500"/><ellipse class="cls-6" cx="500" cy="594.5" rx="55" ry="64.5" transform="translate(-173.69 207.76) rotate(-20.08)"/><path class="cls-7" d="M821.5,916.32a64.66,64.66,0,0,1-8.33,8.94,29.34,29.34,0,0,1-10.49,6.23,15.36,15.36,0,0,1-6.15.44,5.76,5.76,0,0,1-2.92-1.19A5.32,5.32,0,0,1,792,928a15.27,15.27,0,0,1,.08-6.21c.18-1,.39-2,.6-3s.35-2,.53-3c1.43-8,3.88-15.9,4.07-24A34.42,34.42,0,0,0,795.69,880a22.25,22.25,0,0,0-6.5-9.73,34.46,34.46,0,0,0-10.25-6,30.08,30.08,0,0,0-11.56-2.18,15.91,15.91,0,0,0-10.48,4,17.8,17.8,0,0,0-5.11,10.07c-.62,3.78-.28,7.88,1.64,11a8.23,8.23,0,0,0,1.75,2,5.29,5.29,0,0,0,1.07.81,6.48,6.48,0,0,0,1.18.66,13,13,0,0,0,5.36,1.18,15.86,15.86,0,0,0,10.35-3.56c2.79-2.31,4-6,4.1-9.82A36.5,36.5,0,0,0,775.4,867a54.06,54.06,0,0,0-4.82-10.8,70.12,70.12,0,0,0-6.82-9.75,48,48,0,0,0-8.5-8.07A30.14,30.14,0,0,0,745,833.4a26.58,26.58,0,0,0-11.23-.4c-7.48,1.34-14.32,5.69-19.41,11.44a37.82,37.82,0,0,0-9.5,20.49,27,27,0,0,0,.93,11.08,63.9,63.9,0,0,0,4.53,10.81,76.34,76.34,0,0,0,6,10.19c2.25,3.28,4.78,6.48,7.08,10.11a41.13,41.13,0,0,1,5.33,12,45,45,0,0,1,1.39,13l-6.21-.29a38.72,38.72,0,0,0-1-11.26,35.31,35.31,0,0,0-4.43-10.37c-2-3.29-4.48-6.55-6.8-10a82.39,82.39,0,0,1-6.21-11,70,70,0,0,1-4.69-11.79,32.31,32.31,0,0,1-.89-13.09,42.78,42.78,0,0,1,11-23c5.78-6.3,13.5-11.1,22.16-12.52a30.74,30.74,0,0,1,13,.67,34.07,34.07,0,0,1,11.54,5.75,52,52,0,0,1,9.05,8.85,72.56,72.56,0,0,1,7,10.37A57.62,57.62,0,0,1,778.55,866a46.27,46.27,0,0,1,1.39,6.17,30.27,30.27,0,0,1,.4,6.4A19.48,19.48,0,0,1,779,885a13.83,13.83,0,0,1-4,5.45,18.64,18.64,0,0,1-12.3,4.06,15.62,15.62,0,0,1-6.44-1.54,12.16,12.16,0,0,1-5-4.52,15.44,15.44,0,0,1-2-6.27,22.32,22.32,0,0,1,.24-6.43,20,20,0,0,1,6-11.23,16.71,16.71,0,0,1,5.57-3.31,19.8,19.8,0,0,1,6.3-1.11,31.76,31.76,0,0,1,12.26,2.5,35.83,35.83,0,0,1,10.64,6.46A23.8,23.8,0,0,1,797,879.54a35.43,35.43,0,0,1,1.44,12.3c-.33,8.29-2.93,16.14-4.47,24.1-.19,1-.35,2-.58,3s-.45,2-.64,3a14.49,14.49,0,0,0-.18,5.93,4.81,4.81,0,0,0,1.4,2.48,5.29,5.29,0,0,0,2.66,1.11,14.61,14.61,0,0,0,6-.34,29,29,0,0,0,10.47-6A63.36,63.36,0,0,0,821.5,916.32Z"/><path class="cls-8" d="M409.77-383.52c115.83,293,256,404.86,378.59,393.75,59.1-5.36,96-61.92,175.58-60.5,72.8,1.56,107.85,54.05,177.13,60.06,60.62,5.12,137.47-11,228.72-112.71"/><path class="cls-9" d="M399.08-389.64C523.19-75.66,664,38,784.22,26c61-6.08,98.18-67.41,181-66.31,75.65,1.26,110.87,57.18,182.88,63.45,61.23,5.2,140.17-12,235.25-120.2"/><path class="cls-10" d="M388.39-395.76C520.77-60.85,662.13,54.38,780.08,41.67c62.82-6.76,100.31-72.91,186.46-72.12,78.49,1,113.89,60.31,188.64,66.84C1217,41.66,1298,23.41,1397-91.3"/><path class="cls-11" d="M377.71-401.88C518.36-46,660.27,70.64,775.94,57.39,840.63,50,878.38-21,967.84-20.54c81.34.66,116.91,63.44,194.39,70.22,62.45,5.35,145.56-13.94,248.29-135.17"/><path class="cls-12" d="M367-408C516-31.23,658.38,86.77,771.8,73.12c66.57-8,104.56-83.91,197.35-83.75,84.17.36,119.92,66.57,200.13,73.61,63.06,5.43,148.26-14.91,254.82-142.66"/><path class="cls-13" d="M356.33-414.13c157.2,397.72,300.12,516.89,411.33,503C836.12,80.27,874.35-.56,970.45-.72c87,.06,122.94,69.71,205.88,77,63.67,5.5,151-15.87,261.35-150.14"/><path class="cls-14" d="M345.64-420.25C511.12-1.6,654.48,118.63,763.52,104.56c70.35-9.08,108.82-94.9,208.23-95.37,89.87-.24,126,72.84,211.63,80.39C1247.66,95.15,1337,72.74,1451.26-68"/><path class="cls-15" d="M335-426.37C508.71,13.21,652.48,134.39,759.38,120.28c72.26-9.54,111-100.39,213.67-101.17,92.71-.55,129,76,217.38,83.77,64.9,5.65,156.36-17.81,274.41-165.12"/><path class="cls-16" d="M324.27-432.49C506.29,28,649.66,141.78,755.24,136,830,131.91,868.32,30.11,974.36,29c95.55-.86,132,79.09,223.13,87.15,65.5,5.73,159-18.77,280.93-172.6"/><path class="cls-17" d="M313.58-438.61C503.88,42.83,647.64,158.6,751.1,151.72c76.62-5.09,115.2-111.38,224.56-112.79,98.39-1.16,135,82.22,228.88,90.54,66.11,5.8,161.75-19.73,287.45-180.09"/><path class="cls-18" d="M302.89-444.73C501.46,57.64,645.61,175.4,747,167.45c78.51-6.16,117.33-116.89,230-118.61,101.24-1.46,138,85.35,234.63,93.93,66.72,5.87,164.45-20.7,294-187.58"/><path class="cls-19" d="M292.21-450.86c206.84,523.31,351.34,643,450.61,634C823.2,175.88,862.28,60.79,978.26,58.75c104.08-1.76,141,88.48,240.38,97.32C1286,162,1385.79,134.4,1519.15-39"/><path class="cls-20" d="M281.52-457c215.12,544.24,360,665.89,457.16,655.87C820.92,190.41,860.27,71,979.57,68.66c106.92-2.06,144.06,91.62,246.12,100.71,68,6,169.85-22.64,307-202.55"/><path class="cls-21" d="M270.83-463.1C494.22,102.07,639.38,225.64,734.54,214.61c84.08-9.74,123.71-133.37,246.33-136,109.76-2.36,147.08,94.75,251.87,104.09,68.56,6.1,172.55-23.59,313.57-210"/><path class="cls-22" d="M260.15-469.22c231.66,586.1,377.1,711.57,470.25,699.55C816.29,219.25,856.24,91.46,982.17,88.48c112.61-2.66,150.09,97.88,257.63,107.48C1309,202.14,1415,171.4,1559.89-21.56"/><path class="cls-23" d="M2239.19,296.24c-201.51,137.51-257.14,291.8-237.76,420.7,7.93,52.72,63.3,77.27,76,145.17,11.77,62.78-21.38,105.64-13.08,165.94,8.18,58.32,36.24,124,132.75,183.32"/><path class="cls-24" d="M2242.46,285.61c-218.31,149-276.14,304.19-255.71,430.81,8.77,54.33,68.57,78.05,82.23,148.82,12.6,65.22-23.54,108.91-14.92,171.67,8.23,58.87,37.62,126.19,140.64,187.58"/><path class="cls-25" d="M2245.72,275c-235.1,160.43-295.06,316.58-273.64,440.93,9.63,55.93,73.83,78.84,88.43,152.46,13.42,67.66-25.7,112.2-16.76,177.41,8.29,59.43,39,128.37,148.54,191.84"/><path class="cls-26" d="M2249,264.34C1997.1,436.22,1935.06,593.28,1957.4,715.39c10.53,57.52,78.95,79.64,94.64,156.09,14.11,70.14-27.86,115.48-18.6,183.15,8.34,60,40.4,130.56,156.43,196.1"/><path class="cls-27" d="M2252.25,253.7C1983.57,437.05,1919.51,595,1942.73,714.87c11.45,59.11,84.21,80.43,100.83,159.73,15,72.58-30,118.76-20.43,188.89,8.4,60.53,41.79,132.74,164.33,200.36"/><path class="cls-28" d="M2255.51,243.07C1970,437.87,1904,596.72,1928.05,714.36c12.4,60.69,89.48,81.2,107,163.36,15.78,75-32.16,122-22.27,194.63,8.45,61.09,43.17,134.93,172.22,204.62"/><path class="cls-29" d="M2258.78,232.43c-302.27,206.26-370.21,366-345.4,481.41,13.38,62.26,94.74,82,113.24,167,16.61,77.47-34.32,125.32-24.11,200.37,8.51,61.63,44.56,137.11,180.12,208.87"/><path class="cls-30" d="M2262,221.8C1943,439.52,1873.16,600.1,1898.7,713.33c14.4,63.82,100,82.76,119.45,170.64,17.44,79.91-36.48,128.6-26,206.11,8.56,62.19,46,139.29,188,213.13"/><path class="cls-31" d="M2265.31,211.16C1929.45,440.34,1857.79,601.77,1884,712.81c15.45,65.38,105.27,83.54,125.65,174.28C2028,969.45,1971,1019,1981.89,1098.94c8.62,62.74,47.34,141.48,195.91,217.39"/><path class="cls-32" d="M2268.57,200.53c-352.65,240.64-426.12,402.9-399.22,511.77,16.54,66.91,110.54,84.32,131.85,177.91,19.12,84.8-40.79,135.17-29.62,217.59,8.67,63.3,48.72,143.66,203.8,221.65"/><path class="cls-33" d="M2271.83,189.89C1902.39,442,1827.14,605.06,1854.68,711.78c17.66,68.44,115.8,85.1,138,181.55,20,87.25-43,138.45-31.46,223.33,8.73,63.85,50.11,145.85,211.7,225.91"/><path class="cls-34" d="M2275.1,179.26c-386.23,263.55-463.24,427.42-435.1,532,18.82,70,121.07,85.88,144.26,185.18,20.78,89.7-45.11,141.74-33.3,229.07,8.78,64.41,51.5,148,219.59,230.17"/><path class="cls-35" d="M2278.36,168.62c-403,275-481.75,439.67-453,542.13,20,71.45,126.34,86.66,150.46,188.83,21.61,92.13-47.27,145-35.14,234.8,8.84,65,52.89,150.22,227.49,234.43"/><path class="cls-36" d="M2281.63,158c-419.82,286.47-500.25,451.88-471,552.25,21.27,72.93,131.61,87.43,156.67,192.46,22.44,94.58-49.43,148.29-37,240.55,8.9,65.5,54.29,152.4,235.39,238.68"/><path class="cls-37" d="M2284.89,147.35C1848.28,445.29,1766.16,611.44,1796,709.72c22.56,74.39,136.87,88.22,162.86,196.1,23.28,97-51.57,151.58-38.82,246.29,9,66.06,55.67,154.58,243.29,242.94"/><path class="cls-38" d="M2288.15,136.72C1834.75,446.11,1751,613,1781.3,709.2c23.9,75.83,142.14,89,169.07,199.74,24.11,99.47-53.73,154.86-40.66,252,9,66.61,57.06,156.77,251.18,247.2"/><path class="cls-39" d="M2291.42,126.09c-470.2,320.84-555.63,488.41-524.79,582.6,25.28,77.24,147.4,89.78,175.27,203.37,24.94,101.92-55.89,158.14-42.5,257.77,9.07,67.17,58.45,159,259.08,251.46"/><path class="cls-40" d="M2294.68,115.45c-487,332.31-574,500.56-542.73,592.72,26.72,78.64,152.67,90.56,181.48,207,25.77,104.35-58,161.42-44.34,263.5,9.12,67.72,59.84,161.14,267,255.72"/><path class="cls-41" d="M2298,104.82c-503.79,343.76-592.47,512.66-560.68,602.84,28.21,80,157.94,91.33,187.68,210.65,26.61,106.8-60.2,164.7-46.17,269.24,9.18,68.28,61.22,163.33,274.87,260"/><path class="cls-22" d="M2301.21,94.18c-520.57,355.23-610.88,524.76-578.61,613,29.75,81.34,163.2,92.12,193.88,214.29,27.44,109.24-62.36,168-48,275,9.23,68.83,62.61,165.51,282.76,264.24"/><path class="cls-42" d="M979.94,693.81,1119.17,817a65.21,65.21,0,0,1,7.26,7.56l-46.49,53.69a65.74,65.74,0,0,1-8.37-6.28L932.35,748.77Z"/><polygon class="cls-43" points="1164 889.37 1181.96 921.11 1150 907.95 1150.81 898.41 1157.62 899.97 1155.57 893.13 1163.7 895.68 1164 889.37"/><path class="cls-42" d="M1130.67,830.45l2.86,5.06L1145.69,857,1164,889.37l-.3,6.31-8.13-2.56,2,6.85-6.81-1.56L1150,908l-38.81-16-19.57-8.05-5.35-2.2a60.65,60.65,0,0,1-6.33-3.48l46.49-53.69A58.65,58.65,0,0,1,1130.67,830.45Z"/><polygon class="cls-44" points="945.38 733.22 1092.05 863.76 944.64 734.07 945.38 733.22"/><polygon class="cls-44" points="947.93 730.26 1094.6 860.81 947.19 731.12 947.93 730.26"/><polygon class="cls-44" points="950.49 727.31 1097.16 857.86 949.75 728.16 950.49 727.31"/><polygon class="cls-44" points="953.04 724.36 1099.71 854.9 952.3 725.21 953.04 724.36"/><polygon class="cls-44" points="955.6 721.41 1102.27 851.95 954.86 722.26 955.6 721.41"/><polygon class="cls-44" points="958.15 718.46 1104.82 849 957.41 719.31 958.15 718.46"/><polygon class="cls-44" points="960.71 715.51 1107.38 846.05 959.97 716.36 960.71 715.51"/><polygon class="cls-44" points="963.26 712.56 1109.93 843.1 962.53 713.41 963.26 712.56"/><polygon class="cls-44" points="965.82 709.61 1112.49 840.15 965.08 710.46 965.82 709.61"/><polygon class="cls-44" points="968.37 706.66 1115.04 837.2 967.64 707.51 968.37 706.66"/><polygon class="cls-45" points="1102.11 888.24 1103.52 878.1 1112.73 877.38 1113.64 866.76 1124.38 864.64 1124.93 853.22 1133.01 856.74 1130.65 847.39 1141.29 849.22 1126.43 824.56 1079.94 878.25 1102.11 888.24"/><polygon class="cls-46" points="1145.69 857 1164 889.37 1163.7 895.68 1155.57 893.13 1157.62 899.97 1150.81 898.41 1150 907.95 1111.19 891.98 1145.69 857"/><polygon class="cls-47" points="1116.18 894.03 1115.41 888 1129.42 888.14 1126.1 879.45 1130.14 881.06 1133.68 874.18 1142.68 876.21 1141.73 866.03 1146.98 868.26 1148.13 861.3 1141.29 849.22 1130.65 847.39 1133.01 856.74 1124.93 853.22 1124.38 864.64 1113.64 866.76 1112.73 877.38 1103.52 878.1 1102.11 888.24 1116.18 894.03"/><polygon class="cls-48" points="1111.19 809.95 1059.79 861.54 1079.94 878.25 1126.43 824.56 1111.19 809.95"/><path class="cls-42" d="M1020.37,692.81,881.15,816a65.31,65.31,0,0,0-7.27,7.56l46.49,53.69a64.36,64.36,0,0,0,8.37-6.28L1068,747.77Z"/><polygon class="cls-43" points="836.31 888.37 818.35 920.11 850.31 906.95 849.5 897.41 842.7 898.97 844.74 892.13 836.61 894.68 836.31 888.37"/><path class="cls-42" d="M869.64,829.45l-2.86,5.06L854.62,856l-18.31,32.38.3,6.31,8.13-2.56-2,6.85,6.8-1.56.81,9.54,38.81-16,19.57-8.05,5.35-2.2a60.65,60.65,0,0,0,6.33-3.48l-46.49-53.69A60.28,60.28,0,0,0,869.64,829.45Z"/><polygon class="cls-44" points="1054.94 732.22 908.26 862.76 1055.67 733.07 1054.94 732.22"/><polygon class="cls-44" points="1052.38 729.26 905.71 859.81 1053.12 730.12 1052.38 729.26"/><polygon class="cls-44" points="1049.83 726.31 903.15 856.86 1050.56 727.16 1049.83 726.31"/><polygon class="cls-44" points="1047.27 723.36 900.6 853.9 1048.01 724.21 1047.27 723.36"/><polygon class="cls-44" points="1044.71 720.41 898.04 850.95 1045.45 721.26 1044.71 720.41"/><polygon class="cls-44" points="1042.16 717.46 895.49 848 1042.9 718.31 1042.16 717.46"/><polygon class="cls-44" points="1039.6 714.51 892.93 845.05 1040.34 715.36 1039.6 714.51"/><polygon class="cls-44" points="1037.05 711.56 890.38 842.1 1037.79 712.41 1037.05 711.56"/><polygon class="cls-44" points="1034.49 708.61 887.82 839.15 1035.23 709.46 1034.49 708.61"/><polygon class="cls-44" points="1031.94 705.66 885.27 836.2 1032.67 706.51 1031.94 705.66"/><polygon class="cls-45" points="898.2 887.24 896.79 877.1 887.59 876.38 886.67 865.76 875.93 863.64 875.38 852.22 867.3 855.74 869.66 846.39 859.02 848.22 873.88 823.56 920.37 877.25 898.2 887.24"/><polygon class="cls-46" points="854.62 856 836.31 888.37 836.61 894.68 844.74 892.13 842.7 898.97 849.5 897.41 850.31 906.95 889.12 890.98 854.62 856"/><polygon class="cls-47" points="884.13 893.03 884.9 887 870.89 887.14 874.21 878.45 870.17 880.06 866.63 873.18 857.64 875.21 858.58 865.03 853.34 867.26 852.19 860.3 859.02 848.22 869.66 846.39 867.3 855.74 875.38 852.22 875.93 863.64 886.67 865.76 887.59 876.38 896.79 877.1 898.2 887.24 884.13 893.03"/><polygon class="cls-49" points="889.12 808.95 940.52 860.54 920.37 877.25 873.88 823.56 889.12 808.95"/><path class="cls-50" d="M1372.78,561.56a133.37,133.37,0,0,0-19.64-3.67"/><path class="cls-51" d="M1342.31,557.21A114.28,114.28,0,0,0,1319.8,559c-36.93,6.72-50.64,28.52-83.24,41.16-14.8,5.74-36.15,10.61-65.54,7.24"/><path class="cls-50" d="M1165.63,606.7c-6.2-.9-12.74-2.16-19.63-3.84"/><path class="cls-52" d="M1696.4,559.28a108.48,108.48,0,0,1-14.09,8.34"/><path class="cls-53" d="M1674.18,571.2a94.4,94.4,0,0,1-17.84,4.95c-30.3,5.22-47-7.7-75.63-8.26-13-.26-30.81,2-52.48,12.86"/><path class="cls-52" d="M1524.28,582.8c-4.52,2.44-9.2,5.25-14,8.48"/><path class="cls-50" d="M1385.81,593.76a182.84,182.84,0,0,0-20,.34"/><path class="cls-54" d="M1353.83,595.5c-22.65,3.66-36.63,12.16-45.68,20.62-13,12.17-13.72,22.25-26.72,26.1-18.66,5.51-32-10.86-60.34-10.09"/><path class="cls-50" d="M1215.08,632.54a78.21,78.21,0,0,0-19.39,4.71"/><path class="cls-55" d="M1613.66,536.25a155.3,155.3,0,0,1-15.38,5.33"/><path class="cls-56" d="M1588.66,543.91c-18.56,3.65-31.74,1.14-41.09-2.73-13.4-5.56-16.74-13-27.83-12.26-15.94,1.08-21.72,17.32-43.86,24.69"/><path class="cls-55" d="M1471.14,555a65.62,65.62,0,0,1-16.14,1.86"/><path class="cls-50" d="M1375.6,643.4a111,111,0,0,0-18.26,8.08"/><path class="cls-57" d="M1346.45,658.42c-17.74,12.92-22.3,25.1-36.36,27.17-10.9,1.6-13.83-4.88-29.77-8.9a77.54,77.54,0,0,0-27.79-1.7"/><path class="cls-50" d="M1246.13,675.93a113.94,113.94,0,0,0-19.24,5.35"/><path class="cls-52" d="M1587.22,612.84a91.49,91.49,0,0,1-16.33-1.08"/><path class="cls-58" d="M1560.55,609.48c-17.28-5-24.21-13-35.62-10.68-8.83,1.84-9.27,7.65-20.41,15.22a63.39,63.39,0,0,1-20.9,9.13"/><path class="cls-52" d="M1478.43,624.23a94.11,94.11,0,0,1-16.32,1.29"/><path class="cls-59" d="M1193.69,667.23c.56,19.87-26,21.6-43.59,23-14.53.89-14.65-10.13-14.65-10.13l1.18-2.91c17.61-3,25.81,5.37,44.33-2.56A61,61,0,0,0,1193.69,667.23Z"/><path class="cls-60" d="M1193.69,667.23a61,61,0,0,1-12.73,7.4c-18.52,7.93-26.72-.47-44.33,2.56l6.59-16.29S1188.58,648.63,1193.69,667.23Z"/><path class="cls-61" d="M806,673c-23.62,12-42.77,19.89-53.83,23.58-6.14,2-13.41,4-22.48,3.23a50,50,0,0,1-8.24-1.45c-8.61-1.47-28.35-4.83-36.54-20.46-9.15-17.48-.88-44.62,18.69-54.18,15.26-7.46,35-3.05,44.83,7.47,20.59,22,5.28,78.19-22.42,99-38.79,29.18-121,3.48-201.77-69.12"/><path class="cls-62" d="M613.86,697.4l-8.72,16.69-2-1.06a1.71,1.71,0,0,1-1-1.3l-2.7-14.12c-.11.32-.23.61-.36.9s-.26.56-.4.82L594,708.27l-3.43-1.79,8.72-16.69,2,1.06a2.85,2.85,0,0,1,.7.48,1.33,1.33,0,0,1,.26.75l2.77,14.21a7.36,7.36,0,0,1,.38-.94c.14-.3.29-.58.44-.87l4.62-8.84Z"/><path class="cls-62" d="M623.83,715.74a3.74,3.74,0,0,0,0,2.63,3,3,0,0,0,1.73,1.49,4.17,4.17,0,0,0,1.18.28,6.25,6.25,0,0,0,1,0l.82-.09a1.38,1.38,0,0,1,.68.08.9.9,0,0,1,.56.61l.57,1.76a6,6,0,0,1-1.67.61,7,7,0,0,1-1.63.12,7.63,7.63,0,0,1-1.53-.24,12.41,12.41,0,0,1-1.38-.45,7.68,7.68,0,0,1-2.32-1.4,6.07,6.07,0,0,1-1.51-2,6.18,6.18,0,0,1-.54-2.63,8.56,8.56,0,0,1,.64-3.11,7.19,7.19,0,0,1,1.36-2.2,6.39,6.39,0,0,1,2-1.48,6.25,6.25,0,0,1,2.46-.57,7.38,7.38,0,0,1,4.88,1.78,5.58,5.58,0,0,1,1.33,1.82,5.51,5.51,0,0,1,.47,2.24,7.1,7.1,0,0,1-.52,2.58,2.55,2.55,0,0,1-.61,1,.85.85,0,0,1-.8,0Zm5.55-.33a3.72,3.72,0,0,0,.21-.92,2.54,2.54,0,0,0-.08-.91,2,2,0,0,0-.47-.8,2.62,2.62,0,0,0-.95-.59c-1.4-.55-2.52-.08-3.34,1.41Z"/><path class="cls-62" d="M665.31,720.06l-6.94,12.2-3.21-.71c-.31-.06-.49-.33-.54-.8l-.43-6.93c0-.32-.05-.63-.07-.93a5.3,5.3,0,0,1,0-.89q-.21.42-.39.81a9.13,9.13,0,0,1-.46.84L650,729.73a.81.81,0,0,1-1,.47l-3-.66-1.19-14,3.15.69a1.36,1.36,0,0,1,.63.33.84.84,0,0,1,.26.55l.09,6.2c0,.47,0,.93,0,1.35s0,.86,0,1.3c.18-.39.38-.79.6-1.17l.69-1.2,2.94-5.57a1.08,1.08,0,0,1,.49-.4,1.13,1.13,0,0,1,.71,0L656,718a1.26,1.26,0,0,1,.62.34,1,1,0,0,1,.27.57l.28,6.27c0,.49.09,1,.11,1.38s0,.87,0,1.31q.27-.57.54-1.17c.18-.4.38-.81.59-1.24l2.68-5.59a1.06,1.06,0,0,1,1.21-.42Z"/><path class="cls-62" d="M694.32,715.22a2.19,2.19,0,0,1,0,.92,2.23,2.23,0,0,1-.38.83,2.63,2.63,0,0,1-.65.64,2.42,2.42,0,0,1-1.82.37,2.64,2.64,0,0,1-.85-.35,2.44,2.44,0,0,1-.66-.62,2,2,0,0,1-.37-.84,2,2,0,0,1,0-.95,2.37,2.37,0,0,1,.38-.84,2.46,2.46,0,0,1,2.46-1,2.46,2.46,0,0,1,.86.34,2.23,2.23,0,0,1,.67.63A2.27,2.27,0,0,1,694.32,715.22Zm.32,3.7,2.62,13.14-3.93.79-2.62-13.14Z"/><path class="cls-62" d="M711.77,703.65l11.14,15.83-2,1.44a.93.93,0,0,1-1.22,0l-.8-.67a7,7,0,0,1-.69,2.15,5,5,0,0,1-1.67,1.81,4,4,0,0,1-1.82.73,4.51,4.51,0,0,1-2-.2,6.38,6.38,0,0,1-2.09-1.17,10.91,10.91,0,0,1-2-2.15A9.47,9.47,0,0,1,707.3,719a6.5,6.5,0,0,1-.32-2.47,5.37,5.37,0,0,1,.65-2.25,5.17,5.17,0,0,1,1.61-1.79,5.08,5.08,0,0,1,1.6-.8,3.8,3.8,0,0,1,1.5-.1L708.49,706ZM714,713.81a2.64,2.64,0,0,0-1.22,0,3,3,0,0,0-1,.46,2.27,2.27,0,0,0-1,1.83,5.09,5.09,0,0,0,1.22,3,8.09,8.09,0,0,0,1.16,1.37,3.71,3.71,0,0,0,1,.71,1.64,1.64,0,0,0,.91.12,1.93,1.93,0,0,0,.81-.35,3,3,0,0,0,1-1.07,4.06,4.06,0,0,0,.34-1.41Z"/><path class="cls-62" d="M730.18,700.93a3.78,3.78,0,0,0,2.61.39,3,3,0,0,0,1.75-1.45,3.94,3.94,0,0,0,.49-1.12,6,6,0,0,0,.14-1c0-.29,0-.57.05-.82a1.42,1.42,0,0,1,.2-.66.91.91,0,0,1,.69-.44l1.83-.27a5.71,5.71,0,0,1,.32,1.76,6.65,6.65,0,0,1-.16,1.62,7.69,7.69,0,0,1-.49,1.47c-.22.45-.44.88-.68,1.28a7.87,7.87,0,0,1-1.77,2,6.12,6.12,0,0,1-2.28,1.14,6.3,6.3,0,0,1-2.68.09,8.66,8.66,0,0,1-3-1.16,7.12,7.12,0,0,1-1.94-1.72,6.46,6.46,0,0,1-1.12-2.22,6.05,6.05,0,0,1-.14-2.52,7.34,7.34,0,0,1,2.58-4.5,5.41,5.41,0,0,1,2-1,5.48,5.48,0,0,1,2.29-.08,6.87,6.87,0,0,1,2.45,1,2.62,2.62,0,0,1,.93.78.83.83,0,0,1-.13.79Zm.62-5.53a3.51,3.51,0,0,0-.87-.37A2.53,2.53,0,0,0,729,695a2,2,0,0,0-.86.33,2.45,2.45,0,0,0-.75.83q-1.17,1.93.82,3.54Z"/><path class="cls-62" d="M734.45,679.78a7.64,7.64,0,0,1-.76-3,10,10,0,0,1,.42-3.2,5.93,5.93,0,0,1,1-2,5.1,5.1,0,0,1,1.52-1.31,4.66,4.66,0,0,1,1.9-.55,6.08,6.08,0,0,1,2.13.24l8.05,2.35-.52,1.77a2.12,2.12,0,0,1-.38.8,1.24,1.24,0,0,1-.78.29l-.78,0a8.44,8.44,0,0,1,.71,2.24,5.58,5.58,0,0,1-.23,2.33,4.42,4.42,0,0,1-1.71,2.58,3.7,3.7,0,0,1-4.27-.49,3.55,3.55,0,0,1-1-1.59,7.91,7.91,0,0,1-.31-2.61,16.63,16.63,0,0,1,.63-3.78l-.54-.15a2.51,2.51,0,0,0-1.78,0,1.82,1.82,0,0,0-.9,1.19,3.78,3.78,0,0,0-.18,1.16,4.63,4.63,0,0,0,.1.88c.07.26.12.51.16.75a2.05,2.05,0,0,1-.08.83,1.27,1.27,0,0,1-.39.62,1.31,1.31,0,0,1-.59.29Zm7.9-5.23a12.74,12.74,0,0,0-.35,2,6.51,6.51,0,0,0,0,1.29,1.41,1.41,0,0,0,.34.77,1.22,1.22,0,0,0,.57.35c.81.24,1.35-.13,1.63-1.09a2.73,2.73,0,0,0,.09-1.37,5.37,5.37,0,0,0-.51-1.38Z"/><path class="cls-62" d="M740.44,648.2a1,1,0,0,1,.46.81,1.46,1.46,0,0,1-.12.57c-.07.18-.16.39-.26.61a4.94,4.94,0,0,0-.26.74,3.73,3.73,0,0,0-.11.94c0,1.07.37,1.6,1.09,1.6A.9.9,0,0,0,742,653a6.28,6.28,0,0,0,.5-1.15c.15-.46.3-1,.47-1.5a6.3,6.3,0,0,1,.69-1.51,4.12,4.12,0,0,1,1.13-1.15,3.15,3.15,0,0,1,1.79-.47,4.1,4.1,0,0,1,3.25,1.43,6.17,6.17,0,0,1,1.27,4.19,7,7,0,0,1-.11,1.35,8.38,8.38,0,0,1-.35,1.33,6.8,6.8,0,0,1-.53,1.19,6,6,0,0,1-.63.95l-1.47-.92a1.32,1.32,0,0,1-.42-.39,1.2,1.2,0,0,1-.14-.61,1.36,1.36,0,0,1,.15-.65l.34-.61a7.65,7.65,0,0,0,.33-.74,3.27,3.27,0,0,0,.15-1.1,1.84,1.84,0,0,0-.37-1.29,1.1,1.1,0,0,0-.79-.37.91.91,0,0,0-.82.46,5.26,5.26,0,0,0-.53,1.16c-.16.48-.32,1-.49,1.52a5.93,5.93,0,0,1-.7,1.51,3.94,3.94,0,0,1-1.2,1.17,3.72,3.72,0,0,1-2,.47A4,4,0,0,1,740,657a3.67,3.67,0,0,1-1.36-1,4.43,4.43,0,0,1-.93-1.64,7.46,7.46,0,0,1-.35-2.35,7.18,7.18,0,0,1,.48-2.68,5.73,5.73,0,0,1,1.24-2Z"/><path class="cls-63" d="M1079.56,674c-10.28,14.33-25.42,36.07-42.16,25.37a60.7,60.7,0,0,0,12.9-7c16.34-11.73,13.36-23.05,25-36.52l3.1.49S1087.81,662.08,1079.56,674Z"/><path class="cls-64" d="M1075.33,655.82c-11.67,13.47-8.69,24.79-25,36.52a60.7,60.7,0,0,1-12.9,7c-13.3-13.92,20.57-46.32,20.57-46.32Z"/><path class="cls-65" d="M1137.05,670.68c-5.71.19-11.79.2-18.21,0-5.94-.21-11.59-.62-16.9-1.15-4.61-1-9.55-2.28-14.75-3.86s-10-3.31-14.43-5.06a63.53,63.53,0,0,0-7.48,20.52c-.72,4.06-1.76,10-.67,16.14A36.24,36.24,0,0,0,1132.45,708c2.79-5.25,3.77-10.8,4.5-15.12A68.62,68.62,0,0,0,1137.05,670.68Z"/><path class="cls-66" d="M1123.45,687.64c-2.16-4.25-15.7-13.93-20.74-10.73-3.81-4.6-19.37,0-23,3.79s-7.09,9.51-3.11,17.83c4.76,6.68,13,13.68,20.38,14.85s17.37-2.94,24-7.82C1127.26,698.88,1125.62,691.89,1123.45,687.64Z"/><path class="cls-67" d="M1095.65,668s0,10.68,6.62,11.72,9.63-9.15,9.63-9.15Z"/><path class="cls-68" d="M1065.88,685.38s-1.81,7.08-.8,12a47.42,47.42,0,0,0,4.2,10.82s7.46-5.07,6.13-13S1065.88,685.38,1065.88,685.38Z"/><path class="cls-68" d="M1135.08,696.65s.11,4.94-3.35,11.61-7.62,8.75-7.62,8.75-5.3-7.3-1.35-14.32S1135.08,696.65,1135.08,696.65Z"/><path class="cls-69" d="M1099.18,694.82l.67-10.77a1.71,1.71,0,0,1,3.42.21,3.06,3.06,0,0,1,0,.32L1100.53,695a.69.69,0,0,1-1.35-.21Z"/><path class="cls-70" d="M1094,687.6a9.74,9.74,0,1,0,13.58,1.9"/><path class="cls-71" d="M1178.41,618s8.81-17.34,2-33c-9.94-16.4-22.66-23.85-22.66-23.85s9,20.3,8.29,27.9C1179,601.29,1178.41,618,1178.41,618Z"/><path class="cls-71" d="M1049.31,599s-3.61-19.1,7.32-32.21c14.13-13,28.42-16.57,28.42-16.57s-14.3,17-15.75,24.48C1053.4,582.73,1049.31,599,1049.31,599Z"/><polygon class="cls-72" points="1116.53 569.61 1123.18 570.66 1125.49 556.09 1118.84 555.03 1117.93 560.77 1116.53 569.61"/><circle class="cls-73" cx="1123.63" cy="546.27" r="8.85"/><path class="cls-74" d="M1130,572.06l-6.85-1.4,1.39-8.8s1.69,10.12,4.71,10.6"/><path class="cls-74" d="M1109.58,568.81l7,.8,1.39-8.81s-4.73,9.1-7.75,8.63"/><path class="cls-75" d="M1159.46,665.41c-20.12,9.65-55.33,4.06-55.33,4.06s-35.21-5.58-51.36-21c-12.22-11.37-10.4-55.9,5.55-67.49,24.12-17.51,61.55-10.83,61.55-10.83s38.58,6.48,55.19,29.34C1187.38,616.48,1174.6,658.37,1159.46,665.41Z"/><path class="cls-76" d="M1159.17,612.35c-10-6.13-39.09-15.4-44.79-15.78-5.27-1.36-34.37-1.32-45.22,1.51-8,1.53-11.42,31.11-10.72,41.14.66,9.55,45.74,17.45,46.39,17.55s48.32,6.92,52-1.94C1160.73,645.52,1166.69,616.34,1159.17,612.35Z"/><path class="cls-77" d="M1101.3,569c1.13,4.18,5.84,19.29,15.41,20.81s18.8-11.39,21.18-15a73.37,73.37,0,0,0-36.59-5.8"/><path class="cls-42" d="M1100.08,625.36a17.05,17.05,0,0,1-3.7,6.71,1.18,1.18,0,0,1-1.37.28c-6.61-3-13-4.41-18.36-4.14a1.18,1.18,0,0,1-1.21-.89,16.92,16.92,0,0,1,.16-9.08c2.33-8,9.69-12.87,16.45-10.9S1102.4,617.37,1100.08,625.36Z"/><path class="cls-42" d="M1120.93,628.93a17.16,17.16,0,0,0,1.45,7.52,1.18,1.18,0,0,0,1.22.69c7.2-.79,13.73-.17,18.74,1.74a1.17,1.17,0,0,0,1.42-.47,16.83,16.83,0,0,0,2.65-8.68c.26-8.32-5.23-15.24-12.26-15.46S1121.2,620.61,1120.93,628.93Z"/><path class="cls-78" d="M1125.86,519.47a41.36,41.36,0,0,1,25.26,29.75"/><path class="cls-78" d="M1144.23,516.47A41,41,0,0,1,1160.14,534"/><path class="cls-78" d="M1159.83,514a40.4,40.4,0,0,1,3.76,3.7c1,1.1,1.83,2.17,2.57,3.18"/><path class="cls-50" d="M956.5,578.5a182.67,182.67,0,0,0-16.17-11.75"/><path class="cls-79" d="M930.54,560.94a143.13,143.13,0,0,0-43-15.44c-35.37-6.45-59,3.77-98,10a386.11,386.11,0,0,1-95.48,3"/><path class="cls-50" d="M688.35,558q-9.63-1-19.85-2.47"/><path class="cls-50" d="M740.5,593.15a138.33,138.33,0,0,0,19.63,3.74"/><path class="cls-80" d="M775.27,598c11.76.27,21-.89,35.1-1.63,6.16-.32,13.88-.6,23-.63"/><path class="cls-50" d="M841,595.73c6.13.07,12.8.25,20,.6"/><path class="cls-50" d="M779.5,648.15a138.33,138.33,0,0,0,19.63,3.74"/><path class="cls-80" d="M814.27,653c11.76.27,21-.89,35.1-1.63,6.16-.32,13.88-.6,23-.63"/><path class="cls-50" d="M880,650.73c6.13.07,12.8.25,20,.6"/><path class="cls-42" d="M1430.29-369.9a379.39,379.39,0,0,1,127.47,7c53.19,12.19,108.39,35.94,160.17,18.71,24.15-8,45.11-24.53,69.9-30.32,97.68-22.77,127.91,267.94,183.09,323.61,24.5,24.72,56.41,40.58,88.32,54.5,22.84,10,47.25,20.13,61.71,40.42,43.7,61.36-69,127.57-112.89,144.42-106.76,41-243.51-58-330.44,44.1-21.78,25.59-39.85,62.22-73.4,64.08-33.07,1.84-55.32-31.86-72.45-60.21-31.46-52.08-71.92-102.08-127.83-126.09-58.56-25.13-125.64-18.42-187.61-33.28-9.55-2.29-19.32-5.28-26.63-11.83-12.8-11.48-14.8-31.49-9.38-47.81,9.87-29.76,37.08-60.13,54.67-85.85,26.7-39,41.64-77.9,35.49-125.51-5.51-42.7-20.67-72.62,11.2-111.59,24-29.34,60.67-45.42,97.37-54.9A377.49,377.49,0,0,1,1430.29-369.9Z"/><path class="cls-42" d="M201.12,832a379,379,0,0,1,117.12,50.78c45.67,29.88,89.21,71.29,143.76,73.08,25.43.84,50.81-7.37,76.07-4.2,99.52,12.51,27.08,295.66,59.53,367,14.41,31.68,38.85,57.62,63.95,81.74,18,17.26,37.34,35.26,43.86,59.31,19.72,72.7-109,95.72-155.95,96.32-114.36,1.45-208.3-138.85-325.23-73.2-29.3,16.44-59,44.54-91.07,34.66-31.66-9.75-40.84-49.07-47.08-81.6C74.62,1376.13,54,1315.2,9.89,1273.3c-46.21-43.88-111.46-60.84-164.43-96.26-8.16-5.46-16.29-11.66-20.87-20.34-8-15.2-3-34.66,7.77-48.09,19.57-24.49,55.63-43.54,81-61.56,38.56-27.34,66.06-58.64,76.8-105.43,9.64-42,5.79-75.28,49.2-100.78,32.67-19.2,72.65-21.57,110.35-17.74A375.42,375.42,0,0,1,201.12,832Z"/><path class="cls-81" d="M979.34,712.62c-19.07,12-36-12.9-47.55-29.31-9.23-13.66,1.46-20.12,1.46-20.12l3.52-.53c13.1,15.44,9.61,28.28,28,41.8A68.54,68.54,0,0,0,979.34,712.62Z"/><path class="cls-82" d="M979.34,712.62a68.54,68.54,0,0,1-14.55-8.16c-18.41-13.52-14.92-26.36-28-41.8l19.7-2.95S994.55,696.93,979.34,712.62Z"/><path class="cls-83" d="M940.17,668.11c-6.11,2.15-12.68,4.23-19.69,6.17-6.5,1.79-12.74,3.28-18.66,4.51-5.33.48-11.11.8-17.27.86s-12-.16-17.31-.55a71.88,71.88,0,0,0-1.09,24.74c.61,4.62,1.5,11.39,4.78,17.67a41.07,41.07,0,0,0,77-11.51c1.22-6.62.39-13-.29-17.88A77.58,77.58,0,0,0,940.17,668.11Z"/><path class="cls-84" d="M931.26,691.08c-3.79-3.86-21.72-9.71-26.08-4.52-5.69-3.69-20.94,6.58-23.62,11.94s-4.42,12.71,2.72,20.34c7.42,5.59,18.75,10.34,27.08,9.1s17.78-9.11,23.25-16.62C939.21,701.93,935.05,694.93,931.26,691.08Z"/><path class="cls-85" d="M894.5,679.3s3.64,11.55,11.15,10.42,7.29-13.17,7.29-13.17Z"/><path class="cls-86" d="M868.25,708.26s.47,8.28,3.26,13.3,8.22,10.27,8.22,10.27,6.34-8,2.19-16.16S868.25,708.26,868.25,708.26Z"/><path class="cls-86" d="M946.89,696.85s1.81,5.3.34,13.69S942,722.59,942,722.59s-8.21-6.08-6.34-15S946.89,696.85,946.89,696.85Z"/><path class="cls-69" d="M907.47,707.11l-2.94-11.87a1.94,1.94,0,1,1,3.76-.93,2.08,2.08,0,0,1,.05.36l.66,12.22a.78.78,0,0,1-1.53.22Z"/><path class="cls-87" d="M899.36,701.09a11,11,0,1,0,15.32-2.57"/><path class="cls-3" d="M871,680.72c5.21,19.31,13.43,48.19-8,55.21a68.87,68.87,0,0,0,3.06-16.38c1.43-22.76-10.64-28.26-14.09-48.16l2.65-2.37S866.42,664.93,871,680.72Z"/><path class="cls-4" d="M852,671.39c3.45,19.9,15.52,25.4,14.09,48.16A68.87,68.87,0,0,1,863,735.93c-21.76,1.69-25.9-51.27-25.9-51.27Z"/><path class="cls-88" d="M963.57,590.74s-1.43-22-17.13-33.28c-19.17-10.24-35.88-10.15-35.88-10.15s20.5,14.6,24.21,22.41C954.5,574.09,963.57,590.74,963.57,590.74Z"/><path class="cls-88" d="M839.42,626.12s-20.78-7.3-27.43-25.47c-4.7-21.22-.11-37.28-.11-37.28s8.53,23.67,15.06,29.35C825.83,612.9,839.42,626.12,839.42,626.12Z"/><polygon class="cls-89" points="857.35 574.99 864.64 572.75 859.76 556.76 852.46 558.99 854.38 565.29 857.35 574.99"/><circle class="cls-90" cx="852.99" cy="547.68" r="10.03"/><path class="cls-91" d="M872.32,570.77l-7.67,2-3-9.66s6.75,9.47,10.06,8.46"/><path class="cls-91" d="M849.87,577.63l7.48-2.64-3-9.67S854.1,577,850.78,578"/><path class="cls-92" d="M962.6,654.77C944.14,672.06,904.18,678,904.18,678s-40,6-62.67-5.16c-17.08-8.13-30.31-56.88-17-74.84,20.1-27.16,62.84-32.7,62.84-32.7s43.91-6.16,69.65,12.9C976.09,592.36,976.55,642,962.6,654.77Z"/><path class="cls-93" d="M915.06,601c-10.69-2.67-39.44-2.75-44.67-1.48-5.11.27-31.21,8.55-40.15,14.16-6.74,3.64-1.43,31.15,2,39.95,3.3,8.39,46,2.71,46.6,2.62S924.19,648.8,925,639.8C925.85,630.36,922.94,602.48,915.06,601Z"/><path class="cls-94" d="M846,580.65c2.89,2.92,13.84,13.15,22.43,9.92s10.14-18.18,10.41-22.27A69.58,69.58,0,0,0,846,580.65"/><path class="cls-95" d="M848.8,516.18a46.9,46.9,0,0,0-29.47,33"/><path class="cls-95" d="M828.08,512.26a46.56,46.56,0,0,0-18.54,19.39"/><path class="cls-95" d="M810.47,509a46.78,46.78,0,0,0-4.37,4.09,44,44,0,0,0-3,3.53"/><rect class="cls-96" x="883.33" y="634.33" width="233.35" height="233.35" transform="translate(823.93 -487.14) rotate(45)"/><polyline class="cls-97" points="543.36 653.49 521.3 605.03 510.82 609.48 503.16 597.78 524.85 592.77 528.36 601.03 533.13 599.06 531.93 585.56 512.35 583.96"/><path class="cls-98" d="M547.81,665c-33.16,13.54-121.43-60.88-88.67-106.53,13-18.11,44.07-30.35,66.1-29.08,46,2.66,55.66,64.32,40.29,108C560.82,650.81,557.19,661.13,547.81,665Z"/><path class="cls-42" d="M551.75,652.79l-14.25,6.05c-4.89-3.06-11.06-1.81-13.94,2.23a10.2,10.2,0,0,0,.1,11.35l8.07,19a14.82,14.82,0,0,0,19.44,7.85l19-8.07A14.82,14.82,0,0,0,578,671.75l-8.06-19a9.17,9.17,0,0,0-18.2,0Z"/><line class="cls-99" x1="531.05" y1="671.39" x2="564.79" y2="657.06"/><line class="cls-99" x1="533.07" y1="676.14" x2="566.81" y2="661.81"/><line class="cls-99" x1="535.08" y1="680.89" x2="568.82" y2="666.56"/><line class="cls-99" x1="537.1" y1="685.64" x2="570.84" y2="671.3"/><line class="cls-99" x1="539.12" y1="690.38" x2="572.86" y2="676.05"/><path class="cls-100" d="M579.78,570.7c5.32-3.76,15.5-9.6,27.79-8.29a33.18,33.18,0,0,1,4.41.78"/><path class="cls-100" d="M558.87,531.64a75.43,75.43,0,0,1,26-18.36,65,65,0,0,1,10.81-3.42"/><path class="cls-100" d="M525.7,515.92q1.72-15.66,3.44-31.34"/><path class="cls-100" d="M494,521a63.24,63.24,0,0,0-17-26"/><path class="cls-100" d="M459.5,539.5l-16-21"/><path class="cls-100" d="M434.92,565.46l-24.84-8.92"/><path class="cls-101" d="M439.56,605.46l-25.1.82"/><path class="cls-102" d="M454.38,636.89A86,86,0,0,0,436.63,644c-2,1.06-3.85,2.16-5.59,3.26"/><path class="cls-103" d="M848.69,743l23.56-23.52s9.9,9.47,3.72,18.4S848.69,743,848.69,743Z"/><g class="cls-104"><path class="cls-3" d="M871,680.72c5.21,19.31,13.43,48.19-8,55.21a68.87,68.87,0,0,0,3.06-16.38c1.43-22.76-10.64-28.26-14.09-48.16l2.65-2.37S866.42,664.93,871,680.72Z"/><path class="cls-4" d="M852,671.39c3.45,19.9,15.52,25.4,14.09,48.16A68.87,68.87,0,0,1,863,735.93c-21.76,1.69-25.9-51.27-25.9-51.27Z"/></g><ellipse class="cls-42" cx="847.88" cy="628.53" rx="8.8" ry="13.47"/><ellipse class="cls-42" cx="883.88" cy="624.53" rx="8.8" ry="13.47"/><text class="cls-105" transform="translate(923.7 734.07)">Robo</text><text class="cls-105" transform="translate(925.11 802.59)">Kurd</text><path class="cls-7" d="M1261.51,948.91v13.17a3.77,3.77,0,0,1-1.1,2.82,4,4,0,0,1-2.85,1.07,3.69,3.69,0,0,1-3.89-3.89V948.91a12,12,0,0,1,3.63-8.87,12.17,12.17,0,0,1,8.91-3.6,3.78,3.78,0,0,1,3.89,3.89c0,2.39-1.34,3.71-4,3.94a5.3,5.3,0,0,0-3.28,1.42A4.26,4.26,0,0,0,1261.51,948.91Z"/><path class="cls-7" d="M1302.3,946.82l-7.43,7.26a3.91,3.91,0,0,1-2.72,1.22,3.81,3.81,0,0,1-2.82-1.22,4,4,0,0,1-1.19-2.85,3.83,3.83,0,0,1,1.28-2.72l4.18-4.12a9.7,9.7,0,0,0-1.51-.12,6.95,6.95,0,0,0-7,7,6.82,6.82,0,0,0,2,5,6.65,6.65,0,0,0,4.93,2h5.16a3.69,3.69,0,0,1,3.89,3.89,4,4,0,0,1-1.07,2.85,3.79,3.79,0,0,1-2.82,1.1h-5.16a14.22,14.22,0,0,1-10.53-4.3A14.88,14.88,0,1,1,1302.82,941a3.8,3.8,0,0,1,1.16,2.67A3.86,3.86,0,0,1,1302.3,946.82Z"/><path class="cls-7" d="M1326,966.09a14.25,14.25,0,0,1-10.53-4.3,14.92,14.92,0,1,1,25.39-10.56v10.85a3.77,3.77,0,0,1-1.1,2.82,4,4,0,0,1-2.85,1.07,3.67,3.67,0,0,1-3.88-3.89V951.23a6.69,6.69,0,0,0-2.06-4.93,6.85,6.85,0,0,0-5-2,6.93,6.93,0,0,0-7,7,6.85,6.85,0,0,0,2,5,6.68,6.68,0,0,0,4.93,2,3.92,3.92,0,0,1,2.85,1.08,3.75,3.75,0,0,1,1.1,2.81,3.77,3.77,0,0,1-4,4Z"/><path class="cls-7" d="M1373,953.44a12.17,12.17,0,0,1-3.6,8.91,12,12,0,0,1-8.87,3.62A12.28,12.28,0,0,1,1348,953.44v-20a3.92,3.92,0,0,1,1.08-2.85,3.75,3.75,0,0,1,2.81-1.1,3.79,3.79,0,0,1,3.95,4v3.07h13.28a3.69,3.69,0,0,1,3.89,3.89c0,2.63-1.29,3.95-3.89,3.95h-13.28v9.05a4.64,4.64,0,0,0,4.7,4.7,4.47,4.47,0,0,0,3.3-1.36,4.61,4.61,0,0,0,1.34-3.34v-.52a3.75,3.75,0,0,1,1.13-2.79,3.88,3.88,0,0,1,2.81-1.1,3.76,3.76,0,0,1,3.89,3.89Z"/><path class="cls-7" d="M1387.57,925.44a4.77,4.77,0,1,1-3.4-1.42A4.63,4.63,0,0,1,1387.57,925.44Zm.55,14.89c0-2.6-1.32-3.89-3.95-3.89a3.67,3.67,0,0,0-3.88,3.89v21.75a3.67,3.67,0,0,0,3.88,3.89,4,4,0,0,0,2.85-1.07,3.77,3.77,0,0,0,1.1-2.82Z"/><path class="cls-7" d="M1401.81,938.93l4.76,12.3,4.76-12.3a3.56,3.56,0,0,1,3.54-2.55,4.12,4.12,0,0,1,2.84,1.1,3.56,3.56,0,0,1,1.22,2.73,4.3,4.3,0,0,1-.29,1.51l-8.41,21.76c-.82,2.09-2,3.13-3.66,3.13s-2.84-1-3.65-3.13l-8.42-21.76a4.3,4.3,0,0,1-.29-1.51,3.56,3.56,0,0,1,1.22-2.73,4.12,4.12,0,0,1,2.84-1.1A3.56,3.56,0,0,1,1401.81,938.93Z"/><path class="cls-7" d="M1432.48,925.44a4.77,4.77,0,1,1-3.4-1.42A4.63,4.63,0,0,1,1432.48,925.44Zm.55,14.89c0-2.6-1.32-3.89-4-3.89a3.67,3.67,0,0,0-3.88,3.89v21.75a3.67,3.67,0,0,0,3.88,3.89,4,4,0,0,0,2.85-1.07,3.77,3.77,0,0,0,1.1-2.82Z"/><path class="cls-7" d="M1465.29,953.44a12.17,12.17,0,0,1-3.6,8.91,12,12,0,0,1-8.87,3.62,12.28,12.28,0,0,1-12.54-12.53v-20a3.92,3.92,0,0,1,1.08-2.85,3.75,3.75,0,0,1,2.81-1.1,3.79,3.79,0,0,1,3.95,4v3.07h13.28a3.69,3.69,0,0,1,3.89,3.89c0,2.63-1.29,3.95-3.89,3.95h-13.28v9.05a4.64,4.64,0,0,0,4.7,4.7,4.47,4.47,0,0,0,3.3-1.36,4.61,4.61,0,0,0,1.34-3.34v-.52a3.75,3.75,0,0,1,1.13-2.79,3.88,3.88,0,0,1,2.81-1.1,3.76,3.76,0,0,1,3.89,3.89Z"/><path class="cls-7" d="M1485.08,966a12.28,12.28,0,0,1-12.54-12.53V940.33a3.69,3.69,0,0,1,3.89-3.89c2.63,0,4,1.29,4,3.89v13.11a4.64,4.64,0,0,0,4.7,4.7,4.49,4.49,0,0,0,3.31-1.36,4.6,4.6,0,0,0,1.33-3.34V940.33a3.77,3.77,0,0,1,1.1-2.82,3.91,3.91,0,0,1,2.85-1.07,3.67,3.67,0,0,1,3.88,3.89V966.2A12.38,12.38,0,0,1,1485,978.74h-.23a4,4,0,0,1-2.85-1.07,3.79,3.79,0,0,1-1.1-2.82,3.79,3.79,0,0,1,4-4h.23a4.75,4.75,0,0,0,4.7-4.7v-1.1A12.54,12.54,0,0,1,1485.08,966Z"/><path class="cls-7" d="M1277.53,903.46a24.5,24.5,0,0,1-6,16.15c-6.19,7-15.77,10.65-24.8,12.1a57.6,57.6,0,0,0-8.17,1.5,12.23,12.23,0,0,0-7.7,6.58,13,13,0,0,0-1.16,5.53,12.79,12.79,0,0,0,12.94,12.93,3.79,3.79,0,0,1,4,4,3.75,3.75,0,0,1-1.1,2.81,3.92,3.92,0,0,1-2.85,1.08,20.61,20.61,0,0,1-20.77-20.77,20.88,20.88,0,0,1,1.73-8.56,19.4,19.4,0,0,1,8.77-9.52c3.23-1.6,6.85-2.17,10.36-2.81,8.27-1.52,17.28-3.28,23.2-9.79l1-1.19.88-1.28c.26-.44.48-.9.73-1.35l.36-.67.26-.72a17.65,17.65,0,0,0,1.19-6.14,35,35,0,0,0-.34-5.79,72,72,0,0,0,7.4,2A34.63,34.63,0,0,1,1277.53,903.46Z"/><path class="cls-7" d="M1318.88,874.54a19.58,19.58,0,0,0-2.37-8.43,19.13,19.13,0,0,0-5.91-6.49,25.87,25.87,0,0,0-3.69-2.15,33.82,33.82,0,0,0-4-1.51,33.08,33.08,0,0,0-8.29-1.15,35.78,35.78,0,0,0-8.24,1.05,31.51,31.51,0,0,0-7.78,3.22,25.46,25.46,0,0,0-6.55,5.69,21.88,21.88,0,0,0-3.85,8,31.43,31.43,0,0,0-.66,8.42,67.07,67.07,0,0,0,1,7.88c.18,1.06.38,2.12.57,3.16-.83-.29-1.65-.63-2.49-.91-1.14-.42-2.3-.82-3.4-1.34l-3.35-1.47-3.26-1.68a79.91,79.91,0,0,1-12.28-8c-2-1.44-3.75-3.15-5.6-4.74l-.57-.57,3.65-3.69a66.76,66.76,0,0,0,9.25-12.1,49.37,49.37,0,0,0,3.48-6.84,27.51,27.51,0,0,0,2-7.55,26.08,26.08,0,0,0-1.75-11.61A17.6,17.6,0,0,0,1254,830c-.29-.6-.64-1.16-1-1.72A26.39,26.39,0,0,0,1241.21,818a21.24,21.24,0,0,0-7.8-1.77,22.32,22.32,0,0,0-7.93,1.17,17.1,17.1,0,0,0-6.93,4.33,16.37,16.37,0,0,0-3.91,7.26,23.49,23.49,0,0,0-.55,8,28.56,28.56,0,0,0,.68,3.93l1,3.73a68.45,68.45,0,0,0,6,14.19c.31.56.6,1.14.93,1.69l1,1.62c.71,1.08,1.35,2.2,2.12,3.23l2.3,3.1c.74,1.05,1.64,2,2.45,3a47.9,47.9,0,0,0,3.54,3.86c-1.34,1.41-2.67,2.83-4,4.28-3.35,3.74-6.73,7.44-10,11.3-.81,1-1.6,2-2.35,3s-1.39,2.15-2,3.24a46.35,46.35,0,0,0-3.19,6.9,58.33,58.33,0,0,0-3.09,14.8c-.25,2.51-.38,5-.63,7.5a28,28,0,0,1-.61,3.66,7.38,7.38,0,0,1-1.57,3.24,4.81,4.81,0,0,1-3.15,1.53,8.94,8.94,0,0,1-3.61-.51,26.19,26.19,0,0,1-6.58-3.5A93,93,0,0,1,1182,921a92,92,0,0,0,11.26,10,26.44,26.44,0,0,0,6.6,3.66,9.41,9.41,0,0,0,3.77.58,5.26,5.26,0,0,0,3.48-1.62,7.94,7.94,0,0,0,1.74-3.43,27,27,0,0,0,.69-3.74c.3-2.51.47-5,.75-7.49a57.08,57.08,0,0,1,3.29-14.53,43.33,43.33,0,0,1,3.22-6.69c.65-1.06,1.29-2.12,2-3.1s1.53-1.94,2.34-2.88c3.28-3.76,6.73-7.42,10.13-11.09,1.31-1.41,2.64-2.79,4-4.16l.61.64c1.92,1.71,3.74,3.53,5.8,5.08a84.8,84.8,0,0,0,12.78,8.6l3.4,1.82,3.52,1.62c1.15.56,2.37,1,3.57,1.47s2.39,1,3.63,1.33l1.37.45a72,72,0,0,0,7.4,2,56.51,56.51,0,0,0,6.4,1,40.66,40.66,0,0,0,15.92-1.31,29.49,29.49,0,0,0,13.79-8.79,22.68,22.68,0,0,0,5.41-15.87Zm-85.24-5.67c-.79-.93-1.66-1.8-2.38-2.79l-2.24-2.91c-.74-1-1.36-2-2.06-3l-1-1.53c-.32-.51-.61-1.05-.91-1.58a64.85,64.85,0,0,1-5.93-13.36l-1-3.52a24.66,24.66,0,0,1-.66-3.47,20.23,20.23,0,0,1,.35-6.91,13.06,13.06,0,0,1,3-5.9,14.13,14.13,0,0,1,5.66-3.65,19,19,0,0,1,13.67.31,23.79,23.79,0,0,1,10.72,9.06c.32.5.64,1,.91,1.53a14.52,14.52,0,0,1,.77,1.59,22,22,0,0,1,1.11,3.39,23,23,0,0,1,.65,7.1,25.1,25.1,0,0,1-1.74,7,47.48,47.48,0,0,1-3.23,6.61,65.31,65.31,0,0,1-8.79,11.91l-3.56,3.72A48.68,48.68,0,0,1,1233.64,868.87Zm78.72,12.37a17.1,17.1,0,0,1-3.1,5.65,24,24,0,0,1-11.16,7.31,35.37,35.37,0,0,1-13.87,1.35,56.31,56.31,0,0,1-7.56-1.2c-.4-2.24-.87-4.39-1.25-6.49a63,63,0,0,1-1-7,25.14,25.14,0,0,1,.38-6.54,15.3,15.3,0,0,1,2.53-5.48,18.73,18.73,0,0,1,4.69-4.19,25.25,25.25,0,0,1,6-2.61,29.73,29.73,0,0,1,6.64-1,26.36,26.36,0,0,1,6.59.79,27.55,27.55,0,0,1,3.07,1.11,19.94,19.94,0,0,1,2.83,1.58,13.54,13.54,0,0,1,4.22,4.45,13.79,13.79,0,0,1,1.75,5.91A16.75,16.75,0,0,1,1312.36,881.24Z"/><path class="cls-106" d="M1131,712l-45.84-44.77,51.47,5,2.68,15.4-1.4,9.21S1134,710,1131,712Z"/><path class="cls-107" d="M972,283.42c-11.52,0-11.52-17.93-23-17.93s-11.52,17.93-23.05,17.93-11.52-17.93-23-17.93-11.53,17.93-23,17.93-11.53-17.93-23.05-17.93"/><path class="cls-108" d="M1150,1134.46c-16.72,0-16.72-26-33.43-26s-16.72,26-33.44,26-16.71-26-33.43-26-16.72,26-33.43,26-16.72-26-33.44-26"/><circle class="cls-109" cx="1556" cy="753" r="32"/><circle class="cls-42" cx="804.39" cy="1062.65" r="62.59"/><circle class="cls-42" cx="1047.39" cy="338.65" r="62.59"/><circle class="cls-110" cx="816" cy="405" r="19"/><circle class="cls-110" cx="424" cy="784" r="19"/><polyline class="cls-111" points="1223.87 264.9 1280.84 261.07 1284.66 318.05"/><path class="cls-7" d="M1191,940.13c1-.08,1.92-1.64,1.79-2.92-.22-2.13-3.39-2.39-6-6.2-.92-1.32-1.16-2.18-1.25-2.15C1185.22,929,1188.37,940.34,1191,940.13Z"/><path class="cls-7" d="M1215,863l-2.17-2.41c-.36-.41-.73-.8-1.08-1.22l-1-1.29c-.64-.87-1.34-1.71-2-2.6l-1.77-2.73a55.19,55.19,0,0,1-5.37-11.87,41.31,41.31,0,0,1-1.75-12.94,28.1,28.1,0,0,1,3.2-12.67,11.86,11.86,0,0,1,.89-1.4c.32-.45.6-.94,1-1.36l1.12-1.23.57-.62.64-.53a18.05,18.05,0,0,1,5.84-3.13,39.31,39.31,0,0,1,13-1.61A56.87,56.87,0,0,1,1239,807a48.62,48.62,0,0,1,12,5,51.13,51.13,0,0,0-12.1-4.5,55.7,55.7,0,0,0-12.81-1.34,40.25,40.25,0,0,0-12.66,1.71,16.85,16.85,0,0,0-5.51,3l-.6.5-.53.59-1,1.17c-.34.4-.6.87-.91,1.3a14.16,14.16,0,0,0-.84,1.33,27.54,27.54,0,0,0-3.17,12.23,43,43,0,0,0,1.59,12.69,54.59,54.59,0,0,0,5,11.83A66.89,66.89,0,0,0,1215,863Z"/><path class="cls-7" d="M1315.5,852.5q1,1.32,2,2.67l1.83,2.79,1.64,2.92c.48,1,1,2,1.45,3a42.39,42.39,0,0,1,3.45,12.93,28.61,28.61,0,0,1-.26,6.73,24.64,24.64,0,0,1-.75,3.3,18.68,18.68,0,0,1-1.34,3.12,20.87,20.87,0,0,1-1.84,2.84,17.34,17.34,0,0,1-2.37,2.4,20.3,20.3,0,0,1-5.79,3.29,19,19,0,0,0,9.32-8.88,27.11,27.11,0,0,0,1.2-3,24.76,24.76,0,0,0,.67-3.19,27.25,27.25,0,0,0,.16-6.51,43.58,43.58,0,0,0-3.16-12.71A66.08,66.08,0,0,0,1315.5,852.5Z"/><path class="cls-7" d="M1202.5,946.5a47.51,47.51,0,0,0,2.17,6.42,44.74,44.74,0,0,0,3,6.06,37.1,37.1,0,0,0,8.55,10.26,29.2,29.2,0,0,0,11.89,5.88,30.54,30.54,0,0,0,6.67.85,36.44,36.44,0,0,0,6.75-.47,31.94,31.94,0,0,1-6.75,1,30.19,30.19,0,0,1-6.83-.59,28.92,28.92,0,0,1-12.36-5.86,36.27,36.27,0,0,1-8.59-10.66A42.52,42.52,0,0,1,1202.5,946.5Z"/><path class="cls-7" d="M1255.12,816.29c.23-.07.51,1.89,2.43,3.82,2.09,2.11,4,2,4.24,3.33s-1.48,3.43-2.86,3.3C1256,826.45,1254.6,816.47,1255.12,816.29Z"/><g class="cls-112"><line class="cls-113" x1="844.54" y1="1197.21" x2="910.6" y2="1069.31"/><line class="cls-113" x1="835.89" y1="1192.74" x2="901.95" y2="1064.85"/><line class="cls-113" x1="827.24" y1="1188.27" x2="893.3" y2="1060.38"/><line class="cls-113" x1="818.59" y1="1183.8" x2="884.65" y2="1055.91"/><line class="cls-113" x1="809.94" y1="1179.33" x2="876" y2="1051.44"/><line class="cls-113" x1="801.29" y1="1174.86" x2="867.35" y2="1046.97"/><line class="cls-113" x1="792.64" y1="1170.4" x2="858.7" y2="1042.5"/><line class="cls-113" x1="783.99" y1="1165.93" x2="850.05" y2="1038.04"/><line class="cls-113" x1="775.34" y1="1161.46" x2="841.4" y2="1033.57"/><line class="cls-113" x1="766.69" y1="1156.99" x2="832.75" y2="1029.1"/><line class="cls-113" x1="758.04" y1="1152.52" x2="824.1" y2="1024.63"/><line class="cls-113" x1="749.39" y1="1148.05" x2="815.45" y2="1020.16"/><line class="cls-113" x1="740.74" y1="1143.59" x2="806.8" y2="1015.69"/><line class="cls-113" x1="732.09" y1="1139.12" x2="798.15" y2="1011.23"/><line class="cls-113" x1="723.44" y1="1134.65" x2="789.5" y2="1006.76"/><line class="cls-113" x1="714.79" y1="1130.18" x2="780.85" y2="1002.29"/><line class="cls-113" x1="706.14" y1="1125.71" x2="772.2" y2="997.82"/><line class="cls-113" x1="697.49" y1="1121.24" x2="763.55" y2="993.35"/><line class="cls-113" x1="688.84" y1="1116.78" x2="754.9" y2="988.88"/><line class="cls-113" x1="680.18" y1="1112.31" x2="746.25" y2="984.42"/><line class="cls-113" x1="671.53" y1="1107.84" x2="737.6" y2="979.95"/><line class="cls-113" x1="662.88" y1="1103.37" x2="728.95" y2="975.48"/><line class="cls-113" x1="654.23" y1="1098.9" x2="720.3" y2="971.01"/><line class="cls-113" x1="645.58" y1="1094.43" x2="711.65" y2="966.54"/></g><circle class="cls-114" cx="1398" cy="424" r="47"/><g class="cls-115"><line class="cls-116" x1="1094.95" y1="260.55" x2="980.68" y2="315.81"/><line class="cls-116" x1="1098.68" y1="268.28" x2="984.42" y2="323.54"/><line class="cls-116" x1="1102.42" y1="276.01" x2="988.15" y2="331.26"/><line class="cls-116" x1="1106.16" y1="283.74" x2="991.89" y2="338.99"/><line class="cls-116" x1="1109.9" y1="291.47" x2="995.63" y2="346.72"/><line class="cls-116" x1="1113.63" y1="299.2" x2="999.37" y2="354.45"/><line class="cls-116" x1="1117.37" y1="306.92" x2="1003.1" y2="362.18"/><line class="cls-116" x1="1121.11" y1="314.65" x2="1006.84" y2="369.91"/><line class="cls-116" x1="1124.84" y1="322.38" x2="1010.58" y2="377.64"/><line class="cls-116" x1="1128.58" y1="330.11" x2="1014.32" y2="385.37"/><line class="cls-116" x1="1132.32" y1="337.84" x2="1018.05" y2="393.09"/><line class="cls-116" x1="1136.06" y1="345.57" x2="1021.79" y2="400.82"/><line class="cls-116" x1="1139.79" y1="353.3" x2="1025.53" y2="408.55"/><line class="cls-116" x1="1143.53" y1="361.03" x2="1029.27" y2="416.28"/><line class="cls-116" x1="1147.27" y1="368.76" x2="1033" y2="424.01"/><line class="cls-116" x1="1151.01" y1="376.48" x2="1036.74" y2="431.74"/><line class="cls-116" x1="1154.74" y1="384.21" x2="1040.48" y2="439.47"/><line class="cls-116" x1="1158.48" y1="391.94" x2="1044.21" y2="447.2"/><line class="cls-116" x1="1162.22" y1="399.67" x2="1047.95" y2="454.92"/><line class="cls-116" x1="1165.96" y1="407.4" x2="1051.69" y2="462.65"/><line class="cls-116" x1="1169.69" y1="415.13" x2="1055.43" y2="470.38"/><line class="cls-116" x1="1173.43" y1="422.86" x2="1059.16" y2="478.11"/><line class="cls-116" x1="1177.17" y1="430.59" x2="1062.9" y2="485.84"/><line class="cls-116" x1="1180.9" y1="438.31" x2="1066.64" y2="493.57"/></g><path class="cls-42" d="M818.05,1342.2c-4.23-24.36-4.19-66.55,16.15-76.33,11.8-5.68,19.46,4.84,48.64,11.59,48.35,11.2,70.31-7.74,86.67,7.31,19.82,18.22,5.24,62.27,3.4,67.63-13.19,38.44-54.61,84.21-96.93,74.55C831,1416.68,819.71,1351.71,818.05,1342.2Z"/><path class="cls-42" d="M613.8,293.62c.54,15.7-3.18,42.23-16.83,46.61-7.93,2.54-11.83-4.75-29.59-11.55-29.44-11.28-44.91-1.29-53.88-12.18-10.88-13.21,2.15-39.64,3.78-42.85,11.66-23,41.72-48.2,67.5-38.42C612.18,245.63,613.6,287.49,613.8,293.62Z"/><path class="cls-50" d="M761.5,631.5a60.08,60.08,0,0,0-13.57-14.58"/><path class="cls-117" d="M738.78,611.11c-27.16-14.09-63.53-7.65-80.33,21.52-3,5.23-5.37,11.11-10.06,14.89-6.66,5.35-16.35,5-24.45,2.34l-.21-.07"/><path class="cls-50" d="M618.69,647.83c-6.11-2.64-11.94-6-18.22-8.23"/><path class="cls-50" d="M399.5,543.5c-5.27-2.52-11.44-5.23-18.4-7.81"/><path class="cls-118" d="M369,531.62a187,187,0,0,0-52.5-8.12c-60.41-.51-88.65,29.83-144,40-27.62,5.07-67.41,6.12-119.6-13"/><path class="cls-50" d="M46.92,548.28q-9-3.48-18.42-7.78"/><path class="cls-50" d="M354,598q-10.5-.36-20-.07"/><path class="cls-119" d="M321,598.63C273.4,602.37,245.88,618.22,229,634c-20.95,19.58-22.07,35.81-43,42-31.08,9.19-53.06-19.37-102-16-3.65.25-7.12.66-10.41,1.17"/><path class="cls-50" d="M67.16,662.35A127.58,127.58,0,0,0,48,668"/><path class="cls-50" d="M354,671a177.58,177.58,0,0,0-17.81,9.08"/><path class="cls-120" d="M325.79,686.63q-2.37,1.61-4.79,3.37c-37,27-40.84,52-66,58-17.24,4.12-22.86-5.84-49-10-16-2.55-36.2-2.36-60.71,5.37"/><path class="cls-50" d="M139.46,745.33A194.72,194.72,0,0,0,121,753"/><rect class="cls-121" x="1641.2" y="617.46" width="18.32" height="17.9" transform="translate(-60.59 1060.84) rotate(-35.03)"/><polygon class="cls-42" points="1647.72 940.13 1656.36 872.41 1705.32 905.24 1647.72 940.13"/><path class="cls-42" d="M1351,1451c-92.65,14.27-196.63-86.35-185-140,10.85-50,118.66-42.56,144-117,15.88-46.64-15.8-80.82,7-103,23.83-23.19,82.79-9.56,119,19,28.66,22.61,39.72,51.94,43,61C1513.09,1265,1459.85,1434.23,1351,1451Z"/><rect class="cls-1" x="-37" width="2000" height="1500"/><path class="cls-7" d="M575.17,952.46a11.78,11.78,0,1,1,11.75-11.74v17.94a3,3,0,0,1-3.12,3.12,3,3,0,0,1-2.23-.87,3.14,3.14,0,0,1-.85-2.25V940.72a5.28,5.28,0,0,0-1.62-3.9,5.4,5.4,0,0,0-3.93-1.6,5.46,5.46,0,0,0-5.5,5.5,5.37,5.37,0,0,0,1.6,3.92,5.26,5.26,0,0,0,3.9,1.63,3.07,3.07,0,0,1,2.25.85,3,3,0,0,1,.87,2.23,3,3,0,0,1-3.12,3.11Z"/><path class="cls-7" d="M601.09,932.19v10.27a3.69,3.69,0,0,0,3.72,3.72,3.49,3.49,0,0,0,2.61-1.08,3.65,3.65,0,0,0,1.06-2.64V932.1a3,3,0,0,1,.87-2.23,3.11,3.11,0,0,1,2.25-.85,3,3,0,0,1,2.22.85,3,3,0,0,1,.85,2.23v10.36a9.62,9.62,0,0,1-2.85,7,9.47,9.47,0,0,1-7,2.86,9.7,9.7,0,0,1-9.91-9.91V932.19a3.07,3.07,0,0,1,.85-2.25,2.94,2.94,0,0,1,2.22-.87,3,3,0,0,1,3.12,3.12Z"/><path class="cls-7" d="M634.39,952.46a11.78,11.78,0,1,1,11.75-11.74v8.58a2.94,2.94,0,0,1-.87,2.22,3.09,3.09,0,0,1-2.25.85,2.92,2.92,0,0,1-3.08-3.07v-8.58a5.28,5.28,0,0,0-1.62-3.9,5.4,5.4,0,0,0-3.93-1.6,5.46,5.46,0,0,0-5.5,5.5,5.37,5.37,0,0,0,1.6,3.92,5.26,5.26,0,0,0,3.9,1.63,3.07,3.07,0,0,1,2.25.85,3,3,0,0,1,.87,2.23,3,3,0,0,1-3.12,3.11Z"/><path class="cls-7" d="M660.31,922.79V949.3a2.94,2.94,0,0,1-.87,2.22,3.07,3.07,0,0,1-2.25.85,2.92,2.92,0,0,1-3.07-3.07V922.79a2.92,2.92,0,0,1,3.07-3.08Q660.31,919.71,660.31,922.79Z"/><path class="cls-7" d="M674.05,920.33a3.78,3.78,0,1,1-2.68-1.12A3.67,3.67,0,0,1,674.05,920.33Zm.43,11.77q0-3.08-3.11-3.08a3,3,0,0,0-2.23.85,3,3,0,0,0-.85,2.23v17.2a3,3,0,0,0,.85,2.22,3,3,0,0,0,2.23.85,3.06,3.06,0,0,0,2.24-.85,2.94,2.94,0,0,0,.87-2.22Z"/><path class="cls-7" d="M702.28,942.46a9.65,9.65,0,0,1-2.84,7,9.88,9.88,0,0,1-16.93-7V926.68a3.06,3.06,0,0,1,.85-2.24,3,3,0,0,1,2.22-.87,3,3,0,0,1,3.12,3.11v2.44h10.51a2.9,2.9,0,0,1,3.07,3.07q0,3.12-3.07,3.12H688.7v7.15a3.69,3.69,0,0,0,3.72,3.72A3.49,3.49,0,0,0,695,945.1a3.61,3.61,0,0,0,1.06-2.64v-.41a3,3,0,0,1,.89-2.2,3.08,3.08,0,0,1,2.23-.87,3,3,0,0,1,3.07,3.07Z"/><path class="cls-7" d="M720.22,952.37a9.7,9.7,0,0,1-9.91-9.91V932.1a2.92,2.92,0,0,1,3.07-3.08q3.12,0,3.12,3.08v10.36a3.69,3.69,0,0,0,3.72,3.72,3.49,3.49,0,0,0,2.61-1.08,3.61,3.61,0,0,0,1.06-2.64V932.1a3,3,0,0,1,.87-2.23A3.11,3.11,0,0,1,727,929a2.92,2.92,0,0,1,3.07,3.08v20.46a9.78,9.78,0,0,1-9.91,9.9H720a3.1,3.1,0,0,1-2.25-.84,3,3,0,0,1-.87-2.23,3,3,0,0,1,3.12-3.12h.18a3.76,3.76,0,0,0,3.72-3.71v-.88A9.89,9.89,0,0,1,720.22,952.37Z"/><path class="cls-7" d="M797.32,914.18a46,46,0,0,0,2.85-7.42,48,48,0,0,0,1.68-7.75,41.32,41.32,0,0,0-.76-15.71,37.17,37.17,0,0,0-6.85-14.13,43.13,43.13,0,0,0-11.85-10.45,42.64,42.64,0,0,1,6.64,4.43,40.45,40.45,0,0,1,5.64,5.69,36.68,36.68,0,0,1,7.11,14.29,40.86,40.86,0,0,1,.61,16A46.87,46.87,0,0,1,797.32,914.18Z"/><path class="cls-7" d="M697.06,888.59a44.56,44.56,0,0,1-5.15-14.3,45,45,0,0,1,5.16-29.83A43.09,43.09,0,0,1,707,832.64a43.89,43.89,0,0,1,13.49-7.52,45,45,0,0,1,43.4,8,47.65,47.65,0,0,0-28.19-8.75,44.05,44.05,0,0,0-27.34,9.92,43.45,43.45,0,0,0-14.84,25A47.31,47.31,0,0,0,697.06,888.59Z"/><path class="cls-7" d="M731.72,907.66a72.46,72.46,0,0,1,6.79,21.9A103.06,103.06,0,0,1,739.77,941a48.88,48.88,0,0,1-.83,11.68,37.9,37.9,0,0,1-4.16,11,38.48,38.48,0,0,1-7.32,9.16,46.31,46.31,0,0,1-20.23,10.76,56.58,56.58,0,0,0,18.68-12.35,38.51,38.51,0,0,0,10.25-19.16,43.66,43.66,0,0,0,.78-5.47c.13-1.84.18-3.69.15-5.56,0-3.73-.43-7.48-.78-11.26A103.7,103.7,0,0,0,731.72,907.66Z"/></g></svg>