<svg id="_лой_1" data-name="‘лой_1" xmlns="http://www.w3.org/2000/svg" viewBox="0 0 2855.9 1666.59"><defs><style>.cls-1{fill:#cde3fd;}.cls-10,.cls-2{fill:#fff;}.cls-2{opacity:0.8;}.cls-3{fill:#ed7d2b;}.cls-4{fill:#2c3a64;}.cls-5{fill:#35488b;}.cls-6{fill:#ffb27d;}.cls-7{fill:#ed975d;}.cls-8{fill:#f99746;}.cls-9{fill:#2b478b;}.cls-11{fill:#2c5693;}.cls-12{fill:#163560;}.cls-13{fill:#233862;}.cls-14{fill:#1c468a;}.cls-15{fill:#8aa8ed;}.cls-16{fill:#2e3552;}</style></defs><title>photo</title><path class="cls-1" d="M2927.13,1839.59l-2512.83-.85s-4.7-6.41-12.74-18.65q-2.31-3.51-5-7.68c-3.94-6.17-8.45-13.37-13.41-21.59l-2.05-3.41c-4.59-7.69-9.56-16.19-14.8-25.48-.6-1.07-1.22-2.14-1.82-3.23C263.71,1578.93,65.75,1118.49,317.4,604.81c319-651.22,1055.48-307.89,1338.72-367.09C2444.13,73,3036,185,2828.34,1018.42,2727.86,1421.76,3134.15,1436.42,2927.13,1839.59Z" transform="translate(-194.91 -173)"/><rect class="cls-2" x="527.31" y="210.88" width="1589.8" height="1447.58"/><path class="cls-3" d="M2376.72,887.15s-95.66,9.51-124.44,2.42-100-64-100-64l-19.93,14.81s52.7,98.33,91.38,112.41,143.72,15.55,143.72,15.55Z" transform="translate(-194.91 -173)"/><path class="cls-4" d="M2723.2,1748.68s18.91,17.69,15.15,30.17-20.93,20.75-23.32,36-11.68,23.56-20,23.52l-39.74-.18s-6.08-10.78,8.75-14,20.5-21.11,19.65-37.78,1.56-38.89,1.56-38.89l31.53-7.27Z" transform="translate(-194.91 -173)"/><path class="cls-4" d="M2490.07,1793.26s4.25,40.06-4.11,44.19l-107.49-.48s-.14-12.73,17-15.43,47.29-12.75,52.48-35.42S2490.07,1793.26,2490.07,1793.26Z" transform="translate(-194.91 -173)"/><path class="cls-5" d="M2402.56,1227.16s5.31,70.22,11.54,154.63c8.47,114.67,18.65,255.51,19.6,282.19,1.64,46.33,8.72,120.45,8.72,120.45s17.51,17.68,52.75,10.42c0,0,31.84-105.62,41.3-217.48l.45-5.53c8.84-113.88,22.88-353.7,22.88-353.7Z" transform="translate(-194.91 -173)"/><path class="cls-4" d="M2402.56,1227.16s5.31,70.22,11.54,154.63l122.37,195.58.45-5.53c8.84-113.88,22.88-353.7,22.88-353.7Z" transform="translate(-194.91 -173)"/><path class="cls-5" d="M2428.21,1235.61s100.27,254.68,166.42,374.46,86.83,153.2,86.83,153.2,38.27-15.11,41.79-25.51c0,0-24.46-230.76-68.86-287.19-25.09-31.88-54.31-127.36-55.55-160.7s-8.58-99.37-8.58-99.37Z" transform="translate(-194.91 -173)"/><path class="cls-6" d="M2440.19,852.57s-91.73,47.62-81,34.5c3.43-4.19.21-19-1.86-24q-1.49-3.59-2.74-6.81a245.17,245.17,0,0,1-8.36-24.46L2370,800.38l16.11-21.31a119.89,119.89,0,0,0,7.92,24.26C2410.66,840.13,2440.19,852.57,2440.19,852.57Z" transform="translate(-194.91 -173)"/><path class="cls-7" d="M2394,803.33s-5.74,36.37-39.41,52.92a245.17,245.17,0,0,1-8.36-24.46L2370,800.38C2385.37,800.31,2394,803.33,2394,803.33Z" transform="translate(-194.91 -173)"/><path class="cls-8" d="M2605.5,1239.59c-29.24,32.45-220.22,56.67-214.93,32.32a270.59,270.59,0,0,0,6.09-48.57c.2-5.33.26-11,.15-17a362.68,362.68,0,0,0-11-80.63,448,448,0,0,0-14.36-46.61c-1.42-3.86-2.89-7.74-4.45-11.68a378.2,378.2,0,0,1-18.38-60.86c-8.16-38.66-8.86-74.74.52-97.11.05-.1,9.14-23.69,9.19-23.81,40.93-13,56.63-51.93,56.63-51.93s127.94,35.28,179.68,220.45C2594.62,1054.13,2630.92,1211.33,2605.5,1239.59Z" transform="translate(-194.91 -173)"/><path class="cls-3" d="M2468,965.05s-12.56,107.34-82.21,160.63a448,448,0,0,0-14.36-46.61c7.55-25.39,16.16-46.2,23.86-55.07C2426.57,987.87,2468,965.05,2468,965.05Z" transform="translate(-194.91 -173)"/><path class="cls-6" d="M2329.46,839.4s66.27-3.2,63.65-44.45,4.15-69.43-38.28-69.13-49.64,16.56-52.11,30.54S2312.15,839.17,2329.46,839.4Z" transform="translate(-194.91 -173)"/><path class="cls-9" d="M2424.12,730.37c.68-.67,2.16-1.14,5.37-1a12.77,12.77,0,0,0-5.83-2.2c-.29-4.57-2-12.75-9.49-15.32a9.74,9.74,0,0,1,4.07,7.41c-8.1-10-26.52-18.25-79.41-18.35-69.71-.14-50.58,46.76-42.06,52.87s32.3-6.76,48.89-4,17.76,27.49,23.15,31.32,3.65-2.3,11.61-5.19,7.62,10.07,4.72,18.28,6.72,20.13,6.72,20.13l11.6-10.77c11.6-10.76,25.69-59.26,21.71-70.17C2424.82,732.33,2424.47,731.35,2424.12,730.37Z" transform="translate(-194.91 -173)"/><path class="cls-10" d="M2339.9,814.83s-2.15,5.83-4.86,7-11.62,1.88-13.35.72S2317,817,2317,817,2331.24,813.08,2339.9,814.83Z" transform="translate(-194.91 -173)"/><rect class="cls-11" x="2274.44" y="928.46" width="19.28" height="283.95" transform="translate(-190.11 -183.18) rotate(0.26)"/><path class="cls-11" d="M2417.32,1835.3c1.87.22,3.51-.21,3.12-3.19l-89.76-635.7-12.89,8,96.16,627.9A3.45,3.45,0,0,0,2417.32,1835.3Z" transform="translate(-194.91 -173)"/><rect class="cls-11" x="2242.86" y="1196.21" width="87.62" height="16.21" transform="translate(-189.48 -183.26) rotate(0.26)"/><path class="cls-11" d="M2373.12,1523.77l-4.71.49a8.4,8.4,0,0,1-9.27-7.33l-1.35-12.39a8.31,8.31,0,0,1,7.47-9.09l4.71-.49a8.39,8.39,0,0,1,9.27,7.33l1.36,12.39A8.33,8.33,0,0,1,2373.12,1523.77Z" transform="translate(-194.91 -173)"/><path class="cls-11" d="M2150.84,1834.1c-1.86.2-3.51-.24-3.08-3.22L2243.23,1196l12.81,8.16-101.8,627A3.45,3.45,0,0,1,2150.84,1834.1Z" transform="translate(-194.91 -173)"/><path class="cls-11" d="M2197.88,1522.91l4.68.53a8.37,8.37,0,0,0,9.29-7.21l1.45-12.31a8.28,8.28,0,0,0-7.35-9.11l-4.68-.54a8.37,8.37,0,0,0-9.29,7.22l-1.45,12.31A8.27,8.27,0,0,0,2197.88,1522.91Z" transform="translate(-194.91 -173)"/><path class="cls-12" d="M2300.14,933.26l-33.63-.15a3.85,3.85,0,0,1-3.83-3.86l.07-14.55,41.31.18-.06,14.56A3.85,3.85,0,0,1,2300.14,933.26Z" transform="translate(-194.91 -173)"/><rect class="cls-13" x="2250.51" y="895.24" width="65.1" height="20.66" transform="translate(4367.11 1648.4) rotate(-179.74)"/><rect class="cls-13" x="2270.15" y="869.3" width="26.03" height="27.56" transform="translate(4367.41 1603.42) rotate(-179.74)"/><rect class="cls-13" x="2040.6" y="768.75" width="15.15" height="81.49" transform="translate(-191.23 -182.24) rotate(0.26)"/><rect class="cls-14" x="2055.75" y="770.25" width="65.7" height="77.9" transform="translate(-191.25 -182.38) rotate(0.26)"/><rect class="cls-14" x="2121.34" y="772.35" width="65.7" height="74.3" transform="translate(-191.25 -182.68) rotate(0.26)"/><rect class="cls-14" x="2187.03" y="782.65" width="65.7" height="54.27" transform="translate(-191.25 -182.97) rotate(0.26)"/><rect class="cls-13" x="2234.28" y="759.63" width="81.01" height="109.98" transform="translate(-191.22 -183.22) rotate(0.26)"/><rect class="cls-13" x="2315.44" y="769.72" width="7.49" height="26.76" transform="translate(-191.36 -183.43) rotate(0.26)"/><rect class="cls-13" x="2319.18" y="767.97" width="7.49" height="30.29" transform="translate(-191.36 -183.45) rotate(0.26)"/><rect class="cls-13" x="2268.49" y="745.64" width="14.33" height="14" transform="translate(-191.5 -183.22) rotate(0.26)"/><rect class="cls-13" x="2249.09" y="731.73" width="52.08" height="15.21" transform="translate(-191.56 -183.23) rotate(0.26)"/><path class="cls-6" d="M2294.39,890.72s-9.37-35.31-12.52-40.42-20.68-19.59-22.31-19-2.4,2.07-.93,5.39,8.38,13.16,6.75,13.17-23.59-27.26-29.89-24.38-8.91,25.52-2.27,40,37.54,33.54,39,35.8C2284.55,920.42,2294.39,890.72,2294.39,890.72Z" transform="translate(-194.91 -173)"/><path class="cls-8" d="M2295.31,888.46s-26.89,9.86-24.26,26c1,6,55,185.76,86.82,187.89s133.51-144.18,126.74-184.94-53.37-59.84-70.3-51-35.59,127.74-42.54,125.72S2295.31,888.46,2295.31,888.46Z" transform="translate(-194.91 -173)"/><path class="cls-6" d="M2102.12,759.51s-21.42,15.3-13,19.31,26.44,4,34.61-3.88S2117.53,756.6,2102.12,759.51Z" transform="translate(-194.91 -173)"/><path class="cls-9" d="M421.15,904.39l-.31,3.75a94.3,94.3,0,0,0-16.82.7,118.09,118.09,0,0,0-20.8,4.45c-19,5.94-45.2,19.82-62.4,52.32-15.1,28.53,1,76.14,18.13,126.53,20.88,61.59,44.56,131.39,19.64,186.43C334.85,1331,320.89,1381.63,318.2,1425c-3,48.7,7.92,86.29,32.48,111.73,17.73,18.36,32.9,50.56,40.59,86.12,8.06,37.28,7.08,73.87-2.68,100.4-5.17,14-12.69,25.22-22.28,33.34-.6-1.14-1.22-2.29-1.82-3.46,8.82-7.67,15.74-18.13,20.55-31.18,21.29-57.84-2.88-147.18-37.06-182.59-25.34-26.24-36.62-64.79-33.54-114.58,2.72-43.85,16.79-95,40.72-147.77,24.3-53.69.88-122.74-19.78-183.67-18.12-53.4-33.76-99.54-17.89-129.5,17.84-33.7,45.06-48.07,64.75-54.2A121.13,121.13,0,0,1,404,905,93.18,93.18,0,0,1,421.15,904.39Z" transform="translate(-194.91 -173)"/><rect class="cls-10" x="379.21" y="499.86" width="87.18" height="455.83"/><rect class="cls-13" x="312.39" y="824.93" width="17.81" height="262.23"/><path class="cls-13" d="M642.43,1834.84c1.72.2,3.24-.2,2.86-3l-85.53-586.69-11.87,7.49,91.41,579.46A3.18,3.18,0,0,0,642.43,1834.84Z" transform="translate(-194.91 -173)"/><rect class="cls-13" x="283.77" y="1072.19" width="80.92" height="14.97"/><path class="cls-8" d="M600.3,1546.39l-4.35.48a7.78,7.78,0,0,1-8.59-6.74l-1.29-11.43a7.68,7.68,0,0,1,6.86-8.43l4.35-.48a7.77,7.77,0,0,1,8.59,6.74l1.3,11.43A7.7,7.7,0,0,1,600.3,1546.39Z" transform="translate(-194.91 -173)"/><path class="cls-13" d="M396.33,1834.84c-1.72.2-3.24-.2-2.87-3L479,1245.19l11.87,7.49-91.41,579.46A3.18,3.18,0,0,1,396.33,1834.84Z" transform="translate(-194.91 -173)"/><path class="cls-8" d="M438.47,1546.32l4.32.47a7.72,7.72,0,0,0,8.55-6.7l1.29-11.37a7.64,7.64,0,0,0-6.83-8.38l-4.32-.47a7.72,7.72,0,0,0-8.55,6.7l-1.29,11.37A7.64,7.64,0,0,0,438.47,1546.32Z" transform="translate(-194.91 -173)"/><path class="cls-13" d="M300.94,812.31H339.1a0,0,0,0,1,0,0v13.44a3.55,3.55,0,0,1-3.55,3.55H304.49a3.55,3.55,0,0,1-3.55-3.55V812.31A0,0,0,0,1,300.94,812.31Z"/><rect class="cls-13" x="209.11" y="703.09" width="82.98" height="58.46"/><polygon class="cls-9" points="373.18 493.59 373.33 960.93 290.64 824.43 290.64 669.13 373.18 493.59"/><path class="cls-9" d="M568.06,666.59v467.82H668V666.59Zm89.58,457.46h-79.2V677h79.2Z" transform="translate(-194.91 -173)"/><ellipse class="cls-15" cx="781.9" cy="878.9" rx="209.16" ry="206.87"/><ellipse class="cls-13" cx="747.52" cy="892.65" rx="48.27" ry="47.74"/><rect class="cls-13" x="742.59" y="929.39" width="15.71" height="228.82"/><path class="cls-13" d="M1056.72,1832.67c1.52.17,2.86-.18,2.53-2.58l-75.46-511.94-10.47,6.53L1054,1830.32A2.8,2.8,0,0,0,1056.72,1832.67Z" transform="translate(-194.91 -173)"/><rect class="cls-13" x="717.35" y="1145.15" width="71.39" height="13.06"/><path class="cls-8" d="M1019.56,1581l-3.84.42a6.84,6.84,0,0,1-7.58-5.88l-1.14-10a6.72,6.72,0,0,1,6.06-7.35l3.83-.42a6.84,6.84,0,0,1,7.58,5.88l1.15,10A6.73,6.73,0,0,1,1019.56,1581Z" transform="translate(-194.91 -173)"/><path class="cls-13" d="M839.59,1832.67c-1.51.17-2.86-.18-2.52-2.58l75.46-511.94,10.47,6.53-80.65,505.64A2.8,2.8,0,0,1,839.59,1832.67Z" transform="translate(-194.91 -173)"/><path class="cls-8" d="M876.77,1580.91l3.82.41a6.79,6.79,0,0,0,7.54-5.84l1.14-9.93a6.68,6.68,0,0,0-6-7.31l-3.82-.41a6.79,6.79,0,0,0-7.54,5.84l-1.14,9.93A6.68,6.68,0,0,0,876.77,1580.91Z" transform="translate(-194.91 -173)"/><path class="cls-13" d="M732.49,918.38h33.66a0,0,0,0,1,0,0v11.71A3.11,3.11,0,0,1,763,933.2H735.61a3.11,3.11,0,0,1-3.11-3.11V918.38A0,0,0,0,1,732.49,918.38Z"/><rect class="cls-13" x="494.35" y="195.5" width="1652.9" height="60.36"/><rect class="cls-13" x="454.53" y="210.73" width="1732.54" height="29.9"/><path class="cls-9" d="M942.72,1070c-.19,0-19.25,3.06-40.09,18.52-19.22,14.27-43.94,42.36-52.59,95.21-6.41,39.24-7.95,99.91-9.58,164.15-2.67,105.73-5.43,215.05-30.42,246-19.21,23.77-12.79,46.14-6,69.8,7,24.16,14.11,49.13-5.23,77.18-19,27.5-52,17.87-90.19,6.71-40.32-11.76-90.5-26.41-140.63-2.31-61.65,29.64-137.3,39.22-184.83,42.26l-2.05-3.65c47.06-2.87,123.33-12.24,185.24-42,51.44-24.74,102.39-9.86,143.33,2.08,38.34,11.18,68.61,20,86-5.23,18.33-26.58,11.4-50.68,4.71-74-6.76-23.57-13.75-47.92,6.69-73.23,24.17-29.93,26.92-138.61,29.58-243.71,1.63-64.37,3.16-125.16,9.63-164.66,8.87-54.2,34.39-83.08,54.23-97.75,21.57-15.95,40.8-19,41.6-19.09Z" transform="translate(-194.91 -173)"/><rect class="cls-16" x="43.93" y="1658.36" width="2811.97" height="8.23" rx="3.35"/><path class="cls-9" d="M934.54,1067.62a5.25,5.25,0,1,1,5.25,5.26A5.25,5.25,0,0,1,934.54,1067.62Z" transform="translate(-194.91 -173)"/></svg>