<svg xmlns="http://www.w3.org/2000/svg" viewBox="0 0 398.08 287.57"><defs><style>.cls-1{isolation:isolate;}.cls-2{fill:#a8cff0;}.cls-3,.cls-6{fill:#72b5e8;}.cls-4{fill:#d1ebff;}.cls-22,.cls-5{fill:#92b4d1;}.cls-5{opacity:0.2;}.cls-41,.cls-6{opacity:0.3;}.cls-39,.cls-41,.cls-7{fill:#fff;}.cls-40,.cls-8{fill:#3f92d1;}.cls-9{fill:#03336e;}.cls-10{fill:#084c94;}.cls-11,.cls-34{fill:#2672ab;}.cls-11,.cls-22,.cls-40,.cls-43{opacity:0.5;}.cls-12{fill:#ffde17;}.cls-13{fill:#eb4680;}.cls-14{fill:#0fbab8;}.cls-15{fill:#001a46;}.cls-16{fill:#0ba19f;}.cls-17{fill:#15aaa8;}.cls-18{fill:#1fb3b1;}.cls-19{fill:#2abdbb;}.cls-20{fill:#34c6c4;}.cls-21{fill:#3ecfcd;}.cls-23{fill:#d62d69;}.cls-24{fill:#dd3772;}.cls-25{fill:#e3427b;}.cls-26{fill:#ea4c83;}.cls-27{fill:#f0578c;}.cls-28{fill:#f76195;}.cls-29{fill:#fc0;}.cls-30{fill:#ffd005;}.cls-31{fill:#ffd309;}.cls-32{fill:#ffd70e;}.cls-33{fill:#ffda12;}.cls-35{fill:#ffd70f;}.cls-36{fill:#e6e7e8;}.cls-37{fill:#f1f2f2;}.cls-38{fill:#022652;}.cls-39{mix-blend-mode:screen;}.cls-42{fill:#4f9fdb;}.cls-43{mix-blend-mode:multiply;}</style></defs><title>printing</title><g class="cls-1"><g id="Layer_1" data-name="Layer 1"><polygon class="cls-2" points="120.7 110.12 120.7 113.76 123.88 111.93 123.88 108.29 120.7 110.12"/><polygon class="cls-3" points="120.71 110.12 120.71 113.76 97.14 100.24 97.14 96.61 120.71 110.12"/><polygon class="cls-4" points="97.14 96.61 120.71 110.12 123.88 108.29 100.3 94.77 97.14 96.61"/><polygon class="cls-3" points="113.59 48.27 113.59 106.12 105.81 101.73 105.81 43.88 113.59 48.27"/><polygon class="cls-2" points="113.58 48.27 113.58 106.12 116.8 104.25 116.8 46.41 113.58 48.27"/><polygon class="cls-4" points="116.8 46.41 113.58 48.27 105.81 43.88 109.05 42.01 116.8 46.41"/><polygon class="cls-5" points="111.5 109.32 21.43 160.78 17.09 158.22 107.16 106.77 111.5 109.32"/><polygon class="cls-2" points="18.47 151.47 18.47 155.11 15.29 153.28 15.29 149.64 18.47 151.47"/><polygon class="cls-2" points="18.46 151.47 18.46 155.11 111.69 101.69 111.69 98.05 18.46 151.47"/><polygon class="cls-4" points="111.69 98.05 18.46 151.47 15.29 149.64 108.53 96.21 111.69 98.05"/><polygon class="cls-2" points="18.47 122.94 18.47 126.59 15.29 124.76 15.29 121.11 18.47 122.94"/><polygon class="cls-2" points="18.46 122.94 18.46 126.59 111.69 73.16 111.69 69.53 18.46 122.94"/><polygon class="cls-4" points="111.69 69.53 18.46 122.94 15.29 121.11 108.53 67.69 111.69 69.53"/><polygon class="cls-2" points="23.56 166.03 23.56 169.67 26.74 167.84 26.74 164.19 23.56 166.03"/><polygon class="cls-3" points="23.57 166.03 23.57 169.67 0 156.15 0 152.51 23.57 166.03"/><polygon class="cls-4" points="0 152.51 23.57 166.03 26.74 164.19 3.15 150.68 0 152.51"/><polygon class="cls-3" points="16.45 104.17 16.45 162.03 8.67 157.64 8.67 99.78 16.45 104.17"/><polygon class="cls-2" points="16.44 104.17 16.44 162.03 19.66 160.16 19.66 102.32 16.44 104.17"/><polygon class="cls-4" points="19.66 102.32 16.44 104.17 8.67 99.78 11.91 97.92 19.66 102.32"/><polygon class="cls-3" points="107.81 70.61 89.35 59.95 89.35 41.46 101.57 48.52 107.81 64.92 107.81 70.61"/><polygon class="cls-2" points="107.81 64.92 107.81 70.61 122.57 62.03 122.57 56.34 107.81 64.92"/><polygon class="cls-6" points="107.81 64.92 107.81 70.61 122.57 62.03 122.57 56.34 107.81 64.92"/><polygon class="cls-2" points="116.33 39.94 101.57 48.52 107.81 64.92 122.57 56.34 116.33 39.94"/><polygon class="cls-4" points="104.1 32.88 89.35 41.46 101.57 48.52 116.33 39.94 104.1 32.88"/><polygon class="cls-7" points="101.57 48.06 89.35 41.46 101.57 48.52 116.33 39.94 101.57 48.06"/><polygon class="cls-2" points="23.51 89.99 23.51 103.55 15.9 99.16 15.9 85.6 23.51 89.99"/><polygon class="cls-2" points="23.49 89.99 23.49 103.55 96.67 61.66 96.67 48.12 23.49 89.99"/><polygon class="cls-4" points="96.67 48.12 23.49 89.99 15.9 85.6 89.11 43.71 96.67 48.12"/><path class="cls-8" d="M132.79,87.86a14.8,14.8,0,0,0-6.71-11.56c-1.9-1.1-3.62-1.17-4.84-.41L49.47,116.83l1.31,2.23c0,.12,0,.24,0,.37,0,4.25,2.48,9.1,6.18,11.24Z" transform="translate(-26.7 -22.3)"/><polygon class="cls-9" points="32.86 107.35 32.86 110.57 106.04 68.69 106.04 65.48 32.86 107.35"/><path class="cls-10" d="M57.28,153.47V129.06a14.77,14.77,0,0,0-6.71-11.56,6,6,0,0,0-3.16-.91L116.83,77c1.22-.76,2.94-.69,4.84.41A14.77,14.77,0,0,1,128.38,89v24.4Z" transform="translate(-26.7 -22.3)"/><path class="cls-11" d="M53.12,119.55a11.37,11.37,0,0,0-2.55-2,6,6,0,0,0-3.16-.91L116.83,77c1.22-.76,2.94-.69,4.84.41a11.17,11.17,0,0,1,2.25,1.76Z" transform="translate(-26.7 -22.3)"/><polygon class="cls-12" points="95.34 87.68 95.35 92.1 80.63 100.24 80.62 95.83 95.34 87.68"/><polygon class="cls-13" points="73.71 99.95 73.72 104.36 58.99 112.51 58.99 108.09 73.71 99.95"/><polygon class="cls-14" points="51.94 112.21 51.94 116.62 37.22 124.77 37.22 120.36 51.94 112.21"/><polygon class="cls-3" points="22.04 119.6 3.57 108.94 3.57 90.45 15.8 97.51 22.04 113.91 22.04 119.6"/><polygon class="cls-2" points="22.04 113.91 22.04 119.6 36.79 111.02 36.79 105.33 22.04 113.91"/><polygon class="cls-6" points="22.04 113.91 22.04 119.6 36.79 111.02 36.79 105.33 22.04 113.91"/><polygon class="cls-2" points="30.55 88.93 15.8 97.51 22.04 113.91 36.79 105.33 30.55 88.93"/><polygon class="cls-8" points="32.85 105.18 28.34 93.33 19.19 98.62 23.68 110.41 32.85 105.18"/><polygon class="cls-9" points="28.69 98.87 27.48 95.74 21.24 99.35 22.43 102.44 28.69 98.87"/><polygon class="cls-15" points="28.33 98.79 27.21 95.9 27.48 95.74 28.69 98.87 22.43 102.44 22.34 102.21 28.33 98.79"/><path class="cls-3" d="M52.41,126.11l-.75-2,1.72-1,.76,2ZM54,122.86l1.72-1,.76,2-1.73,1Zm-2.86,1.6.76,2-1.73,1-.75-2Zm3.23,1.14.76,2-1.73,1-.75-2Zm-1.52,3.28-1.74,1-.75-1.94,1.73-1Zm3.81-4.58.76,2-1.73,1-.75-2Z" transform="translate(-26.7 -22.3)"/><polygon class="cls-2" points="28.36 102.91 29.07 104.75 30.63 103.87 30.67 103.98 28.94 104.95 28.19 103.01 28.36 102.91"/><polygon class="cls-2" points="28.13 102.31 29.69 101.43 29.73 101.54 28 102.51 27.25 100.56 27.42 100.47 28.13 102.31"/><polygon class="cls-2" points="25.84 103.61 27.4 102.73 27.44 102.84 25.71 103.81 24.96 101.87 25.13 101.77 25.84 103.61"/><polygon class="cls-2" points="22.84 103.07 23.55 104.91 25.11 104.03 25.15 104.14 23.42 105.11 22.67 103.17 22.84 103.07"/><polygon class="cls-2" points="24.5 107.35 26.05 106.47 26.1 106.58 24.37 107.56 23.62 105.61 23.79 105.51 24.5 107.35"/><polygon class="cls-2" points="26.07 104.21 26.78 106.05 28.34 105.17 28.38 105.28 26.65 106.25 25.9 104.31 26.07 104.21"/><polygon class="cls-4" points="18.32 81.87 3.57 90.45 15.8 97.51 30.55 88.93 18.32 81.87"/><polygon class="cls-7" points="15.79 97.05 3.57 90.45 15.8 97.51 30.55 88.93 15.79 97.05"/><polygon class="cls-4" points="241.16 282.82 292.6 245.89 276.95 238.65 225.52 275.58 241.16 282.82"/><polygon class="cls-16" points="280.08 252.88 285.89 248.71 273.63 243.03 267.82 247.21 280.08 252.88"/><polygon class="cls-17" points="272.47 258.35 278.28 254.18 266.01 248.5 260.2 252.67 272.47 258.35"/><polygon class="cls-18" points="264.85 263.81 270.66 259.64 258.4 253.97 252.59 258.14 264.85 263.81"/><polygon class="cls-19" points="257.24 269.28 263.05 265.11 250.79 259.43 244.98 263.6 257.24 269.28"/><polygon class="cls-20" points="249.63 274.75 255.44 270.58 243.17 264.9 237.36 269.07 249.63 274.75"/><polygon class="cls-21" points="242.01 280.21 247.82 276.04 235.56 270.37 229.75 274.54 242.01 280.21"/><polygon class="cls-22" points="241.16 282.82 292.6 245.89 276.95 238.65 236.8 280.8 241.16 282.82"/><polygon class="cls-4" points="256.26 285.86 294.97 244.1 277.25 238.67 238.54 280.43 256.26 285.86"/><polygon class="cls-23" points="284.91 252.3 289.28 247.59 275.39 243.33 271.02 248.05 284.91 252.3"/><polygon class="cls-24" points="279.18 258.48 283.55 253.77 269.66 249.51 265.29 254.23 279.18 258.48"/><polygon class="cls-25" points="273.45 264.67 277.82 259.95 263.93 255.69 259.56 260.41 273.45 264.67"/><polygon class="cls-26" points="267.72 270.85 272.09 266.13 258.2 261.87 253.83 266.59 267.72 270.85"/><polygon class="cls-27" points="261.99 277.03 266.36 272.31 252.47 268.06 248.1 272.77 261.99 277.03"/><polygon class="cls-28" points="256.26 283.21 260.63 278.49 246.74 274.24 242.37 278.95 256.26 283.21"/><polygon class="cls-22" points="256.26 285.86 294.97 244.1 277.25 238.67 250.77 284.26 256.26 285.86"/><polygon class="cls-4" points="271.75 287.57 296.75 242.49 277.6 239.01 252.6 284.09 271.75 287.57"/><polygon class="cls-29" points="289.42 251.6 292.24 246.51 277.23 243.78 274.41 248.87 289.42 251.6"/><polygon class="cls-30" points="285.72 258.27 288.54 253.18 273.53 250.46 270.71 255.55 285.72 258.27"/><polygon class="cls-31" points="282.02 264.94 284.84 259.85 269.83 257.13 267.01 262.22 282.02 264.94"/><polygon class="cls-32" points="278.32 271.62 281.14 266.53 266.13 263.8 263.31 268.89 278.32 271.62"/><polygon class="cls-33" points="274.62 278.29 277.44 273.2 262.43 270.47 259.6 275.56 274.62 278.29"/><polygon class="cls-12" points="270.92 284.96 273.74 279.87 258.73 277.14 255.9 282.23 270.92 284.96"/><polygon class="cls-3" points="148.54 103.19 136.14 96.18 136.14 62.63 148.54 69.64 148.54 103.19"/><polygon class="cls-2" points="213.38 65.2 148.52 103.19 148.52 69.64 213.38 31.68 213.38 65.2"/><polygon class="cls-4" points="213.38 31.68 148.52 69.64 136.14 62.63 201.04 24.65 213.38 31.68"/><polygon class="cls-9" points="148.54 69.65 136.14 62.64 136.14 60.47 148.54 67.48 148.54 69.65"/><polygon class="cls-10" points="213.38 31.66 148.52 69.65 148.52 67.48 213.38 29.53 213.38 31.66"/><polygon class="cls-34" points="213.38 29.53 148.52 67.48 136.14 60.47 201.04 22.49 213.38 29.53"/><polygon class="cls-3" points="304.64 196.81 144.57 104.62 144.57 97.42 304.64 189.61 304.64 196.81"/><polygon class="cls-2" points="381.88 151.75 304.59 196.81 304.59 189.61 381.88 144.61 381.88 151.75"/><polygon class="cls-4" points="381.88 144.61 304.59 189.61 144.57 97.42 221.94 52.36 381.88 144.61"/><polygon class="cls-7" points="381.88 144.61 304.59 189.61 144.57 97.42 304.5 188.88 381.88 144.61"/><polygon class="cls-9" points="221.03 17.34 221.03 35.33 206.68 26.95 206.68 8.96 221.03 17.34"/><polygon class="cls-10" points="164.46 33.23 164.46 51.23 206.68 26.95 206.68 8.96 164.46 33.23"/><polygon class="cls-3" points="233.77 78.44 206.91 62.93 206.91 6.07 224.7 16.34 233.77 40.19 233.77 78.44"/><polygon class="cls-2" points="233.77 40.19 233.77 78.44 244.01 72.36 244.01 34.12 233.77 40.19"/><polygon class="cls-6" points="233.77 40.19 233.77 78.44 244.01 72.36 244.01 34.12 233.77 40.19"/><polygon class="cls-2" points="234.93 10.27 224.7 16.34 233.77 40.19 244.01 34.12 234.93 10.27"/><polygon class="cls-4" points="217.15 0 206.91 6.07 224.7 16.34 234.93 10.27 217.15 0"/><path class="cls-9" d="M239.14,40.13a5.72,5.72,0,0,0-2.59-4.47,1.82,1.82,0,0,0-1.87-.16l-32,18.24.51.86s0,.09,0,.14a5.69,5.69,0,0,0,2.59,4.47l.2.1.41.71,31.78-18.13A1.67,1.67,0,0,0,239.14,40.13Z" transform="translate(-26.7 -22.3)"/><path class="cls-14" d="M238.16,41a6.7,6.7,0,0,0-3-5.24,2.11,2.11,0,0,0-2.19-.18L195.41,57l.59,1v.16a6.67,6.67,0,0,0,3,5.24l.23.12.49.83L237,43.1A2,2,0,0,0,238.16,41Z" transform="translate(-26.7 -22.3)"/><path class="cls-21" d="M196.55,60.49a5.7,5.7,0,0,1-.55-2.32V58l-.59-1,37.52-21.38a2.11,2.11,0,0,1,2.19.18,6,6,0,0,1,1.77,1.69Z" transform="translate(-26.7 -22.3)"/><polygon class="cls-9" points="188.25 66.67 188.25 103.79 233.11 77.96 233.11 40.84 188.25 66.67"/><polygon class="cls-15" points="229.9 47.48 229.9 46.4 191.47 68.53 191.47 69.61 229.9 47.48"/><polygon class="cls-15" points="229.9 49.78 229.9 48.7 191.47 70.83 191.47 71.92 229.9 49.78"/><polygon class="cls-15" points="229.9 52.08 229.9 51 191.47 73.13 191.47 74.22 229.9 52.08"/><polygon class="cls-15" points="229.9 54.38 229.9 53.3 191.47 75.43 191.47 76.52 229.9 54.38"/><polygon class="cls-15" points="229.9 56.68 229.9 55.6 191.47 77.73 191.47 78.82 229.9 56.68"/><polygon class="cls-15" points="229.9 58.98 229.9 57.9 191.47 80.03 191.47 81.12 229.9 58.98"/><polygon class="cls-10" points="224.18 17.39 179.33 43.22 188.25 66.67 233.11 40.84 224.18 17.39"/><polygon class="cls-15" points="223.06 24.06 222.68 23.12 213.74 28.17 214.12 29.12 223.06 24.06"/><polygon class="cls-15" points="223.81 26.05 223.44 25.11 214.5 30.16 214.87 31.11 223.81 26.05"/><polygon class="cls-15" points="224.56 28.04 224.19 27.09 215.25 32.15 215.62 33.1 224.56 28.04"/><polygon class="cls-15" points="225.32 30.03 224.94 29.08 216 34.14 216.37 35.09 225.32 30.03"/><polygon class="cls-15" points="226.07 32.02 225.69 31.07 216.75 36.13 217.13 37.08 226.07 32.02"/><polygon class="cls-15" points="226.82 34.01 226.45 33.06 217.51 38.12 217.88 39.07 226.82 34.01"/><polygon class="cls-15" points="227.57 36 227.2 35.05 218.26 40.11 218.63 41.06 227.57 36"/><polygon class="cls-15" points="228.33 37.99 227.95 37.04 219.01 42.1 219.39 43.05 228.33 37.99"/><polygon class="cls-15" points="212.78 29.8 212.4 28.86 203.46 33.91 203.84 34.86 212.78 29.8"/><polygon class="cls-15" points="213.53 31.79 213.16 30.84 204.21 35.9 204.59 36.85 213.53 31.79"/><polygon class="cls-15" points="214.28 33.78 213.91 32.83 204.97 37.89 205.34 38.84 214.28 33.78"/><polygon class="cls-15" points="215.04 35.77 214.66 34.82 205.72 39.88 206.09 40.83 215.04 35.77"/><polygon class="cls-15" points="215.79 37.76 215.41 36.81 206.47 41.87 206.85 42.82 215.79 37.76"/><polygon class="cls-15" points="216.54 39.75 216.17 38.8 207.23 43.86 207.6 44.81 216.54 39.75"/><polygon class="cls-15" points="217.29 41.74 216.92 40.79 207.98 45.85 208.35 46.8 217.29 41.74"/><polygon class="cls-15" points="218.05 43.73 217.67 42.78 208.73 47.84 209.11 48.79 218.05 43.73"/><polygon class="cls-15" points="202.63 35.46 202.25 34.52 193.31 39.57 193.69 40.52 202.63 35.46"/><polygon class="cls-15" points="203.38 37.45 203.01 36.5 194.06 41.56 194.44 42.51 203.38 37.45"/><polygon class="cls-15" points="204.13 39.44 203.76 38.49 194.82 43.55 195.19 44.5 204.13 39.44"/><polygon class="cls-15" points="204.89 41.43 204.51 40.48 195.57 45.54 195.94 46.49 204.89 41.43"/><polygon class="cls-15" points="205.64 43.42 205.26 42.47 196.32 47.53 196.7 48.48 205.64 43.42"/><polygon class="cls-15" points="206.39 45.41 206.02 44.46 197.08 49.52 197.45 50.47 206.39 45.41"/><polygon class="cls-15" points="207.15 47.4 206.77 46.45 197.83 51.51 198.2 52.46 207.15 47.4"/><polygon class="cls-15" points="207.9 49.39 207.52 48.44 198.58 53.5 198.96 54.45 207.9 49.39"/><polygon class="cls-15" points="192.54 41.12 192.17 40.18 183.23 45.23 183.6 46.18 192.54 41.12"/><polygon class="cls-15" points="193.29 43.11 192.92 42.16 183.98 47.22 184.35 48.17 193.29 43.11"/><polygon class="cls-15" points="194.05 45.1 193.67 44.15 184.73 49.21 185.11 50.16 194.05 45.1"/><polygon class="cls-15" points="194.8 47.09 194.43 46.14 185.49 51.2 185.86 52.15 194.8 47.09"/><polygon class="cls-15" points="195.55 49.08 195.18 48.13 186.24 53.19 186.61 54.14 195.55 49.08"/><polygon class="cls-15" points="196.31 51.07 195.93 50.12 186.99 55.18 187.37 56.13 196.31 51.07"/><polygon class="cls-15" points="197.06 53.06 196.69 52.11 187.74 57.17 188.12 58.12 197.06 53.06"/><polygon class="cls-15" points="197.81 55.05 197.44 54.1 188.5 59.16 188.87 60.11 197.81 55.05"/><path class="cls-34" d="M233.39,29.59l17.49,10.09L206,65.51,188.54,55.42ZM206,61.81l38.42-22.13-11.06-6.39L195,55.42Z" transform="translate(-26.7 -22.3)"/><polygon class="cls-7" points="224.69 15.67 206.91 6.07 224.7 16.34 234.93 10.27 224.69 15.67"/><polygon class="cls-3" points="178 110.53 151.14 95.03 151.14 38.17 168.92 48.44 178 72.29 178 110.53"/><polygon class="cls-2" points="178 72.29 178 110.53 188.23 104.46 188.23 66.22 178 72.29"/><polygon class="cls-6" points="178 72.29 178 110.53 188.23 104.46 188.23 66.22 178 72.29"/><polygon class="cls-2" points="179.16 42.37 168.92 48.44 178 72.29 188.23 66.22 179.16 42.37"/><polygon class="cls-4" points="161.37 32.1 151.14 38.17 168.92 48.44 179.16 42.37 161.37 32.1"/><polygon class="cls-7" points="168.92 47.77 151.14 38.17 168.92 48.44 179.16 42.37 168.92 47.77"/><polygon class="cls-3" points="190.81 117.3 178.41 110.28 178.41 97.13 190.81 104.14 190.81 117.3"/><polygon class="cls-2" points="231.19 93.74 190.78 117.3 190.78 104.14 231.19 80.61 231.19 93.74"/><polygon class="cls-4" points="231.19 80.61 190.78 104.14 178.41 97.13 218.85 73.58 231.19 80.61"/><polygon class="cls-9" points="190.81 104.15 178.41 97.14 178.41 94.97 190.81 101.99 190.81 104.15"/><polygon class="cls-10" points="231.19 80.6 190.78 104.15 190.78 101.99 231.19 78.46 231.19 80.6"/><polygon class="cls-34" points="231.19 78.46 190.78 101.99 178.41 94.97 218.85 71.42 231.19 78.46"/><polygon class="cls-8" points="166.53 55.5 154.13 48.49 154.13 44.57 166.53 51.58 166.53 55.5"/><polygon class="cls-9" points="260.49 39.94 260.49 57.93 246.14 49.55 246.14 31.56 260.49 39.94"/><polygon class="cls-10" points="203.91 55.83 203.91 73.83 246.14 49.55 246.14 31.56 203.91 55.83"/><polygon class="cls-3" points="273.23 101.04 246.37 85.53 246.37 28.68 264.15 38.94 273.23 62.8 273.23 101.04"/><polygon class="cls-2" points="273.23 62.8 273.23 101.04 283.46 94.97 283.46 56.72 273.23 62.8"/><polygon class="cls-6" points="273.23 62.8 273.23 101.04 283.46 94.97 283.46 56.72 273.23 62.8"/><polygon class="cls-2" points="274.38 32.87 264.15 38.94 273.23 62.8 283.46 56.72 274.38 32.87"/><polygon class="cls-4" points="256.6 22.6 246.37 28.68 264.15 38.94 274.38 32.87 256.6 22.6"/><path class="cls-9" d="M278.6,62.73A5.69,5.69,0,0,0,276,58.27a1.77,1.77,0,0,0-1.87-.16l-32,18.23.5.86v.15a5.69,5.69,0,0,0,2.59,4.46l.19.11.42.7,31.78-18.13A1.68,1.68,0,0,0,278.6,62.73Z" transform="translate(-26.7 -22.3)"/><path class="cls-13" d="M277.61,63.64a6.7,6.7,0,0,0-3-5.23,2.13,2.13,0,0,0-2.2-.19L234.86,79.6l.6,1c0,.06,0,.11,0,.17a6.67,6.67,0,0,0,3,5.23,1,1,0,0,0,.23.12l.49.83,37.25-21.25A2,2,0,0,0,277.61,63.64Z" transform="translate(-26.7 -22.3)"/><path class="cls-28" d="M236,83.09a5.82,5.82,0,0,1-.55-2.31c0-.06,0-.11,0-.17l-.6-1,37.52-21.38a2.13,2.13,0,0,1,2.2.19,5.78,5.78,0,0,1,1.77,1.69Z" transform="translate(-26.7 -22.3)"/><polygon class="cls-9" points="227.71 89.28 227.71 126.39 272.56 100.56 272.56 63.45 227.71 89.28"/><polygon class="cls-15" points="269.35 70.08 269.35 69 230.92 91.13 230.92 92.22 269.35 70.08"/><polygon class="cls-15" points="269.35 72.38 269.35 71.3 230.92 93.43 230.92 94.52 269.35 72.38"/><polygon class="cls-15" points="269.35 74.69 269.35 73.6 230.92 95.73 230.92 96.82 269.35 74.69"/><polygon class="cls-15" points="269.35 76.98 269.35 75.9 230.92 98.03 230.92 99.12 269.35 76.98"/><polygon class="cls-15" points="269.35 79.29 269.35 78.2 230.92 100.33 230.92 101.42 269.35 79.29"/><polygon class="cls-15" points="269.35 81.59 269.35 80.5 230.92 102.64 230.92 103.72 269.35 81.59"/><polygon class="cls-10" points="263.63 39.99 218.78 65.82 227.71 89.28 272.56 63.45 263.63 39.99"/><polygon class="cls-15" points="262.51 46.67 262.14 45.72 253.2 50.78 253.57 51.73 262.51 46.67"/><polygon class="cls-15" points="263.27 48.66 262.89 47.71 253.95 52.77 254.32 53.72 263.27 48.66"/><polygon class="cls-15" points="264.02 50.65 263.64 49.7 254.7 54.76 255.08 55.7 264.02 50.65"/><polygon class="cls-15" points="264.77 52.63 264.4 51.69 255.46 56.74 255.83 57.69 264.77 52.63"/><polygon class="cls-15" points="265.52 54.62 265.15 53.68 256.21 58.73 256.58 59.68 265.52 54.62"/><polygon class="cls-15" points="266.28 56.61 265.9 55.66 256.96 60.72 257.34 61.67 266.28 56.61"/><polygon class="cls-15" points="267.03 58.6 266.66 57.65 257.71 62.71 258.09 63.66 267.03 58.6"/><polygon class="cls-15" points="267.78 60.59 267.41 59.64 258.47 64.7 258.84 65.65 267.78 60.59"/><polygon class="cls-15" points="252.23 52.41 251.86 51.46 242.92 56.52 243.29 57.47 252.23 52.41"/><polygon class="cls-15" points="252.99 54.4 252.61 53.45 243.67 58.51 244.04 59.45 252.99 54.4"/><polygon class="cls-15" points="253.74 56.38 253.37 55.44 244.42 60.49 244.8 61.44 253.74 56.38"/><polygon class="cls-15" points="254.49 58.37 254.12 57.42 245.18 62.48 245.55 63.43 254.49 58.37"/><polygon class="cls-15" points="255.24 60.36 254.87 59.41 245.93 64.47 246.3 65.42 255.24 60.36"/><polygon class="cls-15" points="256 62.35 255.62 61.4 246.68 66.46 247.06 67.41 256 62.35"/><polygon class="cls-15" points="256.75 64.34 256.38 63.39 247.43 68.45 247.81 69.4 256.75 64.34"/><polygon class="cls-15" points="257.5 66.33 257.13 65.38 248.19 70.44 248.56 71.39 257.5 66.33"/><polygon class="cls-15" points="242.08 58.07 241.71 57.12 232.77 62.18 233.14 63.13 242.08 58.07"/><polygon class="cls-15" points="242.84 60.06 242.46 59.11 233.52 64.17 233.89 65.12 242.84 60.06"/><polygon class="cls-15" points="243.59 62.05 243.22 61.1 234.27 66.16 234.65 67.11 243.59 62.05"/><polygon class="cls-15" points="244.34 64.03 243.97 63.09 235.03 68.14 235.4 69.09 244.34 64.03"/><polygon class="cls-15" points="245.09 66.02 244.72 65.08 235.78 70.13 236.15 71.08 245.09 66.02"/><polygon class="cls-15" points="245.85 68.01 245.47 67.06 236.53 72.12 236.91 73.07 245.85 68.01"/><polygon class="cls-15" points="246.6 70 246.23 69.05 237.28 74.11 237.66 75.06 246.6 70"/><polygon class="cls-15" points="247.35 71.99 246.98 71.04 238.04 76.1 238.41 77.05 247.35 71.99"/><polygon class="cls-15" points="232 63.73 231.62 62.78 222.68 67.84 223.06 68.79 232 63.73"/><polygon class="cls-15" points="232.75 65.72 232.38 64.77 223.44 69.83 223.81 70.78 232.75 65.72"/><polygon class="cls-15" points="233.5 67.71 233.13 66.76 224.19 71.82 224.56 72.77 233.5 67.71"/><polygon class="cls-15" points="234.26 69.69 233.88 68.75 224.94 73.81 225.31 74.75 234.26 69.69"/><polygon class="cls-15" points="235.01 71.68 234.63 70.74 225.69 75.79 226.07 76.74 235.01 71.68"/><polygon class="cls-15" points="235.76 73.67 235.39 72.72 226.45 77.78 226.82 78.73 235.76 73.67"/><polygon class="cls-15" points="236.51 75.66 236.14 74.71 227.2 79.77 227.57 80.72 236.51 75.66"/><polygon class="cls-15" points="237.27 77.65 236.89 76.7 227.95 81.76 228.33 82.71 237.27 77.65"/><path class="cls-34" d="M272.85,52.19l17.48,10.1L245.48,88.12,228,78ZM245.48,84.41l38.43-22.13-11.07-6.39L234.42,78Z" transform="translate(-26.7 -22.3)"/><polygon class="cls-7" points="264.15 38.27 246.37 28.68 264.15 38.94 274.38 32.87 264.15 38.27"/><polygon class="cls-3" points="217.46 133.14 190.6 117.63 190.6 60.77 208.38 71.04 217.46 94.89 217.46 133.14"/><polygon class="cls-2" points="217.46 94.89 217.46 133.14 227.69 127.07 227.69 88.82 217.46 94.89"/><polygon class="cls-6" points="217.46 94.89 217.46 133.14 227.69 127.07 227.69 88.82 217.46 94.89"/><polygon class="cls-2" points="218.61 64.97 208.38 71.04 217.46 94.89 227.69 88.82 218.61 64.97"/><polygon class="cls-4" points="200.83 54.7 190.6 60.77 208.38 71.04 218.61 64.97 200.83 54.7"/><polygon class="cls-7" points="208.37 70.37 190.6 60.77 208.38 71.04 218.61 64.97 208.37 70.37"/><polygon class="cls-3" points="230.26 139.9 217.86 132.89 217.86 119.73 230.26 126.75 230.26 139.9"/><polygon class="cls-2" points="270.64 116.34 230.24 139.9 230.24 126.75 270.64 103.22 270.64 116.34"/><polygon class="cls-4" points="270.64 103.22 230.24 126.75 217.86 119.73 258.31 96.18 270.64 103.22"/><polygon class="cls-9" points="230.26 126.76 217.86 119.75 217.86 117.58 230.26 124.59 230.26 126.76"/><polygon class="cls-10" points="270.64 103.2 230.24 126.76 230.24 124.59 270.64 101.06 270.64 103.2"/><polygon class="cls-34" points="270.64 101.06 230.24 124.59 217.86 117.58 258.31 94.03 270.64 101.06"/><polygon class="cls-9" points="299.81 62.14 299.81 80.14 285.46 71.76 285.46 53.76 299.81 62.14"/><polygon class="cls-10" points="243.24 78.04 243.24 96.03 285.46 71.76 285.46 53.76 243.24 78.04"/><polygon class="cls-3" points="312.55 123.24 285.69 107.73 285.69 50.88 303.47 61.14 312.55 85 312.55 123.24"/><polygon class="cls-2" points="312.55 85 312.55 123.24 322.78 117.17 322.78 78.92 312.55 85"/><polygon class="cls-6" points="312.55 85 312.55 123.24 322.78 117.17 322.78 78.92 312.55 85"/><polygon class="cls-2" points="313.71 55.07 303.47 61.14 312.55 85 322.78 78.92 313.71 55.07"/><polygon class="cls-4" points="295.92 44.81 285.69 50.88 303.47 61.14 313.71 55.07 295.92 44.81"/><path class="cls-9" d="M317.92,84.94a5.71,5.71,0,0,0-2.59-4.47,1.8,1.8,0,0,0-1.87-.16l-32,18.24.5.86v.14a5.72,5.72,0,0,0,2.59,4.47l.19.1.42.71L316.94,86.7A1.67,1.67,0,0,0,317.92,84.94Z" transform="translate(-26.7 -22.3)"/><path class="cls-35" d="M316.93,85.85a6.7,6.7,0,0,0-3-5.24,2.13,2.13,0,0,0-2.2-.19L274.19,101.8l.59,1c0,.06,0,.11,0,.17a6.7,6.7,0,0,0,3,5.24l.23.12.49.83,37.25-21.26A2,2,0,0,0,316.93,85.85Z" transform="translate(-26.7 -22.3)"/><path class="cls-12" d="M275.32,105.29a5.82,5.82,0,0,1-.55-2.31c0-.06,0-.11,0-.17l-.59-1L311.7,80.42a2.13,2.13,0,0,1,2.2.19,5.9,5.9,0,0,1,1.77,1.69Z" transform="translate(-26.7 -22.3)"/><polygon class="cls-9" points="267.03 111.48 267.03 148.59 311.88 122.76 311.88 85.65 267.03 111.48"/><polygon class="cls-15" points="308.67 92.29 308.67 91.2 270.24 113.33 270.24 114.42 308.67 92.29"/><polygon class="cls-15" points="308.67 94.59 308.67 93.5 270.24 115.64 270.24 116.72 308.67 94.59"/><polygon class="cls-15" points="308.67 96.89 308.67 95.8 270.24 117.94 270.24 119.02 308.67 96.89"/><polygon class="cls-15" points="308.67 99.19 308.67 98.1 270.24 120.24 270.24 121.32 308.67 99.19"/><polygon class="cls-15" points="308.67 101.49 308.67 100.4 270.24 122.54 270.24 123.62 308.67 101.49"/><polygon class="cls-15" points="308.67 103.79 308.67 102.7 270.24 124.84 270.24 125.92 308.67 103.79"/><polygon class="cls-10" points="302.96 62.19 258.11 88.02 267.03 111.48 311.88 85.65 302.96 62.19"/><polygon class="cls-15" points="301.83 68.87 301.46 67.92 292.52 72.98 292.89 73.93 301.83 68.87"/><polygon class="cls-15" points="302.59 70.86 302.21 69.91 293.27 74.97 293.65 75.92 302.59 70.86"/><polygon class="cls-15" points="303.34 72.85 302.97 71.9 294.02 76.96 294.4 77.91 303.34 72.85"/><polygon class="cls-15" points="304.09 74.84 303.72 73.89 294.78 78.95 295.15 79.9 304.09 74.84"/><polygon class="cls-15" points="304.85 76.83 304.47 75.88 295.53 80.94 295.9 81.89 304.85 76.83"/><polygon class="cls-15" points="305.6 78.81 305.23 77.87 296.28 82.92 296.66 83.88 305.6 78.81"/><polygon class="cls-15" points="306.35 80.81 305.98 79.86 297.04 84.92 297.41 85.86 306.35 80.81"/><polygon class="cls-15" points="307.11 82.79 306.73 81.84 297.79 86.9 298.16 87.85 307.11 82.79"/><polygon class="cls-15" points="291.56 74.61 291.18 73.66 282.24 78.72 282.61 79.67 291.56 74.61"/><polygon class="cls-15" points="292.31 76.6 291.93 75.65 282.99 80.71 283.37 81.66 292.31 76.6"/><polygon class="cls-15" points="293.06 78.59 292.69 77.64 283.75 82.7 284.12 83.65 293.06 78.59"/><polygon class="cls-15" points="293.81 80.58 293.44 79.63 284.5 84.69 284.87 85.64 293.81 80.58"/><polygon class="cls-15" points="294.57 82.56 294.19 81.62 285.25 86.67 285.62 87.62 294.57 82.56"/><polygon class="cls-15" points="295.32 84.55 294.94 83.61 286 88.66 286.38 89.61 295.32 84.55"/><polygon class="cls-15" points="296.07 86.54 295.7 85.59 286.76 90.65 287.13 91.6 296.07 86.54"/><polygon class="cls-15" points="296.82 88.53 296.45 87.58 287.51 92.64 287.88 93.59 296.82 88.53"/><polygon class="cls-15" points="281.4 80.27 281.03 79.32 272.09 84.38 272.46 85.33 281.4 80.27"/><polygon class="cls-15" points="282.16 82.26 281.78 81.31 272.84 86.37 273.22 87.32 282.16 82.26"/><polygon class="cls-15" points="282.91 84.25 282.54 83.3 273.6 88.36 273.97 89.31 282.91 84.25"/><polygon class="cls-15" points="283.66 86.24 283.29 85.29 274.35 90.35 274.72 91.3 283.66 86.24"/><polygon class="cls-15" points="284.42 88.23 284.04 87.28 275.1 92.34 275.47 93.28 284.42 88.23"/><polygon class="cls-15" points="285.17 90.22 284.8 89.27 275.85 94.33 276.23 95.27 285.17 90.22"/><polygon class="cls-15" points="285.92 92.2 285.55 91.25 276.61 96.31 276.98 97.26 285.92 92.2"/><polygon class="cls-15" points="286.68 94.19 286.3 93.25 277.36 98.3 277.73 99.25 286.68 94.19"/><polygon class="cls-15" points="271.32 85.93 270.95 84.98 262 90.04 262.38 90.99 271.32 85.93"/><polygon class="cls-15" points="272.07 87.92 271.7 86.97 262.76 92.03 263.13 92.98 272.07 87.92"/><polygon class="cls-15" points="272.82 89.91 272.45 88.96 263.51 94.02 263.88 94.97 272.82 89.91"/><polygon class="cls-15" points="273.58 91.9 273.2 90.95 264.26 96.01 264.64 96.96 273.58 91.9"/><polygon class="cls-15" points="274.33 93.89 273.96 92.94 265.01 98 265.39 98.95 274.33 93.89"/><polygon class="cls-15" points="275.08 95.88 274.71 94.93 265.77 99.98 266.14 100.94 275.08 95.88"/><polygon class="cls-15" points="275.84 97.86 275.46 96.92 266.52 101.97 266.89 102.92 275.84 97.86"/><polygon class="cls-15" points="276.59 99.85 276.22 98.91 267.27 103.96 267.65 104.91 276.59 99.85"/><path class="cls-34" d="M312.17,74.39l17.49,10.1L284.8,110.32l-17.48-10.1Zm-27.36,32.22,38.42-22.13L312.17,78.1l-38.43,22.13Z" transform="translate(-26.7 -22.3)"/><polygon class="cls-7" points="303.47 60.47 285.69 50.88 303.47 61.14 313.71 55.07 303.47 60.47"/><polygon class="cls-3" points="256.78 155.34 229.92 139.83 229.92 82.98 247.7 93.24 256.78 117.1 256.78 155.34"/><polygon class="cls-2" points="256.78 117.1 256.78 155.34 267.01 149.27 267.01 111.03 256.78 117.1"/><polygon class="cls-6" points="256.78 117.1 256.78 155.34 267.01 149.27 267.01 111.03 256.78 117.1"/><polygon class="cls-2" points="257.93 87.17 247.7 93.24 256.78 117.1 267.01 111.03 257.93 87.17"/><polygon class="cls-4" points="240.15 76.91 229.92 82.98 247.7 93.24 257.93 87.17 240.15 76.91"/><polygon class="cls-7" points="247.69 92.57 229.92 82.98 247.7 93.24 257.93 87.17 247.69 92.57"/><polygon class="cls-3" points="269.58 162.1 257.18 155.09 257.18 141.94 269.58 148.95 269.58 162.1"/><polygon class="cls-2" points="309.96 138.54 269.56 162.1 269.56 148.95 309.96 125.42 309.96 138.54"/><polygon class="cls-4" points="309.96 125.42 269.56 148.95 257.18 141.94 297.63 118.38 309.96 125.42"/><polygon class="cls-9" points="269.58 148.96 257.18 141.95 257.18 139.78 269.58 146.79 269.58 148.96"/><polygon class="cls-10" points="309.96 125.4 269.56 148.96 269.56 146.79 309.96 123.26 309.96 125.4"/><polygon class="cls-34" points="309.96 123.26 269.56 146.79 257.18 139.78 297.63 116.23 309.96 123.26"/><polygon class="cls-9" points="339.27 84.74 339.27 102.74 324.91 94.36 324.91 76.36 339.27 84.74"/><polygon class="cls-10" points="282.69 100.64 282.69 118.63 324.91 94.36 324.91 76.36 282.69 100.64"/><polygon class="cls-3" points="352.01 145.84 325.15 130.34 325.15 73.48 342.93 83.75 352.01 107.6 352.01 145.84"/><polygon class="cls-2" points="352.01 107.6 352.01 145.84 362.24 139.77 362.24 101.53 352.01 107.6"/><polygon class="cls-6" points="352.01 107.6 352.01 145.84 362.24 139.77 362.24 101.53 352.01 107.6"/><polygon class="cls-2" points="353.16 77.67 342.93 83.75 352.01 107.6 362.24 101.53 353.16 77.67"/><polygon class="cls-4" points="335.38 67.41 325.15 73.48 342.93 83.75 353.16 77.67 335.38 67.41"/><path class="cls-9" d="M357.37,107.54a5.71,5.71,0,0,0-2.58-4.47,1.84,1.84,0,0,0-1.88-.16l-32,18.24.51.86s0,.09,0,.14a5.72,5.72,0,0,0,2.59,4.47l.2.1.42.71,31.77-18.13A1.67,1.67,0,0,0,357.37,107.54Z" transform="translate(-26.7 -22.3)"/><path class="cls-15" d="M356.39,108.45a6.7,6.7,0,0,0-3-5.24,2.11,2.11,0,0,0-2.19-.18l-37.52,21.38.6,1a1,1,0,0,0,0,.17,6.7,6.7,0,0,0,3,5.24l.24.12.48.83,37.26-21.26A2,2,0,0,0,356.39,108.45Z" transform="translate(-26.7 -22.3)"/><path class="cls-9" d="M314.78,127.9a5.7,5.7,0,0,1-.55-2.32,1,1,0,0,1,0-.17l-.6-1L351.16,103a2.11,2.11,0,0,1,2.19.18,5.79,5.79,0,0,1,1.77,1.69Z" transform="translate(-26.7 -22.3)"/><polygon class="cls-9" points="306.49 134.08 306.49 171.2 351.34 145.37 351.34 108.25 306.49 134.08"/><polygon class="cls-15" points="348.13 114.89 348.13 113.8 309.7 135.94 309.7 137.02 348.13 114.89"/><polygon class="cls-15" points="348.13 117.19 348.13 116.11 309.7 138.24 309.7 139.32 348.13 117.19"/><polygon class="cls-15" points="348.13 119.49 348.13 118.41 309.7 140.54 309.7 141.62 348.13 119.49"/><polygon class="cls-15" points="348.13 121.79 348.13 120.71 309.7 142.84 309.7 143.93 348.13 121.79"/><polygon class="cls-15" points="348.13 124.09 348.13 123.01 309.7 145.14 309.7 146.22 348.13 124.09"/><polygon class="cls-15" points="348.13 126.39 348.13 125.31 309.7 147.44 309.7 148.53 348.13 126.39"/><polygon class="cls-10" points="342.41 84.79 297.56 110.63 306.49 134.08 351.34 108.25 342.41 84.79"/><polygon class="cls-15" points="341.29 91.47 340.92 90.53 331.98 95.58 332.35 96.53 341.29 91.47"/><polygon class="cls-15" points="342.04 93.46 341.67 92.51 332.73 97.57 333.1 98.52 342.04 93.46"/><polygon class="cls-15" points="342.8 95.45 342.42 94.5 333.48 99.56 333.85 100.51 342.8 95.45"/><polygon class="cls-15" points="343.55 97.44 343.18 96.49 334.23 101.55 334.61 102.5 343.55 97.44"/><polygon class="cls-15" points="344.3 99.43 343.93 98.48 334.99 103.54 335.36 104.49 344.3 99.43"/><polygon class="cls-15" points="345.06 101.42 344.68 100.47 335.74 105.53 336.11 106.48 345.06 101.42"/><polygon class="cls-15" points="345.81 103.41 345.43 102.46 336.49 107.52 336.87 108.47 345.81 103.41"/><polygon class="cls-15" points="346.56 105.4 346.19 104.45 337.25 109.51 337.62 110.46 346.56 105.4"/><polygon class="cls-15" points="331.01 97.21 330.64 96.26 321.69 101.32 322.07 102.27 331.01 97.21"/><polygon class="cls-15" points="331.76 99.2 331.39 98.25 322.45 103.31 322.82 104.26 331.76 99.2"/><polygon class="cls-15" points="332.52 101.19 332.14 100.24 323.2 105.3 323.57 106.25 332.52 101.19"/><polygon class="cls-15" points="333.27 103.18 332.89 102.23 323.95 107.29 324.33 108.24 333.27 103.18"/><polygon class="cls-15" points="334.02 105.17 333.65 104.22 324.71 109.28 325.08 110.23 334.02 105.17"/><polygon class="cls-15" points="334.77 107.16 334.4 106.21 325.46 111.27 325.83 112.22 334.77 107.16"/><polygon class="cls-15" points="335.53 109.15 335.15 108.2 326.21 113.26 326.59 114.21 335.53 109.15"/><polygon class="cls-15" points="336.28 111.14 335.91 110.19 326.96 115.25 327.34 116.19 336.28 111.14"/><polygon class="cls-15" points="320.86 102.87 320.49 101.92 311.54 106.98 311.92 107.93 320.86 102.87"/><polygon class="cls-15" points="321.61 104.86 321.24 103.91 312.3 108.97 312.67 109.92 321.61 104.86"/><polygon class="cls-15" points="322.37 106.85 321.99 105.9 313.05 110.96 313.42 111.91 322.37 106.85"/><polygon class="cls-15" points="323.12 108.84 322.75 107.89 313.8 112.95 314.18 113.9 323.12 108.84"/><polygon class="cls-15" points="323.87 110.83 323.5 109.88 314.56 114.94 314.93 115.89 323.87 110.83"/><polygon class="cls-15" points="324.63 112.82 324.25 111.87 315.31 116.93 315.68 117.88 324.63 112.82"/><polygon class="cls-15" points="325.38 114.81 325 113.86 316.06 118.92 316.44 119.87 325.38 114.81"/><polygon class="cls-15" points="326.13 116.8 325.76 115.85 316.81 120.91 317.19 121.86 326.13 116.8"/><polygon class="cls-15" points="310.77 108.53 310.4 107.58 301.46 112.64 301.83 113.59 310.77 108.53"/><polygon class="cls-15" points="311.53 110.52 311.15 109.57 302.21 114.63 302.59 115.58 311.53 110.52"/><polygon class="cls-15" points="312.28 112.51 311.91 111.56 302.96 116.62 303.34 117.57 312.28 112.51"/><polygon class="cls-15" points="313.03 114.5 312.66 113.55 303.72 118.61 304.09 119.56 313.03 114.5"/><polygon class="cls-15" points="313.79 116.49 313.41 115.54 304.47 120.6 304.85 121.55 313.79 116.49"/><polygon class="cls-15" points="314.54 118.48 314.17 117.53 305.22 122.59 305.6 123.54 314.54 118.48"/><polygon class="cls-15" points="315.29 120.47 314.92 119.52 305.98 124.58 306.35 125.53 315.29 120.47"/><polygon class="cls-15" points="316.05 122.46 315.67 121.51 306.73 126.57 307.1 127.52 316.05 122.46"/><path class="cls-34" d="M351.62,97l17.49,10.1-44.85,25.83-17.49-10.09Zm-27.36,32.23,38.42-22.13-11.06-6.39L313.2,122.83Z" transform="translate(-26.7 -22.3)"/><polygon class="cls-7" points="342.92 83.08 325.15 73.48 342.93 83.75 353.16 77.67 342.92 83.08"/><polygon class="cls-3" points="296.23 177.94 269.38 162.44 269.38 105.58 287.16 115.85 296.23 139.7 296.23 177.94"/><polygon class="cls-2" points="296.23 139.7 296.23 177.94 306.47 171.87 306.47 133.63 296.23 139.7"/><polygon class="cls-6" points="296.23 139.7 296.23 177.94 306.47 171.87 306.47 133.63 296.23 139.7"/><polygon class="cls-2" points="297.39 109.78 287.16 115.85 296.23 139.7 306.47 133.63 297.39 109.78"/><polygon class="cls-4" points="279.61 99.51 269.38 105.58 287.16 115.85 297.39 109.78 279.61 99.51"/><polygon class="cls-7" points="287.15 115.18 269.38 105.58 287.16 115.85 297.39 109.78 287.15 115.18"/><polygon class="cls-3" points="309.04 184.7 296.64 177.69 296.64 164.54 309.04 171.55 309.04 184.7"/><polygon class="cls-2" points="373.88 146.72 309.02 184.7 309.02 171.55 373.88 133.6 373.88 146.72"/><polygon class="cls-4" points="373.88 133.6 309.02 171.55 296.64 164.54 361.54 126.56 373.88 133.6"/><polygon class="cls-9" points="309.04 171.56 296.64 164.55 296.64 162.38 309.04 169.4 309.04 171.56"/><polygon class="cls-10" points="373.88 133.58 309.02 171.56 309.02 169.4 373.88 131.44 373.88 133.58"/><polygon class="cls-34" points="373.88 131.44 309.02 169.4 296.64 162.38 361.54 124.41 373.88 131.44"/><polygon class="cls-3" points="385.63 172.2 368.84 162.71 368.84 144.89 385.63 154.39 385.63 172.2"/><polygon class="cls-2" points="394.25 167.04 385.6 172.2 385.6 154.39 394.25 149.27 394.25 167.04"/><polygon class="cls-4" points="394.25 149.27 385.6 154.39 368.84 144.89 377.55 139.74 394.25 149.27"/><polygon class="cls-3" points="390.89 157.89 365.76 143.41 365.76 111.45 390.89 125.93 390.89 157.89"/><polygon class="cls-9" points="349.72 197.31 326.13 184.08 326.13 181.04 349.72 194.27 349.72 197.31"/><polygon class="cls-10" points="388.45 174.6 349.69 197.31 349.69 194.27 388.45 171.6 388.45 174.6"/><polygon class="cls-34" points="388.45 171.6 349.69 194.27 326.13 181.04 364.96 158.34 388.45 171.6"/><polygon class="cls-36" points="349.69 191.42 329.26 179.96 329.26 155.36 349.69 166.82 349.69 191.42"/><polygon class="cls-37" points="383.24 171.75 349.66 191.42 349.66 166.82 383.24 147.18 383.24 171.75"/><polygon class="cls-7" points="383.24 147.18 349.66 166.82 329.26 155.36 362.89 135.69 383.24 147.18"/><polygon class="cls-3" points="332.3 209.92 307.18 195.44 307.18 145.82 332.3 160.3 332.3 209.92"/><polygon class="cls-2" points="398.08 121.91 398.08 153.84 390.86 157.96 390.86 133.15 345.12 159.91 345.12 202.4 332.28 209.92 332.28 160.3 398.08 121.91"/><polygon class="cls-4" points="398.08 121.91 332.28 160.3 307.18 145.82 373.03 107.4 398.08 121.91"/><polygon class="cls-9" points="332.21 160.95 307 146.82 307 145.39 332.21 159.52 332.21 160.95"/><polygon class="cls-10" points="349.18 151.19 332.18 160.95 332.18 159.52 349.18 149.8 349.18 151.19"/><polygon class="cls-34" points="349.18 149.8 332.18 159.52 307 145.39 324.06 135.63 349.18 149.8"/><polygon class="cls-3" points="342.81 173.31 334.82 177.94 334.82 165.37 342.81 160.77 342.81 173.31"/><polygon class="cls-9" points="342.01 165.63 342.01 162.7 335.62 166.37 335.62 169.33 342.01 165.63"/><polygon class="cls-8" points="342.36 173.01 342.36 161.03 342.81 160.77 342.81 173.31 334.82 177.94 334.82 177.38 342.36 173.01"/><polygon class="cls-3" points="338.35 191.04 334.82 193.06 334.82 180.26 338.35 178.27 338.35 191.04"/><polygon class="cls-8" points="337.9 190.74 337.9 178.53 338.35 178.27 338.35 191.04 334.82 193.06 334.82 192.5 337.9 190.74"/><path class="cls-8" d="M366.74,191.52a1.65,1.65,0,0,1,.73-1.27.51.51,0,0,1,.54,0l.39.21-.14.24v.05a1.64,1.64,0,0,1-.74,1.27l0,0-.12.2L367,192C366.85,192,366.74,191.79,366.74,191.52Z" transform="translate(-26.7 -22.3)"/><path class="cls-2" d="M367.12,191.73c0,.47.33.66.74.42a1.62,1.62,0,0,0,.73-1.27c0-.47-.33-.65-.73-.42A1.62,1.62,0,0,0,367.12,191.73Z" transform="translate(-26.7 -22.3)"/><path class="cls-8" d="M364.51,192.83a1.6,1.6,0,0,1,.74-1.27.52.52,0,0,1,.53-.05l.4.22L366,192v0a1.62,1.62,0,0,1-.73,1.27l-.06,0-.12.2-.33-.18A.48.48,0,0,1,364.51,192.83Z" transform="translate(-26.7 -22.3)"/><path class="cls-2" d="M364.9,193c0,.47.33.65.73.42a1.64,1.64,0,0,0,.74-1.27c0-.47-.33-.66-.74-.42A1.62,1.62,0,0,0,364.9,193Z" transform="translate(-26.7 -22.3)"/><path class="cls-8" d="M362.31,194.08a1.62,1.62,0,0,1,.74-1.27.49.49,0,0,1,.53,0l.4.21-.14.24v0a1.64,1.64,0,0,1-.74,1.28l-.06,0-.11.2-.34-.19C362.42,194.53,362.31,194.35,362.31,194.08Z" transform="translate(-26.7 -22.3)"/><path class="cls-2" d="M362.7,194.29c0,.47.33.66.74.42a1.62,1.62,0,0,0,.73-1.27c0-.47-.33-.66-.73-.42A1.6,1.6,0,0,0,362.7,194.29Z" transform="translate(-26.7 -22.3)"/><path class="cls-8" d="M366.74,194.2a1.62,1.62,0,0,1,.73-1.27.54.54,0,0,1,.54-.05l.39.22-.14.24v0a1.6,1.6,0,0,1-.74,1.27l0,0-.12.2-.33-.18A.48.48,0,0,1,366.74,194.2Z" transform="translate(-26.7 -22.3)"/><path class="cls-2" d="M367.12,194.41c0,.46.33.65.74.42a1.65,1.65,0,0,0,.73-1.27c0-.47-.33-.66-.73-.42A1.6,1.6,0,0,0,367.12,194.41Z" transform="translate(-26.7 -22.3)"/><path class="cls-8" d="M364.51,195.51a1.64,1.64,0,0,1,.74-1.28.52.52,0,0,1,.53,0l.4.21-.15.25v0a1.64,1.64,0,0,1-.73,1.27l-.06,0-.12.2-.33-.18A.49.49,0,0,1,364.51,195.51Z" transform="translate(-26.7 -22.3)"/><path class="cls-2" d="M364.9,195.71c0,.47.33.66.73.42a1.6,1.6,0,0,0,.74-1.27c0-.46-.33-.65-.74-.42A1.65,1.65,0,0,0,364.9,195.71Z" transform="translate(-26.7 -22.3)"/><path class="cls-8" d="M362.31,196.76a1.6,1.6,0,0,1,.74-1.27.5.5,0,0,1,.53-.05l.4.21-.14.25v0a1.6,1.6,0,0,1-.74,1.27l-.06,0-.11.2-.34-.18A.48.48,0,0,1,362.31,196.76Z" transform="translate(-26.7 -22.3)"/><path class="cls-2" d="M362.7,197c0,.46.33.65.74.42a1.66,1.66,0,0,0,.73-1.28c0-.46-.33-.65-.73-.42A1.64,1.64,0,0,0,362.7,197Z" transform="translate(-26.7 -22.3)"/><path class="cls-15" d="M361.87,206.25a2.16,2.16,0,0,1,1-1.67.69.69,0,0,1,.71-.06l.52.28-.19.32v0a2.16,2.16,0,0,1-1,1.68l-.08,0-.15.26-.44-.24A.62.62,0,0,1,361.87,206.25Z" transform="translate(-26.7 -22.3)"/><path class="cls-9" d="M362.38,206.53c0,.61.43.86,1,.55a2.13,2.13,0,0,0,1-1.68c0-.61-.43-.86-1-.55A2.13,2.13,0,0,0,362.38,206.53Z" transform="translate(-26.7 -22.3)"/><path class="cls-15" d="M361.87,210.33a2.16,2.16,0,0,1,1-1.67.67.67,0,0,1,.71-.06l.52.28-.19.32v.05a2.16,2.16,0,0,1-1,1.68l-.08,0-.15.26-.44-.24A.62.62,0,0,1,361.87,210.33Z" transform="translate(-26.7 -22.3)"/><path class="cls-9" d="M362.38,210.61c0,.61.43.86,1,.55a2.13,2.13,0,0,0,1-1.68c0-.61-.43-.86-1-.55A2.13,2.13,0,0,0,362.38,210.61Z" transform="translate(-26.7 -22.3)"/><path class="cls-34" d="M420.26,156.34a2.14,2.14,0,0,1,1-1.68.67.67,0,0,1,.7-.06l.52.28-.19.33v0a2.13,2.13,0,0,1-1,1.68l-.07,0-.16.26-.44-.24A.64.64,0,0,1,420.26,156.34Z" transform="translate(-26.7 -22.3)"/><ellipse class="cls-8" cx="421.74" cy="156.05" rx="1.37" ry="0.79" transform="translate(47.46 419.07) rotate(-59.69)"/><path class="cls-34" d="M420.26,160.42a2.14,2.14,0,0,1,1-1.68.67.67,0,0,1,.7-.06l.52.28-.19.33v.05a2.13,2.13,0,0,1-1,1.68l-.07,0-.16.27-.44-.24A.64.64,0,0,1,420.26,160.42Z" transform="translate(-26.7 -22.3)"/><path class="cls-8" d="M420.77,160.69c0,.62.43.87,1,.56a2.13,2.13,0,0,0,1-1.68c0-.62-.43-.86-1-.55A2.13,2.13,0,0,0,420.77,160.69Z" transform="translate(-26.7 -22.3)"/><polygon class="cls-3" points="351 146.78 333.07 136.44 333.07 118.49 344.94 125.34 351 141.26 351 146.78"/><polygon class="cls-2" points="351 141.26 351 146.78 365.31 138.46 365.31 132.93 351 141.26"/><polygon class="cls-6" points="351 141.26 351 146.78 365.31 138.46 365.31 132.93 351 141.26"/><polygon class="cls-2" points="359.26 117.02 344.94 125.34 351 141.26 365.31 132.93 359.26 117.02"/><polygon class="cls-4" points="347.39 110.17 333.07 118.49 344.94 125.34 359.26 117.02 347.39 110.17"/><polygon class="cls-7" points="344.93 124.9 333.07 118.49 344.94 125.34 359.26 117.02 344.93 124.9"/><path class="cls-3" d="M349.29,171.22l6.23-3.59a1.06,1.06,0,0,0,.43-.84v-4.88c0-.32-.19-.47-.43-.33l-6.23,3.6a1,1,0,0,0-.43.83v4.88C348.86,171.21,349.05,171.36,349.29,171.22Z" transform="translate(-26.7 -22.3)"/><path class="cls-8" d="M349,165l6.22-3.6a.31.31,0,0,1,.26,0l.36.17h0a.3.3,0,0,0-.27,0l-6.23,3.6a1,1,0,0,0-.43.83v4.88c0,.2.07.34.19.37h0l-.36-.18a.43.43,0,0,1-.14-.35v-4.88A1,1,0,0,1,349,165Z" transform="translate(-26.7 -22.3)"/><path class="cls-2" d="M344.94,171.26l13.95-8.06a2.34,2.34,0,0,0,1-1.87v-11c0-.72-.44-1-1-.74l-13.95,8.06a2.36,2.36,0,0,0-1,1.87v11C344,171.24,344.4,171.57,344.94,171.26Z" transform="translate(-26.7 -22.3)"/><path class="cls-9" d="M344.81,170.69l13.8-8a1.65,1.65,0,0,0,.71-1.39v-11a.17.17,0,0,0-.26-.15l0,0-13.81,8a1.5,1.5,0,0,0-.7,1.39v11a.19.19,0,0,0,.28.17Z" transform="translate(-26.7 -22.3)"/><path class="cls-38" d="M345.21,158.18l13.81-8,0,0a.17.17,0,0,1,.26.15v11a1.65,1.65,0,0,1-.71,1.39l-13.8,8,0,0a.19.19,0,0,1-.28-.17v-11A1.5,1.5,0,0,1,345.21,158.18Zm-.59,12.36a.08.08,0,0,0,.07.08h0l13.83-8a1.56,1.56,0,0,0,.65-1.3v-11a.07.07,0,0,0-.07-.06h0l-13.84,8a1.42,1.42,0,0,0-.65,1.3Z" transform="translate(-26.7 -22.3)"/><path class="cls-8" d="M344.17,157.33l13.95-8.06a.65.65,0,0,1,.57-.09l.8.4h0a.65.65,0,0,0-.61.06l-13.95,8.06a2.36,2.36,0,0,0-1,1.87v11c0,.45.17.74.43.83l-.09,0s-.79-.41-.81-.41a.92.92,0,0,1-.3-.77V159.19A2.33,2.33,0,0,1,344.17,157.33Z" transform="translate(-26.7 -22.3)"/><path class="cls-39" d="M344.89,157.68l13.95-8.06a.62.62,0,0,1,.59-.07.67.67,0,0,0-.47.11L345,157.72a2.33,2.33,0,0,0-1,1.86v10.95a.81.81,0,0,0,.39.81c-.3,0-.51-.35-.51-.85V159.55A2.34,2.34,0,0,1,344.89,157.68Z" transform="translate(-26.7 -22.3)"/><path class="cls-2" d="M358.4,177.86l9.22-5.32c.37-.21.32-.58-.1-.82l-5.23-3a1.59,1.59,0,0,0-1.42-.05L351.64,174c-.36.21-.31.58.11.82l5.23,3A1.56,1.56,0,0,0,358.4,177.86Z" transform="translate(-26.7 -22.3)"/><path class="cls-34" d="M351.75,174.7l5.23,3a1.55,1.55,0,0,0,1.42.05l9.22-5.32a.47.47,0,0,0,.25-.32.4.4,0,0,1-.25.4l-9.22,5.32a1.56,1.56,0,0,1-1.42-.06l-5.23-3c-.25-.14-.37-.33-.35-.5A.62.62,0,0,0,351.75,174.7Z" transform="translate(-26.7 -22.3)"/><path class="cls-8" d="M361.38,169.91l-.92.53a.45.45,0,0,1-.42,0c-.12-.07-.12-.18,0-.24l.92-.53a.45.45,0,0,1,.42,0C361.5,169.73,361.5,169.84,361.38,169.91Zm-1.57.91-.44.25a.45.45,0,0,1-.42,0c-.12-.07-.12-.18,0-.24l.44-.25a.48.48,0,0,1,.42,0A.14.14,0,0,1,359.81,170.82Zm-1.09.63-.44.25a.45.45,0,0,1-.42,0c-.12-.07-.12-.18,0-.24l.44-.26a.51.51,0,0,1,.42,0A.14.14,0,0,1,358.72,171.45Zm-1.22.67-.43.25a.48.48,0,0,1-.42,0,.13.13,0,0,1,0-.25l.43-.25a.47.47,0,0,1,.43,0C357.62,172,357.62,172.06,357.5,172.12Zm-1.08.63L356,173a.45.45,0,0,1-.42,0c-.12-.06-.12-.17,0-.24l.43-.25a.47.47,0,0,1,.43,0C356.53,172.58,356.53,172.69,356.42,172.75Zm-1.09.63-.44.25a.45.45,0,0,1-.42,0c-.12-.06-.12-.17,0-.24l.43-.25a.47.47,0,0,1,.43,0A.13.13,0,0,1,355.33,173.38Zm-1.12.64-.43.26a.51.51,0,0,1-.42,0,.13.13,0,0,1,0-.25l.43-.25a.45.45,0,0,1,.42,0C354.33,173.85,354.33,174,354.21,174Zm8.15-3.51-.38.22a.57.57,0,0,1-.48,0l-.37-.22a.15.15,0,0,1,0-.28l.38-.21a.51.51,0,0,1,.48,0l.37.21A.15.15,0,0,1,362.36,170.51Zm-1.95.85-.37-.22a.15.15,0,0,1,0-.28l.38-.21a.54.54,0,0,1,.48,0l.37.22a.15.15,0,0,1,0,.28l-.38.22A.57.57,0,0,1,360.41,171.36Zm-.23.41-.38.22a.57.57,0,0,1-.48,0l-.37-.22a.15.15,0,0,1,0-.28l.38-.22a.57.57,0,0,1,.48,0l.37.22A.15.15,0,0,1,360.18,171.77Zm-1.09.63-.38.21a.54.54,0,0,1-.48,0l-.37-.22a.15.15,0,0,1,0-.28l.38-.22a.57.57,0,0,1,.48,0l.37.22A.15.15,0,0,1,359.09,172.4Zm-1.21.67-.38.22a.51.51,0,0,1-.48,0l-.37-.21c-.13-.08-.13-.21,0-.28l.38-.22a.51.51,0,0,1,.48,0l.37.22A.14.14,0,0,1,357.88,173.07Zm-2.32.36.38-.22a.51.51,0,0,1,.48,0l.37.22a.14.14,0,0,1,0,.27l-.38.22a.51.51,0,0,1-.48,0l-.37-.22A.14.14,0,0,1,355.56,173.43Zm-1.6.92.86-.5a.54.54,0,0,1,.48,0l.38.22a.14.14,0,0,1,0,.27l-.86.5a.51.51,0,0,1-.48,0l-.38-.21A.15.15,0,0,1,354,174.35Zm9.41-3.26-.86.5a.51.51,0,0,1-.48,0l-.38-.22c-.13-.07-.13-.2,0-.27l.86-.5a.51.51,0,0,1,.48,0l.37.21C363.5,170.89,363.5,171,363.37,171.09Zm-1.57.91-.38.22a.54.54,0,0,1-.48,0l-.38-.22c-.13-.07-.13-.2,0-.27l.37-.22a.51.51,0,0,1,.48,0l.38.21A.15.15,0,0,1,361.8,172Zm-1.47.85a.57.57,0,0,1-.48,0l-.38-.22c-.13-.07-.13-.2,0-.28l.37-.21a.51.51,0,0,1,.48,0l.38.21a.15.15,0,0,1,0,.28Zm-1.09.63a.57.57,0,0,1-.48,0l-.38-.22c-.13-.08-.13-.2,0-.28l.37-.21a.51.51,0,0,1,.48,0l.38.21a.15.15,0,0,1,0,.28Zm-1.67.69-.42-.25c-.12-.06-.12-.18,0-.25l.42-.24a.49.49,0,0,1,.44,0l.42.24a.13.13,0,0,1,0,.25l-.43.25A.47.47,0,0,1,357.57,174.17Zm-1.09.63-.42-.25a.13.13,0,0,1,0-.25l.42-.24a.49.49,0,0,1,.44,0l.42.24a.13.13,0,0,1,0,.25l-.43.25A.5.5,0,0,1,356.48,174.8Zm-1.53.14.42-.24a.49.49,0,0,1,.44,0l.42.24a.13.13,0,0,1,0,.25l-.43.25a.47.47,0,0,1-.43,0l-.42-.24A.14.14,0,0,1,355,174.94Zm9.45-3.28-1.36.79a.49.49,0,0,1-.44,0l-.42-.24a.13.13,0,0,1,0-.25l1.37-.79a.47.47,0,0,1,.43,0l.42.24A.13.13,0,0,1,364.4,171.66Zm-2,1.18-.42.24a.49.49,0,0,1-.44,0l-.42-.24a.13.13,0,0,1,0-.25l.43-.25a.47.47,0,0,1,.43,0l.42.24A.14.14,0,0,1,362.37,172.84Zm-1.09.62-.42.25a.49.49,0,0,1-.44,0l-.42-.24a.13.13,0,0,1,0-.25l.43-.25a.47.47,0,0,1,.43,0l.42.24A.13.13,0,0,1,361.28,173.46Zm-1.09.63-.42.25a.49.49,0,0,1-.44,0l-.42-.24c-.12-.07-.12-.19,0-.25l.43-.25a.47.47,0,0,1,.43,0l.42.24A.13.13,0,0,1,360.19,174.09Zm-1.21.68-.43.24a.47.47,0,0,1-.43,0l-.42-.24a.13.13,0,0,1,0-.25l.42-.24a.49.49,0,0,1,.44,0l.42.24A.13.13,0,0,1,359,174.77Zm-3,.76,1.07-.62a.49.49,0,0,1,.44,0l.42.24a.13.13,0,0,1,0,.25l-1.08.62a.47.47,0,0,1-.43,0l-.42-.24A.13.13,0,0,1,356,175.53Zm9.45-3.26-1.94,1.12a.53.53,0,0,1-.49,0l-.37-.21c-.13-.07-.13-.2,0-.28l1.93-1.12a.53.53,0,0,1,.49,0l.37.21C365.54,172.07,365.54,172.2,365.41,172.27Zm-2.66,1.54-.37.21a.53.53,0,0,1-.49,0l-.37-.21c-.13-.07-.13-.2,0-.28l.36-.21a.53.53,0,0,1,.49,0l.37.21A.15.15,0,0,1,362.75,173.81Zm-1.09.63-.37.21a.53.53,0,0,1-.49,0l-.37-.21c-.13-.08-.13-.2,0-.28l.36-.21a.53.53,0,0,1,.49,0l.37.21A.15.15,0,0,1,361.66,174.44Zm-1.09.63-.37.21a.53.53,0,0,1-.49,0l-.37-.21c-.13-.08-.13-.2,0-.28l.36-.21a.53.53,0,0,1,.49,0l.37.21C360.7,174.86,360.7,175,360.57,175.07Zm-1.22.68L359,176a.53.53,0,0,1-.49,0l-.37-.21a.16.16,0,0,1,0-.29l.37-.21a.53.53,0,0,1,.49,0l.37.21C359.49,175.54,359.49,175.67,359.35,175.75Zm-2.33.36.37-.21a.53.53,0,0,1,.49,0l.36.21c.14.07.14.2,0,.28l-.37.21a.53.53,0,0,1-.49,0l-.36-.21C356.88,176.31,356.88,176.19,357,176.11Z" transform="translate(-26.7 -22.3)"/><path class="cls-3" d="M361.38,169.8l-.92.53a.51.51,0,0,1-.42,0,.13.13,0,0,1,0-.25l.92-.53a.51.51,0,0,1,.42,0A.13.13,0,0,1,361.38,169.8Zm-1.57.91-.44.25a.51.51,0,0,1-.42,0,.13.13,0,0,1,0-.25l.44-.25a.45.45,0,0,1,.42,0A.14.14,0,0,1,359.81,170.71Zm-1.09.62-.44.26a.51.51,0,0,1-.42,0,.13.13,0,0,1,0-.25l.44-.25a.45.45,0,0,1,.42,0C358.83,171.16,358.83,171.27,358.72,171.33Zm-1.22.68-.43.25a.45.45,0,0,1-.42,0c-.12-.06-.12-.17,0-.24l.43-.25a.47.47,0,0,1,.43,0C357.62,171.83,357.62,171.94,357.5,172Zm-1.08.63-.44.25a.45.45,0,0,1-.42,0c-.12-.07-.12-.17,0-.24l.43-.25a.47.47,0,0,1,.43,0C356.53,172.46,356.53,172.57,356.42,172.64Zm-1.09.63-.44.25a.45.45,0,0,1-.42,0c-.12-.07-.12-.18,0-.24l.43-.25a.47.47,0,0,1,.43,0C355.44,173.09,355.44,173.2,355.33,173.27Zm-1.12.64-.43.25a.45.45,0,0,1-.42,0c-.12-.06-.12-.17,0-.24l.43-.25a.45.45,0,0,1,.42,0C354.33,173.73,354.33,173.84,354.21,173.91Zm8.15-3.51-.38.21a.51.51,0,0,1-.48,0l-.37-.21a.15.15,0,0,1,0-.28l.38-.22a.57.57,0,0,1,.48,0l.37.22A.15.15,0,0,1,362.36,170.4Zm-1.95.84L360,171a.15.15,0,0,1,0-.28l.38-.22a.57.57,0,0,1,.48,0l.37.22c.13.07.13.2,0,.28l-.38.21A.51.51,0,0,1,360.41,171.24Zm-.23.41-.38.22a.51.51,0,0,1-.48,0l-.37-.21a.15.15,0,0,1,0-.28l.38-.22a.54.54,0,0,1,.48,0l.37.22A.14.14,0,0,1,360.18,171.65Zm-1.09.63-.38.22a.51.51,0,0,1-.48,0l-.37-.21a.15.15,0,0,1,0-.28l.38-.22a.51.51,0,0,1,.48,0l.37.22A.14.14,0,0,1,359.09,172.28Zm-1.21.68-.38.22a.57.57,0,0,1-.48,0l-.37-.22a.14.14,0,0,1,0-.27l.38-.22a.51.51,0,0,1,.48,0l.37.21A.15.15,0,0,1,357.88,173Zm-2.32.35.38-.21a.51.51,0,0,1,.48,0l.37.21a.15.15,0,0,1,0,.28l-.38.22a.57.57,0,0,1-.48,0l-.37-.22C355.43,173.52,355.43,173.39,355.56,173.31Zm-1.6.93.86-.5a.51.51,0,0,1,.48,0l.38.21a.15.15,0,0,1,0,.28l-.86.5a.51.51,0,0,1-.48,0l-.38-.22A.14.14,0,0,1,354,174.24Zm9.41-3.26-.86.5a.57.57,0,0,1-.48,0l-.38-.22c-.13-.08-.13-.2,0-.28l.86-.49a.51.51,0,0,1,.48,0l.37.21A.15.15,0,0,1,363.37,171Zm-1.57.91-.38.22a.57.57,0,0,1-.48,0l-.38-.22c-.13-.08-.13-.2,0-.28l.37-.22a.57.57,0,0,1,.48,0l.38.22A.15.15,0,0,1,361.8,171.89Zm-1.47.84a.54.54,0,0,1-.48,0l-.38-.22c-.13-.08-.13-.2,0-.28l.37-.22a.57.57,0,0,1,.48,0l.38.22a.15.15,0,0,1,0,.28Zm-1.09.63a.51.51,0,0,1-.48,0l-.38-.21c-.13-.08-.13-.2,0-.28l.37-.22a.57.57,0,0,1,.48,0l.38.22c.13.07.13.2,0,.28Zm-1.67.69-.42-.24a.13.13,0,0,1,0-.25l.42-.24a.49.49,0,0,1,.44,0l.42.24a.13.13,0,0,1,0,.25l-.43.24A.47.47,0,0,1,357.57,174.05Zm-1.09.63-.42-.24a.13.13,0,0,1,0-.25l.42-.24a.52.52,0,0,1,.44,0l.42.25a.13.13,0,0,1,0,.25l-.43.24A.47.47,0,0,1,356.48,174.68Zm-1.53.15.42-.24a.49.49,0,0,1,.44,0l.42.24a.13.13,0,0,1,0,.25l-.43.24a.5.5,0,0,1-.43,0l-.42-.25A.13.13,0,0,1,355,174.83Zm9.45-3.28-1.36.79a.49.49,0,0,1-.44,0l-.42-.24a.14.14,0,0,1,0-.26l1.37-.78a.47.47,0,0,1,.43,0l.42.24A.13.13,0,0,1,364.4,171.55Zm-2,1.17L362,173a.49.49,0,0,1-.44,0l-.42-.25c-.12-.06-.12-.18,0-.25l.43-.24a.47.47,0,0,1,.43,0l.42.24A.13.13,0,0,1,362.37,172.72Zm-1.09.63-.42.25a.49.49,0,0,1-.44,0l-.42-.25a.13.13,0,0,1,0-.25l.43-.24a.47.47,0,0,1,.43,0l.42.24A.13.13,0,0,1,361.28,173.35Zm-1.09.63-.42.24a.52.52,0,0,1-.44,0l-.42-.25a.13.13,0,0,1,0-.25l.43-.24a.47.47,0,0,1,.43,0l.42.24A.13.13,0,0,1,360.19,174Zm-1.21.68-.43.24a.47.47,0,0,1-.43,0l-.42-.24a.13.13,0,0,1,0-.25l.42-.25a.49.49,0,0,1,.44,0l.42.25A.13.13,0,0,1,359,174.66Zm-3,.75,1.07-.62a.49.49,0,0,1,.44,0l.42.25c.12.06.12.18,0,.25l-1.08.62a.47.47,0,0,1-.43,0l-.42-.24A.14.14,0,0,1,356,175.41Zm9.45-3.25-1.94,1.12a.53.53,0,0,1-.49,0l-.37-.21c-.13-.08-.13-.2,0-.28l1.93-1.12a.53.53,0,0,1,.49,0l.37.21A.15.15,0,0,1,365.41,172.16Zm-2.66,1.54-.37.21a.53.53,0,0,1-.49,0l-.37-.21c-.13-.08-.13-.2,0-.28l.36-.21a.56.56,0,0,1,.49,0l.37.22C362.88,173.49,362.88,173.62,362.75,173.7Zm-1.09.63-.37.21a.53.53,0,0,1-.49,0l-.37-.21a.15.15,0,0,1,0-.28l.36-.22a.6.6,0,0,1,.49,0l.37.21A.16.16,0,0,1,361.66,174.33Zm-1.09.63-.37.21a.53.53,0,0,1-.49,0l-.37-.21a.15.15,0,0,1,0-.28l.36-.22a.6.6,0,0,1,.49,0l.37.21A.16.16,0,0,1,360.57,175Zm-1.22.67-.36.21a.56.56,0,0,1-.49,0l-.37-.21a.16.16,0,0,1,0-.29l.37-.21a.53.53,0,0,1,.49,0l.37.21C359.49,175.43,359.49,175.55,359.35,175.63ZM357,176l.37-.22a.56.56,0,0,1,.49,0l.36.21a.15.15,0,0,1,0,.29l-.37.21a.53.53,0,0,1-.49,0l-.36-.21C356.88,176.2,356.88,176.07,357,176Z" transform="translate(-26.7 -22.3)"/><polygon class="cls-3" points="349.21 148.79 348.13 148.09 331.61 106.99 332.7 107.7 349.21 148.79"/><polygon class="cls-2" points="392.13 123.65 349.2 148.79 332.68 107.7 375.61 82.58 392.13 123.65"/><polygon class="cls-6" points="392.13 123.65 349.2 148.79 332.68 107.7 375.61 82.58 392.13 123.65"/><polygon class="cls-3" points="388.83 126.82 387.75 126.12 371.24 85.02 372.32 85.73 388.83 126.82"/><polygon class="cls-2" points="389.86 126.16 388.82 126.82 372.3 85.73 373.34 85.08 389.86 126.16"/><polygon class="cls-2" points="389.86 126.16 388.82 126.82 372.3 85.73 373.34 85.08 389.86 126.16"/><polygon class="cls-37" points="383.44 123.85 371.76 94.82 340.03 113.39 351.71 142.43 383.44 123.85"/><polygon class="cls-4" points="375.61 82.58 332.68 107.7 331.61 106.99 374.57 81.85 375.61 82.58"/><polygon class="cls-9" points="334.53 111.72 331.98 110.27 330.78 107.29 333.33 108.74 334.53 111.72"/><polygon class="cls-10" points="378.62 85.89 334.52 111.72 333.32 108.74 377.42 82.93 378.62 85.89"/><polygon class="cls-34" points="377.42 82.93 333.32 108.74 330.78 107.29 374.91 81.47 377.42 82.93"/><polygon class="cls-8" points="206.05 78.37 193.65 71.36 193.65 67.44 206.05 74.45 206.05 78.37"/><polygon class="cls-8" points="245.38 100.44 232.98 93.43 232.98 89.51 245.38 96.52 245.38 100.44"/><polygon class="cls-8" points="284.9 123.31 272.5 116.3 272.5 112.38 284.9 119.39 284.9 123.31"/><path class="cls-5" d="M160.24,276.65l85-49.09c3.36-1.94,2.94-5.32-.94-7.56l-48.25-27.86c-3.88-2.24-9.74-2.48-13.1-.54l-85,49.09c-3.35,1.94-2.93,5.32.94,7.56l48.26,27.86C151,278.35,156.88,278.59,160.24,276.65Z" transform="translate(-26.7 -22.3)"/><path class="cls-34" d="M160.24,273.39l85-49.09a3.91,3.91,0,0,0,2.27-3.22v-4.22c0-1.47-1.11,1.09-3.21-.12l-48.25-27.86c-3.88-2.24-9.74-2.48-13.1-.54l-85,49.08c-1.12.65-1.93-2.1-2.22-1.22-.1.29,0,4.14,0,4.44,0,1.51,1,3.11,3.2,4.35l48.26,27.86C151,275.08,156.88,275.33,160.24,273.39Z" transform="translate(-26.7 -22.3)"/><path class="cls-4" d="M160.24,269.26l85-49.09c3.36-1.94,2.94-5.33-.94-7.57l-48.25-27.86c-3.88-2.23-9.74-2.48-13.1-.54l-85,49.09c-3.35,1.94-2.93,5.33.94,7.56l48.26,27.86C151,271,156.88,271.19,160.24,269.26Z" transform="translate(-26.7 -22.3)"/><path class="cls-40" d="M160.24,273.39c-3.36,1.94-9.23,1.69-13.1-.54v-4.14c3.87,2.24,9.74,2.48,13.1.55Z" transform="translate(-26.7 -22.3)"/><path class="cls-8" d="M160.24,269.26l85-49.09c1.63-.94,2.36-2.22,2.25-3.54a1.4,1.4,0,0,1,0,.23v4.22a3.91,3.91,0,0,1-2.27,3.22l-85,49.09Z" transform="translate(-26.7 -22.3)"/><path class="cls-7" d="M98.88,240.15,147.14,268c3.87,2.24,9.74,2.48,13.1.54l85-49.09a4,4,0,0,0,2.24-3c.18,1.37-.56,2.71-2.24,3.68l-85,49.09c-3.36,1.93-9.23,1.69-13.1-.55L98.88,240.85c-2.26-1.31-3.34-3-3.18-4.58C95.88,237.63,97,239,98.88,240.15Z" transform="translate(-26.7 -22.3)"/><path class="cls-41" d="M179.59,252.11l30.26-17.47c.61-.35.53-1-.17-1.37l-11.36-6.56a2.63,2.63,0,0,0-2.36-.1L165.7,244.08c-.61.35-.53,1,.17,1.37L177.23,252A2.63,2.63,0,0,0,179.59,252.11Z" transform="translate(-26.7 -22.3)"/><path class="cls-2" d="M209.68,234l-11.36-6.56a2.63,2.63,0,0,0-2.36-.1L165.7,244.8a.77.77,0,0,0-.28.25.64.64,0,0,1,.28-1L196,226.61a2.63,2.63,0,0,1,2.36.1l11.36,6.56c.56.32.71.77.45,1.12A1.38,1.38,0,0,0,209.68,234Z" transform="translate(-26.7 -22.3)"/><path class="cls-3" d="M188.5,190.51l-5.21,3a2.64,2.64,0,0,1-2.4,0c-.65-.38-.65-1,0-1.38l5.22-3a2.65,2.65,0,0,1,2.39,0A.73.73,0,0,1,188.5,190.51Zm-8.93,5.15-2.47,1.43a2.65,2.65,0,0,1-2.39,0c-.66-.39-.66-1,0-1.39l2.47-1.42a2.62,2.62,0,0,1,2.39,0A.73.73,0,0,1,179.57,195.66Zm-6.18,3.58-2.47,1.42a2.65,2.65,0,0,1-2.39,0,.74.74,0,0,1,0-1.39l2.47-1.42a2.64,2.64,0,0,1,2.4,0C174.06,198.23,174.05,198.85,173.39,199.24Zm-6.18,3.57-2.47,1.42a2.67,2.67,0,0,1-2.4,0c-.66-.38-.65-1,0-1.39l2.47-1.42a2.62,2.62,0,0,1,2.39,0A.74.74,0,0,1,167.21,202.81ZM161,206.38l-2.47,1.42a2.62,2.62,0,0,1-2.39,0c-.66-.38-.66-1,0-1.39l2.47-1.42a2.65,2.65,0,0,1,2.39,0C161.69,205.37,161.69,206,161,206.38ZM154.84,210l-2.47,1.42a2.64,2.64,0,0,1-2.4,0c-.66-.38-.65-1,0-1.39l2.47-1.42a2.67,2.67,0,0,1,2.4,0A.74.74,0,0,1,154.84,210Zm-6.19,3.57-2.47,1.42a2.62,2.62,0,0,1-2.39,0,.73.73,0,0,1,0-1.38l2.47-1.43a2.65,2.65,0,0,1,2.39,0C149.32,212.52,149.32,213.13,148.65,213.52Zm-6.18,3.57L140,218.51a2.62,2.62,0,0,1-2.39,0,.73.73,0,0,1,0-1.38l2.47-1.43a2.64,2.64,0,0,1,2.4,0C143.14,216.09,143.13,216.7,142.47,217.09Zm-6.18,3.57-2.47,1.42a2.64,2.64,0,0,1-2.4,0c-.66-.38-.65-1,0-1.38l2.47-1.43a2.65,2.65,0,0,1,2.39,0A.73.73,0,0,1,136.29,220.66Zm-6.19,3.57-2.47,1.42a2.62,2.62,0,0,1-2.39,0,.73.73,0,0,1,0-1.38l2.47-1.43a2.67,2.67,0,0,1,2.4,0C130.77,223.23,130.76,223.85,130.1,224.23Zm-6.18,3.57-2.47,1.42a2.64,2.64,0,0,1-2.4,0c-.66-.38-.65-1,0-1.38l2.47-1.43a2.65,2.65,0,0,1,2.39,0A.73.73,0,0,1,123.92,227.8Zm-6.19,3.57-2.47,1.43a2.65,2.65,0,0,1-2.39,0,.73.73,0,0,1,0-1.38l2.47-1.43a2.65,2.65,0,0,1,2.39,0A.73.73,0,0,1,117.73,231.37ZM111.42,235,109,236.44a2.65,2.65,0,0,1-2.39,0c-.66-.38-.66-1,0-1.38l2.47-1.42a2.64,2.64,0,0,1,2.4,0C112.09,234,112.08,234.63,111.42,235Zm82.65-41.1-2.14,1.24a3,3,0,0,1-2.73,0l-2.12-1.22a.83.83,0,0,1,0-1.58l2.13-1.23a3,3,0,0,1,2.73,0l2.12,1.23A.83.83,0,0,1,194.07,193.91Zm-11,4.81-2.13-1.22c-.75-.44-.74-1.14,0-1.58l2.14-1.23a3,3,0,0,1,2.72,0l2.13,1.23a.83.83,0,0,1,0,1.57l-2.14,1.24A3,3,0,0,1,183,198.72Zm-1.32,2.33-2.14,1.24a3,3,0,0,1-2.73,0l-2.12-1.22a.83.83,0,0,1,0-1.58l2.14-1.23a3,3,0,0,1,2.72,0l2.13,1.23A.83.83,0,0,1,181.7,201.05Zm-6.19,3.57-2.14,1.24a3,3,0,0,1-2.72,0l-2.13-1.22c-.75-.44-.74-1.14,0-1.58l2.14-1.23a3,3,0,0,1,2.73,0l2.12,1.23A.83.83,0,0,1,175.51,204.62Zm-13.16,2,2.14-1.23a3,3,0,0,1,2.72,0l2.13,1.23a.83.83,0,0,1,0,1.57l-2.14,1.24a3,3,0,0,1-2.72,0l-2.13-1.22A.83.83,0,0,1,162.35,206.63Zm-6.19,3.57L158.3,209a3,3,0,0,1,2.73,0l2.12,1.23a.83.83,0,0,1,0,1.57L161,213a3,3,0,0,1-2.73,0l-2.12-1.22A.84.84,0,0,1,156.16,210.2ZM150,213.77l2.14-1.23a3,3,0,0,1,2.72,0l2.13,1.23a.83.83,0,0,1,0,1.58l-2.14,1.23a3,3,0,0,1-2.72,0L150,215.35C149.22,214.91,149.23,214.21,150,213.77Zm-6.18,3.58,2.13-1.24a3,3,0,0,1,2.73,0l2.12,1.22a.84.84,0,0,1,0,1.58l-2.14,1.23a3,3,0,0,1-2.73,0l-2.12-1.23A.83.83,0,0,1,143.8,217.35Zm-6.19,3.57,2.14-1.24a3,3,0,0,1,2.73,0l2.12,1.22a.83.83,0,0,1,0,1.58l-2.14,1.23a3,3,0,0,1-2.72,0l-2.13-1.23A.83.83,0,0,1,137.61,220.92Zm-6.18,3.57,2.14-1.24a3,3,0,0,1,2.72,0l2.13,1.22c.75.44.74,1.14,0,1.58l-2.14,1.23a3,3,0,0,1-2.73,0l-2.12-1.23A.83.83,0,0,1,131.43,224.49Zm.79,5.13-2.13,1.23a3,3,0,0,1-2.73,0l-2.12-1.23a.83.83,0,0,1,0-1.57l2.14-1.24a3,3,0,0,1,2.73,0l2.12,1.22A.83.83,0,0,1,132.22,229.62Zm-13.16,2,2.14-1.24a3,3,0,0,1,2.72,0l2.13,1.22c.75.44.74,1.14,0,1.58l-2.14,1.23a3,3,0,0,1-2.72,0l-2.13-1.23A.83.83,0,0,1,119.06,231.63ZM110,236.86l4.89-2.82a3,3,0,0,1,2.72,0l2.13,1.23a.83.83,0,0,1,0,1.57l-4.89,2.82a3,3,0,0,1-2.72,0L110,238.43A.83.83,0,0,1,110,236.86Zm89.79-39.64L194.91,200a3,3,0,0,1-2.72,0l-2.13-1.22a.83.83,0,0,1,0-1.58l4.88-2.82a3,3,0,0,1,2.73,0l2.12,1.23C200.55,196.08,200.55,196.78,199.79,197.22Zm-8.93,5.15-2.13,1.24a3,3,0,0,1-2.73,0l-2.12-1.22a.84.84,0,0,1,0-1.58l2.14-1.23a3,3,0,0,1,2.73,0l2.12,1.23A.83.83,0,0,1,190.86,202.37Zm-8.32,4.81a3,3,0,0,1-2.72,0L177.69,206c-.75-.44-.74-1.14,0-1.58l2.14-1.23a3,3,0,0,1,2.72,0l2.13,1.23c.75.43.75,1.14,0,1.58Zm-6.18,3.57a3,3,0,0,1-2.73,0l-2.12-1.23c-.75-.43-.75-1.14,0-1.58l2.13-1.23a3,3,0,0,1,2.73,0l2.12,1.22a.84.84,0,0,1,0,1.58Zm-6.16-.46,2.12,1.22a.83.83,0,0,1,0,1.58l-2.14,1.23a3,3,0,0,1-2.72,0l-2.13-1.23a.83.83,0,0,1,0-1.57l2.14-1.24A3,3,0,0,1,170.2,210.29Zm-6.32,3.49,2.39,1.38a.75.75,0,0,1,0,1.42l-2.4,1.39a2.73,2.73,0,0,1-2.46,0L159,216.59c-.68-.39-.68-1,0-1.42l2.4-1.38A2.7,2.7,0,0,1,163.88,213.78Zm-6.18,3.57,2.38,1.38a.75.75,0,0,1,0,1.42l-2.41,1.39a2.73,2.73,0,0,1-2.46,0l-2.39-1.38c-.67-.39-.67-1,0-1.42l2.4-1.38A2.72,2.72,0,0,1,157.7,217.35Zm-6.19,3.57,2.39,1.38c.68.39.67,1,0,1.42l-2.4,1.39a2.73,2.73,0,0,1-2.46,0l-2.39-1.38c-.68-.39-.67-1,0-1.42l2.4-1.38A2.7,2.7,0,0,1,151.51,220.92Zm-6.18,3.57,2.38,1.38a.75.75,0,0,1,0,1.42l-2.4,1.39a2.75,2.75,0,0,1-2.47,0l-2.38-1.38c-.68-.39-.68-1,0-1.42l2.41-1.38A2.7,2.7,0,0,1,145.33,224.49Zm-6.19,3.57,2.39,1.38c.68.39.67,1,0,1.42l-2.4,1.39a2.73,2.73,0,0,1-2.46,0l-2.39-1.37c-.68-.4-.67-1,0-1.43l2.4-1.38A2.7,2.7,0,0,1,139.14,228.06Zm-8.67,7.76-2.38-1.37c-.68-.4-.68-1,0-1.43l2.4-1.38a2.7,2.7,0,0,1,2.46,0l2.39,1.38a.75.75,0,0,1,0,1.42l-2.4,1.39A2.72,2.72,0,0,1,130.47,235.82Zm-6.18,3.57L121.9,238a.76.76,0,0,1,0-1.43l2.4-1.38a2.72,2.72,0,0,1,2.47,0l2.38,1.38a.75.75,0,0,1,0,1.42l-2.4,1.39A2.7,2.7,0,0,1,124.29,239.39Zm-8.69.85,2.4-1.39a2.73,2.73,0,0,1,2.46,0l2.39,1.38c.68.39.67,1,0,1.42l-2.4,1.38a2.7,2.7,0,0,1-2.46,0l-2.39-1.38C114.91,241.27,114.92,240.63,115.6,240.24Zm90.05-39.79-7.75,4.48a2.73,2.73,0,0,1-2.46,0l-2.39-1.38c-.68-.39-.67-1,0-1.42l7.75-4.47a2.7,2.7,0,0,1,2.46,0l2.39,1.38A.75.75,0,0,1,205.65,200.45Zm-11.53,6.66-2.41,1.39a2.73,2.73,0,0,1-2.46,0l-2.38-1.38c-.68-.39-.68-1,0-1.42l2.41-1.38a2.7,2.7,0,0,1,2.46,0l2.38,1.38A.75.75,0,0,1,194.12,207.11Zm-6.19,3.57-2.4,1.39a2.73,2.73,0,0,1-2.46,0l-2.39-1.38c-.68-.39-.67-1,0-1.42l2.4-1.38a2.7,2.7,0,0,1,2.46,0l2.39,1.38C188.62,209.65,188.61,210.29,187.93,210.68Zm-6.18,3.57-2.4,1.39a2.75,2.75,0,0,1-2.47,0l-2.38-1.37c-.68-.4-.68-1,0-1.43l2.4-1.38a2.7,2.7,0,0,1,2.46,0l2.39,1.38A.75.75,0,0,1,181.75,214.25Zm-11.05,5-2.39-1.37a.76.76,0,0,1,0-1.43l2.4-1.38a2.72,2.72,0,0,1,2.47,0l2.38,1.38a.75.75,0,0,1,0,1.42l-2.4,1.39A2.73,2.73,0,0,1,170.7,219.21Zm-6.18,3.57-2.39-1.37c-.68-.4-.68-1,0-1.43l2.4-1.38a2.7,2.7,0,0,1,2.46,0l2.39,1.38c.68.39.67,1,0,1.42l-2.4,1.39A2.7,2.7,0,0,1,164.52,222.78Zm-6.19,3.57L155.94,225a.76.76,0,0,1,0-1.43l2.4-1.38a2.72,2.72,0,0,1,2.47,0l2.38,1.38a.75.75,0,0,1,0,1.42l-2.41,1.39A2.7,2.7,0,0,1,158.33,226.35Zm-6.18,3.57-2.39-1.37c-.68-.39-.67-1,0-1.42l2.4-1.39a2.7,2.7,0,0,1,2.46,0l2.39,1.38c.68.39.67,1,0,1.42l-2.4,1.39A2.7,2.7,0,0,1,152.15,229.92ZM146,233.5l-2.38-1.38a.75.75,0,0,1,0-1.42l2.41-1.39a2.73,2.73,0,0,1,2.46,0l2.38,1.38a.75.75,0,0,1,0,1.42l-2.4,1.39A2.75,2.75,0,0,1,146,233.5Zm-6.18,3.57-2.39-1.38c-.68-.39-.67-1,0-1.42l2.4-1.39a2.73,2.73,0,0,1,2.46,0l2.39,1.38a.75.75,0,0,1,0,1.42l-2.4,1.39A2.7,2.7,0,0,1,139.78,237.07Zm-1.32,2.18-2.4,1.38a2.72,2.72,0,0,1-2.47,0l-2.38-1.38a.75.75,0,0,1,0-1.42l2.4-1.39a2.7,2.7,0,0,1,2.46,0l2.39,1.37A.76.76,0,0,1,138.46,239.25Zm-17.13,4.3,6.1-3.53a2.72,2.72,0,0,1,2.47,0l2.38,1.37c.68.4.68,1,0,1.43l-6.1,3.52a2.7,2.7,0,0,1-2.46,0L121.32,245A.75.75,0,0,1,121.33,243.55Zm90-39.62-11,6.35a3.08,3.08,0,0,1-2.79,0l-2.06-1.2a.84.84,0,0,1,0-1.6l11-6.36a3.09,3.09,0,0,1,2.78,0l2.07,1.19A.85.85,0,0,1,211.36,203.93Zm-15.11,8.72-2.08,1.2a3.06,3.06,0,0,1-2.78,0l-2.07-1.2a.84.84,0,0,1,0-1.6l2.08-1.21a3.09,3.09,0,0,1,2.78,0l2.07,1.19C197,211.49,197,212.2,196.25,212.65Zm-6.18,3.57-2.08,1.2a3.06,3.06,0,0,1-2.78,0l-2.07-1.2c-.77-.44-.77-1.16,0-1.6l2.08-1.21a3.09,3.09,0,0,1,2.78,0l2.07,1.19A.85.85,0,0,1,190.07,216.22Zm-6.19,3.57L181.8,221a3.06,3.06,0,0,1-2.78,0L177,219.8a.84.84,0,0,1,0-1.6L179,217a3.06,3.06,0,0,1,2.78,0l2.07,1.19A.85.85,0,0,1,183.88,219.79Zm-6.18,3.57-2.08,1.2a3.06,3.06,0,0,1-2.78,0l-2.07-1.2c-.77-.44-.76-1.16,0-1.6l2.08-1.2a3.06,3.06,0,0,1,2.78,0l2.07,1.19A.85.85,0,0,1,177.7,223.36Zm-6.18,3.57-2.09,1.2a3.06,3.06,0,0,1-2.78,0l-2.07-1.2a.84.84,0,0,1,0-1.6l2.08-1.2a3.08,3.08,0,0,1,2.79,0l2.06,1.2A.84.84,0,0,1,171.52,226.93Zm-6.19,3.57-2.08,1.2a3.06,3.06,0,0,1-2.78,0l-2.07-1.2c-.77-.44-.76-1.16,0-1.6l2.08-1.2a3.06,3.06,0,0,1,2.78,0l2.07,1.2C166.11,229.34,166.1,230.06,165.33,230.5Zm-6.18,3.57-2.08,1.2a3.08,3.08,0,0,1-2.79,0l-2.06-1.2a.84.84,0,0,1,0-1.6l2.09-1.2a3.06,3.06,0,0,1,2.78,0l2.07,1.2A.84.84,0,0,1,159.15,234.07ZM153,237.64l-2.08,1.2a3.06,3.06,0,0,1-2.78,0l-2.07-1.2a.84.84,0,0,1,0-1.6l2.08-1.2a3.06,3.06,0,0,1,2.78,0L153,236C153.74,236.48,153.73,237.2,153,237.64Zm-6.18,3.57-2.08,1.2a3.06,3.06,0,0,1-2.78,0l-2.07-1.19a.85.85,0,0,1,0-1.61l2.08-1.2a3.06,3.06,0,0,1,2.78,0l2.07,1.2A.84.84,0,0,1,146.78,241.21Zm-6.19,3.57L138.51,246a3.09,3.09,0,0,1-2.78,0l-2.07-1.19a.85.85,0,0,1,0-1.61l2.08-1.2a3.08,3.08,0,0,1,2.79,0l2.06,1.2C141.37,243.62,141.37,244.34,140.59,244.78Zm-13.24,2.06,2.08-1.2a3.06,3.06,0,0,1,2.78,0l2.07,1.2c.77.44.76,1.16,0,1.6l-2.08,1.2a3.06,3.06,0,0,1-2.78,0l-2.07-1.19A.85.85,0,0,1,127.35,246.84Zm80.07-39.61,4.82-2.79a3.08,3.08,0,0,1,2.79,0l2.06,1.19a.85.85,0,0,1,0,1.61L212.26,210a3.06,3.06,0,0,1-2.78,0l-2.07-1.2C206.64,208.39,206.65,207.67,207.42,207.23Zm-6.19,3.57,2.08-1.2a3.08,3.08,0,0,1,2.79,0l2.06,1.19a.85.85,0,0,1,0,1.61l-2.09,1.2a3.06,3.06,0,0,1-2.78,0l-2.07-1.2A.84.84,0,0,1,201.23,210.8Zm-6.18,3.57,2.08-1.2a3.06,3.06,0,0,1,2.78,0l2.07,1.2c.77.44.76,1.16,0,1.6l-2.08,1.2a3.06,3.06,0,0,1-2.78,0L195,216C194.27,215.53,194.28,214.81,195.05,214.37Zm-43.29,25L191,216.74a3.06,3.06,0,0,1,2.78,0l2.07,1.2a.84.84,0,0,1,0,1.6L156.6,242.16a3.09,3.09,0,0,1-2.78,0L151.75,241A.85.85,0,0,1,151.76,239.36Zm-6.18,3.57,2.08-1.2a3.06,3.06,0,0,1,2.78,0l2.07,1.2a.84.84,0,0,1,0,1.6l-2.08,1.21a3.09,3.09,0,0,1-2.78,0l-2.07-1.19C144.8,244.1,144.81,243.38,145.58,242.93Zm-6.19,3.57,2.08-1.2a3.06,3.06,0,0,1,2.78,0l2.07,1.19c.77.44.76,1.16,0,1.61l-2.08,1.2a3.09,3.09,0,0,1-2.78,0l-2.07-1.19A.85.85,0,0,1,139.39,246.5Zm-6.31,3.65,2.08-1.21a3.09,3.09,0,0,1,2.78,0l2.07,1.19a.85.85,0,0,1,0,1.61l-2.08,1.2a3.06,3.06,0,0,1-2.78,0l-2.07-1.2C132.3,251.31,132.31,250.59,133.08,250.15Z" transform="translate(-26.7 -22.3)"/><path class="cls-2" d="M188.5,189.93l-5.21,3a2.64,2.64,0,0,1-2.4,0,.73.73,0,0,1,0-1.38l5.22-3a2.62,2.62,0,0,1,2.39,0A.73.73,0,0,1,188.5,189.93Zm-8.93,5.16-2.47,1.43a2.65,2.65,0,0,1-2.39,0,.73.73,0,0,1,0-1.38l2.47-1.43a2.65,2.65,0,0,1,2.39,0A.73.73,0,0,1,179.57,195.09Zm-6.18,3.57-2.47,1.43a2.65,2.65,0,0,1-2.39,0,.73.73,0,0,1,0-1.38l2.47-1.43a2.67,2.67,0,0,1,2.4,0C174.06,197.66,174.05,198.28,173.39,198.66Zm-6.18,3.57-2.47,1.43a2.67,2.67,0,0,1-2.4,0c-.66-.38-.65-1,0-1.38l2.47-1.43a2.65,2.65,0,0,1,2.39,0A.73.73,0,0,1,167.21,202.23ZM161,205.8l-2.47,1.43a2.65,2.65,0,0,1-2.39,0,.73.73,0,0,1,0-1.38l2.47-1.43a2.65,2.65,0,0,1,2.39,0A.73.73,0,0,1,161,205.8Zm-6.18,3.57-2.47,1.43a2.67,2.67,0,0,1-2.4,0c-.66-.38-.65-1,0-1.38l2.47-1.43a2.67,2.67,0,0,1,2.4,0A.73.73,0,0,1,154.84,209.37Zm-6.19,3.57-2.47,1.43a2.65,2.65,0,0,1-2.39,0,.73.73,0,0,1,0-1.38l2.47-1.43a2.65,2.65,0,0,1,2.39,0A.73.73,0,0,1,148.65,212.94Zm-6.18,3.57L140,217.94a2.65,2.65,0,0,1-2.39,0,.73.73,0,0,1,0-1.38l2.47-1.43a2.67,2.67,0,0,1,2.4,0C143.14,215.51,143.13,216.13,142.47,216.51Zm-6.18,3.57-2.47,1.43a2.67,2.67,0,0,1-2.4,0c-.66-.38-.65-1,0-1.38l2.47-1.43a2.65,2.65,0,0,1,2.39,0A.73.73,0,0,1,136.29,220.08Zm-6.19,3.57-2.47,1.43a2.65,2.65,0,0,1-2.39,0,.73.73,0,0,1,0-1.38l2.47-1.43a2.67,2.67,0,0,1,2.4,0C130.77,222.65,130.76,223.27,130.1,223.65Zm-6.18,3.57-2.47,1.43a2.67,2.67,0,0,1-2.4,0c-.66-.38-.65-1,0-1.38l2.47-1.43a2.65,2.65,0,0,1,2.39,0A.73.73,0,0,1,123.92,227.22Zm-6.19,3.57-2.47,1.43a2.65,2.65,0,0,1-2.39,0,.73.73,0,0,1,0-1.38l2.47-1.42a2.62,2.62,0,0,1,2.39,0A.73.73,0,0,1,117.73,230.79Zm-6.31,3.65L109,235.86a2.62,2.62,0,0,1-2.39,0,.73.73,0,0,1,0-1.38l2.47-1.43a2.67,2.67,0,0,1,2.4,0C112.09,233.44,112.08,234.06,111.42,234.44Zm82.65-41.1-2.14,1.23a3,3,0,0,1-2.73,0l-2.12-1.23a.83.83,0,0,1,0-1.57l2.13-1.24a3,3,0,0,1,2.73,0l2.12,1.22A.84.84,0,0,1,194.07,193.34Zm-11,4.81-2.13-1.23a.83.83,0,0,1,0-1.57l2.14-1.24a3,3,0,0,1,2.72,0l2.13,1.22a.83.83,0,0,1,0,1.58l-2.14,1.23A3,3,0,0,1,183,198.15Zm-1.32,2.33-2.14,1.23a3,3,0,0,1-2.73,0l-2.12-1.23a.83.83,0,0,1,0-1.57l2.14-1.24a3,3,0,0,1,2.72,0l2.13,1.22C182.46,199.34,182.45,200,181.7,200.48Zm-6.19,3.57-2.14,1.23a3,3,0,0,1-2.72,0l-2.13-1.23a.83.83,0,0,1,0-1.57l2.14-1.24a3,3,0,0,1,2.73,0l2.12,1.22A.83.83,0,0,1,175.51,204.05Zm-13.16,2,2.14-1.24a3,3,0,0,1,2.72,0l2.13,1.23c.75.43.74,1.13,0,1.57l-2.14,1.23a3,3,0,0,1-2.72,0l-2.13-1.23A.83.83,0,0,1,162.35,206.06Zm-6.19,3.57,2.14-1.24a3,3,0,0,1,2.73,0l2.12,1.23c.75.43.75,1.13,0,1.57L161,212.42a3,3,0,0,1-2.73,0l-2.12-1.23A.83.83,0,0,1,156.16,209.63ZM150,213.2l2.14-1.24a3,3,0,0,1,2.72,0l2.13,1.23c.75.43.75,1.13,0,1.57L154.82,216a3,3,0,0,1-2.72,0L150,214.77A.83.83,0,0,1,150,213.2Zm-6.18,3.57,2.13-1.24a3,3,0,0,1,2.73,0l2.12,1.23a.83.83,0,0,1,0,1.57l-2.14,1.23a3,3,0,0,1-2.73,0l-2.12-1.23A.83.83,0,0,1,143.8,216.77Zm-6.19,3.57,2.14-1.24a3,3,0,0,1,2.73,0l2.12,1.23c.75.43.75,1.13,0,1.57l-2.14,1.23a3,3,0,0,1-2.72,0l-2.13-1.23C136.85,221.48,136.86,220.78,137.61,220.34Zm-6.18,3.57,2.14-1.23a3,3,0,0,1,2.72,0l2.13,1.23c.75.43.74,1.13,0,1.57l-2.14,1.24a3,3,0,0,1-2.73,0l-2.12-1.23C130.67,225.05,130.67,224.35,131.43,223.91Zm.79,5.13-2.13,1.24a3,3,0,0,1-2.73,0l-2.12-1.23a.83.83,0,0,1,0-1.57l2.14-1.23a3,3,0,0,1,2.73,0l2.12,1.23A.83.83,0,0,1,132.22,229Zm-13.16,2,2.14-1.23a3,3,0,0,1,2.72,0l2.13,1.23a.83.83,0,0,1,0,1.57l-2.14,1.24a3,3,0,0,1-2.72,0l-2.13-1.23C118.3,232.19,118.3,231.49,119.06,231.05ZM110,236.28l4.89-2.82a3,3,0,0,1,2.72,0l2.13,1.22c.75.44.74,1.14,0,1.58l-4.89,2.82a3,3,0,0,1-2.72,0L110,237.85C109.24,237.42,109.25,236.72,110,236.28Zm89.79-39.64-4.88,2.82a3,3,0,0,1-2.72,0l-2.13-1.23a.83.83,0,0,1,0-1.57l4.88-2.82a3,3,0,0,1,2.73,0l2.12,1.23A.83.83,0,0,1,199.79,196.64Zm-8.93,5.16L188.73,203a3,3,0,0,1-2.73,0l-2.12-1.23a.83.83,0,0,1,0-1.57L186,199a3,3,0,0,1,2.73,0l2.12,1.23C191.62,200.66,191.62,201.36,190.86,201.8Zm-8.32,4.8a3,3,0,0,1-2.72,0l-2.13-1.23a.83.83,0,0,1,0-1.57l2.14-1.24a3,3,0,0,1,2.72,0l2.13,1.23c.75.43.75,1.13,0,1.57Zm-6.18,3.57a3,3,0,0,1-2.73,0L171.51,209a.83.83,0,0,1,0-1.57l2.13-1.24a3,3,0,0,1,2.73,0l2.12,1.23a.83.83,0,0,1,0,1.57Zm-6.16-.46,2.12,1.23c.75.43.75,1.13,0,1.57l-2.14,1.23a3,3,0,0,1-2.72,0l-2.13-1.23c-.75-.43-.74-1.13,0-1.57l2.14-1.24A3,3,0,0,1,170.2,209.71Zm-6.32,3.49,2.39,1.38a.75.75,0,0,1,0,1.42l-2.4,1.39a2.73,2.73,0,0,1-2.46,0L159,216a.75.75,0,0,1,0-1.42l2.4-1.39A2.73,2.73,0,0,1,163.88,213.2Zm-6.18,3.58,2.38,1.37a.75.75,0,0,1,0,1.42L157.67,221a2.7,2.7,0,0,1-2.46,0l-2.39-1.38a.75.75,0,0,1,0-1.42l2.4-1.39A2.72,2.72,0,0,1,157.7,216.78Zm-6.19,3.57,2.39,1.37c.68.39.67,1,0,1.43l-2.4,1.38a2.7,2.7,0,0,1-2.46,0l-2.39-1.38c-.68-.39-.67-1,0-1.42l2.4-1.39A2.7,2.7,0,0,1,151.51,220.35Zm-6.18,3.57,2.38,1.37a.76.76,0,0,1,0,1.43l-2.4,1.38a2.72,2.72,0,0,1-2.47,0l-2.38-1.38a.75.75,0,0,1,0-1.42l2.41-1.39A2.7,2.7,0,0,1,145.33,223.92Zm-6.19,3.57,2.39,1.37c.68.4.67,1,0,1.43l-2.4,1.38a2.7,2.7,0,0,1-2.46,0l-2.39-1.38c-.68-.39-.67-1,0-1.42l2.4-1.39A2.73,2.73,0,0,1,139.14,227.49Zm-8.67,7.76-2.38-1.38a.75.75,0,0,1,0-1.42l2.4-1.39a2.73,2.73,0,0,1,2.46,0l2.39,1.37a.76.76,0,0,1,0,1.43l-2.4,1.38A2.72,2.72,0,0,1,130.47,235.25Zm-6.18,3.57-2.39-1.38a.75.75,0,0,1,0-1.42l2.4-1.39a2.75,2.75,0,0,1,2.47,0l2.38,1.38c.68.39.68,1,0,1.42l-2.4,1.38A2.7,2.7,0,0,1,124.29,238.82Zm-8.69.84,2.4-1.38a2.7,2.7,0,0,1,2.46,0l2.39,1.38c.68.39.67,1,0,1.42l-2.4,1.39a2.73,2.73,0,0,1-2.46,0l-2.39-1.38C114.91,240.69,114.92,240.06,115.6,239.66Zm90.05-39.79-7.75,4.48a2.7,2.7,0,0,1-2.46,0L193.05,203c-.68-.39-.67-1,0-1.42l7.75-4.48a2.73,2.73,0,0,1,2.46,0l2.39,1.38A.75.75,0,0,1,205.65,199.87Zm-11.53,6.67-2.41,1.38a2.7,2.7,0,0,1-2.46,0l-2.38-1.38a.75.75,0,0,1,0-1.42l2.41-1.39a2.7,2.7,0,0,1,2.46,0l2.38,1.37A.76.76,0,0,1,194.12,206.54Zm-6.19,3.57-2.4,1.38a2.7,2.7,0,0,1-2.46,0l-2.39-1.38c-.68-.39-.67-1,0-1.42l2.4-1.39a2.7,2.7,0,0,1,2.46,0l2.39,1.37C188.62,209.08,188.61,209.71,187.93,210.11Zm-6.18,3.57-2.4,1.38a2.72,2.72,0,0,1-2.47,0l-2.38-1.38a.75.75,0,0,1,0-1.42l2.4-1.39a2.7,2.7,0,0,1,2.46,0l2.39,1.37A.76.76,0,0,1,181.75,213.68Zm-11.05,5-2.39-1.38a.75.75,0,0,1,0-1.42l2.4-1.39a2.75,2.75,0,0,1,2.47,0l2.38,1.37c.68.4.68,1,0,1.43l-2.4,1.38A2.7,2.7,0,0,1,170.7,218.64Zm-6.18,3.57-2.39-1.38a.75.75,0,0,1,0-1.42l2.4-1.39a2.73,2.73,0,0,1,2.46,0l2.39,1.38c.68.39.67,1,0,1.42L167,222.2A2.7,2.7,0,0,1,164.52,222.21Zm-6.19,3.57-2.39-1.38a.75.75,0,0,1,0-1.42l2.4-1.39a2.75,2.75,0,0,1,2.47,0L163.2,223c.68.39.68,1,0,1.42l-2.41,1.38A2.7,2.7,0,0,1,158.33,225.78Zm-6.18,3.57L149.76,228c-.68-.39-.67-1,0-1.42l2.4-1.39a2.73,2.73,0,0,1,2.46,0l2.39,1.38c.68.39.67,1,0,1.42l-2.4,1.38A2.7,2.7,0,0,1,152.15,229.35ZM146,232.92l-2.38-1.38a.75.75,0,0,1,0-1.42l2.41-1.39a2.73,2.73,0,0,1,2.46,0l2.38,1.38c.68.39.68,1,0,1.42l-2.4,1.38A2.72,2.72,0,0,1,146,232.92Zm-6.18,3.57-2.39-1.38c-.68-.39-.67-1,0-1.42l2.4-1.39a2.73,2.73,0,0,1,2.46,0l2.39,1.38c.68.39.68,1,0,1.42l-2.4,1.39A2.73,2.73,0,0,1,139.78,236.49Zm-1.32,2.18-2.4,1.39a2.75,2.75,0,0,1-2.47,0l-2.38-1.38a.75.75,0,0,1,0-1.42l2.4-1.39a2.73,2.73,0,0,1,2.46,0l2.39,1.38A.75.75,0,0,1,138.46,238.67ZM121.33,243l6.1-3.53a2.75,2.75,0,0,1,2.47,0l2.38,1.38a.75.75,0,0,1,0,1.42l-6.1,3.53a2.73,2.73,0,0,1-2.46,0l-2.39-1.38A.75.75,0,0,1,121.33,243Zm90-39.62-11,6.35a3.08,3.08,0,0,1-2.79,0l-2.06-1.19a.85.85,0,0,1,0-1.61l11-6.35a3.06,3.06,0,0,1,2.78,0l2.07,1.2A.84.84,0,0,1,211.36,203.35Zm-15.11,8.72-2.08,1.21a3.09,3.09,0,0,1-2.78,0l-2.07-1.19a.85.85,0,0,1,0-1.61l2.08-1.2a3.06,3.06,0,0,1,2.78,0l2.07,1.2C197,210.91,197,211.63,196.25,212.07Zm-6.18,3.57L188,216.85a3.09,3.09,0,0,1-2.78,0l-2.07-1.19c-.77-.45-.77-1.16,0-1.61l2.08-1.2a3.06,3.06,0,0,1,2.78,0l2.07,1.2A.84.84,0,0,1,190.07,215.64Zm-6.19,3.57-2.08,1.21a3.09,3.09,0,0,1-2.78,0L177,219.23a.85.85,0,0,1,0-1.61l2.08-1.2a3.06,3.06,0,0,1,2.78,0l2.07,1.2C184.66,218.05,184.65,218.77,183.88,219.21Zm-6.18,3.57L175.62,224a3.09,3.09,0,0,1-2.78,0l-2.07-1.19c-.77-.44-.76-1.16,0-1.61l2.08-1.2a3.06,3.06,0,0,1,2.78,0l2.07,1.2A.84.84,0,0,1,177.7,222.78Zm-6.18,3.58-2.09,1.2a3.09,3.09,0,0,1-2.78,0l-2.07-1.19a.85.85,0,0,1,0-1.61l2.08-1.2a3.11,3.11,0,0,1,2.79,0l2.06,1.2A.85.85,0,0,1,171.52,226.36Zm-6.19,3.57-2.08,1.2a3.09,3.09,0,0,1-2.78,0l-2.07-1.19c-.77-.44-.76-1.16,0-1.61l2.08-1.2a3.06,3.06,0,0,1,2.78,0l2.07,1.19C166.11,228.76,166.1,229.48,165.33,229.93Zm-6.18,3.57-2.08,1.2a3.11,3.11,0,0,1-2.79,0l-2.06-1.19a.85.85,0,0,1,0-1.61l2.09-1.2a3.06,3.06,0,0,1,2.78,0l2.07,1.19A.85.85,0,0,1,159.15,233.5ZM153,237.07l-2.08,1.2a3.06,3.06,0,0,1-2.78,0L146,237.08a.85.85,0,0,1,0-1.61l2.08-1.2a3.06,3.06,0,0,1,2.78,0l2.07,1.19C153.74,235.9,153.73,236.62,153,237.07Zm-6.18,3.57-2.08,1.2a3.06,3.06,0,0,1-2.78,0l-2.07-1.19c-.77-.44-.76-1.16,0-1.61l2.08-1.2a3.06,3.06,0,0,1,2.78,0l2.07,1.19A.85.85,0,0,1,146.78,240.64Zm-6.19,3.57-2.08,1.2a3.06,3.06,0,0,1-2.78,0l-2.07-1.19a.85.85,0,0,1,0-1.61l2.08-1.2a3.08,3.08,0,0,1,2.79,0l2.06,1.19C141.37,243,141.37,243.76,140.59,244.21Zm-13.24,2,2.08-1.2a3.06,3.06,0,0,1,2.78,0l2.07,1.19c.77.44.76,1.16,0,1.61l-2.08,1.2a3.06,3.06,0,0,1-2.78,0l-2.07-1.19A.85.85,0,0,1,127.35,246.26Zm80.07-39.61,4.82-2.79a3.11,3.11,0,0,1,2.79,0l2.06,1.19a.85.85,0,0,1,0,1.61l-4.83,2.79a3.09,3.09,0,0,1-2.78,0l-2.07-1.19C206.64,207.81,206.65,207.1,207.42,206.65Zm-6.19,3.57,2.08-1.2a3.08,3.08,0,0,1,2.79,0l2.06,1.2a.84.84,0,0,1,0,1.6L206.07,213a3.09,3.09,0,0,1-2.78,0l-2.07-1.19A.85.85,0,0,1,201.23,210.22Zm-6.18,3.57,2.08-1.2a3.06,3.06,0,0,1,2.78,0l2.07,1.19c.77.44.76,1.16,0,1.61l-2.08,1.2a3.09,3.09,0,0,1-2.78,0L195,215.4C194.27,215,194.28,214.24,195.05,213.79Zm-43.29,25L191,216.16a3.06,3.06,0,0,1,2.78,0l2.07,1.19a.85.85,0,0,1,0,1.61L156.6,241.58a3.09,3.09,0,0,1-2.78,0l-2.07-1.2A.85.85,0,0,1,151.76,238.78Zm-6.18,3.58,2.08-1.21a3.09,3.09,0,0,1,2.78,0l2.07,1.19a.85.85,0,0,1,0,1.61l-2.08,1.2a3.06,3.06,0,0,1-2.78,0l-2.07-1.2C144.8,243.52,144.81,242.8,145.58,242.36Zm-6.19,3.57,2.08-1.21a3.09,3.09,0,0,1,2.78,0l2.07,1.19c.77.45.76,1.16,0,1.61l-2.08,1.2a3.06,3.06,0,0,1-2.78,0l-2.07-1.2A.84.84,0,0,1,139.39,245.93Zm-6.31,3.64,2.08-1.2a3.06,3.06,0,0,1,2.78,0l2.07,1.2c.77.44.76,1.16,0,1.6l-2.08,1.21a3.09,3.09,0,0,1-2.78,0l-2.07-1.19C132.3,250.73,132.31,250,133.08,249.57Z" transform="translate(-26.7 -22.3)"/><path class="cls-2" d="M99.29,232.64l81.92-47.33c3.17-1.83,5.75-6.74,5.75-11V110.07c0-4.22-2.58-6.17-5.75-4.34L99.29,153.06c-3.17,1.83-5.74,6.74-5.74,11V228.3C93.55,232.53,96.12,234.47,99.29,232.64Z" transform="translate(-26.7 -22.3)"/><path class="cls-9" d="M98.55,229.34l81.05-46.82a9.76,9.76,0,0,0,4.13-8.18V109.76a1,1,0,0,0-1.53-.87l-.18.1L100.9,155.85c-3,1.75-4.13,4.86-4.13,8.18v64.43a1.1,1.1,0,0,0,1.65.95Z" transform="translate(-26.7 -22.3)"/><path class="cls-38" d="M100.9,155.85,182,109l.18-.1a1,1,0,0,1,1.53.87v64.58a9.76,9.76,0,0,1-4.13,8.18l-81,46.82-.13.07a1.1,1.1,0,0,1-1.65-.95V164C96.77,160.71,97.87,157.6,100.9,155.85Zm-3.48,72.61a.45.45,0,0,0,.45.45.46.46,0,0,0,.23-.06L179.28,182a9.1,9.1,0,0,0,3.81-7.62V109.76a.38.38,0,0,0-.38-.37.45.45,0,0,0-.19,0l-81.29,47c-3.15,1.81-3.81,5.15-3.81,7.62Z" transform="translate(-26.7 -22.3)"/><path class="cls-8" d="M97.66,152.19l81.93-47.32a3.88,3.88,0,0,1,3.36-.5c.12,0,1.72.9,1.83,1h0a3.76,3.76,0,0,0-3.58.39L99.29,153.06c-3.17,1.83-5.74,6.74-5.74,11V228.3c0,2.64,1,4.38,2.52,4.88a.91.91,0,0,1-.5-.17c-.07,0-1.81-1-1.88-1.07-1.09-.76-1.77-2.33-1.77-4.51V163.17C91.92,158.94,94.49,154,97.66,152.19Z" transform="translate(-26.7 -22.3)"/><path class="cls-42" d="M97.66,152.19l81.93-47.32a3.88,3.88,0,0,1,3.36-.5c.12,0,1.72.9,1.83,1h0a3.76,3.76,0,0,0-3.58.39L99.29,153.06Z" transform="translate(-26.7 -22.3)"/><path class="cls-39" d="M99,152.92l81.92-47.33a3.83,3.83,0,0,1,3.46-.44,4.23,4.23,0,0,0-2.77.65L99.7,153.13C96.53,155,94,159.87,94,164.1v64.27c0,2.49.9,4.18,2.29,4.78-1.78-.28-3-2.1-3-5V163.89C93.27,159.66,95.84,154.75,99,152.92Z" transform="translate(-26.7 -22.3)"/><path class="cls-5" d="M245.84,255.28c0,3.89,5.41,7,12.08,7s12.07-3.15,12.07-7-5.4-7-12.07-7S245.84,251.4,245.84,255.28Z" transform="translate(-26.7 -22.3)"/><path class="cls-2" d="M245.24,239.84H270.6l-2.54,14.65h0v.09c0,3.26-4.54,5.9-10.14,5.9s-10.15-2.64-10.15-5.9c0,0,0-.06,0-.09h0Z" transform="translate(-26.7 -22.3)"/><ellipse class="cls-4" cx="231.22" cy="217.54" rx="12.65" ry="7.37"/><path class="cls-35" d="M245.84,235.62H270v3.79h0v.1c0,3.88-5.4,7-12.07,7s-12.08-3.15-12.08-7v-.1h0Z" transform="translate(-26.7 -22.3)"/><g class="cls-43"><path class="cls-29" d="M254.22,246.2l-.34-.07V237.2h.34Z" transform="translate(-26.7 -22.3)"/><path class="cls-29" d="M252.7,245.84l-.34-.09V237.2h.34Z" transform="translate(-26.7 -22.3)"/><path class="cls-29" d="M251.18,245.34l-.34-.14v-8h.34Z" transform="translate(-26.7 -22.3)"/><path class="cls-29" d="M255.73,246.42l-.33,0V237.2h.33Z" transform="translate(-26.7 -22.3)"/><path class="cls-29" d="M248.15,243.63l-.34-.28v-6.54h.34Z" transform="translate(-26.7 -22.3)"/><path class="cls-29" d="M246.63,242a4.42,4.42,0,0,1-.34-.6v-6.12h.34Z" transform="translate(-26.7 -22.3)"/><path class="cls-29" d="M249.67,244.63l-.34-.18V237.2h.34Z" transform="translate(-26.7 -22.3)"/><path class="cls-29" d="M257.25,246.52h-.34V237.2h.34Z" transform="translate(-26.7 -22.3)"/><path class="cls-29" d="M258.77,246.51h-.34V237.2h.34Z" transform="translate(-26.7 -22.3)"/><path class="cls-29" d="M261.8,246.16l-.34.07v-9h.34Z" transform="translate(-26.7 -22.3)"/><path class="cls-29" d="M260.28,246.4l-.33,0V237.2h.33Z" transform="translate(-26.7 -22.3)"/><path class="cls-29" d="M263.32,245.79l-.34.09V237.2h.34Z" transform="translate(-26.7 -22.3)"/><path class="cls-29" d="M269.39,241.7a6,6,0,0,1-.34.53v-7h.34Z" transform="translate(-26.7 -22.3)"/><path class="cls-29" d="M267.87,243.48l-.34.27v-6.94h.34Z" transform="translate(-26.7 -22.3)"/><path class="cls-29" d="M264.84,245.26l-.34.14v-8.2h.34Z" transform="translate(-26.7 -22.3)"/><path class="cls-29" d="M266.35,244.53l-.34.18V237.2h.34Z" transform="translate(-26.7 -22.3)"/></g><path class="cls-12" d="M245.84,235.28c0,3.88,5.41,7,12.08,7s12.07-3.15,12.07-7-5.4-7-12.07-7S245.84,231.4,245.84,235.28Z" transform="translate(-26.7 -22.3)"/><path class="cls-39" d="M257.92,242.12c6.52,0,11.83-3,12.05-6.78a1.94,1.94,0,0,1,0,.24c0,3.88-5.41,7-12.07,7s-12.08-3.15-12.08-7c0-.08,0-.16,0-.24C246.08,239.11,251.39,242.12,257.92,242.12Z" transform="translate(-26.7 -22.3)"/><path class="cls-35" d="M269.4,246.75l-1,5.76c-2.28,2-6.12,3.24-10.48,3.24a20.78,20.78,0,0,1-4.71-.53v-4.73a20.78,20.78,0,0,0,4.71.53C263,251,267.38,249.27,269.4,246.75Z" transform="translate(-26.7 -22.3)"/><path class="cls-5" d="M275.32,254.32c0,3.88,5.4,7,12.07,7s12.08-3.15,12.08-7-5.41-7-12.08-7S275.32,250.43,275.32,254.32Z" transform="translate(-26.7 -22.3)"/><path class="cls-2" d="M274.71,238.87h25.36l-2.53,14.66h0s0,.05,0,.08c0,3.26-4.54,5.9-10.15,5.9s-10.14-2.64-10.14-5.9v-.08h0Z" transform="translate(-26.7 -22.3)"/><ellipse class="cls-4" cx="260.7" cy="216.57" rx="12.65" ry="7.37"/><path class="cls-14" d="M275.32,234.65h24.15v3.79h0v.1c0,3.88-5.41,7-12.08,7s-12.07-3.15-12.07-7v-.1h0Z" transform="translate(-26.7 -22.3)"/><g class="cls-43"><path class="cls-16" d="M283.7,245.23l-.34-.07v-8.93h.34Z" transform="translate(-26.7 -22.3)"/><path class="cls-16" d="M282.18,244.87l-.34-.09v-8.55h.34Z" transform="translate(-26.7 -22.3)"/><path class="cls-16" d="M280.66,244.38l-.34-.15v-8h.34Z" transform="translate(-26.7 -22.3)"/><path class="cls-16" d="M285.21,245.45l-.34,0v-9.18h.34Z" transform="translate(-26.7 -22.3)"/><path class="cls-16" d="M277.63,242.66l-.34-.28v-6.54h.34Z" transform="translate(-26.7 -22.3)"/><path class="cls-16" d="M276.11,241a5,5,0,0,1-.34-.59V234.3h.34Z" transform="translate(-26.7 -22.3)"/><path class="cls-16" d="M279.14,243.66l-.33-.18v-7.25h.33Z" transform="translate(-26.7 -22.3)"/><path class="cls-16" d="M286.73,245.55h-.34v-9.31h.34Z" transform="translate(-26.7 -22.3)"/><path class="cls-16" d="M288.25,245.54h-.34v-9.32h.34Z" transform="translate(-26.7 -22.3)"/><path class="cls-16" d="M291.28,245.19l-.34.07v-9h.34Z" transform="translate(-26.7 -22.3)"/><path class="cls-16" d="M289.76,245.43c-.11,0-.22,0-.34,0v-9.23h.34Z" transform="translate(-26.7 -22.3)"/><path class="cls-16" d="M292.8,244.82l-.34.09v-8.68h.34Z" transform="translate(-26.7 -22.3)"/><path class="cls-16" d="M298.87,240.73c-.11.18-.22.36-.34.53v-7h.34Z" transform="translate(-26.7 -22.3)"/><path class="cls-16" d="M297.35,242.52l-.34.26v-6.94h.34Z" transform="translate(-26.7 -22.3)"/><path class="cls-16" d="M294.31,244.3l-.33.13v-8.2h.33Z" transform="translate(-26.7 -22.3)"/><path class="cls-16" d="M295.83,243.56a3.65,3.65,0,0,1-.34.18v-7.51h.34Z" transform="translate(-26.7 -22.3)"/></g><path class="cls-21" d="M275.32,234.31c0,3.88,5.4,7,12.07,7s12.08-3.15,12.08-7-5.41-7-12.08-7S275.32,230.43,275.32,234.31Z" transform="translate(-26.7 -22.3)"/><path class="cls-39" d="M287.39,241.15c6.53,0,11.84-3,12.06-6.78,0,.08,0,.16,0,.24,0,3.89-5.41,7-12.08,7s-12.07-3.14-12.07-7a1.94,1.94,0,0,1,0-.24C275.56,238.14,280.87,241.15,287.39,241.15Z" transform="translate(-26.7 -22.3)"/><path class="cls-14" d="M298.88,245.78l-1,5.76c-2.28,2-6.13,3.24-10.49,3.24a20.75,20.75,0,0,1-4.7-.53v-4.73a20.75,20.75,0,0,0,4.7.53C292.48,250.05,296.86,248.3,298.88,245.78Z" transform="translate(-26.7 -22.3)"/><path class="cls-5" d="M262.64,269.47c0,3.89,5.41,7,12.08,7s12.07-3.14,12.07-7-5.4-7-12.07-7S262.64,265.59,262.64,269.47Z" transform="translate(-26.7 -22.3)"/><path class="cls-2" d="M262,254H287.4l-2.54,14.65h0v.08c0,3.27-4.54,5.91-10.14,5.91s-10.15-2.64-10.15-5.91c0,0,0-.05,0-.08h0Z" transform="translate(-26.7 -22.3)"/><ellipse class="cls-4" cx="248.02" cy="231.73" rx="12.65" ry="7.37"/><path class="cls-13" d="M262.64,249.8h24.15v3.8h0v.09c0,3.89-5.4,7-12.07,7s-12.08-3.15-12.08-7a.28.28,0,0,1,0-.09h0Z" transform="translate(-26.7 -22.3)"/><g class="cls-43"><path class="cls-23" d="M271,260.39l-.34-.07v-8.93H271Z" transform="translate(-26.7 -22.3)"/><path class="cls-23" d="M269.5,260l-.34-.1v-8.54h.34Z" transform="translate(-26.7 -22.3)"/><path class="cls-23" d="M268,259.53l-.33-.14v-8H268Z" transform="translate(-26.7 -22.3)"/><path class="cls-23" d="M272.54,260.61l-.34,0v-9.18h.34Z" transform="translate(-26.7 -22.3)"/><path class="cls-23" d="M265,257.82l-.34-.28V251H265Z" transform="translate(-26.7 -22.3)"/><path class="cls-23" d="M263.43,256.18a5.82,5.82,0,0,1-.34-.6v-6.12h.34Z" transform="translate(-26.7 -22.3)"/><path class="cls-23" d="M266.47,258.82l-.34-.18v-7.25h.34Z" transform="translate(-26.7 -22.3)"/><path class="cls-23" d="M274.05,260.71h-.34v-9.31h.34Z" transform="translate(-26.7 -22.3)"/><path class="cls-23" d="M275.57,260.7h-.34v-9.32h.34Z" transform="translate(-26.7 -22.3)"/><path class="cls-23" d="M278.6,260.35l-.34.07v-9h.34Z" transform="translate(-26.7 -22.3)"/><path class="cls-23" d="M277.09,260.59l-.34,0v-9.23h.34Z" transform="translate(-26.7 -22.3)"/><path class="cls-23" d="M280.12,260l-.34.09v-8.68h.34Z" transform="translate(-26.7 -22.3)"/><path class="cls-23" d="M286.19,255.88a3.77,3.77,0,0,1-.34.54v-7h.34Z" transform="translate(-26.7 -22.3)"/><path class="cls-23" d="M284.67,257.67l-.34.27V251h.34Z" transform="translate(-26.7 -22.3)"/><path class="cls-23" d="M281.64,259.45l-.34.14v-8.2h.34Z" transform="translate(-26.7 -22.3)"/><path class="cls-23" d="M283.15,258.72l-.33.18v-7.51h.33Z" transform="translate(-26.7 -22.3)"/></g><path class="cls-28" d="M262.64,249.47c0,3.88,5.41,7,12.08,7s12.07-3.15,12.07-7-5.4-7-12.07-7S262.64,245.58,262.64,249.47Z" transform="translate(-26.7 -22.3)"/><path class="cls-39" d="M274.72,256.31c6.52,0,11.83-3,12-6.79a2.29,2.29,0,0,1,0,.25c0,3.88-5.4,7-12.07,7s-12.08-3.15-12.08-7c0-.08,0-.16,0-.25C262.89,253.29,268.19,256.31,274.72,256.31Z" transform="translate(-26.7 -22.3)"/><path class="cls-13" d="M286.2,260.94l-1,5.76c-2.28,1.95-6.12,3.23-10.48,3.23a20.78,20.78,0,0,1-4.71-.53v-4.72a20.78,20.78,0,0,0,4.71.53C279.81,265.21,284.18,263.46,286.2,260.94Z" transform="translate(-26.7 -22.3)"/><path class="cls-14" d="M131.69,166c0,6.11,4.33,8.58,9.66,5.5S151,161,151,154.83s-4.32-8.58-9.65-5.5S131.69,159.86,131.69,166Z" transform="translate(-26.7 -22.3)"/><path class="cls-35" d="M129.66,171.18c-4.61,5.73-6.19,13.41-3.53,17.17s8.57,2.17,13.19-3.56,6.19-13.41,3.53-17.16S134.28,165.46,129.66,171.18Z" transform="translate(-26.7 -22.3)"/><ellipse class="cls-13" cx="148.2" cy="170.07" rx="13.61" ry="7.86" transform="translate(-100.12 189.88) rotate(-59.69)"/></g></g></svg>