<svg xmlns="http://www.w3.org/2000/svg" xmlns:xlink="http://www.w3.org/1999/xlink" viewBox="0 0 2904.84 2806.02"><defs><style>.cls-1{isolation:isolate;}.cls-2{fill:#f4f7fa;}.cls-22,.cls-3{opacity:0.5;}.cls-4{fill:url(#linear-gradient);}.cls-5{fill:url(#linear-gradient-2);}.cls-6{fill:url(#linear-gradient-3);}.cls-7{fill:url(#linear-gradient-4);}.cls-8{fill:url(#linear-gradient-5);}.cls-9{fill:url(#linear-gradient-6);}.cls-10{fill:url(#linear-gradient-7);}.cls-11{fill:url(#linear-gradient-8);}.cls-12{fill:url(#linear-gradient-9);}.cls-13{fill:#b7c0ce;}.cls-14,.cls-22{fill:#fff;}.cls-15{fill:#d8dee8;}.cls-16{fill:url(#linear-gradient-10);}.cls-17,.cls-20{opacity:0.3;}.cls-17{mix-blend-mode:soft-light;}.cls-18{fill:url(#linear-gradient-11);}.cls-19{fill:url(#linear-gradient-12);}.cls-20{mix-blend-mode:multiply;fill:url(#linear-gradient-13);}.cls-21{fill:url(#linear-gradient-14);}.cls-23{fill:url(#linear-gradient-15);}</style><linearGradient id="linear-gradient" x1="979.37" y1="687.13" x2="2590.07" y2="687.13" gradientUnits="userSpaceOnUse"><stop offset="0" stop-color="#e38ddd"/><stop offset="1" stop-color="#9571f6"/></linearGradient><linearGradient id="linear-gradient-2" x1="2060.64" y1="1195.01" x2="3193.66" y2="1195.01" xlink:href="#linear-gradient"/><linearGradient id="linear-gradient-3" x1="1793.57" y1="1985.1" x2="3007.72" y2="1985.1" xlink:href="#linear-gradient"/><linearGradient id="linear-gradient-4" x1="499.14" y1="1657.67" x2="2288.55" y2="1657.67" xlink:href="#linear-gradient"/><linearGradient id="linear-gradient-5" x1="2852.32" y1="906.3" x2="2967.74" y2="906.3" xlink:href="#linear-gradient"/><linearGradient id="linear-gradient-6" x1="500.9" y1="2130.88" x2="706.66" y2="2130.88" xlink:href="#linear-gradient"/><linearGradient id="linear-gradient-7" x1="2720.11" y1="661.56" x2="2860.85" y2="661.56" xlink:href="#linear-gradient"/><linearGradient id="linear-gradient-8" x1="394.58" y1="1122.21" x2="652.61" y2="1122.21" xlink:href="#linear-gradient"/><linearGradient id="linear-gradient-9" x1="4849.22" y1="950.39" x2="4996.96" y2="950.39" gradientTransform="translate(-1662.47 -1469.86) rotate(20.36)" xlink:href="#linear-gradient"/><linearGradient id="linear-gradient-10" x1="510.86" y1="1339.15" x2="2406.66" y2="1339.15" gradientUnits="userSpaceOnUse"><stop offset="0" stop-color="#ff9085"/><stop offset="1" stop-color="#fb6fbb"/></linearGradient><linearGradient id="linear-gradient-11" x1="1198.82" y1="1813.92" x2="1004.12" y2="2832.56" gradientUnits="userSpaceOnUse"><stop offset="0" stop-color="#aa80f9"/><stop offset="1" stop-color="#6165d7"/></linearGradient><linearGradient id="linear-gradient-12" x1="656.42" y1="2589.84" x2="1423.44" y2="2874.51" xlink:href="#linear-gradient"/><linearGradient id="linear-gradient-13" x1="569.4" y1="2911.53" x2="1522.68" y2="2911.53" xlink:href="#linear-gradient"/><linearGradient id="linear-gradient-14" x1="3245.81" y1="2393.19" x2="2908.73" y2="3036.39" xlink:href="#linear-gradient-11"/><linearGradient id="linear-gradient-15" x1="3105.29" y1="2840.01" x2="2711.05" y2="3312.62" xlink:href="#linear-gradient-10"/></defs><title>video</title><g class="cls-1"><g id="Illustration"><path class="cls-2" d="M1641.94,455.24c-375.21,6.28-955.73,141.49-1122.82,489-58.36,121.36-54.41,299.78-46.51,656.6,2.32,104.88,6.17,257.75,33.22,447.42,56.18,394,94.43,662.24,239.18,818.42,362.7,391.36,1672.88,380,2232.36-324.51,305.2-384.34,352.15-931.08,73.08-1382.94C2743.2,661.72,2144.25,446.83,1641.94,455.24Z" transform="translate(-394.58 -455)"/><g class="cls-3"><path class="cls-4" d="M2486.63,627.58,1131.66,507c-85.57-7.61-153,43.14-152.28,113.31l.44,40.57c.76,70.14,70.49,130.67,156,135.21l1353.42,71.88c58,3.07,101.29-40.25,100.86-96.57l-.25-32.58C2589.38,682.43,2544.66,632.75,2486.63,627.58Z" transform="translate(-394.58 -455)"/><path class="cls-5" d="M3193.49,1196.73c-.29-45.45-33.68-83.28-76.07-84.54l-952.69-28.35c-57.61-1.71-104.55,40.71-104.08,94.77l.26,30c.47,54,48.56,97.77,106.14,97.65l951.5-1.86c42.36-.08,75.4-37,75.11-82.43Z" transform="translate(-394.58 -455)"/><path class="cls-6" d="M3007.54,1904.15c-.33-46.79-37.22-81.65-82.32-77.81L1906,1913.21c-61.94,5.28-112.9,55-112.38,111l.28,31c.52,55.95,52,95.33,113.9,88.1l1018.8-119c45.07-5.27,81.48-47.4,81.15-94.18Z" transform="translate(-394.58 -455)"/><path class="cls-7" d="M2172.51,1484.5,671.39,1525.62c-95.64,2.62-173.12,64.88-172.24,139l.5,42.83c.87,74,79.37,129.06,174.92,123l1500.64-94.83c63.52-4,113.82-54.88,113.33-113.69l-.28-34C2287.77,1529.08,2236.09,1482.76,2172.51,1484.5Z" transform="translate(-394.58 -455)"/><path class="cls-8" d="M2967.74,909.86c.23,32.95-25,58.33-56.76,56.68-32-1.67-58.42-30.23-58.66-63.79s25.78-58.91,57.81-56.63C2941.85,848.38,2967.51,876.91,2967.74,909.86Z" transform="translate(-394.58 -455)"/><path class="cls-9" d="M706.66,2120.6c.49,43.73-44.28,84.13-100.69,90.31-57.18,6.27-104.53-24.91-105.06-69.72s46-85.41,103.2-90.59C660.55,2045.49,706.16,2076.86,706.66,2120.6Z" transform="translate(-394.58 -455)"/><path class="cls-10" d="M2791.78,733.7c-39-3.41-71.37-38.9-71.67-79.08s31.58-69.35,70.62-65.06c38.57,4.24,69.83,39.64,70.11,79S2830.33,737.07,2791.78,733.7Zm-.9-122.78c-27.42-2.92-49.73,17.61-49.52,45.8s22.85,53.15,50.26,55.63c27.18,2.47,49-18.11,48.76-45.86S2818.07,613.82,2790.88,610.92Z" transform="translate(-394.58 -455)"/><path class="cls-11" d="M652.61,1209l-258-.3,129.73-173.24ZM439.7,1188.85l170.43.74-85.36-114.9Z" transform="translate(-394.58 -455)"/><polygon class="cls-12" points="2556.53 1098.72 2720.05 1082.77 2648.46 1230.97 2556.53 1098.72"/></g><path class="cls-13" d="M2854,1098c0-58.56-38.91-108.23-87.76-111L833.61,878.51c-2.32-.13-4.55-.21-6.85-.22-43.57-.26-81.16,20.24-104.33,52.53-14.63,20.4-22.44,45.49-22.44,73v95.35h0V2595.62c0,9.17.22,18,2,26.46.45,2.11.59,4.19,1.15,6.25a116,116,0,0,0,8.94,23.33c16.22,31,45.76,52.9,81.67,59.66a131.92,131.92,0,0,0,40,1.44L2349.07,2533.9h0l417.21-49.54c48.86-5.78,87.76-58.08,87.76-116.64V1174h0Z" transform="translate(-394.58 -455)"/><path class="cls-14" d="M2816.07,987,883.27,878.51c-74.26-4.17-135.22,51.92-135.22,125.33V2595.62c0,73.41,61,125.71,135.22,116.94l1932.8-228.4c48.86-5.78,88.06-57.88,88.06-116.44V1098C2904.13,1039.41,2864.93,989.74,2816.07,987Z" transform="translate(-394.58 -455)"/><path class="cls-2" d="M883.27,2670.66c-50.35,5.74-91.67-30-91.67-79.65V1005.74c0-49.69,41.32-88,91.67-85.33l1932.8,100.8c33.27,1.73,60.14,35.62,60.14,75.54V2370.67c0,39.93-26.87,75.48-60.14,79.28Z" transform="translate(-394.58 -455)"/><path class="cls-15" d="M2816.07,987,883.27,878.51c-74.25-4.17-135.22,51.92-135.22,125.33v95.35L2904.13,1174V1098C2904.13,1039.41,2864.93,989.74,2816.07,987Z" transform="translate(-394.58 -455)"/><path class="cls-14" d="M986.89,1001.68c0,23.49-19.22,41.74-43,40.77s-43.37-21-43.37-44.65S920,955.87,943.87,957,986.89,978.19,986.89,1001.68Z" transform="translate(-394.58 -455)"/><path class="cls-14" d="M1135.2,1008.33a39.84,39.84,0,0,1-41.79,40.22c-23.23-1-42.14-20.64-42.14-44a39.84,39.84,0,0,1,42.14-40.21C1116.53,965.49,1135.2,985.18,1135.2,1008.33Z" transform="translate(-394.58 -455)"/><path class="cls-14" d="M1279.36,1014.8c0,22.83-18.16,40.6-40.63,39.68s-41-20.33-41-43.34,18.38-40.77,41-39.66S1279.36,992,1279.36,1014.8Z" transform="translate(-394.58 -455)"/><polygon class="cls-16" points="2406.66 1638.21 510.86 1775.72 510.86 902.58 2406.66 922.72 2406.66 1638.21"/><polygon class="cls-15" points="2406.66 1761.68 510.86 1926.39 510.86 1859.48 2406.66 1706.85 2406.66 1761.68"/><polygon class="cls-15" points="2406.66 1896.17 510.86 2090.52 510.86 2023.61 2406.66 1841.35 2406.66 1896.17"/><polygon class="cls-15" points="1591.71 784.14 510.86 757.75 510.86 824.66 1591.71 844.16 1591.71 784.14"/><polygon class="cls-15" points="2311.08 801.71 2311.08 857.14 2406.66 858.87 2406.66 804.04 2311.08 801.71"/><g class="cls-17"><path class="cls-14" d="M2124.11,1718c-221.7-335.78-621.94-220.26-886.6-612-48.72-72.11-82-145.64-104.83-213.55l-249.41-14c-74.25-4.17-135.22,51.92-135.22,125.33V2595.62c0,73.41,61,125.71,135.22,116.94L2398.56,2533.5A1154.83,1154.83,0,0,1,2287,2327.37C2161.43,2026.47,2254.67,1915.76,2124.11,1718Z" transform="translate(-394.58 -455)"/></g><path class="cls-14" d="M1709.07,2040v-556.2c0-35.71,28-59.16,52.1-43.83l416.89,265.24c25.22,16,25.22,66,0,83.6l-416.89,291.71C1737.07,2097.37,1709.07,2075.7,1709.07,2040Z" transform="translate(-394.58 -455)"/><path class="cls-18" d="M846.39,2405.72l143.29,201.93c-161.12,99.21-317.91,195.21-479,294.43,85.68,115.49,171.35,243.45,257,358.94,141.69-125.41,279.05-260.07,420.73-385.48l159.74,208.1,221.73-698.72Z" transform="translate(-394.58 -455)"/><path class="cls-19" d="M1610,2363.07l-87.29,238.36-159.09,434.35-135.08-182.09c-141.71,125.41-279.07,247.58-420.75,373-79-106.5-159.16-214.71-238.36-321.47l-20-27C710.52,2779,866,2682.35,1027.1,2583.14L894.69,2403.67Z" transform="translate(-394.58 -455)"/><path class="cls-20" d="M1522.68,2601.43l-159.09,434.35-135.08-182.09c-141.71,125.41-279.07,247.58-420.75,373-79-106.5-159.16-214.71-238.36-321.47,55.55-45.92,141-84.45,263.62-61.52,253.31,47.38,262.42,1.82,368.12-78.36C1288.54,2699,1400.87,2569.18,1522.68,2601.43Z" transform="translate(-394.58 -455)"/><path class="cls-21" d="M3290.85,2827c-16.61-13.44-60.34,4.68-87,33.76-37.71,41.14-31.24,93.18-60.72,103.23-13.23,4.52-28.5-1.24-34.77-11.49-14.32-23.41,16.11-73.21,36.77-99.19,45.54-57.29,83.45-48.49,102.36-90.69,14.24-31.76,11.09-78.06-16.56-99.37-22.49-17.33-59.68-17-83.74.88-47.84,35.59-29.21,130.24-53.28,136.16-11,2.69-23.23-15.06-28.4-29.16-10.52-28.7,3-56.79,18.39-95.83,31.47-80,46.77-118.91,35.38-146.81-11.08-27.16-42.73-45.05-74.54-44.42-36.58.72-75.34,26-87.27,57.17-15.56,40.67,25.57,61.58,19.12,137.85-.87,10.31-5.31,53.48-20,57.63-12.59,3.55-27.1-23.05-34.1-35.9-22.9-42-12.88-62.95-30.85-78.2-19.86-16.86-60.61-15.34-84.38,3.35-35.69,28.07-30.92,93.22-15.79,133.24,34.51,91.25,140.37,102.3,129.44,146.07-4.25,17-24.21,32.11-39.38,34-14.78,1.82-23.12-9.16-56.56-44.42-40.39-42.57-47.57-46.92-56.73-45.68-21.49,2.92-47,35.91-52.22,66.51-9.17,54.16,44.38,106,97.87,125.62,52.69,19.34,97.61,4.58,112.36,38.21,5.08,11.58,6.8,29.27-1.33,39.88-16.49,21.53-66.46,5.16-76.14,2-52.42-17.17-64.14-49.87-89.3-40.46-17.14,6.42-32.85,29.4-35.46,49.12-7.08,53.55,80.49,92.45,142.31,101.9,56.8,8.68,109.23-4.86,148.15-20.81,166.73-85.56,228.09-191.41,251-241.15C3284,2929.68,3314.37,2846.05,3290.85,2827Z" transform="translate(-394.58 -455)"/><path class="cls-22" d="M3024.21,3186.12c-13.78-38.23-22-103.62-23.17-184.12-1-68.07,3.24-140.54,11-189.13,14-87.29,13.14-210.27,13.13-211.5l7.29-.06c0,1.24.86,124.83-13.23,212.71-22.81,142.34-8.24,314,11.8,369.63Z" transform="translate(-394.58 -455)"/><path class="cls-23" d="M3166,3063c-17.19-.43-23.53,21-63.24,48.1-16.51,11.29-41.58,28.43-52.67,19.53-7.76-6.23-6.33-23.41-2.72-35.21,9.72-31.85,38.31-34.06,66.94-67.47,22-25.7,45-71.05,31.22-96.05-9.8-17.74-37.85-24.88-55.15-14.29-15.62,9.55-11.3,26.64-31.34,54-15.36,21-42.53,44.67-56.14,38.4-11.93-5.51-11.86-33.38-6.4-54.15,12.15-46.17,49.84-52.42,59-93,5.67-25-1.28-55.32-18.59-62-20-7.64-53.51,16.27-70,43.62-23.63,39.09-4,70.9-29.74,95.86-12.61,12.21-32.25,19.11-42,12.6-11.64-7.79-6.5-33-1.9-54.35,12.22-56.81,34.54-69.23,33.07-98.28-1.45-28.49-25-56.48-49.64-56.18-38.44.48-76.86,70.55-92.69,114.65-32.72,91.15-4.63,170.79,10,212.35a382.17,382.17,0,0,0,106.48,158.89,99.09,99.09,0,0,0,93.62,21.24c70.11-20.4,118.52-50.36,148.18-72.33,51-37.75,56.55-59.32,56.78-71.45C3199.46,3085.81,3183.3,3063.42,3166,3063Z" transform="translate(-394.58 -455)"/></g></g></svg>