<svg id="Layer_1" data-name="Layer 1" xmlns="http://www.w3.org/2000/svg" viewBox="0 0 2274.98 1541.91"><defs><style>.cls-1{fill:#fdd089;}.cls-2{fill:#184655;}.cls-3{fill:#f7cc7f;}.cls-4{fill:#355389;}.cls-5{fill:#466eb6;}.cls-6{fill:#9bc1f9;}.cls-7{fill:#86b1f2;}.cls-8{fill:#f47458;}.cls-9{fill:#13375b;}.cls-10{fill:#fae0b2;}.cls-11{fill:#96d9c9;}.cls-12{fill:#b75742;}.cls-13{fill:#50bfa5;}</style></defs><title>writing</title><ellipse class="cls-1" cx="2098.91" cy="669.61" rx="176.07" ry="186.53"/><ellipse class="cls-1" cx="1559.98" cy="983.65" rx="584.93" ry="558.27"/><path class="cls-2" d="M1923.69,606.49a5.82,5.82,0,0,1-2.44-11.1l207.82-95.69a5.81,5.81,0,1,1,4.87,10.56L1926.11,606A5.64,5.64,0,0,1,1923.69,606.49Z" transform="translate(-1225.02 -298.18)"/><path class="cls-2" d="M1907.41,980.88a4.68,4.68,0,0,1-.74,0,5.8,5.8,0,0,1-5-6.5l55.81-437.18a5.81,5.81,0,0,1,11.53,1.47l-55.81,437.19A5.82,5.82,0,0,1,1907.41,980.88Z" transform="translate(-1225.02 -298.18)"/><path class="cls-3" d="M2209.08,536.71c-18.68-44.36-58.32-70-88.54-57.29s-39.6,59-20.92,103.37a123.1,123.1,0,0,0,17.2,29.13l101.07-42.54A122.92,122.92,0,0,0,2209.08,536.71Z" transform="translate(-1225.02 -298.18)"/><path class="cls-2" d="M1979.59,584.17a22.87,22.87,0,1,1-22.86-22.87A22.85,22.85,0,0,1,1979.59,584.17Z" transform="translate(-1225.02 -298.18)"/><path class="cls-4" d="M1625.43,1475.19s-198-142.13-225.92-203.74,27.16-55.72,27.16-55.72S1346,1106.16,1366,1069s54.48-19.07,54.48-19.07-29.57-121.7,1.91-130.71c58.62-16.78,110.28,144.09,110.28,144.09s6.2-64.09,31.38-58.8c56.07,11.79,29.42,157.78,29.42,157.78s15.64-54.79,46.65-31C1695.79,1174,1625.43,1475.19,1625.43,1475.19Z" transform="translate(-1225.02 -298.18)"/><path class="cls-5" d="M1646.13,1123.28c-29.4-20.4-49.42,10.85-49.42,10.85s23.17-116.6-32.63-129.62c-29.32-6.85-31.38,58.8-31.38,58.8S1481,902.44,1422.42,919.22l203.65,553.64C1634,1437.87,1693,1155.82,1646.13,1123.28Z" transform="translate(-1225.02 -298.18)"/><path class="cls-6" d="M1571.08,1431s-203.68.07-232-3.22,3-28.58,3-28.58-63.38,2.3-73-13.11,16.22-21.49,16.22-21.49-63.11-18.29-60.1-31.71c5.61-25,75.32-8.71,75.32-8.71s-25.89-12.56-15.37-24.25c15.87-17.62,83.65,30.29,83.65,30.29s-20.82-41.79-10.43-54.22C1398.82,1227.52,1571.08,1431,1571.08,1431Z" transform="translate(-1225.02 -298.18)"/><path class="cls-7" d="M1621.57,1479.76s195.06-37.86,238.18-74.06-9.78-39-9.78-39,115.64-43.79,114.18-79.13-51.1-37.42-51.1-37.42,69-61.82,54.84-91.79c-21.77-46-120.46,41.29-120.46,41.29s2.39-76-28.22-83.37c-46.16-11-86,131.76-86,131.76s-7-34.47-38.75-27.9C1637.53,1231.89,1621.57,1479.76,1621.57,1479.76Z" transform="translate(-1225.02 -298.18)"/><path class="cls-8" d="M1514.15,1660.3h273.74c34.86-39.43,38.36-97.68,37.58-157.26-.39-30.08,12.36-52.38,1.92-78.13l-352.93,4.91a234.47,234.47,0,0,0-14.59,85C1460.61,1571.57,1481.19,1622.74,1514.15,1660.3Z" transform="translate(-1225.02 -298.18)"/><path class="cls-9" d="M3194.18,1654H1289.73a10.92,10.92,0,0,0-10.92,10.92h0a10.92,10.92,0,0,0,10.92,10.92H3194.49a10.93,10.93,0,0,0,10.91-11.45A11.13,11.13,0,0,0,3194.18,1654Z" transform="translate(-1225.02 -298.18)"/><path class="cls-3" d="M2459.56,360.06c40.62-12.6,76.41,31.1,56.22,68.74a32,32,0,0,0-2.85,22.14l5.78,25.76a14,14,0,0,1-9.49,16.39l-15.39,4.77a14,14,0,0,1-17.09-8.15c-9.86-24.65-11.7-34.45-24.67-41.16C2414.13,428.93,2418.92,372.65,2459.56,360.06Z" transform="translate(-1225.02 -298.18)"/><path class="cls-10" d="M2503.65,462.91c-7.22-20.18-14.39-42.67-16.8-51.16a64.7,64.7,0,0,1-23.13,4.34c6.8,16.43,13.24,33.17,19.16,49.88l-2.16.77c-6-17-12.57-34-19.5-50.69-4.81-.18-10.48-.64-13.92-3.92a8.45,8.45,0,0,1-2.53-6.12c.14-5.95,6.92-7.7,11.44-3.92,3,2.5,4.4,6.54,6.56,11.71a62.27,62.27,0,0,0,23.48-4.28c-1.07-4.35-1.51-8.58,0-12.62,5.32-14.19,24.84,4.4,2.73,14,1.87,6.66,9.14,29.78,16.83,51.27ZM2488.4,397.7c-1.27,3.39-.92,7.08,0,10.93,4.79-2.12,7.54-4.63,8.42-7.64C2498.29,395.92,2491.26,390.07,2488.4,397.7Zm-40.14,5.57c-2,1.73-1.32,5.36.62,7.2,2.75,2.63,7.42,3,11.37,3.24-1.71-4.09-3-7.76-5.51-9.86C2453,402.37,2448.48,403.08,2448.26,403.27Z" transform="translate(-1225.02 -298.18)"/><path class="cls-11" d="M2512.81,450.29c.05.22.07.44.12.65l5.78,25.76a14,14,0,0,1-9.49,16.39l-15.39,4.77a14,14,0,0,1-17.09-8.15c-4.38-11-7.18-19-10.08-25.11Z" transform="translate(-1225.02 -298.18)"/><path class="cls-10" d="M2478.83,329l1-26.1a4.57,4.57,0,1,0-9.14-.35l-1,26.11a4.58,4.58,0,0,0,9.15.34Z" transform="translate(-1225.02 -298.18)"/><path class="cls-10" d="M2528.15,366.33,2551.54,352a4.58,4.58,0,1,0-4.79-7.8l-23.4,14.38a4.58,4.58,0,0,0,4.8,7.8Z" transform="translate(-1225.02 -298.18)"/><path class="cls-10" d="M2589.92,429.21a4.58,4.58,0,0,0-2.93-5.77,150,150,0,0,0-27.68-6.21,4.58,4.58,0,0,0-1.15,9.09,140.67,140.67,0,0,1,26,5.82A4.58,4.58,0,0,0,2589.92,429.21Z" transform="translate(-1225.02 -298.18)"/><path class="cls-10" d="M2417.82,358.15a4.58,4.58,0,0,0,.39-6.46,174.15,174.15,0,0,1-20.95-29.27,4.58,4.58,0,0,0-8,4.53,183.86,183.86,0,0,0,22,30.81A4.59,4.59,0,0,0,2417.82,358.15Z" transform="translate(-1225.02 -298.18)"/><path class="cls-10" d="M2408.34,402.21a4.58,4.58,0,0,0-5.29-3.74l-29.27,5.06a4.58,4.58,0,0,0,1.56,9l29.27-5.05A4.58,4.58,0,0,0,2408.34,402.21Z" transform="translate(-1225.02 -298.18)"/><path class="cls-10" d="M2400.4,490.79a4.21,4.21,0,0,0,1-.71,143.36,143.36,0,0,0,20.37-22.95,4.58,4.58,0,0,0-7.46-5.31,134.74,134.74,0,0,1-19.06,21.49,4.58,4.58,0,0,0,5.12,7.48Z" transform="translate(-1225.02 -298.18)"/><rect class="cls-9" x="2133.34" y="1051.39" width="421.41" height="138.85" transform="translate(3463.07 1943.45) rotate(180)"/><rect class="cls-10" x="1958.72" y="1043.45" width="315.18" height="541.72" transform="translate(3007.6 2330.45) rotate(180)"/><rect class="cls-2" x="2089.59" y="1583.83" width="31.98" height="70.82" transform="translate(2986.15 2940.31) rotate(180)"/><rect class="cls-2" x="1912.3" y="1584.93" width="31.98" height="69.69" transform="translate(2631.56 2941.37) rotate(180)"/><path class="cls-4" d="M2993.31,1654.15h33.74c-46.29-30.06-72.83-108.09-86.64-160.36-26.76-100.63-32.81-198.73-32.91-199.52l-45.83,6.69C2876.11,1396.18,2915.24,1581.77,2993.31,1654.15Z" transform="translate(-1225.02 -298.18)"/><rect class="cls-4" x="1785.76" y="1043.45" width="512.54" height="541.72" transform="translate(2859.04 2330.45) rotate(180)"/><rect class="cls-2" x="1786.45" y="1031.43" width="37.72" height="623.47" transform="translate(2385.6 2388.16) rotate(180)"/><path class="cls-12" d="M1779.07,1016.43h326.09c12.45,0,22.55-10.48,22.55-23.39V979.13c0-12.92-10.1-23.39-22.55-23.39H1779.07a46.18,46.18,0,0,1,.6,60Z" transform="translate(-1225.02 -298.18)"/><path class="cls-10" d="M1784.11,962.69H1965c12.46,0,22.55,10.47,22.55,23.39h0c0,12.92-10.09,23.39-22.55,23.39H1784.09A46.4,46.4,0,0,0,1784.11,962.69Z" transform="translate(-1225.02 -298.18)"/><path class="cls-8" d="M1873.77,913.25h271.62a15.27,15.27,0,0,1,15.27,15.27v12.85a15.26,15.26,0,0,1-15.27,15.27H1873.77l.14-.14A31.12,31.12,0,0,0,1873.77,913.25Z" transform="translate(-1225.02 -298.18)"/><path class="cls-10" d="M1878.58,919.68h145.2A15.27,15.27,0,0,1,2039.05,935h0a15.27,15.27,0,0,1-15.27,15.27h-145.2A31.14,31.14,0,0,0,1878.58,919.68Z" transform="translate(-1225.02 -298.18)"/><path class="cls-9" d="M3042.59,864.26h0c-23.08-5-46.23,8-52.1,29.11l-86.23,310.07c-3.07,11-13.86,18.73-26.22,18.73h-263.4a39.74,39.74,0,0,0-39.74,39.74h0a39.74,39.74,0,0,0,38.3,39.71l316.68,11.5c21.08,0,44.61-28.46,49.7-47.28L3075,913C3080.87,891.26,3066.28,869.33,3042.59,864.26Z" transform="translate(-1225.02 -298.18)"/><path class="cls-9" d="M2618.56,1654.15h17.05c15.4-105.91,18.51-230,1.31-390.29l-41.27.84C2623,1423.76,2627.55,1548,2618.56,1654.15Z" transform="translate(-1225.02 -298.18)"/><rect class="cls-2" x="2518.73" y="1025.68" width="44.56" height="630.51" transform="translate(3857.01 2383.7) rotate(180)"/><rect class="cls-2" x="2291.15" y="1031.43" width="42.34" height="623.47" transform="translate(3399.63 2388.16) rotate(180)"/><path class="cls-10" d="M2054.83,703.14s30.35,10.26,42.63,42.24c16.66,43.41-9.11,113-1.74,132.34s42,40.5,42,40.5l78.67-27.9s-27.51-51.93-26.74-69.76-1.94-101.92-34.88-117.42Z" transform="translate(-1225.02 -298.18)"/><path class="cls-9" d="M2158.69,721h-63.56a1.55,1.55,0,0,1,0-3.1h63.56a1.55,1.55,0,0,1,0,3.1Z" transform="translate(-1225.02 -298.18)"/><path class="cls-9" d="M2169.93,733h-65.11a1.55,1.55,0,1,1,0-3.1h65.11a1.55,1.55,0,1,1,0,3.1Z" transform="translate(-1225.02 -298.18)"/><path class="cls-9" d="M2173,746.54h-44.57a1.55,1.55,0,0,1,0-3.1H2173a1.55,1.55,0,0,1,0,3.1Z" transform="translate(-1225.02 -298.18)"/><rect class="cls-9" x="875.03" y="700.26" width="70.27" height="17.31"/><rect class="cls-9" x="1115.3" y="696.64" width="74.92" height="20.8"/><polygon class="cls-9" points="875.28 579.35 851 579.35 851 538.27 872.44 538.27 875.28 579.35"/><path class="cls-5" d="M2116.58,811.13a31.52,31.52,0,1,1-31.52-31.52A31.52,31.52,0,0,1,2116.58,811.13Z" transform="translate(-1225.02 -298.18)"/><path class="cls-9" d="M2101.59,811.13a16.54,16.54,0,1,1-16.53-16.53A16.54,16.54,0,0,1,2101.59,811.13Z" transform="translate(-1225.02 -298.18)"/><path class="cls-9" d="M2142.54,772a12.4,12.4,0,1,1-12.4-12.4A12.4,12.4,0,0,1,2142.54,772Z" transform="translate(-1225.02 -298.18)"/><path class="cls-9" d="M2097.31,876.19l-5.9-8.17c.33-.24,33.66-24.51,40.42-44.43,6.64-19.57-2.12-41.18-2.21-41.4l9.31-3.87c.42,1,10.32,25.28,2.44,48.51C2133.58,849.79,2098.79,875.12,2097.31,876.19Z" transform="translate(-1225.02 -298.18)"/><path class="cls-9" d="M2223.15,772a12.4,12.4,0,1,1-12.4-12.4A12.4,12.4,0,0,1,2223.15,772Z" transform="translate(-1225.02 -298.18)"/><path class="cls-9" d="M2177.92,876.19,2172,868c.33-.24,33.66-24.51,40.42-44.43,6.64-19.57-2.12-41.18-2.21-41.4l9.3-3.87c.43,1,10.33,25.28,2.45,48.51C2214.19,849.79,2179.39,875.12,2177.92,876.19Z" transform="translate(-1225.02 -298.18)"/><rect class="cls-9" x="907.45" y="469.16" width="73.24" height="6.2"/><path class="cls-5" d="M2255.51,814.17c0,15.41-10.87,27.9-24.29,27.9s-24.28-12.49-24.28-27.9,10.87-27.9,24.28-27.9S2255.51,798.76,2255.51,814.17Z" transform="translate(-1225.02 -298.18)"/><rect class="cls-5" x="946.91" y="488.22" width="59.94" height="56.64"/><path class="cls-9" d="M2202.42,814.43c0,15.41-13.19,27.9-29.46,27.9s-29.45-12.49-29.45-27.9,13.19-27.91,29.45-27.91S2202.42,799,2202.42,814.43Z" transform="translate(-1225.02 -298.18)"/><path class="cls-9" d="M2372.61,914c0,3.21-6,5.81-13.37,5.81s-13.37-2.6-13.37-5.81,6-5.81,13.37-5.81S2372.61,910.75,2372.61,914Z" transform="translate(-1225.02 -298.18)"/><path class="cls-9" d="M2399.74,928.59c0,3-4.86,5.52-10.86,5.52s-10.85-2.47-10.85-5.52,4.86-5.52,10.85-5.52S2399.74,925.54,2399.74,928.59Z" transform="translate(-1225.02 -298.18)"/><path class="cls-9" d="M2433.84,928.59c0,3-4.86,5.52-10.85,5.52s-10.85-2.47-10.85-5.52,4.85-5.52,10.85-5.52S2433.84,925.54,2433.84,928.59Z" transform="translate(-1225.02 -298.18)"/><path class="cls-9" d="M2417.17,916.19c0,3-4.85,5.52-10.85,5.52s-10.85-2.47-10.85-5.52,4.86-5.53,10.85-5.53S2417.17,913.14,2417.17,916.19Z" transform="translate(-1225.02 -298.18)"/><rect class="cls-9" x="1161.35" y="632.64" width="5.43" height="40.5"/><path class="cls-9" d="M2384.23,939.44c0,3-4.85,5.52-10.85,5.52s-10.85-2.47-10.85-5.52,4.86-5.52,10.85-5.52S2384.23,936.39,2384.23,939.44Z" transform="translate(-1225.02 -298.18)"/><rect class="cls-9" x="1145.85" y="643.49" width="5.43" height="40.5"/><rect class="cls-9" x="1131.51" y="619.46" width="5.43" height="40.5"/><rect class="cls-9" x="1195.45" y="632.44" width="5.42" height="40.5"/><rect class="cls-9" x="1178.59" y="622.17" width="5.42" height="42.82"/><path class="cls-9" d="M2441.59,956.31v46.78H2056.38V876.75H2115l22.73-41.07,142.1-.69,14-.06C2288,916.79,2365.27,977.23,2441.59,956.31Z" transform="translate(-1225.02 -298.18)"/><path class="cls-5" d="M2441.59,956.31v14.41c-85.88,20.85-167.32-47.52-161.73-135.73l14-.06C2288,916.79,2365.27,977.23,2441.59,956.31Z" transform="translate(-1225.02 -298.18)"/><path class="cls-5" d="M2347.81,982.16h-272V888.38a2.33,2.33,0,0,0-4.65,0v96.11a2.32,2.32,0,0,0,2.32,2.32h274.38a2.33,2.33,0,0,0,0-4.65Z" transform="translate(-1225.02 -298.18)"/><rect class="cls-2" x="1674.79" y="1015.58" width="955.8" height="38.37" rx="13.76" transform="translate(3080.36 1771.35) rotate(180)"/><polygon class="cls-12" points="594.2 655.34 576.3 657.02 559.98 506.37 565.57 477.18 577.88 504.69 594.2 655.34"/><path class="cls-3" d="M1802.92,803.14l0-.27-8.55-19.11-5.46.47-3.8,19.82C1790.67,804.07,1797.13,804.5,1802.92,803.14Z" transform="translate(-1225.02 -298.18)"/><path class="cls-9" d="M1822.46,960.55l-17.89-1.75,16.51-134.73c.55-4.88,4.37-15.47,9.26-15h0c5,.49,5.5,11.72,4.94,16.71Z" transform="translate(-1225.02 -298.18)"/><path class="cls-9" d="M1829.51,821.44h-.13a1,1,0,0,1-.89-1.15l2.4-19.16a1,1,0,0,1,2,.25l-2.39,19.17A1,1,0,0,1,1829.51,821.44Z" transform="translate(-1225.02 -298.18)"/><path class="cls-13" d="M539.78,590.73h79.9a0,0,0,0,1,0,0V705.15a12.38,12.38,0,0,1-12.38,12.38H552.16a12.38,12.38,0,0,1-12.38-12.38V590.73A0,0,0,0,1,539.78,590.73Z"/><path class="cls-11" d="M1812.53,1001V888.91h-47.74V1001a14.72,14.72,0,0,0,14.72,14.72h18.3A14.72,14.72,0,0,0,1812.53,1001Z" transform="translate(-1225.02 -298.18)"/><path class="cls-11" d="M2393.31,850.24l-3.72,7.92a5.33,5.33,0,0,1-5.72,3h0a5.33,5.33,0,0,1-3.88-7.65L2399.3,815l14.06,2.39,5.68,42.7a5.34,5.34,0,0,1-6.19,6l-.48-.08a5.35,5.35,0,0,1-4.4-4.6l-1.09-8.85Zm13.38-6-1.24-10.55c-.36-3-.61-6.61-.83-9.55l-.15,0c-1.18,2.69-2.49,6.16-3.73,8.77l-4.52,9.57Z" transform="translate(-1225.02 -298.18)"/><path class="cls-10" d="M2305.12,768.09a111.86,111.86,0,0,1,15.85-9c7.75-3.71,12.85-5.23,18.09-4.77a13.53,13.53,0,0,1,12,7.76c2.39,5,1.71,11.06-3.5,16.42l.08.17c7.25-1.33,14.32,1.23,17.79,8.48a16.56,16.56,0,0,1-.12,14.7c-2.53,5.21-8.48,10.32-19.64,15.67a109.5,109.5,0,0,1-14.14,5.75ZM2328,783.55l4.16-2c6.67-3.19,8.93-7.66,6.93-11.82s-6.36-4.94-12.11-2.19a37.78,37.78,0,0,0-5.25,2.93Zm11.93,24.9a45.43,45.43,0,0,0,5-2.18c5.75-2.76,9.79-7.36,7-13.27-2.71-5.67-8.87-5.48-15.2-2.45l-4.33,2.08Z" transform="translate(-1225.02 -298.18)"/><path class="cls-10" d="M2412.85,727.66a6.24,6.24,0,0,1-3.9,7.87,57.75,57.75,0,0,1-11.31,2.55c-23.33,3-37.22-10-39.69-29.19-3-23,11.8-38,32.23-40.61a52.85,52.85,0,0,1,10.67-.32,6.22,6.22,0,0,1,5.63,7l0,.23a6.24,6.24,0,0,1-6.72,5.45,34.24,34.24,0,0,0-7.22.18c-12.12,1.56-20.59,10.09-18.66,25.11,1.74,13.52,10.85,21,24.47,19.25a41.09,41.09,0,0,0,6.82-1.53,6.21,6.21,0,0,1,7.71,4Z" transform="translate(-1225.02 -298.18)"/><path class="cls-11" d="M2256.68,587.42a175,175,0,0,1,24.71-10.08c15.71-5.19,26.83-5.73,36.79-2.36,10.7,3.55,19.47,11.95,24.29,26.55,5.23,15.84,3.08,28.66-2.67,38.05-6.32,10.12-18.44,17.94-34.64,23.29a171.37,171.37,0,0,1-21.64,5.79Zm41.08,61.29a36.72,36.72,0,0,0,6.63-1.78c17-5.48,24.93-18.45,18.4-38.21-5.55-17.22-18.61-23-34.69-17.67a41,41,0,0,0-8.23,3.54Z" transform="translate(-1225.02 -298.18)"/><path class="cls-10" d="M3200,1344.2a8.5,8.5,0,1,1-9.43-7.46A8.5,8.5,0,0,1,3200,1344.2Z" transform="translate(-1225.02 -298.18)"/><path class="cls-8" d="M3187.38,1349.85a5.5,5.5,0,1,0,4-8.47,5.5,5.5,0,0,0-4,8.47Z" transform="translate(-1225.02 -298.18)"/><path class="cls-10" d="M3242.64,1357a8.5,8.5,0,1,0,12-1A8.51,8.51,0,0,0,3242.64,1357Z" transform="translate(-1225.02 -298.18)"/><path class="cls-8" d="M3244.34,1367.88a5.5,5.5,0,0,0,8.15-7.22,5.4,5.4,0,0,0-1.06-1.18,5.5,5.5,0,1,0-7.09,8.4Z" transform="translate(-1225.02 -298.18)"/><path class="cls-10" d="M3204.3,1344a8.5,8.5,0,1,0,8.53-8.48A8.51,8.51,0,0,0,3204.3,1344Z" transform="translate(-1225.02 -298.18)"/><path class="cls-8" d="M3212.57,1351.17a5.5,5.5,0,1,0-5.47-5.51A5.5,5.5,0,0,0,3212.57,1351.17Z" transform="translate(-1225.02 -298.18)"/><path class="cls-10" d="M3166.53,1358.58a8.5,8.5,0,1,0,1.09-12A8.49,8.49,0,0,0,3166.53,1358.58Z" transform="translate(-1225.02 -298.18)"/><path class="cls-8" d="M3169.77,1358.09a5.5,5.5,0,1,0,.7-7.74A5.5,5.5,0,0,0,3169.77,1358.09Z" transform="translate(-1225.02 -298.18)"/><path class="cls-10" d="M3230.82,1456.69a8.5,8.5,0,1,1,11.41,3.78A8.5,8.5,0,0,1,3230.82,1456.69Z" transform="translate(-1225.02 -298.18)"/><path class="cls-8" d="M3232.89,1454.48a5.5,5.5,0,1,0,2.12-7.94,5.5,5.5,0,0,0-2.12,7.94Z" transform="translate(-1225.02 -298.18)"/><path class="cls-10" d="M3259.31,1427.9a8.5,8.5,0,1,1,11.17-4.44A8.51,8.51,0,0,1,3259.31,1427.9Z" transform="translate(-1225.02 -298.18)"/><path class="cls-8" d="M3256.45,1422.63a5.5,5.5,0,1,0,6.77-8.07,5.51,5.51,0,0,0-6.77,8.07Z" transform="translate(-1225.02 -298.18)"/><path class="cls-10" d="M3262.62,1387.53a8.5,8.5,0,1,1,5.71-10.58A8.5,8.5,0,0,1,3262.62,1387.53Z" transform="translate(-1225.02 -298.18)"/><path class="cls-8" d="M3263.46,1382.68a5.49,5.49,0,1,0-10.1-1A5.47,5.47,0,0,0,3263.46,1382.68Z" transform="translate(-1225.02 -298.18)"/><path class="cls-10" d="M3257.38,1431.72a8.5,8.5,0,1,0,3.07,11.62A8.5,8.5,0,0,0,3257.38,1431.72Z" transform="translate(-1225.02 -298.18)"/><path class="cls-8" d="M3253.15,1443.36a5.5,5.5,0,1,0-6.16-8.08A5.51,5.51,0,0,0,3253.15,1443.36Z" transform="translate(-1225.02 -298.18)"/><path class="cls-10" d="M3239.22,1354.47a8.5,8.5,0,1,1-2.43-11.77A8.5,8.5,0,0,1,3239.22,1354.47Z" transform="translate(-1225.02 -298.18)"/><path class="cls-8" d="M3228.34,1355.92a5.49,5.49,0,1,0-1.58-1.58A5.57,5.57,0,0,0,3228.34,1355.92Z" transform="translate(-1225.02 -298.18)"/><path class="cls-10" d="M3263.6,1391.7a8.5,8.5,0,1,0,9.83,6.93A8.5,8.5,0,0,0,3263.6,1391.7Z" transform="translate(-1225.02 -298.18)"/><path class="cls-8" d="M3264.29,1405.58a5.5,5.5,0,1,0-6.35-4.48A5.51,5.51,0,0,0,3264.29,1405.58Z" transform="translate(-1225.02 -298.18)"/><path class="cls-8" d="M3178.14,1359.83l-1.34.88,56.17,85.71,1.35-.87-25-38.32,36.7,27.29,1-1.28-38.25-28.45,45.61,13.86.46-1.54-43.76-13.29,45.66-2.69-.09-1.6-47.59,2.8,43.85-18.7-.63-1.48-42.08,17.95,33.25-31.42-1.1-1.17-34.65,32.74,21.57-42.51-1.43-.72-20.7,40.79,5.28-45.44-1.6-.18-5.5,47.35-10.81-46.43-1.56.36L3203.3,1398Z" transform="translate(-1225.02 -298.18)"/><rect class="cls-8" x="3011.63" y="1455.92" width="214.8" height="6.87" transform="translate(-1514.74 1649.49) rotate(-33.23)"/><path class="cls-10" d="M3113.52,1126.92a14.39,14.39,0,1,1-20.08-3.3A14.38,14.38,0,0,1,3113.52,1126.92Z" transform="translate(-1225.02 -298.18)"/><path class="cls-8" d="M3099.43,1145.66c8.68,4.57,17.6-5.71,11.91-13.65a9.3,9.3,0,1,0-11.91,13.65Z" transform="translate(-1225.02 -298.18)"/><path class="cls-10" d="M3187.15,1111a14.39,14.39,0,1,0,16.91-11.32A14.39,14.39,0,0,0,3187.15,1111Z" transform="translate(-1225.02 -298.18)"/><path class="cls-8" d="M3198.56,1125.64a9.31,9.31,0,0,0,6.16-17.36,9.37,9.37,0,0,0-9.52.5A9.32,9.32,0,0,0,3198.56,1125.64Z" transform="translate(-1225.02 -298.18)"/><path class="cls-10" d="M3119.66,1123.05a14.39,14.39,0,1,0,5.68-19.54A14.4,14.4,0,0,0,3119.66,1123.05Z" transform="translate(-1225.02 -298.18)"/><path class="cls-8" d="M3137.83,1127a9.32,9.32,0,0,0-.13-16.38c-8.24-4.34-16.87,4.76-12.5,12.71A9.29,9.29,0,0,0,3137.83,1127Z" transform="translate(-1225.02 -298.18)"/><path class="cls-10" d="M3075.72,1175.69a14.39,14.39,0,1,0-8.21-18.62A14.38,14.38,0,0,0,3075.72,1175.69Z" transform="translate(-1225.02 -298.18)"/><path class="cls-8" d="M3080.11,1172.31a9.3,9.3,0,1,0-5.31-12A9.32,9.32,0,0,0,3080.11,1172.31Z" transform="translate(-1225.02 -298.18)"/><path class="cls-10" d="M3251.38,1268.24a14.39,14.39,0,1,1,20-3.75A14.38,14.38,0,0,1,3251.38,1268.24Z" transform="translate(-1225.02 -298.18)"/><path class="cls-8" d="M3252.63,1263.27a9.3,9.3,0,1,0-3.36-13.49,9.28,9.28,0,0,0,3.36,13.49Z" transform="translate(-1225.02 -298.18)"/><path class="cls-10" d="M3270,1202.25a14.39,14.39,0,1,1,12.9-15.74A14.4,14.4,0,0,1,3270,1202.25Z" transform="translate(-1225.02 -298.18)"/><path class="cls-8" d="M3261.4,1196.79a9.31,9.31,0,1,0,3.41-17.5c-9.15.9-11.55,13.2-3.41,17.5Z" transform="translate(-1225.02 -298.18)"/><path class="cls-10" d="M3241.76,1139.75a14.39,14.39,0,1,1-.22-20.35A14.39,14.39,0,0,1,3241.76,1139.75Z" transform="translate(-1225.02 -298.18)"/><path class="cls-8" d="M3239,1131.87a9.3,9.3,0,1,0-15.81,6.76A9.26,9.26,0,0,0,3239,1131.87Z" transform="translate(-1225.02 -298.18)"/><path class="cls-10" d="M3270.24,1209.49a14.39,14.39,0,1,0,14.08,14.69A14.4,14.4,0,0,0,3270.24,1209.49Z" transform="translate(-1225.02 -298.18)"/><path class="cls-8" d="M3273.51,1230.19a9.3,9.3,0,1,0-15.73-6.92A9.31,9.31,0,0,0,3273.51,1230.19Z" transform="translate(-1225.02 -298.18)"/><path class="cls-10" d="M3180,1110a14.39,14.39,0,1,1-13.25-15.45A14.39,14.39,0,0,1,3180,1110Z" transform="translate(-1225.02 -298.18)"/><path class="cls-8" d="M3165.06,1121.06a9.3,9.3,0,1,0-3.62-1A9.32,9.32,0,0,0,3165.06,1121.06Z" transform="translate(-1225.02 -298.18)"/><path class="cls-10" d="M3246.63,1145.12a14.39,14.39,0,1,0,20.23,2.2A14.39,14.39,0,0,0,3246.63,1145.12Z" transform="translate(-1225.02 -298.18)"/><path class="cls-8" d="M3259,1165.12a9.31,9.31,0,1,0-13.08-1.43A9.33,9.33,0,0,0,3259,1165.12Z" transform="translate(-1225.02 -298.18)"/><path class="cls-8" d="M3093.94,1168l-1.26,2.4,153.47,80.87,1.27-2.4L3179,1212.62l76.74,10.32.36-2.69-80-10.76,78.9-16.88-.57-2.66-75.71,16.21,65.42-41.43-1.46-2.29-68.17,43.16,49.59-63.65-2.14-1.66-47.59,61.08,23.47-73.8-2.59-.82-24.46,76.89-2.92-80.63-2.71.1,2.8,77.39-29.45-71.62-2.51,1,30.69,74.62-54.09-59.87-2,1.82,51.91,57.46Z" transform="translate(-1225.02 -298.18)"/><rect class="cls-8" x="2906.23" y="1358.05" width="363.6" height="11.63" transform="translate(-783.35 3161.59) rotate(-62.21)"/><path class="cls-5" d="M3016.88,1531.1S2899.11,1443.68,2883,1406s17.14-33.42,17.14-33.42-47.55-67.38-34.93-89.64,38.88,6.17,38.88,6.17-22.06-91.15-2.88-96.22c35.73-9.44,65,88.65,65,88.65s-2.63-40.72,19.74-35.24c33.72,8.27,15.88,96,15.88,96s10.75-15.55,29.24-.76C3064.27,1368.05,3016.88,1531.1,3016.88,1531.1Z" transform="translate(-1225.02 -298.18)"/><path class="cls-4" d="M3036.07,1343.78c-18.49-14.8-34.23-1.51-34.23-1.51s17.84-87.69-15.88-96c-22.37-5.48-19.74,35.24-19.74,35.24s-29.31-98.09-65-88.65l116.57,337.92C3023,1509.71,3067.07,1368.56,3036.07,1343.78Z" transform="translate(-1225.02 -298.18)"/><path class="cls-7" d="M3016.72,1528.06s-120.68-.13-145.59-21,5.64-22.54,5.64-22.54-57.67-30.62-56.83-51,20.39-16.3,20.39-16.3-39.86-35.72-31.68-53c12.58-26.6,69.59,23.85,69.59,23.85s-4.36-20.23,13.33-24.46c26.66-6.37,53.72,69.45,53.72,69.45s-12.75-34.16,5.56-30.36C2983.72,1409.4,3016.72,1528.06,3016.72,1528.06Z" transform="translate(-1225.02 -298.18)"/><path class="cls-4" d="M3021.73,1534.78s107.12-91.41,120.19-128.23-18.33-30.76-18.33-30.76,41.15-67,27.79-87.4-32.28-8.34-32.28-8.34,11.12-71.5-7.43-75.16c-34.57-6.81-56.51,88.3-56.51,88.3s0-38.91-20.91-32.34c-31.58,9.92-9.29,92.26-9.29,92.26s-11.66-30.78-28.36-15.59C2966.64,1364.78,3021.73,1534.78,3021.73,1534.78Z" transform="translate(-1225.02 -298.18)"/><path class="cls-5" d="M2989.37,1330.94c19.36-11.61,31,3.88,31,3.88s-17.7-64,13.88-74c20.94-6.57,20.91,32.34,20.91,32.34s21.94-95.11,56.51-88.3l-90.42,328.58C3015,1513.71,2966.31,1344.78,2989.37,1330.94Z" transform="translate(-1225.02 -298.18)"/><path class="cls-6" d="M3032.52,1521.66s117.66,0,134-1.86-1.71-16.52-1.71-16.52,36.61,1.34,42.19-7.57-9.37-12.41-9.37-12.41,36.46-10.57,34.72-18.32c-3.24-14.45-43.51-5-43.51-5s15-7.26,8.87-14c-9.16-10.18-48.32,17.5-48.32,17.5s14.7-27.81,6-31.33C3139.89,1425.79,3032.52,1521.66,3032.52,1521.66Z" transform="translate(-1225.02 -298.18)"/><path class="cls-8" d="M3117.46,1654.1H2921.62c-24.94-22.78-40.13-54.16-39.58-88.58.28-17.38,3.86-32.53,11.32-47.41l252.49,2.84a112.35,112.35,0,0,1,10.45,49.1C3155.77,1602.84,3141,1632.4,3117.46,1654.1Z" transform="translate(-1225.02 -298.18)"/></svg>